<?xml version="1.0" encoding="UTF-8" standalone="no"?>
<!-- Created with Inkscape (http://www.inkscape.org/) -->

<svg
   version="1.1"
   id="svg2"
   xml:space="preserve"
   width="573.64178"
   height="289.57941"
   viewBox="0 0 573.64178 289.57941"
   sodipodi:docname="figure_motivation.svg"
   inkscape:version="1.1 (ce6663b3b7, 2021-05-25)"
   xmlns:inkscape="http://www.inkscape.org/namespaces/inkscape"
   xmlns:sodipodi="http://sodipodi.sourceforge.net/DTD/sodipodi-0.dtd"
   xmlns="http://www.w3.org/2000/svg"
   xmlns:svg="http://www.w3.org/2000/svg"><defs
     id="defs6"><clipPath
       clipPathUnits="userSpaceOnUse"
       id="clipPath30"><path
         d="M -1021,-463 H 1794 V 1233 H -1021 Z"
         id="path28" /></clipPath><clipPath
       clipPathUnits="userSpaceOnUse"
       id="clipPath64"><path
         d="M -1016,-351 H 1660 V 1068 H -1016 Z"
         id="path62" /></clipPath><clipPath
       clipPathUnits="userSpaceOnUse"
       id="clipPath120"><path
         d="M 38.27,236.39024 H 157.4975 V 383.69592 H 38.27 Z"
         id="path118" /></clipPath><clipPath
       clipPathUnits="userSpaceOnUse"
       id="clipPath130"><path
         d="M 38.27,236.39024 H 157.4975 V 383.69592 H 38.27 Z"
         id="path128" /></clipPath><clipPath
       clipPathUnits="userSpaceOnUse"
       id="clipPath140"><path
         d="M 38.27,236.39024 H 157.4975 V 383.69592 H 38.27 Z"
         id="path138" /></clipPath><clipPath
       clipPathUnits="userSpaceOnUse"
       id="clipPath150"><path
         d="M 38.27,236.39024 H 157.4975 V 383.69592 H 38.27 Z"
         id="path148" /></clipPath><clipPath
       clipPathUnits="userSpaceOnUse"
       id="clipPath160"><path
         d="M 38.27,236.39024 H 157.4975 V 383.69592 H 38.27 Z"
         id="path158" /></clipPath><clipPath
       clipPathUnits="userSpaceOnUse"
       id="clipPath170"><path
         d="M 38.27,236.39024 H 157.4975 V 383.69592 H 38.27 Z"
         id="path168" /></clipPath><clipPath
       clipPathUnits="userSpaceOnUse"
       id="clipPath180"><path
         d="M 38.27,236.39024 H 157.4975 V 383.69592 H 38.27 Z"
         id="path178" /></clipPath><clipPath
       clipPathUnits="userSpaceOnUse"
       id="clipPath208"><path
         d="M -1021,-463 H 1794 V 1233 H -1021 Z"
         id="path206" /></clipPath><clipPath
       clipPathUnits="userSpaceOnUse"
       id="clipPath242"><path
         d="M -1016,-351 H 1660 V 1068 H -1016 Z"
         id="path240" /></clipPath><clipPath
       clipPathUnits="userSpaceOnUse"
       id="clipPath292"><path
         d="M 203.7375,236.39024 H 322.965 V 383.69592 H 203.7375 Z"
         id="path290" /></clipPath><clipPath
       clipPathUnits="userSpaceOnUse"
       id="clipPath302"><path
         d="M 203.7375,236.39024 H 322.965 V 383.69592 H 203.7375 Z"
         id="path300" /></clipPath><clipPath
       clipPathUnits="userSpaceOnUse"
       id="clipPath312"><path
         d="M 203.7375,236.39024 H 322.965 V 383.69592 H 203.7375 Z"
         id="path310" /></clipPath><clipPath
       clipPathUnits="userSpaceOnUse"
       id="clipPath322"><path
         d="M 203.7375,236.39024 H 322.965 V 383.69592 H 203.7375 Z"
         id="path320" /></clipPath><clipPath
       clipPathUnits="userSpaceOnUse"
       id="clipPath332"><path
         d="M 203.7375,236.39024 H 322.965 V 383.69592 H 203.7375 Z"
         id="path330" /></clipPath><clipPath
       clipPathUnits="userSpaceOnUse"
       id="clipPath342"><path
         d="M 203.7375,236.39024 H 322.965 V 383.69592 H 203.7375 Z"
         id="path340" /></clipPath><clipPath
       clipPathUnits="userSpaceOnUse"
       id="clipPath352"><path
         d="M 203.7375,236.39024 H 322.965 V 383.69592 H 203.7375 Z"
         id="path350" /></clipPath><clipPath
       clipPathUnits="userSpaceOnUse"
       id="clipPath380"><path
         d="M -1021,-463 H 1794 V 1233 H -1021 Z"
         id="path378" /></clipPath><clipPath
       clipPathUnits="userSpaceOnUse"
       id="clipPath414"><path
         d="M -1016,-351 H 1660 V 1068 H -1016 Z"
         id="path412" /></clipPath><clipPath
       clipPathUnits="userSpaceOnUse"
       id="clipPath464"><path
         d="M 369.205,236.39024 H 488.4325 V 383.69592 H 369.205 Z"
         id="path462" /></clipPath><clipPath
       clipPathUnits="userSpaceOnUse"
       id="clipPath474"><path
         d="M 369.205,236.39024 H 488.4325 V 383.69592 H 369.205 Z"
         id="path472" /></clipPath><clipPath
       clipPathUnits="userSpaceOnUse"
       id="clipPath484"><path
         d="M 369.205,236.39024 H 488.4325 V 383.69592 H 369.205 Z"
         id="path482" /></clipPath><clipPath
       clipPathUnits="userSpaceOnUse"
       id="clipPath494"><path
         d="M 369.205,236.39024 H 488.4325 V 383.69592 H 369.205 Z"
         id="path492" /></clipPath><clipPath
       clipPathUnits="userSpaceOnUse"
       id="clipPath504"><path
         d="M 369.205,236.39024 H 488.4325 V 383.69592 H 369.205 Z"
         id="path502" /></clipPath><clipPath
       clipPathUnits="userSpaceOnUse"
       id="clipPath514"><path
         d="M 369.205,236.39024 H 488.4325 V 383.69592 H 369.205 Z"
         id="path512" /></clipPath><clipPath
       clipPathUnits="userSpaceOnUse"
       id="clipPath524"><path
         d="M 369.205,236.39024 H 488.4325 V 383.69592 H 369.205 Z"
         id="path522" /></clipPath><clipPath
       clipPathUnits="userSpaceOnUse"
       id="clipPath552"><path
         d="M -1021,-463 H 1794 V 1233 H -1021 Z"
         id="path550" /></clipPath><clipPath
       clipPathUnits="userSpaceOnUse"
       id="clipPath586"><path
         d="M -1016,-351 H 1660 V 1068 H -1016 Z"
         id="path584" /></clipPath><clipPath
       clipPathUnits="userSpaceOnUse"
       id="clipPath644"><path
         d="M 534.6725,236.39024 H 653.9 V 383.69592 H 534.6725 Z"
         id="path642" /></clipPath><clipPath
       clipPathUnits="userSpaceOnUse"
       id="clipPath654"><path
         d="M 534.6725,236.39024 H 653.9 V 383.69592 H 534.6725 Z"
         id="path652" /></clipPath><clipPath
       clipPathUnits="userSpaceOnUse"
       id="clipPath664"><path
         d="M 534.6725,236.39024 H 653.9 V 383.69592 H 534.6725 Z"
         id="path662" /></clipPath><clipPath
       clipPathUnits="userSpaceOnUse"
       id="clipPath674"><path
         d="M 534.6725,236.39024 H 653.9 V 383.69592 H 534.6725 Z"
         id="path672" /></clipPath><clipPath
       clipPathUnits="userSpaceOnUse"
       id="clipPath684"><path
         d="M 534.6725,236.39024 H 653.9 V 383.69592 H 534.6725 Z"
         id="path682" /></clipPath><clipPath
       clipPathUnits="userSpaceOnUse"
       id="clipPath694"><path
         d="M 534.6725,236.39024 H 653.9 V 383.69592 H 534.6725 Z"
         id="path692" /></clipPath><clipPath
       clipPathUnits="userSpaceOnUse"
       id="clipPath704"><path
         d="M 534.6725,236.39024 H 653.9 V 383.69592 H 534.6725 Z"
         id="path702" /></clipPath><clipPath
       clipPathUnits="userSpaceOnUse"
       id="clipPath796"><path
         d="M -1021,-463 H 1794 V 1233 H -1021 Z"
         id="path794" /></clipPath><clipPath
       clipPathUnits="userSpaceOnUse"
       id="clipPath830"><path
         d="M -1016,-351 H 1660 V 1068 H -1016 Z"
         id="path828" /></clipPath><clipPath
       clipPathUnits="userSpaceOnUse"
       id="clipPath886"><path
         d="M 38.27,44.408 H 157.4975 V 191.71368 H 38.27 Z"
         id="path884" /></clipPath><clipPath
       clipPathUnits="userSpaceOnUse"
       id="clipPath896"><path
         d="M 38.27,44.408 H 157.4975 V 191.71368 H 38.27 Z"
         id="path894" /></clipPath><clipPath
       clipPathUnits="userSpaceOnUse"
       id="clipPath906"><path
         d="M 38.27,44.408 H 157.4975 V 191.71368 H 38.27 Z"
         id="path904" /></clipPath><clipPath
       clipPathUnits="userSpaceOnUse"
       id="clipPath916"><path
         d="M 38.27,44.408 H 157.4975 V 191.71368 H 38.27 Z"
         id="path914" /></clipPath><clipPath
       clipPathUnits="userSpaceOnUse"
       id="clipPath926"><path
         d="M 38.27,44.408 H 157.4975 V 191.71368 H 38.27 Z"
         id="path924" /></clipPath><clipPath
       clipPathUnits="userSpaceOnUse"
       id="clipPath936"><path
         d="M 38.27,44.408 H 157.4975 V 191.71368 H 38.27 Z"
         id="path934" /></clipPath><clipPath
       clipPathUnits="userSpaceOnUse"
       id="clipPath964"><path
         d="M -1021,-463 H 1794 V 1233 H -1021 Z"
         id="path962" /></clipPath><clipPath
       clipPathUnits="userSpaceOnUse"
       id="clipPath998"><path
         d="M -1016,-351 H 1660 V 1068 H -1016 Z"
         id="path996" /></clipPath><clipPath
       clipPathUnits="userSpaceOnUse"
       id="clipPath1048"><path
         d="M 203.7375,44.408 H 322.965 V 191.71368 H 203.7375 Z"
         id="path1046" /></clipPath><clipPath
       clipPathUnits="userSpaceOnUse"
       id="clipPath1058"><path
         d="M 203.7375,44.408 H 322.965 V 191.71368 H 203.7375 Z"
         id="path1056" /></clipPath><clipPath
       clipPathUnits="userSpaceOnUse"
       id="clipPath1068"><path
         d="M 203.7375,44.408 H 322.965 V 191.71368 H 203.7375 Z"
         id="path1066" /></clipPath><clipPath
       clipPathUnits="userSpaceOnUse"
       id="clipPath1078"><path
         d="M 203.7375,44.408 H 322.965 V 191.71368 H 203.7375 Z"
         id="path1076" /></clipPath><clipPath
       clipPathUnits="userSpaceOnUse"
       id="clipPath1088"><path
         d="M 203.7375,44.408 H 322.965 V 191.71368 H 203.7375 Z"
         id="path1086" /></clipPath><clipPath
       clipPathUnits="userSpaceOnUse"
       id="clipPath1098"><path
         d="M 203.7375,44.408 H 322.965 V 191.71368 H 203.7375 Z"
         id="path1096" /></clipPath><clipPath
       clipPathUnits="userSpaceOnUse"
       id="clipPath1126"><path
         d="M -1021,-463 H 1794 V 1233 H -1021 Z"
         id="path1124" /></clipPath><clipPath
       clipPathUnits="userSpaceOnUse"
       id="clipPath1160"><path
         d="M -1016,-351 H 1660 V 1068 H -1016 Z"
         id="path1158" /></clipPath><clipPath
       clipPathUnits="userSpaceOnUse"
       id="clipPath1210"><path
         d="M 369.205,44.408 H 488.4325 V 191.71368 H 369.205 Z"
         id="path1208" /></clipPath><clipPath
       clipPathUnits="userSpaceOnUse"
       id="clipPath1220"><path
         d="M 369.205,44.408 H 488.4325 V 191.71368 H 369.205 Z"
         id="path1218" /></clipPath><clipPath
       clipPathUnits="userSpaceOnUse"
       id="clipPath1230"><path
         d="M 369.205,44.408 H 488.4325 V 191.71368 H 369.205 Z"
         id="path1228" /></clipPath><clipPath
       clipPathUnits="userSpaceOnUse"
       id="clipPath1240"><path
         d="M 369.205,44.408 H 488.4325 V 191.71368 H 369.205 Z"
         id="path1238" /></clipPath><clipPath
       clipPathUnits="userSpaceOnUse"
       id="clipPath1250"><path
         d="M 369.205,44.408 H 488.4325 V 191.71368 H 369.205 Z"
         id="path1248" /></clipPath><clipPath
       clipPathUnits="userSpaceOnUse"
       id="clipPath1260"><path
         d="M 369.205,44.408 H 488.4325 V 191.71368 H 369.205 Z"
         id="path1258" /></clipPath><clipPath
       clipPathUnits="userSpaceOnUse"
       id="clipPath1288"><path
         d="M -1021,-463 H 1794 V 1233 H -1021 Z"
         id="path1286" /></clipPath><clipPath
       clipPathUnits="userSpaceOnUse"
       id="clipPath1322"><path
         d="M -1016,-351 H 1660 V 1068 H -1016 Z"
         id="path1320" /></clipPath><clipPath
       clipPathUnits="userSpaceOnUse"
       id="clipPath1380"><path
         d="M 534.6725,44.408 H 653.9 V 191.71368 H 534.6725 Z"
         id="path1378" /></clipPath><clipPath
       clipPathUnits="userSpaceOnUse"
       id="clipPath1390"><path
         d="M 534.6725,44.408 H 653.9 V 191.71368 H 534.6725 Z"
         id="path1388" /></clipPath><clipPath
       clipPathUnits="userSpaceOnUse"
       id="clipPath1400"><path
         d="M 534.6725,44.408 H 653.9 V 191.71368 H 534.6725 Z"
         id="path1398" /></clipPath><clipPath
       clipPathUnits="userSpaceOnUse"
       id="clipPath1410"><path
         d="M 534.6725,44.408 H 653.9 V 191.71368 H 534.6725 Z"
         id="path1408" /></clipPath><clipPath
       clipPathUnits="userSpaceOnUse"
       id="clipPath1420"><path
         d="M 534.6725,44.408 H 653.9 V 191.71368 H 534.6725 Z"
         id="path1418" /></clipPath><clipPath
       clipPathUnits="userSpaceOnUse"
       id="clipPath1430"><path
         d="M 534.6725,44.408 H 653.9 V 191.71368 H 534.6725 Z"
         id="path1428" /></clipPath></defs><sodipodi:namedview
     id="namedview4"
     pagecolor="#ffffff"
     bordercolor="#666666"
     borderopacity="1.0"
     inkscape:pageshadow="2"
     inkscape:pageopacity="0.0"
     inkscape:pagecheckerboard="0"
     showgrid="false"
     inkscape:zoom="1.6842891"
     inkscape:cx="280.23693"
     inkscape:cy="109.2449"
     inkscape:window-width="1864"
     inkscape:window-height="1163"
     inkscape:window-x="0"
     inkscape:window-y="0"
     inkscape:window-maximized="1"
     inkscape:current-layer="g8" /><g
     id="g8"
     inkscape:groupmode="layer"
     inkscape:label="figure_demo"
     transform="matrix(1.3333333,0,0,-1.3333333,-298.97978,512.12788)"><g
       id="g108"
       transform="rotate(90,-28.05451,259.88701)"><text
         transform="scale(1,-1)"
         style="font-variant:normal;font-weight:normal;font-size:10px;font-family:'DejaVu Sans';-inkscape-font-specification:DejaVuSans;writing-mode:lr-tb;fill:#000000;fill-opacity:1;fill-rule:nonzero;stroke:none"
         id="text112"><tspan
           x="0 5.6862502 11.80625 17.016251 20.936251 27.08625 31.196251 33.97625 40.096249"
           y="0"
           sodipodi:role="line"
           id="tspan110">Posterior</tspan></text></g><g
       id="g348"
       clip-path="url(#clipPath352)" /><path
       d="M 257.88629,167.31922 H 649.9456 c 2.74181,0 4.11272,0.21571 4.11272,0.64715 v 37.65593 c 0,0.43144 -1.37091,0.64715 -4.11272,0.64715 H 257.88629 c -2.7418,0 -4.11272,-0.21571 -4.11272,-0.64715 v -37.65593 c 0,-0.43144 1.37092,-0.64715 4.11272,-0.64715 z"
       style="fill:#ffffff;fill-opacity:0.8;fill-rule:nonzero;stroke:#cccccc;stroke-width:0.815712;stroke-linecap:butt;stroke-linejoin:miter;stroke-miterlimit:10;stroke-dasharray:none;stroke-opacity:0.8"
       id="path714" /><path
       d="m 258.04282,193.08302 h 20"
       style="fill:none;stroke:#808080;stroke-width:1.5;stroke-linecap:butt;stroke-linejoin:round;stroke-miterlimit:10;stroke-dasharray:5.55, 2.4;stroke-dashoffset:0;stroke-opacity:1"
       id="path722" /><g
       id="g724"
       transform="translate(286.04282,189.58302)"><text
         transform="scale(1,-1)"
         style="font-variant:normal;font-weight:normal;font-size:10px;font-family:'DejaVu Sans';-inkscape-font-specification:DejaVuSans;writing-mode:lr-tb;fill:#000000;fill-opacity:1;fill-rule:nonzero;stroke:none"
         id="text728"><tspan
           x="0 6.3499999 10.24125 16.36125 22.70125 29.04125 35.391251 38.571251 42.491249 46.60125 52.94125 56.861252"
           y="0"
           sodipodi:role="line"
           id="tspan726">ground truth</tspan></text></g><g
       id="g9461"
       transform="translate(-1.4152815e-5,4.5)"><g
         id="g8662"
         transform="translate(63,9)"><path
           d="m 421.53977,179.70332 h 20"
           style="fill:none;stroke:#d62728;stroke-width:1.5;stroke-linecap:square;stroke-linejoin:round;stroke-miterlimit:10;stroke-dasharray:none;stroke-opacity:1"
           id="path738" /><g
           id="g740"
           transform="translate(449.53977,176.20332)"><text
             transform="scale(1,-1)"
             style="font-variant:normal;font-weight:normal;font-size:10px;font-family:'DejaVu Sans';-inkscape-font-specification:DejaVuSans;writing-mode:lr-tb;fill:#000000;fill-opacity:1;fill-rule:nonzero;stroke:none"
             id="text744"><tspan
               x="0 5.5700002 11.93 20.309999 26.978125 33.328125 39.458126 42.638126 51.018124 59.648125 66.488129 74.188126 82.568123 88.918121 92.838127 98.968124 102.88812 108.45812"
               y="0"
               sodipodi:role="line"
               id="tspan742">L1+Ada.+MAD+StatLR</tspan></text></g></g><g
         id="g8668"
         transform="translate(63,9)"><path
           d="m 421.53977,165.03144 h 20"
           style="fill:none;stroke:#ff7f0e;stroke-width:1.5;stroke-linecap:square;stroke-linejoin:round;stroke-miterlimit:10;stroke-dasharray:none;stroke-opacity:1"
           id="path746" /><g
           id="g748"
           transform="translate(449.53977,161.53144)"><text
             transform="scale(1,-1)"
             style="font-variant:normal;font-weight:normal;font-size:10px;font-family:'DejaVu Sans';-inkscape-font-specification:DejaVuSans;writing-mode:lr-tb;fill:#000000;fill-opacity:1;fill-rule:nonzero;stroke:none"
             id="text752"><tspan
               x="0 5.5700002 11.93 20.309999 26.978125 33.328125 39.458126 42.638126 51.018124 59.648125 66.488129 74.188126 82.568123 88.918121 92.838127 98.968124 102.88812 108.45812 115.40813 123.78812 129.81813"
               y="0"
               sodipodi:role="line"
               id="tspan750">L1+Ada.+MAD+StatLR+P4</tspan></text></g></g></g><g
       id="g1088"><path
         d="M 245.27,236.39024 H 364.4975 V 383.69592 H 245.27 Z"
         style="fill:#ffffff;fill-opacity:1;fill-rule:nonzero;stroke:none"
         id="path12" /><g
         id="g50"
         transform="translate(299.38375,216.79649)"><text
           transform="matrix(1,0,0,-1,6.1181641,-1.3125)"
           style="font-variant:normal;font-weight:normal;font-size:7px;font-family:'DejaVu Sans';-inkscape-font-specification:DejaVuSans;writing-mode:lr-tb;fill:#000000;fill-opacity:1;fill-rule:nonzero;stroke:none"
           id="text54"><tspan
             x="0"
             y="0"
             id="tspan52">1</tspan></text><g
           id="g56"
           transform="matrix(0.01,0,0,0.01,0,0.328125)"><g
             id="g58"><g
               id="g60"
               clip-path="url(#clipPath64)"><path
                 d="M 455,347 H 145 c -14,-98 -14,-167 0,-208 18,-51 51,-76 100,-76 48,0 91,25 129,76 32,45 59,114 81,208 z m 15,83 c 8,92 7,154 -4,187 -18,51 -51,77 -98,77 -50,0 -94,-26 -130,-76 -29,-41 -54,-104 -76,-188 z m -88,338 c 78,0 132,-35 164,-104 31,-69 35,-164 11,-286 C 533,256 493,161 435,93 377,24 308,-10 230,-10 152,-10 97,24 66,93 35,161 31,256 55,378 c 24,122 64,217 122,286 58,69 126,104 205,104 z"
                 style="fill:#000000;fill-opacity:1;fill-rule:nonzero;stroke:none"
                 id="path66" /></g></g></g></g><g
         id="g114"
         transform="translate(207)"><g
           id="g116"
           clip-path="url(#clipPath120)"><path
             d="m 38.27,243.08595 56.224339,0.05 0.398755,0.23895 0.398754,1.05178 0.398754,3.65529 0.398754,9.95575 0.398754,20.9856 1.196263,97.97687 h 0.398754 l 0.398754,-26.36351 0.797509,-71.61336 0.398754,-20.9856 0.398756,-9.95575 0.39875,-3.65529 0.39876,-1.05178 0.39875,-0.23895 1.19626,-0.0499 55.02808,-7e-5 v 0"
             style="fill:none;stroke:#808080;stroke-width:1.5;stroke-linecap:butt;stroke-linejoin:round;stroke-miterlimit:10;stroke-dasharray:5.55, 2.4;stroke-dashoffset:0;stroke-opacity:1"
             id="path122" /></g></g><g
         id="g124"
         transform="translate(207)"><g
           id="g126"
           clip-path="url(#clipPath130)"><path
             d="m 38.27,244.37025 7.177575,0.47768 12.760134,0.52878 11.563871,0.37885 15.152659,0.15846 16.348921,0.0781 9.96886,-0.20418 25.91902,-0.683 8.77259,-0.27696 7.17757,-0.46918 4.3863,-0.35477 v 0"
             style="fill:none;stroke:#9467bd;stroke-width:1.5;stroke-linecap:square;stroke-linejoin:round;stroke-miterlimit:10;stroke-dasharray:none;stroke-opacity:1"
             id="path132" /></g></g><g
         id="g134"
         transform="translate(207)"><g
           id="g136"
           clip-path="url(#clipPath140)"><path
             d="m 38.27,243.08595 55.825585,9.4e-4 0.398754,0.26226 0.797509,8.05988 0.398754,1.20067 0.398754,12.46829 0.398754,19.37271 0.797509,52.73506 0.398754,22.43882 0.398754,-0.30763 0.797508,-41.4203 0.398755,-30.14038 0.398754,-19.6929 0.797506,-22.68988 0.39876,-2.22902 0.79751,-0.0585 h 55.82558 v 0"
             style="fill:none;stroke:#d62728;stroke-width:1.5;stroke-linecap:square;stroke-linejoin:round;stroke-miterlimit:10;stroke-dasharray:none;stroke-opacity:1"
             id="path142" /></g></g><g
         id="g144"
         transform="translate(207)"><g
           id="g146"
           clip-path="url(#clipPath150)"><path
             d="m 38.27,243.08595 54.230569,0.0533 0.398754,0.21913 0.398754,0.51544 0.398754,1.327 0.398754,2.15347 0.398754,2.864 0.797509,12.37976 0.797508,17.89214 1.196263,29.59091 0.398754,8.77306 0.398754,2.00645 0.398754,-6.53627 1.993769,-50.46978 0.79751,-12.21483 0.39876,-3.85636 0.39875,-2.37593 0.39875,-1.39439 0.39876,-0.30647 0.39875,0.26094 0.79751,-0.78556 0.79751,-0.0959 52.63555,-1e-4 v 0"
             style="fill:none;stroke:#ff7f0e;stroke-width:1.5;stroke-linecap:square;stroke-linejoin:round;stroke-miterlimit:10;stroke-dasharray:none;stroke-opacity:1"
             id="path152" /></g></g><path
         d="M 245.27,236.39024 V 383.69592"
         style="fill:none;stroke:#000000;stroke-width:0.8;stroke-linecap:square;stroke-linejoin:miter;stroke-miterlimit:10;stroke-dasharray:none;stroke-opacity:1"
         id="path186" /><path
         d="M 245.27,236.39024 H 364.4975"
         style="fill:none;stroke:#000000;stroke-width:0.8;stroke-linecap:square;stroke-linejoin:miter;stroke-miterlimit:10;stroke-dasharray:none;stroke-opacity:1"
         id="path188" /><g
         id="g890"
         transform="translate(207.79751,193.96254)"><g
           id="g892"
           clip-path="url(#clipPath896)"><path
             d="m 38.27,51.130544 11.962625,0.238725 5.582559,0.287432 13.158888,0.954785 4.78505,0.640127 3.190034,0.645071 3.190033,0.881936 6.778821,1.956498 7.975084,1.91204 1.993771,0.287404 1.99377,0.04735 1.993775,-0.230233 1.99377,-0.473655 2.79128,-0.914423 6.77882,-2.318423 3.19003,-0.833141 3.98754,-0.8014 5.58256,-0.901844 3.58879,-0.376823 3.98754,-0.161299 5.98131,-0.220192 9.17135,-0.530541 9.5701,-0.09783 v 0"
             style="fill:none;stroke:#8c564b;stroke-width:1.5;stroke-linecap:square;stroke-linejoin:round;stroke-miterlimit:10;stroke-dasharray:none;stroke-opacity:1"
             id="path898" /></g></g></g><g
       id="g1115"
       transform="translate(-1.0674837)"><path
         d="M 391.2375,236.39024 H 510.465 V 383.69592 H 391.2375 Z"
         style="fill:#ffffff;fill-opacity:1;fill-rule:nonzero;stroke:none"
         id="path190" /><g
         id="g228"
         transform="translate(445.35125,216.79649)"><text
           transform="matrix(1,0,0,-1,6.1181641,-1.3125)"
           style="font-variant:normal;font-weight:normal;font-size:7px;font-family:'DejaVu Sans';-inkscape-font-specification:DejaVuSans;writing-mode:lr-tb;fill:#000000;fill-opacity:1;fill-rule:nonzero;stroke:none"
           id="text232"><tspan
             x="0"
             y="0"
             id="tspan230">2</tspan></text><g
           id="g234"
           transform="matrix(0.01,0,0,0.01,0,0.328125)"><g
             id="g236"><g
               id="g238"
               clip-path="url(#clipPath242)"><path
                 d="M 455,347 H 145 c -14,-98 -14,-167 0,-208 18,-51 51,-76 100,-76 48,0 91,25 129,76 32,45 59,114 81,208 z m 15,83 c 8,92 7,154 -4,187 -18,51 -51,77 -98,77 -50,0 -94,-26 -130,-76 -29,-41 -54,-104 -76,-188 z m -88,338 c 78,0 132,-35 164,-104 31,-69 35,-164 11,-286 C 533,256 493,161 435,93 377,24 308,-10 230,-10 152,-10 97,24 66,93 35,161 31,256 55,378 c 24,122 64,217 122,286 58,69 126,104 205,104 z"
                 style="fill:#000000;fill-opacity:1;fill-rule:nonzero;stroke:none"
                 id="path244" /></g></g></g></g><g
         id="g286"
         transform="translate(187.5)"><g
           id="g288"
           clip-path="url(#clipPath292)"><path
             d="m 203.7375,243.08595 27.51404,0.11014 2.79128,0.24888 1.99377,0.42283 1.59501,0.61899 1.19627,0.71919 1.19626,1.02573 1.19626,1.43082 1.19627,1.95152 1.19626,2.60174 1.19626,3.38918 1.19626,4.31192 1.19627,5.35496 1.19626,6.48734 1.19626,7.66026 1.59502,11.98179 1.59501,13.71844 5.98132,53.84027 1.19626,7.87737 0.79751,4.13728 0.79751,3.12166 0.79751,2.02607 0.39875,0.58461 0.39875,0.29327 h 0.39876 l 0.39875,-0.29327 0.39875,-0.58461 0.39876,-0.87212 0.79751,-2.58222 0.79751,-3.64106 0.7975,-4.60746 1.19627,-8.46823 1.59501,-13.47668 6.38007,-57.30624 1.59502,-10.98629 1.19626,-6.87673 1.19626,-5.72453 1.19626,-4.64742 1.19627,-3.68216 1.19626,-2.84884 1.19626,-2.15333 1.19626,-1.59075 1.19627,-1.14893 1.19626,-0.81154 1.19626,-0.56071 1.59502,-0.47467 1.99377,-0.3175 2.79128,-0.18193 5.58256,-0.0721 21.13397,-0.005 v 0"
             style="fill:none;stroke:#808080;stroke-width:1.5;stroke-linecap:butt;stroke-linejoin:round;stroke-miterlimit:10;stroke-dasharray:5.55, 2.4;stroke-dashoffset:0;stroke-opacity:1"
             id="path294" /></g></g><g
         id="g296"
         transform="translate(187.5)"><g
           id="g298"
           clip-path="url(#clipPath302)"><path
             d="m 203.7375,243.08595 32.29909,0.10884 1.19626,0.21725 0.79751,0.29176 0.79751,0.47261 0.79751,0.70847 0.7975,0.98768 0.79751,1.29092 1.19627,2.52088 1.19626,3.2617 1.19626,4.14966 1.19626,5.21854 1.19627,6.26107 1.99377,11.87875 1.99377,12.97511 1.59501,11.74978 1.99377,16.74424 3.58879,30.91504 1.19626,7.84693 0.79751,3.82161 0.79751,2.52581 0.39876,0.76351 0.39875,0.43525 0.39876,0.11653 0.39875,-0.18893 0.39875,-0.47823 0.39876,-0.74926 0.7975,-2.23113 0.79751,-3.06715 1.19627,-5.82045 1.19626,-6.96245 1.19626,-8.02501 1.59502,-12.38833 2.79128,-22.58141 0.79751,-5.02263 0.7975,-3.81646 0.79751,-2.5301 0.79751,-1.41434 0.79751,-0.75034 0.79751,-0.76457 0.39875,-0.62291 0.39876,-0.89617 0.39875,-1.2324 0.79751,-3.59563 0.79751,-5.01413 3.19003,-22.89913 0.79751,-3.87703 0.79751,-2.89243 0.7975,-2.08602 0.79751,-1.48152 0.79751,-1.05153 0.79751,-0.75506 1.19626,-0.77842 1.19627,-0.52016 1.59501,-0.43817 1.59502,-0.22107 2.79128,-0.10204 17.14643,-0.007 h 8.77259 v 0"
             style="fill:none;stroke:#9467bd;stroke-width:1.5;stroke-linecap:square;stroke-linejoin:round;stroke-miterlimit:10;stroke-dasharray:none;stroke-opacity:1"
             id="path304" /></g></g><g
         id="g306"
         transform="translate(187.5)"><g
           id="g308"
           clip-path="url(#clipPath312)"><path
             d="m 203.7375,243.08595 30.30532,0.077 1.19626,0.22325 0.79751,0.3276 0.79751,0.52416 1.19626,1.13052 2.39252,2.76612 0.79751,1.1566 0.79751,1.49391 0.79751,1.91181 1.19626,3.58666 1.19626,4.26063 1.19627,4.97628 1.19626,6.03203 1.19626,7.2962 3.19004,21.94358 1.99377,14.49344 2.39252,18.98978 2.79128,22.68637 0.79751,4.35137 0.79751,2.70694 0.39875,0.79647 0.39876,0.49436 0.39875,0.25007 0.39876,0.0573 0.39875,-0.0959 0.79751,-0.56046 0.7975,-1.00582 0.79751,-1.48391 0.79751,-2.06502 0.79751,-2.81825 0.79751,-3.74535 1.19626,-7.30464 2.39253,-15.83828 3.19003,-18.85409 1.99377,-14.1028 1.59502,-12.82126 1.99377,-16.13825 1.19626,-7.41201 1.19626,-5.46809 1.19627,-4.27507 1.19626,-3.44732 0.79751,-1.78259 0.7975,-1.32149 0.79751,-0.88797 0.79751,-0.53973 0.79751,-0.29783 1.19626,-0.1918 2.39253,-0.0712 30.70407,-0.003 v 0"
             style="fill:none;stroke:#d62728;stroke-width:1.5;stroke-linecap:square;stroke-linejoin:round;stroke-miterlimit:10;stroke-dasharray:none;stroke-opacity:1"
             id="path314" /></g></g><g
         id="g316"
         transform="translate(187.5)"><g
           id="g318"
           clip-path="url(#clipPath322)"><path
             d="m 203.7375,243.08595 25.91902,0.10447 1.19626,0.20273 1.19627,0.42163 1.19626,0.69757 1.19626,0.95379 1.59502,1.57009 1.59501,1.85578 1.59502,2.13781 1.19626,1.88154 1.19627,2.36208 1.19626,3.07404 1.19626,3.80786 1.59502,5.95677 1.19626,5.15437 1.19626,6.12181 1.19627,7.36342 4.38629,29.26426 1.19626,5.82728 1.19627,4.79495 2.79128,10.57869 1.59501,7.39106 1.59502,7.44006 0.79751,2.74692 0.39875,0.91736 0.39876,0.55263 0.39875,0.16501 0.39875,-0.22309 0.39876,-0.58896 0.79751,-2.09185 1.19626,-4.5081 2.39253,-10.18034 1.19626,-5.90349 1.19626,-7.00783 1.59502,-10.86702 3.58878,-25.39444 1.59502,-9.80892 1.19626,-6.33898 1.19627,-5.10286 1.19626,-3.83338 1.59502,-3.99881 3.98754,-9.54323 1.19626,-1.97333 1.19626,-1.45178 2.39253,-2.37925 1.19626,-0.96397 1.19626,-0.65019 1.19627,-0.34052 1.59501,-0.15857 3.98754,-0.035 21.53273,-8e-5 v 0"
             style="fill:none;stroke:#ff7f0e;stroke-width:1.5;stroke-linecap:square;stroke-linejoin:round;stroke-miterlimit:10;stroke-dasharray:none;stroke-opacity:1"
             id="path324" /></g></g><path
         d="M 391.2375,236.39024 V 383.69592"
         style="fill:none;stroke:#000000;stroke-width:0.8;stroke-linecap:square;stroke-linejoin:miter;stroke-miterlimit:10;stroke-dasharray:none;stroke-opacity:1"
         id="path358" /><path
         d="M 391.2375,236.39024 H 510.465"
         style="fill:none;stroke:#000000;stroke-width:0.8;stroke-linecap:square;stroke-linejoin:miter;stroke-miterlimit:10;stroke-dasharray:none;stroke-opacity:1"
         id="path360" /><g
         id="g1052"
         transform="translate(187.5,190.93932)"><g
           id="g1054"
           clip-path="url(#clipPath1058)"><path
             d="m 203.7375,56.324152 1.99377,0.862409 1.59502,0.440721 1.59501,0.221585 2.39253,0.05743 3.58879,0.06944 1.99377,0.283163 1.99377,0.523205 1.99377,0.762759 1.99377,0.999185 1.99377,1.244161 1.99377,1.500977 1.99377,1.758054 2.39253,2.425351 2.39252,2.7331 2.39253,3.030027 2.39252,3.371665 2.39253,3.792623 2.39252,4.244855 3.98755,7.681287 2.79127,5.144737 1.99378,3.212414 1.59501,2.19568 1.59502,1.82587 1.59502,1.43297 1.19626,0.80222 1.19626,0.55477 1.19626,0.29358 1.19627,0.0198 1.19626,-0.26274 1.19626,-0.54728 1.19626,-0.82504 1.19627,-1.08603 1.59501,-1.80644 1.99377,-2.70817 2.79128,-4.267366 5.18381,-7.990928 4.38629,-6.284934 5.98132,-8.188627 3.58878,-4.598389 2.39253,-2.76649 2.39252,-2.407987 1.99378,-1.694682 1.99377,-1.420407 2.39252,-1.395619 2.39253,-1.13752 3.19003,-1.262536 12.76013,-4.588805 1.59502,-0.421243 v 0"
             style="fill:none;stroke:#8c564b;stroke-width:1.5;stroke-linecap:square;stroke-linejoin:round;stroke-miterlimit:10;stroke-dasharray:none;stroke-opacity:1"
             id="path1060" /></g></g></g><g
       id="g1142"><path
         d="M 534.6725,236.39024 H 653.9 V 383.69592 H 534.6725 Z"
         style="fill:#ffffff;fill-opacity:1;fill-rule:nonzero;stroke:none"
         id="path534" /><g
         id="g572"
         transform="translate(588.78625,216.79649)"><text
           transform="matrix(1,0,0,-1,6.1181641,-1.3125)"
           style="font-variant:normal;font-weight:normal;font-size:7px;font-family:'DejaVu Sans';-inkscape-font-specification:DejaVuSans;writing-mode:lr-tb;fill:#000000;fill-opacity:1;fill-rule:nonzero;stroke:none"
           id="text576"><tspan
             x="0"
             y="0"
             id="tspan574">4</tspan></text><g
           id="g578"
           transform="matrix(0.01,0,0,0.01,0,0.328125)"><g
             id="g580"><g
               id="g582"
               clip-path="url(#clipPath586)"><path
                 d="M 455,347 H 145 c -14,-98 -14,-167 0,-208 18,-51 51,-76 100,-76 48,0 91,25 129,76 32,45 59,114 81,208 z m 15,83 c 8,92 7,154 -4,187 -18,51 -51,77 -98,77 -50,0 -94,-26 -130,-76 -29,-41 -54,-104 -76,-188 z m -88,338 c 78,0 132,-35 164,-104 31,-69 35,-164 11,-286 C 533,256 493,161 435,93 377,24 308,-10 230,-10 152,-10 97,24 66,93 35,161 31,256 55,378 c 24,122 64,217 122,286 58,69 126,104 205,104 z"
                 style="fill:#000000;fill-opacity:1;fill-rule:nonzero;stroke:none"
                 id="path588" /></g></g></g></g><g
         id="g638"><g
           id="g640"
           clip-path="url(#clipPath644)"><path
             d="m 534.6725,243.08625 3.98754,0.0951 1.19626,0.26972 0.79751,0.45074 0.79751,0.88492 0.39875,0.69371 0.39876,0.92186 0.79751,2.74751 0.79751,4.35928 0.7975,6.4608 0.79751,8.95186 0.79751,11.59889 1.19626,21.80827 2.79128,55.04665 0.79751,10.90783 0.39876,3.91792 0.39875,2.78208 0.39875,1.60291 0.39876,0.41386 0.39875,-0.75272 0.39876,-1.86688 0.39875,-2.90236 0.79751,-8.49247 0.79751,-11.24316 1.99377,-33.24352 1.59501,-24.84401 1.19627,-15.04895 1.19626,-11.53869 0.79751,-5.87783 0.79751,-4.62177 0.79751,-3.56232 0.7975,-2.69786 0.79751,-2.01191 0.79751,-1.4803 0.79751,-1.07657 0.79751,-0.77524 1.19626,-0.76692 1.19626,-0.4564 1.59502,-0.33106 2.39252,-0.20886 4.3863,-0.0948 19.1402,-0.0187 16.34892,0.0957 2.79128,0.22668 1.59502,0.33106 1.19626,0.4564 0.79751,0.46661 0.79751,0.65574 0.79751,0.9146 0.7975,1.2641 0.79751,1.72845 0.79751,2.33398 0.79751,3.10649 0.79751,4.06712 0.79751,5.22595 0.7975,6.5738 0.79751,8.07257 1.19627,15.04895 1.19626,18.24168 3.19003,51.08901 0.79751,8.49247 0.39875,2.90236 0.39876,1.86688 0.39875,0.75272 0.39876,-0.41386 0.39875,-1.60291 0.39875,-2.78208 0.79751,-8.89548 0.79751,-12.6794 1.19626,-23.53388 1.99377,-39.82596 0.79751,-12.87329 0.79751,-10.27567 0.79751,-7.66904 0.79751,-5.3521 0.79751,-3.49066 0.7975,-2.12539 0.79751,-1.20646 0.79751,-0.6374 0.79751,-0.31285 1.19626,-0.17904 2.79128,-0.0577 0.79751,-8.3e-4 v 0"
             style="fill:none;stroke:#808080;stroke-width:1.5;stroke-linecap:butt;stroke-linejoin:round;stroke-miterlimit:10;stroke-dasharray:5.55, 2.4;stroke-dashoffset:0;stroke-opacity:1"
             id="path646" /></g></g><g
         id="g648"><g
           id="g650"
           clip-path="url(#clipPath654)"><path
             d="m 534.6725,258.37164 2.39252,16.6187 0.79751,3.46234 0.39876,0.9102 0.39875,0.31741 0.39876,-0.25943 0.39875,-0.78103 0.79751,-2.75073 1.99377,-8.5471 0.79751,-2.41723 0.79751,-1.60908 0.7975,-0.95413 0.79751,-0.47043 0.79751,-0.0984 0.79751,0.21972 0.79751,0.50798 0.79751,0.76063 1.59501,1.99945 1.19627,1.42669 0.7975,0.62969 0.79751,0.2634 0.79751,-0.0759 1.59502,-0.62078 1.19626,-0.33244 3.98754,-0.59703 4.78505,-1.59297 1.19626,-0.0461 1.19627,0.22343 1.99377,0.6731 1.19626,0.52877 0.79751,0.50342 1.19626,1.0835 1.59502,1.61424 0.79751,0.46139 0.39875,0.0709 0.39875,-0.0455 0.79751,-0.41695 0.79751,-0.74698 3.98754,-4.32254 1.19627,-0.82149 0.7975,-0.2291 0.79751,0.12823 0.79751,0.51596 0.79751,0.85757 1.19626,1.72437 1.19626,2.13183 0.79751,1.77159 1.19627,3.40616 1.59501,4.92717 0.39876,0.88916 0.39875,0.60814 0.39876,0.27792 0.39875,-0.0754 0.39875,-0.4221 0.39876,-0.73325 0.79751,-2.14637 1.99377,-5.92223 0.79751,-1.63965 0.7975,-1.16058 0.79751,-0.78463 0.79751,-0.48044 0.79751,-0.20328 0.79751,0.0526 1.19626,0.42417 1.59502,0.64214 0.7975,0.13346 0.79751,-0.0362 1.19626,-0.31038 1.59502,-0.72356 1.99377,-1.25805 1.59502,-0.9267 1.19626,-0.41027 1.59502,-0.23926 1.59501,-0.011 1.19627,0.25108 1.19626,0.54511 3.19003,1.76511 0.79751,0.13672 0.79751,-0.0821 0.79751,-0.30181 1.19626,-0.77623 1.59502,-1.14801 0.79751,-0.34391 0.79751,-0.0643 0.7975,0.22342 1.19627,0.71123 2.79127,2.10458 0.79751,0.8907 0.79751,1.24982 1.19626,2.54002 1.19627,2.57197 0.39875,0.60932 0.39875,0.39198 0.39876,0.13543 0.39875,-0.14114 0.39876,-0.41559 0.79751,-1.53662 2.39252,-5.93062 0.39875,-0.55701 0.39876,-0.34187 0.39875,-0.1255 0.39876,0.0769 0.39875,0.25079 0.79751,0.84637 0.79751,0.91974 0.39875,0.32756 0.39876,0.15918 0.39875,-0.0574 0.39876,-0.3077 0.39875,-0.57431 0.79751,-1.92386 0.79751,-2.76375 3.19003,-12.52253 v 0"
             style="fill:none;stroke:#9467bd;stroke-width:1.5;stroke-linecap:square;stroke-linejoin:round;stroke-miterlimit:10;stroke-dasharray:none;stroke-opacity:1"
             id="path656" /></g></g><g
         id="g658"><g
           id="g660"
           clip-path="url(#clipPath664)"><path
             d="m 534.6725,247.45881 1.19626,3.22844 1.59502,5.11039 2.39252,7.92901 0.79751,1.89802 0.79751,1.33193 1.19626,1.67034 0.79751,1.59178 0.79751,2.23871 1.59502,5.0006 0.7975,1.55821 0.39876,0.36935 0.39875,0.1036 0.39876,-0.11897 0.79751,-0.62644 0.7975,-0.60811 0.39876,-0.12595 0.39875,0.0441 0.39876,0.22065 0.79751,0.88339 1.99377,2.83197 0.7975,0.64428 0.39876,0.12345 0.39875,-0.0368 0.39876,-0.21612 0.39875,-0.40837 0.79751,-1.38997 0.79751,-2.00955 2.39252,-6.5703 1.19627,-2.46702 1.19626,-1.94134 0.79751,-0.99266 0.79751,-0.69767 0.7975,-0.39993 0.79751,-0.17398 1.59502,-0.0326 1.19626,0.19732 1.19626,0.45889 3.19004,1.52422 0.79751,0.0326 0.7975,-0.30441 0.79751,-0.64972 0.79751,-0.98337 0.79751,-1.32251 1.19626,-2.50175 1.19626,-2.4844 0.79751,-1.16007 0.39876,-0.35023 0.39875,-0.18411 0.39875,-0.0227 0.39876,0.12241 0.79751,0.56424 1.59501,1.3313 0.79751,0.30437 0.79751,0.0458 3.19003,-0.3265 1.19627,-0.37542 2.39252,-0.86329 1.99377,-0.60112 2.39253,-1.14656 0.79751,0.0892 0.79751,0.53862 1.19626,1.39316 0.79751,0.9213 0.7975,0.56827 0.39876,0.0931 0.39875,-0.0403 0.79751,-0.41831 1.99377,-1.49159 0.79751,-0.10174 0.79751,0.3584 0.79751,0.74559 1.99377,2.13836 0.79751,0.32622 0.7975,-0.1456 1.19627,-0.77047 0.7975,-0.44775 0.39876,-0.0889 0.39875,0.0363 0.39876,0.1733 0.79751,0.74506 0.7975,1.16859 1.19627,2.20339 3.19003,6.4234 0.79751,0.89007 0.79751,0.39588 0.79751,0.23023 0.39875,0.21319 0.39875,0.36105 0.39876,0.5505 0.79751,1.70263 2.39252,6.42634 0.79751,1.04805 0.39875,0.22321 0.39876,0.0383 0.39875,-0.13154 0.79751,-0.70762 0.79751,-1.1463 1.19626,-1.8581 0.79751,-0.82539 0.79751,-0.33903 2.39252,-0.31109 0.79751,-0.57611 1.19626,-1.3689 1.19627,-1.41224 0.7975,-0.58477 0.79751,-0.23488 4.3863,-0.38173 0.79751,-0.48806 0.79751,-0.94465 0.7975,-1.3611 1.99378,-4.14858 1.19626,-2.88978 0.79751,-2.40368 1.19626,-4.45541 1.99377,-7.78588 v 0"
             style="fill:none;stroke:#d62728;stroke-width:1.5;stroke-linecap:square;stroke-linejoin:round;stroke-miterlimit:10;stroke-dasharray:none;stroke-opacity:1"
             id="path666" /></g></g><g
         id="g668"><g
           id="g670"
           clip-path="url(#clipPath674)"><path
             d="m 534.6725,243.19025 1.19626,0.24753 0.79751,0.35285 0.79751,0.59909 0.79751,0.9538 0.79751,1.44732 0.7975,2.11332 0.79751,2.96661 0.79751,3.9664 0.79751,4.99491 1.19626,9.09626 1.99377,17.49428 3.98754,36.39095 0.79751,5.20489 0.79751,3.8707 0.79751,2.62385 0.79751,1.57479 0.39875,0.44042 0.39876,0.21069 0.39875,-0.0355 0.39875,-0.3097 0.39876,-0.61779 0.39875,-0.95894 0.79751,-3.02963 0.79751,-4.517 0.79751,-5.8149 1.19626,-10.44371 3.19003,-29.60933 1.19627,-9.05119 1.19626,-7.6056 1.19626,-6.33321 1.19626,-5.05708 0.79751,-2.64723 0.79751,-2.08671 0.79751,-1.56947 0.79751,-1.12523 0.79751,-0.78593 1.19626,-0.80386 1.99377,-0.97272 1.19626,-0.39237 1.19626,-0.16809 4.78505,-0.22559 2.79128,-0.40215 2.79128,-0.0863 20.73522,0.026 1.99377,0.1504 5.18381,0.80024 1.19626,0.3989 0.79751,0.47765 1.19626,1.05537 1.19626,1.39328 1.19626,1.76458 0.79751,1.51711 0.79751,1.92458 0.79751,2.41708 1.19626,4.56934 1.19627,5.5095 1.59501,8.46448 1.19626,7.37257 1.19627,8.5794 1.59501,13.19254 3.19004,27.91153 0.7975,5.05496 0.39876,1.83016 0.39875,1.29615 0.39876,0.73666 0.39875,0.17195 0.39876,-0.38187 0.39875,-0.91445 0.39875,-1.42107 0.79751,-4.25675 0.79751,-5.97102 1.19626,-11.57813 3.58879,-38.15524 1.19626,-9.23733 1.19627,-7.22376 1.19626,-5.69438 1.19626,-4.41093 0.79751,-2.26184 0.79751,-1.74607 0.79751,-1.27804 0.7975,-0.87858 0.79751,-0.56119 0.79751,-0.32939 0.79751,-0.17587 v 0"
             style="fill:none;stroke:#ff7f0e;stroke-width:1.5;stroke-linecap:square;stroke-linejoin:round;stroke-miterlimit:10;stroke-dasharray:none;stroke-opacity:1"
             id="path676" /></g></g><path
         d="M 534.6725,236.39024 V 383.69592"
         style="fill:none;stroke:#000000;stroke-width:0.8;stroke-linecap:square;stroke-linejoin:miter;stroke-miterlimit:10;stroke-dasharray:none;stroke-opacity:1"
         id="path710" /><path
         d="M 534.6725,236.39024 H 653.9"
         style="fill:none;stroke:#000000;stroke-width:0.8;stroke-linecap:square;stroke-linejoin:miter;stroke-miterlimit:10;stroke-dasharray:none;stroke-opacity:1"
         id="path712" /><g
         id="g1384"
         transform="translate(0,191.04131)"><g
           id="g1386"
           clip-path="url(#clipPath1390)"><path
             d="m 534.6725,55.027805 1.19626,2.472018 1.59502,4.087142 1.99377,5.858967 1.99377,6.587366 2.39253,8.153465 1.59501,4.561738 2.39253,6.640413 1.99377,6.376385 1.59502,5.883061 1.59501,5.88008 0.79751,1.97011 0.39875,0.48635 0.39876,0.0666 0.39875,-0.39553 0.39876,-0.87294 0.39875,-1.33494 0.79751,-3.84426 2.79128,-16.227481 0.79751,-3.030876 0.79751,-2.072852 0.7975,-1.390515 1.59502,-2.303615 0.79751,-1.577553 1.19626,-3.156267 1.99377,-5.728118 0.79751,-1.814413 0.79751,-1.400393 0.79751,-1.004967 0.79751,-0.674973 1.19626,-0.627821 1.59502,-0.769004 2.79127,-1.581901 1.19627,-0.28679 1.99377,-0.423606 1.99377,-0.521138 1.19626,0.01327 1.59502,0.105767 0.79751,-0.234892 0.79751,-0.542187 1.19626,-1.238869 1.19626,-1.27649 0.79751,-0.638324 0.79751,-0.410262 1.19626,-0.293443 1.59502,-0.302062 1.19626,-0.444545 1.99377,-0.814691 0.79751,-0.11828 0.79751,0.08077 0.79751,0.279977 1.19626,0.693628 2.39252,1.490707 2.79128,1.546591 3.58879,2.530217 2.39252,1.75911 0.79751,0.313504 0.79751,0.04033 0.79751,-0.212759 1.99377,-0.73174 0.39875,0.0195 0.39876,0.135556 0.39875,0.273933 0.39876,0.430591 0.7975,1.375855 0.79751,2.060805 1.19627,4.053144 1.59501,5.543519 0.79751,2.06545 0.79751,1.376677 0.79751,0.801549 1.99377,1.444266 0.79751,0.987786 1.19626,1.993662 1.99377,3.92505 3.58879,7.611363 0.79751,0.990197 0.39875,0.288522 0.39875,0.149541 0.39876,0.0202 0.79751,-0.277892 0.79751,-0.569785 1.19626,-1.209081 0.79751,-1.120411 0.7975,-1.539304 0.79751,-2.049118 1.19627,-3.862725 1.99377,-6.732842 1.59501,-4.444492 5.58256,-14.019265 3.58879,-7.463711 v 0"
             style="fill:none;stroke:#8c564b;stroke-width:1.5;stroke-linecap:square;stroke-linejoin:round;stroke-miterlimit:10;stroke-dasharray:none;stroke-opacity:1"
             id="path1392" /></g></g></g><g
       id="g9449"
       transform="translate(-3.7419951,4.5)"><g
         id="g8656"
         transform="translate(63.40289,11.685131)"><path
           d="m 306.38141,162.4342 h 20"
           style="fill:none;stroke:#9467bd;stroke-width:1.5;stroke-linecap:square;stroke-linejoin:round;stroke-miterlimit:10;stroke-dasharray:none;stroke-opacity:1"
           id="path730" /><g
           id="g732"
           transform="translate(334.38141,158.9342)"><text
             transform="scale(1,-1)"
             style="font-variant:normal;font-weight:normal;font-size:10px;font-family:'DejaVu Sans';-inkscape-font-specification:DejaVuSans;writing-mode:lr-tb;fill:#000000;fill-opacity:1;fill-rule:nonzero;stroke:none"
             id="text736"><tspan
               x="0 5.5700002 11.93 20.309999 26.66 30.58 36.709999 40.630001 46.200001"
               y="0"
               sodipodi:role="line"
               id="tspan734">L1+StatLR</tspan></text></g></g><g
         id="g8650"
         transform="translate(63,8.9667783)"><path
           d="m 306.7843,179.73654 h 20"
           style="fill:none;stroke:#8c564b;stroke-width:1.5;stroke-linecap:square;stroke-linejoin:round;stroke-miterlimit:10;stroke-dasharray:none;stroke-opacity:1"
           id="path1456" /><g
           id="g1458"
           transform="matrix(0.97934341,0,0,0.97934341,335.55457,176.31355)"><text
             transform="scale(1,-1)"
             style="font-variant:normal;font-weight:normal;font-size:10px;font-family:'DejaVu Sans';-inkscape-font-specification:DejaVuSans;writing-mode:lr-tb;fill:#000000;fill-opacity:1;fill-rule:nonzero;stroke:none"
             id="text1462"><tspan
               x="0 5.5700002 11.93 20.309999 26.978125 33.328125 39.458126 42.638126 51.018124 59.648125 66.488129"
               y="0"
               sodipodi:role="line"
               id="tspan1460">L1+Ada.+MAD</tspan></text></g></g></g></g></svg>
