<?xml version="1.0" encoding="UTF-8" standalone="no"?>
<!-- Created with Inkscape (http://www.inkscape.org/) -->

<svg
   width="61.592941mm"
   height="49.439194mm"
   viewBox="0 0 61.592941 49.439193"
   version="1.1"
   id="svg1746"
   inkscape:version="1.2.2 (1:1.2.2+202212051551+b0a8486541)"
   sodipodi:docname="icon_sin.svg"
   xmlns:inkscape="http://www.inkscape.org/namespaces/inkscape"
   xmlns:sodipodi="http://sodipodi.sourceforge.net/DTD/sodipodi-0.dtd"
   xmlns="http://www.w3.org/2000/svg"
   xmlns:svg="http://www.w3.org/2000/svg">
  <sodipodi:namedview
     id="namedview1748"
     pagecolor="#ffffff"
     bordercolor="#000000"
     borderopacity="0.25"
     inkscape:showpageshadow="2"
     inkscape:pageopacity="0.0"
     inkscape:pagecheckerboard="0"
     inkscape:deskcolor="#d1d1d1"
     inkscape:document-units="mm"
     showgrid="false"
     inkscape:zoom="1.1893044"
     inkscape:cx="55.07421"
     inkscape:cy="106.78511"
     inkscape:window-width="1874"
     inkscape:window-height="1043"
     inkscape:window-x="0"
     inkscape:window-y="0"
     inkscape:window-maximized="1"
     inkscape:current-layer="layer1" />
  <defs
     id="defs1743">
    <inkscape:path-effect
       effect="bspline"
       id="path-effect2240"
       is_visible="true"
       lpeversion="1"
       weight="33.333333"
       steps="2"
       helper_size="0"
       apply_no_weight="true"
       apply_with_weight="true"
       only_selected="false" />
  </defs>
  <g
     inkscape:label="Layer 1"
     inkscape:groupmode="layer"
     id="layer1"
     transform="translate(-42.347368,-74.148883)">
    <path
       style="color:#000000;fill:#07529a;stroke-linecap:round;stroke-linejoin:round;-inkscape-stroke:none;fill-opacity:1"
       d="m 58.09375,74.181641 c -0.505975,-0.06485 -1.009095,-0.03443 -1.490234,0.0957 -0.962279,0.260272 -1.798251,0.87301 -2.539063,1.697265 -1.481624,1.648511 -2.673375,4.19245 -3.785156,7.367188 -2.223562,6.349476 -4.039411,15.244567 -5.859375,24.126953 a 0.92932999,0.92932999 0 0 0 0.724609,1.09766 0.92932999,0.92932999 0 0 0 1.095703,-0.72461 c 1.819965,-8.882389 3.644838,-17.752644 5.792969,-23.886722 1.074066,-3.067039 2.250558,-5.445895 3.412109,-6.738281 0.580776,-0.646193 1.134639,-1.007146 1.642579,-1.144531 0.50794,-0.137385 1.008449,-0.09629 1.666015,0.240234 1.315153,0.673058 3.150767,2.740647 5.054688,5.53125 1.903921,2.790603 3.941319,6.286457 6.019531,9.822266 2.078212,3.535808 4.198092,7.112141 6.302734,10.097654 2.104642,2.98552 4.155947,5.39605 6.337891,6.5918 2.181947,1.19575 4.48699,0.93038 6.414062,-0.375 1.927073,-1.30538 3.607833,-3.52798 5.222657,-6.33984 3.229647,-5.623745 6.156011,-13.679806 9.087891,-21.714849 a 0.92932999,0.92932999 0 0 0 -0.55469,-1.191406 0.92932999,0.92932999 0 0 0 -1.1914,0.554687 c -2.931882,8.035043 -5.867388,16.049221 -8.955083,21.425778 -1.543847,2.68828 -3.135226,4.70021 -4.65039,5.72657 -1.515164,1.02635 -2.823168,1.19143 -4.480469,0.2832 -1.657304,-0.90823 -3.670871,-3.13734 -5.710937,-6.03125 -2.040067,-2.893913 -4.145024,-6.437251 -6.220704,-9.968751 -2.075679,-3.5315 -4.123059,-7.050716 -6.085937,-9.927734 -1.962878,-2.877018 -3.775864,-5.131364 -5.744141,-6.138672 -0.492074,-0.251829 -0.999884,-0.411718 -1.505859,-0.476562 z"
       id="path2238" />
    <g
       aria-label="sin(2πat)+b"
       id="text2244"
       style="font-size:10.5833px;font-family:comic-sans;-inkscape-font-specification:comic-sans;stroke-width:1.191;stroke-linecap:round;stroke-linejoin:round;fill:#07529a;fill-opacity:1">
      <path
         d="m 46.460799,116.57561 v 0.89916 q -0.403075,-0.2067 -0.837155,-0.31005 -0.434081,-0.10336 -0.899167,-0.10336 -0.707965,0 -1.064531,0.21704 -0.351399,0.21704 -0.351399,0.65113 0,0.33072 0.253214,0.52193 0.253213,0.18603 1.018022,0.35656 l 0.325561,0.0724 q 1.012854,0.21704 1.4366,0.61495 0.428913,0.39274 0.428913,1.1007 0,0.80615 -0.640786,1.2764 -0.635618,0.47026 -1.751825,0.47026 -0.465087,0 -0.971514,-0.093 -0.50126,-0.0879 -1.059364,-0.26872 v -0.98184 q 0.527098,0.27388 1.038693,0.41341 0.511595,0.13435 1.012855,0.13435 0.671792,0 1.033526,-0.22737 0.361733,-0.23254 0.361733,-0.65112 0,-0.38757 -0.263549,-0.59428 -0.258381,-0.2067 -1.142045,-0.39791 l -0.330728,-0.0775 q -0.883664,-0.18604 -1.276404,-0.56844 -0.39274,-0.38757 -0.39274,-1.05936 0,-0.81649 0.578775,-1.2609 0.578774,-0.44442 1.643305,-0.44442 0.527098,0 0.992184,0.0775 0.465087,0.0775 0.857826,0.23255 z"
         id="path6287"
         style="fill:#07529a;fill-opacity:1" />
      <path
         d="m 48.284972,116.40508 h 0.950843 v 5.78774 h -0.950843 z m 0,-2.25309 h 0.950843 v 1.20406 h -0.950843 z"
         id="path6289"
         style="fill:#07529a;fill-opacity:1" />
      <path
         d="m 56.036411,118.6995 v 3.49332 h -0.950843 v -3.46231 q 0,-0.82165 -0.320393,-1.2299 -0.320393,-0.40824 -0.961179,-0.40824 -0.769976,0 -1.214392,0.49092 -0.444416,0.49093 -0.444416,1.33842 v 3.27111 h -0.956011 v -5.78774 h 0.956011 v 0.89916 q 0.341064,-0.52193 0.800982,-0.78031 0.465087,-0.25838 1.069699,-0.25838 0.997352,0 1.508947,0.62011 0.511595,0.61495 0.511595,1.81384 z"
         id="path6291"
         style="fill:#07529a;fill-opacity:1" />
      <path
         d="m 60.217022,114.16233 q -0.692462,1.18855 -1.028357,2.35127 -0.335896,1.16271 -0.335896,2.35643 0,1.19373 0.335896,2.36678 0.341063,1.16788 1.028357,2.35127 h -0.82682 q -0.775144,-1.2144 -1.162716,-2.38745 -0.382404,-1.17305 -0.382404,-2.3306 0,-1.15238 0.382404,-2.32026 0.382404,-1.16788 1.162716,-2.38744 z"
         id="path6293"
         style="fill:#07529a;fill-opacity:1" />
      <path
         d="m 63.09539,121.31432 h 3.643176 v 0.8785 h -4.89891 v -0.8785 q 0.594277,-0.61495 1.617467,-1.64847 1.028358,-1.03869 1.291907,-1.33842 0.50126,-0.56327 0.69763,-0.95084 0.201537,-0.39274 0.201537,-0.76998 0,-0.61494 -0.43408,-1.00252 -0.428913,-0.38757 -1.121375,-0.38757 -0.490925,0 -1.038693,0.17053 -0.542601,0.17053 -1.162716,0.51677 v -1.0542 q 0.63045,-0.25321 1.178218,-0.3824 0.547769,-0.1292 1.00252,-0.1292 1.198889,0 1.912022,0.59945 0.713132,0.59944 0.713132,1.60196 0,0.47543 -0.180866,0.90434 -0.1757,0.42374 -0.645954,1.00252 -0.129191,0.14986 -0.821653,0.86816 -0.692461,0.71313 -1.953362,1.99987 z"
         id="path6295"
         style="fill:#07529a;fill-opacity:1" />
      <path
         d="m 68.180334,116.40508 h 5.544864 v 0.95084 h -0.728636 v 3.55533 q 0,0.37207 0.124023,0.53743 0.129191,0.1602 0.41341,0.1602 0.07751,0 0.191203,-0.0103 0.113687,-0.0155 0.149861,-0.0207 v 0.68729 q -0.180867,0.0672 -0.372069,0.0982 -0.191202,0.031 -0.382405,0.031 -0.620115,0 -0.857826,-0.3359 -0.237711,-0.34106 -0.237711,-1.25057 v -3.45197 h -2.134229 v 4.8369 h -0.971514 v -4.8369 h -0.738971 z"
         id="path6297"
         style="fill:#07529a;fill-opacity:1" />
      <path
         d="m 77.797287,119.28344 q -1.152381,0 -1.596797,0.26355 -0.444416,0.26355 -0.444416,0.89917 0,0.50643 0.330728,0.80615 0.335896,0.29455 0.909503,0.29455 0.790647,0 1.266068,-0.5581 0.48059,-0.56327 0.48059,-1.49344 v -0.21188 z m 1.896519,-0.39274 v 3.30212 h -0.950843 v -0.8785 q -0.325561,0.5271 -0.811318,0.78031 -0.485757,0.24805 -1.188554,0.24805 -0.888832,0 -1.41593,-0.49609 -0.52193,-0.50126 -0.52193,-1.33842 0,-0.97668 0.651121,-1.47277 0.656289,-0.49609 1.953363,-0.49609 h 1.333248 v -0.093 q 0,-0.65629 -0.434081,-1.01286 -0.428913,-0.36173 -1.209225,-0.36173 -0.496092,0 -0.966346,0.11885 -0.470254,0.11886 -0.904335,0.35657 v -0.8785 q 0.521931,-0.20153 1.012855,-0.29972 0.490925,-0.10335 0.956011,-0.10335 1.255733,0 1.875849,0.65112 0.620115,0.65112 0.620115,1.97403 z"
         id="path6299"
         style="fill:#07529a;fill-opacity:1" />
      <path
         d="m 82.592847,114.76177 v 1.64331 h 1.958531 v 0.73897 h -1.958531 v 3.14191 q 0,0.70797 0.191203,0.90951 0.196369,0.20153 0.790646,0.20153 h 0.976682 v 0.79582 h -0.976682 q -1.100704,0 -1.519282,-0.40824 -0.418578,-0.41341 -0.418578,-1.49862 v -3.14191 h -0.697629 v -0.73897 h 0.697629 v -1.64331 z"
         id="path6301"
         style="fill:#07529a;fill-opacity:1" />
      <path
         d="m 85.652079,114.16233 h 0.82682 q 0.775144,1.21956 1.157549,2.38744 0.387572,1.16788 0.387572,2.32026 0,1.15755 -0.387572,2.3306 -0.382405,1.17305 -1.157549,2.38745 h -0.82682 q 0.687294,-1.18339 1.02319,-2.35127 0.341064,-1.17305 0.341064,-2.36678 0,-1.19372 -0.341064,-2.35643 -0.335896,-1.16272 -1.02319,-2.35127 z"
         id="path6303"
         style="fill:#07529a;fill-opacity:1" />
      <path
         d="m 93.80143,115.55758 v 2.87837 h 2.878368 v 0.8785 H 93.80143 v 2.87837 h -0.868162 v -2.87837 H 90.0549 v -0.8785 h 2.878368 v -2.87837 z"
         id="path6305"
         style="fill:#07529a;fill-opacity:1" />
      <path
         d="m 102.95329,119.30411 q 0,-1.04902 -0.43408,-1.6433 -0.42891,-0.59945 -1.18338,-0.59945 -0.75448,0 -1.18856,0.59945 -0.42891,0.59428 -0.42891,1.6433 0,1.04903 0.42891,1.64848 0.43408,0.59427 1.18856,0.59427 0.75447,0 1.18338,-0.59427 0.43408,-0.59945 0.43408,-1.64848 z m -3.23493,-2.02054 q 0.29972,-0.51676 0.75447,-0.76481 0.45992,-0.25321 1.09554,-0.25321 1.0542,0 1.71048,0.83716 0.66146,0.83715 0.66146,2.2014 0,1.36426 -0.66146,2.20141 -0.65628,0.83716 -1.71048,0.83716 -0.63562,0 -1.09554,-0.24805 -0.45475,-0.25321 -0.75447,-0.76997 v 0.86816 h -0.956011 v -8.04083 h 0.956011 z"
         id="path6307"
         style="fill:#07529a;fill-opacity:1" />
    </g>
  </g>
</svg>
