<?xml version="1.0" encoding="UTF-8" standalone="no"?>
<!-- Created with Inkscape (http://www.inkscape.org/) -->

<svg
   width="36.374924mm"
   height="44.336109mm"
   viewBox="0 0 36.374924 44.336109"
   version="1.1"
   id="svg5"
   xml:space="preserve"
   inkscape:version="1.2.2 (1:1.2.2+202212051551+b0a8486541)"
   sodipodi:docname="icon_sir.svg"
   xmlns:inkscape="http://www.inkscape.org/namespaces/inkscape"
   xmlns:sodipodi="http://sodipodi.sourceforge.net/DTD/sodipodi-0.dtd"
   xmlns="http://www.w3.org/2000/svg"
   xmlns:svg="http://www.w3.org/2000/svg"><sodipodi:namedview
     id="namedview7"
     pagecolor="#ffffff"
     bordercolor="#000000"
     borderopacity="0.25"
     inkscape:showpageshadow="2"
     inkscape:pageopacity="0.0"
     inkscape:pagecheckerboard="0"
     inkscape:deskcolor="#d1d1d1"
     inkscape:document-units="mm"
     showgrid="false"
     inkscape:zoom="3.3638608"
     inkscape:cx="46.226645"
     inkscape:cy="79.373082"
     inkscape:window-width="1874"
     inkscape:window-height="1043"
     inkscape:window-x="0"
     inkscape:window-y="0"
     inkscape:window-maximized="1"
     inkscape:current-layer="layer1" /><defs
     id="defs2"><inkscape:path-effect
       effect="spiro"
       id="path-effect9955"
       is_visible="true"
       lpeversion="1" /><inkscape:path-effect
       effect="spiro"
       id="path-effect9945"
       is_visible="true"
       lpeversion="1" /><inkscape:path-effect
       effect="spiro"
       id="path-effect9935"
       is_visible="true"
       lpeversion="1" /><inkscape:path-effect
       effect="spiro"
       id="path-effect6869"
       is_visible="true"
       lpeversion="1" /><inkscape:path-effect
       effect="spiro"
       id="path-effect6119"
       is_visible="true"
       lpeversion="1" /><inkscape:path-effect
       effect="spiro"
       id="path-effect3893"
       is_visible="true"
       lpeversion="1" /><inkscape:path-effect
       effect="bspline"
       id="path-effect2393"
       is_visible="true"
       lpeversion="1"
       weight="33.333333"
       steps="2"
       helper_size="0"
       apply_no_weight="true"
       apply_with_weight="true"
       only_selected="false" /><inkscape:path-effect
       effect="bspline"
       id="path-effect2052"
       is_visible="true"
       lpeversion="1"
       weight="33.333333"
       steps="2"
       helper_size="0"
       apply_no_weight="true"
       apply_with_weight="true"
       only_selected="false" /></defs><g
     inkscape:label="Layer 1"
     inkscape:groupmode="layer"
     id="layer1"
     transform="translate(-33.035581,-130.5805)"><g
       aria-label="S   I   R"
       id="text236"
       style="font-size:10.5833px;font-family:comic-sans;-inkscape-font-specification:comic-sans;fill:#07529a;stroke-width:1.19089;stroke-linecap:round;stroke-linejoin:round;stroke:none;stroke-opacity:1;fill-opacity:1"><path
         d="m 38.001671,167.3047 v 1.01802 q -0.594277,-0.28422 -1.121375,-0.42374 -0.527098,-0.13953 -1.018023,-0.13953 -0.852658,0 -1.317745,0.33073 -0.459918,0.33073 -0.459918,0.94051 0,0.51159 0.304889,0.77514 0.310058,0.25838 1.167884,0.41858 l 0.630451,0.12919 q 1.167883,0.22221 1.720819,0.78548 0.558104,0.5581 0.558104,1.49861 0,1.12138 -0.754473,1.70015 -0.749306,0.57878 -2.201409,0.57878 -0.547769,0 -1.167884,-0.12403 -0.614948,-0.12402 -1.276404,-0.3669 v -1.07487 q 0.635618,0.35657 1.245398,0.53744 0.60978,0.18086 1.19889,0.18086 0.893999,0 1.379756,-0.35139 0.485757,-0.3514 0.485757,-1.00252 0,-0.56844 -0.351399,-0.88884 -0.346231,-0.32039 -1.142045,-0.48058 l -0.635618,-0.12403 q -1.167884,-0.23254 -1.689814,-0.72863 -0.521931,-0.4961 -0.521931,-1.37976 0,-1.02319 0.7183,-1.6123 0.723468,-0.58911 1.989537,-0.58911 0.542601,0 1.105872,0.0982 0.563271,0.0982 1.152381,0.29455 z"
         id="path17033"
         style="stroke:none;stroke-opacity:1;fill:#07529a;fill-opacity:1" /><path
         d="m 50.186934,167.05149 h 1.043861 v 7.71526 h -1.043861 z"
         id="path17035"
         style="stroke:none;stroke-opacity:1;fill:#07529a;fill-opacity:1" /><path
         d="m 67.059235,171.14942 q 0.335896,0.11368 0.651121,0.48575 0.320393,0.37207 0.640786,1.02319 l 1.059363,2.10839 H 68.28913 l -0.987017,-1.9792 q -0.382404,-0.77514 -0.744138,-1.02835 -0.356566,-0.25322 -0.976681,-0.25322 h -1.136878 v 3.26077 h -1.043861 v -7.71526 h 2.356438 q 1.322912,0 1.974033,0.55293 0.651121,0.55294 0.651121,1.66915 0,0.72863 -0.341063,1.20922 -0.335896,0.48059 -0.981849,0.66663 z m -2.614819,-3.24011 v 2.73885 h 1.312577 q 0.754473,0 1.136878,-0.34624 0.387572,-0.35139 0.387572,-1.02835 0,-0.67696 -0.387572,-1.01803 -0.382405,-0.34623 -1.136878,-0.34623 z"
         id="path17037"
         style="stroke:none;stroke-opacity:1;fill:#07529a;fill-opacity:1" /></g><g
       aria-label="γ"
       id="text1156"
       style="font-size:7.05556px;font-family:comic-sans;-inkscape-font-specification:comic-sans;fill:#07529a;stroke-width:1.19089;stroke-linecap:round;stroke-linejoin:round;stroke:none;stroke-opacity:1;fill-opacity:1"><path
         d="m 56.230016,164.68908 0.844049,2.38401 1.205784,-2.99035 h 0.671794 l -1.560629,3.85851 v 1.46762 h -0.633898 v -1.46762 l -1.012859,-2.8801 q -0.151584,-0.43408 -0.478868,-0.43408 h -0.16881 v -0.54433 h 0.241157 q 0.678684,0 0.89228,0.60634 z"
         id="path17050"
         style="stroke:none;stroke-opacity:1;fill:#07529a;fill-opacity:1" /></g><g
       aria-label="βI"
       id="text1160"
       style="font-size:7.05556px;font-family:comic-sans;-inkscape-font-specification:comic-sans;fill:#07529a;stroke-width:1.19089;stroke-linecap:round;stroke-linejoin:round;stroke:none;stroke-opacity:1;fill-opacity:1"><path
         d="m 41.594147,167.73615 v 1.70532 h -0.637343 v -5.302 q 0,-1.57097 1.467612,-1.57097 1.495172,0 1.495172,1.32637 0,0.94395 -0.592557,1.28846 0.964628,0.31006 0.964628,1.2299 0,1.63298 -1.660537,1.63298 -0.730361,0 -1.036975,-0.31006 z m 0,-0.82682 q 0.382406,0.596 1.06109,0.596 0.992188,0 0.992188,-1.08176 0,-0.97152 -1.598525,-0.89573 v -0.58566 q 1.250571,0 1.250571,-1.10244 0,-0.75447 -0.806153,-0.75447 -0.899171,0 -0.899171,1.07487 z"
         id="path17059"
         style="stroke:none;stroke-opacity:1;fill:#07529a;fill-opacity:1" /><path
         d="m 45.490553,162.83033 h 0.695909 v 5.14353 h -0.695909 z"
         id="path17061"
         style="stroke:none;stroke-opacity:1;fill:#07529a;fill-opacity:1" /></g><g
       id="path2050"
       style="stroke:none;stroke-opacity:1;fill:#07529a;fill-opacity:1"><path
         style="color:#000000;fill:#07529a;stroke-width:1.191;stroke-linecap:round;stroke-linejoin:round;-inkscape-stroke:none;stroke:none;stroke-opacity:1;fill-opacity:1"
         d="m 39.574277,170.86986 c 2.571981,0 5.1437,0 7.715155,0"
         id="path17082" /><path
         style="color:#000000;fill:#07529a;stroke-linecap:round;stroke-linejoin:round;-inkscape-stroke:none;stroke:none;stroke-opacity:1;fill-opacity:1"
         d="m 39.574219,170.27344 a 0.59549999,0.59549999 0 0 0 -0.595703,0.5957 0.59549999,0.59549999 0 0 0 0.595703,0.5957 h 7.714843 a 0.59549999,0.59549999 0 0 0 0.595704,-0.5957 0.59549999,0.59549999 0 0 0 -0.595704,-0.5957 z"
         id="path17084" /><g
         id="g17072"
         style="stroke:none;stroke-opacity:1;fill:#07529a;fill-opacity:1"><g
           id="path17074"
           style="stroke:none;stroke-opacity:1;fill:#07529a;fill-opacity:1"><path
             style="color:#000000;fill:#07529a;fill-rule:evenodd;stroke-width:0.290234pt;-inkscape-stroke:none;stroke:none;stroke-opacity:1;fill-opacity:1"
             d="m 48.96408,170.86986 -2.510521,1.45117 v -2.90234 z"
             id="path17078" /><path
             style="color:#000000;fill:#07529a;fill-rule:evenodd;-inkscape-stroke:none;stroke:none;stroke-opacity:1;fill-opacity:1"
             d="m 46.259766,169.08398 v 3.57227 l 3.091796,-1.78711 -0.291015,-0.16602 z m 0.386718,0.66993 1.931641,1.11718 -1.931641,1.11524 z"
             id="path17080" /></g></g></g><g
       id="path2389"
       style="stroke:none;stroke-opacity:1;fill:#07529a;fill-opacity:1"><path
         style="color:#000000;fill:#07529a;stroke-width:1.191;stroke-linecap:round;stroke-linejoin:round;-inkscape-stroke:none;stroke:none;stroke-opacity:1;fill-opacity:1"
         d="m 52.640076,170.86986 c 2.571981,0 5.1437,0 7.715155,0"
         id="path17102" /><path
         style="color:#000000;fill:#07529a;stroke-linecap:round;stroke-linejoin:round;-inkscape-stroke:none;stroke:none;stroke-opacity:1;fill-opacity:1"
         d="m 52.640625,170.27344 a 0.59549999,0.59549999 0 0 0 -0.595703,0.5957 0.59549999,0.59549999 0 0 0 0.595703,0.5957 h 7.714844 a 0.59549999,0.59549999 0 0 0 0.595703,-0.5957 0.59549999,0.59549999 0 0 0 -0.595703,-0.5957 z"
         id="path17104" /><g
         id="g17092"
         style="stroke:none;stroke-opacity:1;fill:#07529a;fill-opacity:1"><g
           id="path17094"
           style="stroke:none;stroke-opacity:1;fill:#07529a;fill-opacity:1"><path
             style="color:#000000;fill:#07529a;fill-rule:evenodd;stroke-width:0.290234pt;-inkscape-stroke:none;stroke:none;stroke-opacity:1;fill-opacity:1"
             d="m 62.029879,170.86986 -2.510521,1.45117 v -2.90234 z"
             id="path17098" /><path
             style="color:#000000;fill:#07529a;fill-rule:evenodd;-inkscape-stroke:none;stroke:none;stroke-opacity:1;fill-opacity:1"
             d="m 59.326172,169.08398 v 3.57227 l 3.089844,-1.78711 -0.289063,-0.16602 z m 0.386719,0.66993 1.93164,1.11718 -1.93164,1.11524 z"
             id="path17100" /></g></g></g><path
       style="color:#000000;fill:#07399a;stroke-linecap:round;stroke-linejoin:round;-inkscape-stroke:none;stroke:none;stroke-opacity:1;fill-opacity:1"
       d="m 34.191406,130.64062 a 0.82665497,0.82665497 0 0 0 -0.724609,0.91797 0.82665497,0.82665497 0 0 0 0.917969,0.72461 c 1.391109,-0.1634 2.841987,0.0903 4.09375,0.71875 1.251763,0.62847 2.321544,1.64027 3.021484,2.85352 0.806366,1.39772 1.155691,3.11254 1.582031,4.88281 0.778087,3.23081 1.822539,6.35592 2.75,9.47852 0.335656,1.13009 0.666985,2.30443 1.16211,3.45898 0.496037,1.15668 1.163291,2.29777 2.123046,3.22461 1.23744,1.195 2.817431,1.89647 4.400391,2.28906 1.577995,0.39136 3.164605,0.48981 4.695313,0.57617 3.33134,0.18796 6.665846,0.31351 10.001953,0.37305 a 0.82665497,0.82665497 0 0 0 0.841797,-0.8125 0.82665497,0.82665497 0 0 0 -0.8125,-0.8418 c -3.314883,-0.0592 -6.627354,-0.18237 -9.9375,-0.36914 -1.520317,-0.0858 -3.002601,-0.187 -4.390625,-0.53125 -1.383059,-0.34301 -2.689632,-0.94524 -3.650391,-1.87304 -0.745761,-0.72019 -1.313513,-1.66318 -1.751953,-2.68555 -0.439352,-1.02449 -0.758246,-2.13656 -1.097656,-3.2793 -0.937969,-3.15797 -1.970629,-6.25766 -2.726563,-9.39648 -0.414827,-1.72247 -0.766943,-3.60617 -1.755859,-5.32031 -0.86466,-1.49877 -2.166546,-2.72754 -3.712891,-3.50391 -1.546345,-0.77637 -3.310813,-1.08662 -5.029297,-0.88477 z"
       id="path9933" /><path
       style="color:#000000;fill:#07859a;stroke-linecap:round;stroke-linejoin:round;-inkscape-stroke:none;stroke:none;stroke-opacity:1;fill-opacity:1"
       d="m 68.277344,131.57031 c -2.770641,0.0218 -5.532628,0.52789 -8.13086,1.49024 -2.492089,0.92303 -4.85912,2.27846 -6.818359,4.1289 -3.540151,3.34358 -5.425721,7.93041 -6.919922,12.36133 -0.476144,1.41196 -0.914417,2.79569 -1.509766,4.07031 -0.59423,1.27223 -1.356386,2.44486 -2.351562,3.31641 -1.309097,1.14647 -3.062601,1.80195 -4.871094,2.05273 -1.02989,0.14282 -2.078669,0.16373 -3.113281,0.0606 a 0.82665497,0.82665497 0 0 0 -0.904297,0.74024 0.82665497,0.82665497 0 0 0 0.740234,0.90429 c 1.16529,0.11622 2.343936,0.0925 3.503907,-0.0684 2.049301,-0.28417 4.111571,-1.02582 5.732422,-2.44531 1.230434,-1.07758 2.103956,-2.45113 2.761718,-3.85937 0.656644,-1.40586 1.108921,-2.85276 1.578125,-4.24415 1.468842,-4.35572 3.287083,-8.6621 6.488282,-11.68554 1.768825,-1.67061 3.94116,-2.9232 6.257812,-3.78125 2.417205,-0.8953 4.992711,-1.3684 7.570313,-1.38867 a 0.82665497,0.82665497 0 0 0 0.820312,-0.83204 0.82665497,0.82665497 0 0 0 -0.833984,-0.82031 z"
       id="path9943" /><path
       style="color:#000000;fill:#07529a;stroke-linecap:round;stroke-linejoin:round;-inkscape-stroke:none;stroke:none;stroke-opacity:1;fill-opacity:1"
       d="m 47.771484,148.01172 c -0.458001,-0.13353 -0.993791,-0.16393 -1.519531,0.0547 -0.343267,0.14273 -0.607206,0.36179 -0.8125,0.58593 -0.203383,0.22206 -0.347709,0.44624 -0.470703,0.64258 -0.790384,1.26174 -1.324376,2.59998 -1.873047,3.86133 -0.660227,1.51781 -1.370554,2.96489 -2.414062,4.03906 -0.694673,0.71509 -1.551997,1.27979 -2.484375,1.64258 -1.158785,0.45089 -2.4471,0.59124 -3.675782,0.40039 a 0.82665497,0.82665497 0 0 0 -0.943359,0.68945 0.82665497,0.82665497 0 0 0 0.689453,0.94336 c 1.52107,0.23627 3.094758,0.066 4.529297,-0.49218 1.152641,-0.4485 2.20605,-1.14159 3.070312,-2.03125 1.292701,-1.3307 2.066993,-2.97454 2.744141,-4.53125 0.561065,-1.28985 1.071272,-2.54857 1.757813,-3.64454 0.106528,-0.17005 0.202376,-0.30556 0.291015,-0.40234 0.08673,-0.0947 0.170614,-0.15251 0.226563,-0.17578 0.08355,-0.0347 0.24638,-0.0453 0.421875,0.006 0.185153,0.054 0.401306,0.17149 0.640625,0.33594 1.40964,0.96863 2.458011,2.57855 3.833984,4.07226 0.930271,1.00987 1.976701,1.89808 3.091797,2.67383 2.096605,1.45857 4.461063,2.53598 6.949219,3.13672 2.13906,0.51645 4.359345,0.67829 6.550781,0.47851 a 0.82665497,0.82665497 0 0 0 0.75,-0.89843 0.82665497,0.82665497 0 0 0 -0.898438,-0.74805 c -2.009928,0.18323 -4.053734,0.0342 -6.015625,-0.43945 -2.281763,-0.55091 -4.459121,-1.54301 -6.390625,-2.88672 -1.027847,-0.71506 -1.983856,-1.52735 -2.822265,-2.4375 -1.241495,-1.34773 -2.338901,-3.09519 -4.113281,-4.31445 -0.304532,-0.20926 -0.66494,-0.42984 -1.113282,-0.56055 z"
       id="path9953" /></g></svg>
