<?xml version="1.0" encoding="UTF-8" standalone="no"?>
<!-- Created with Inkscape (http://www.inkscape.org/) -->

<svg
   width="86.659615mm"
   height="67.538612mm"
   viewBox="0 0 86.659615 67.538612"
   version="1.1"
   id="svg5"
   xml:space="preserve"
   inkscape:version="1.2.1 (1:1.2.1+202210291244+9c6d41e410)"
   sodipodi:docname="impute1.svg"
   xmlns:inkscape="http://www.inkscape.org/namespaces/inkscape"
   xmlns:sodipodi="http://sodipodi.sourceforge.net/DTD/sodipodi-0.dtd"
   xmlns="http://www.w3.org/2000/svg"
   xmlns:svg="http://www.w3.org/2000/svg"><sodipodi:namedview
     id="namedview7"
     pagecolor="#ffffff"
     bordercolor="#000000"
     borderopacity="0.25"
     inkscape:showpageshadow="2"
     inkscape:pageopacity="0.0"
     inkscape:pagecheckerboard="0"
     inkscape:deskcolor="#d1d1d1"
     inkscape:document-units="mm"
     showgrid="false"
     inkscape:zoom="0.5946522"
     inkscape:cx="-378.37243"
     inkscape:cy="158.07559"
     inkscape:window-width="1874"
     inkscape:window-height="1043"
     inkscape:window-x="0"
     inkscape:window-y="0"
     inkscape:window-maximized="1"
     inkscape:current-layer="layer1" /><defs
     id="defs2"><inkscape:path-effect
       effect="spiro"
       id="path-effect5335"
       is_visible="true"
       lpeversion="1" /><inkscape:path-effect
       effect="spiro"
       id="path-effect5323"
       is_visible="true"
       lpeversion="1" /><inkscape:path-effect
       effect="spiro"
       id="path-effect5319"
       is_visible="true"
       lpeversion="1" /><inkscape:path-effect
       effect="spiro"
       id="path-effect3913"
       is_visible="true"
       lpeversion="1" /><marker
       style="overflow:visible"
       id="TriangleStart"
       refX="0"
       refY="0"
       orient="auto-start-reverse"
       inkscape:stockid="TriangleStart"
       markerWidth="5.3244081"
       markerHeight="6.155385"
       viewBox="0 0 5.3244081 6.1553851"
       inkscape:isstock="true"
       inkscape:collect="always"
       preserveAspectRatio="xMidYMid"><path
         transform="scale(0.5)"
         style="fill:context-stroke;fill-rule:evenodd;stroke:context-stroke;stroke-width:1pt"
         d="M 5.77,0 -2.88,5 V -5 Z"
         id="path135" /></marker><inkscape:path-effect
       effect="spiro"
       id="path-effect3688"
       is_visible="true"
       lpeversion="1" /><inkscape:path-effect
       effect="spiro"
       id="path-effect3160"
       is_visible="true"
       lpeversion="1" /><inkscape:path-effect
       effect="spiro"
       id="path-effect3156"
       is_visible="true"
       lpeversion="1" /><inkscape:path-effect
       effect="spiro"
       id="path-effect3148"
       is_visible="true"
       lpeversion="1" /><inkscape:path-effect
       effect="spiro"
       id="path-effect3094"
       is_visible="true"
       lpeversion="1" /><inkscape:path-effect
       effect="spiro"
       id="path-effect3036"
       is_visible="true"
       lpeversion="1" /></defs><g
     inkscape:label="Layer 1"
     inkscape:groupmode="layer"
     id="layer1"
     transform="translate(-45.220236,-13.432576)"><g
       id="g5566"><path
         style="fill:none;stroke:#000000;stroke-width:0.264999;stroke-linecap:round;stroke-linejoin:miter;stroke-miterlimit:4;stroke-opacity:1"
         d="M 47.856246,19.344023 V 35.87497 h 17.916015"
         id="path1785"
         sodipodi:nodetypes="ccc" /><path
         style="fill:#000000;fill-opacity:1;fill-rule:nonzero;stroke:none;stroke-width:0.352778"
         d="m 53.327056,29.38027 c 0,0.47405 -0.383095,0.85714 -0.85714,0.85714 -0.472666,0 -0.857141,-0.38309 -0.857141,-0.85714 0,-0.47266 0.384475,-0.85576 0.857141,-0.85576 0.474045,0 0.85714,0.3831 0.85714,0.85576 z m 0,0"
         id="path1787" /><path
         style="fill:#000000;fill-opacity:1;fill-rule:nonzero;stroke:none;stroke-width:0.352778"
         d="m 57.027088,33.35867 c 0,0.47267 -0.384471,0.85714 -0.85714,0.85714 -0.474045,0 -0.857137,-0.38447 -0.857137,-0.85714 0,-0.47404 0.383092,-0.85714 0.857137,-0.85714 0.472669,0 0.85714,0.3831 0.85714,0.85714 z m 0,0"
         id="path1789" /><path
         style="fill:#000000;fill-opacity:1;fill-rule:nonzero;stroke:none;stroke-width:0.352778"
         d="m 61.286605,31.12211 c 0,0.47267 -0.384472,0.85714 -0.857141,0.85714 -0.474045,0 -0.85714,-0.38447 -0.85714,-0.85714 0,-0.47404 0.383095,-0.85713 0.85714,-0.85713 0.472669,0 0.857141,0.38309 0.857141,0.85713 z m 0,0"
         id="path1791" /><path
         style="fill:none;stroke:#bd350a;stroke-width:0.265;stroke-linecap:square;stroke-linejoin:miter;stroke-miterlimit:4;stroke-opacity:1"
         d="m 50.234737,22.864909 -0.418924,0.56224 0.440973,0.595312 h -0.225997 l -0.336243,-0.457507 -0.33624,0.457507 h -0.226 l 0.451997,-0.606336 -0.41341,-0.551216 h 0.225997 l 0.30317,0.413414 0.30868,-0.413414 z m 0,0"
         id="path1797" /><path
         style="fill:none;stroke:#bd350a;stroke-width:0.265;stroke-linecap:square;stroke-linejoin:miter;stroke-miterlimit:4;stroke-opacity:1"
         d="m 64.698626,28.38809 -0.418924,0.56224 0.440972,0.59531 h -0.225996 l -0.336243,-0.45751 -0.33624,0.45751 h -0.226 l 0.451997,-0.60634 -0.41341,-0.55121 h 0.225996 l 0.30317,0.41341 0.308681,-0.41341 z m 0,0"
         id="path1799" /><g
         style="fill:#000000;fill-opacity:1"
         id="g1811"
         transform="matrix(0.35277777,0,0,0.35277777,-206.58196,-15.432148)"><g
           id="use1803"
           transform="translate(718.14502,128.83881)"><path
             style="stroke:none"
             d="m -3.890625,-1.1875 h 3.40625 v -0.703125 c 0,-0.601563 -0.132813,-1.046875 -0.40625,-1.328125 C -1.171875,-3.5 -1.601562,-3.640625 -2.1875,-3.640625 c -0.59375,0 -1.023438,0.140625 -1.296875,0.421875 -0.269531,0.28125 -0.40625,0.726562 -0.40625,1.328125 z M -4.375,-0.59375 V -1.8125 c 0,-0.84375 0.179688,-1.460938 0.53125,-1.859375 0.355469,-0.394531 0.90625,-0.59375 1.65625,-0.59375 0.75,0 1.304688,0.199219 1.65625,0.59375 C -0.175781,-3.273438 0,-2.65625 0,-1.8125 v 1.21875 z m 0,0"
             id="path2592" /></g><g
           id="use1805"
           transform="translate(718.14502,124.2188)"><path
             style="stroke:none"
             d="m -1.65625,-2.0625 c 0,0.4375 0.054688,0.742188 0.15625,0.90625 0.105469,0.167969 0.277344,0.25 0.515625,0.25 0.1875,0 0.339844,-0.0625 0.453125,-0.1875 0.117188,-0.125 0.171875,-0.296875 0.171875,-0.515625 0,-0.289063 -0.101563,-0.523437 -0.3125,-0.703125 C -0.890625,-2.5 -1.175781,-2.59375 -1.53125,-2.59375 h -0.125 z M -1.875,-3.125 H 0 v 0.53125 h -0.5 c 0.199219,0.125 0.34375,0.28125 0.4375,0.46875 0.09375,0.179688 0.140625,0.402344 0.140625,0.671875 0,0.335937 -0.09375,0.601563 -0.28125,0.796875 -0.1875,0.199219 -0.4375,0.296875 -0.75,0.296875 -0.375,0 -0.65625,-0.125 -0.84375,-0.375 -0.1875,-0.25 -0.28125,-0.617187 -0.28125,-1.109375 v -0.75 H -2.125 c -0.25,0 -0.441406,0.085938 -0.578125,0.25 -0.132813,0.15625 -0.203125,0.386719 -0.203125,0.6875 0,0.1875 0.027344,0.371094 0.078125,0.546875 0.042969,0.179687 0.105469,0.351563 0.1875,0.515625 H -3.125 c -0.082031,-0.195312 -0.140625,-0.390625 -0.171875,-0.578125 -0.039063,-0.1875 -0.0625,-0.367187 -0.0625,-0.546875 0,-0.46875 0.125,-0.816406 0.375,-1.046875 C -2.742188,-3.003906 -2.375,-3.125 -1.875,-3.125 Z m 0,0"
             id="path2584" /></g><g
           id="use1807"
           transform="translate(718.14502,120.54678)"><path
             style="stroke:none"
             d="m -4.21875,-1.09375 h 0.9375 v -1.109375 h 0.421875 v 1.109375 h 1.78125 c 0.261719,0 0.433594,-0.035156 0.515625,-0.109375 0.074219,-0.070313 0.109375,-0.222656 0.109375,-0.453125 V -2.203125 H 0 v 0.546875 c 0,0.417969 -0.078125,0.703125 -0.234375,0.859375 -0.15625,0.15625 -0.4375,0.234375 -0.84375,0.234375 h -1.78125 v 0.40625 H -3.28125 V -0.5625 h -0.9375 z m 0,0"
             id="path2596" /></g><g
           id="use1809"
           transform="translate(718.14502,118.19479)"><path
             style="stroke:none"
             d="m -1.65625,-2.0625 c 0,0.4375 0.054688,0.742188 0.15625,0.90625 0.105469,0.167969 0.277344,0.25 0.515625,0.25 0.1875,0 0.339844,-0.0625 0.453125,-0.1875 0.117188,-0.125 0.171875,-0.296875 0.171875,-0.515625 0,-0.289063 -0.101563,-0.523437 -0.3125,-0.703125 C -0.890625,-2.5 -1.175781,-2.59375 -1.53125,-2.59375 h -0.125 z M -1.875,-3.125 H 0 v 0.53125 h -0.5 c 0.199219,0.125 0.34375,0.28125 0.4375,0.46875 0.09375,0.179688 0.140625,0.402344 0.140625,0.671875 0,0.335937 -0.09375,0.601563 -0.28125,0.796875 -0.1875,0.199219 -0.4375,0.296875 -0.75,0.296875 -0.375,0 -0.65625,-0.125 -0.84375,-0.375 -0.1875,-0.25 -0.28125,-0.617187 -0.28125,-1.109375 v -0.75 H -2.125 c -0.25,0 -0.441406,0.085938 -0.578125,0.25 -0.132813,0.15625 -0.203125,0.386719 -0.203125,0.6875 0,0.1875 0.027344,0.371094 0.078125,0.546875 0.042969,0.179687 0.105469,0.351563 0.1875,0.515625 H -3.125 c -0.082031,-0.195312 -0.140625,-0.390625 -0.171875,-0.578125 -0.039063,-0.1875 -0.0625,-0.367187 -0.0625,-0.546875 0,-0.46875 0.125,-0.816406 0.375,-1.046875 C -2.742188,-3.003906 -2.375,-3.125 -1.875,-3.125 Z m 0,0"
             id="path2588" /></g></g><g
         style="fill:#000000;fill-opacity:1"
         id="g1815"
         transform="matrix(0.35277777,0,0,0.35277777,-206.58196,-15.432148)"><g
           id="use1813"
           transform="translate(741.17279,153.06058)"><path
             style="stroke:none"
             d="M -0.015625,-4.375 H 3.6875 v 0.5 H 2.125 V 0 H 1.53125 v -3.875 h -1.546875 z m 0,0"
             id="path2636" /></g></g><g
         style="fill:#000000;fill-opacity:1"
         id="g1823"
         transform="matrix(0.35277777,0,0,0.35277777,-206.58196,-15.432148)"><g
           id="use1817"
           transform="translate(744.64679,153.06058)"><path
             style="stroke:none"
             d="M 0.5625,-3.28125 H 1.109375 V 0 H 0.5625 Z m 0,-1.28125 H 1.109375 V -3.875 H 0.5625 Z m 0,0"
             id="path2620" /></g><g
           id="use1819"
           transform="translate(746.30878,153.06058)"><path
             style="stroke:none"
             d="m 3.125,-2.65625 c 0.132812,-0.238281 0.296875,-0.414062 0.484375,-0.53125 0.1875,-0.113281 0.40625,-0.171875 0.65625,-0.171875 0.34375,0 0.601563,0.121094 0.78125,0.359375 0.1875,0.242188 0.28125,0.578125 0.28125,1.015625 V 0 h -0.53125 v -1.96875 c 0,-0.3125 -0.058594,-0.539062 -0.171875,-0.6875 -0.117188,-0.15625 -0.289062,-0.234375 -0.515625,-0.234375 -0.273437,0 -0.492187,0.09375 -0.65625,0.28125 -0.15625,0.1875 -0.234375,0.4375 -0.234375,0.75 V 0 H 2.671875 v -1.96875 c 0,-0.3125 -0.058594,-0.539062 -0.171875,-0.6875 -0.117188,-0.15625 -0.289062,-0.234375 -0.515625,-0.234375 -0.273437,0 -0.492187,0.09375 -0.65625,0.28125 -0.15625,0.1875 -0.234375,0.4375 -0.234375,0.75 V 0 H 0.546875 V -3.28125 H 1.09375 v 0.515625 C 1.207031,-2.972656 1.347656,-3.125 1.515625,-3.21875 c 0.175781,-0.09375 0.382813,-0.140625 0.625,-0.140625 0.238281,0 0.441406,0.0625 0.609375,0.1875 0.164062,0.117187 0.289062,0.289063 0.375,0.515625 z m 0,0"
             id="path2616" /></g><g
           id="use1821"
           transform="translate(752.15277,153.06058)"><path
             style="stroke:none"
             d="m 3.375,-1.78125 v 0.265625 H 0.890625 c 0.019531,0.375 0.128906,0.664063 0.328125,0.859375 0.207031,0.1875 0.488281,0.28125 0.84375,0.28125 0.207031,0 0.40625,-0.023438 0.59375,-0.078125 0.195312,-0.050781 0.394531,-0.125 0.59375,-0.21875 v 0.5 c -0.199219,0.0859375 -0.402344,0.1484375 -0.609375,0.1875 -0.199219,0.0390625 -0.402344,0.0625 -0.609375,0.0625 -0.523438,0 -0.9375,-0.1484375 -1.25,-0.453125 -0.304688,-0.300781 -0.453125,-0.710938 -0.453125,-1.234375 0,-0.539063 0.144531,-0.96875 0.4375,-1.28125 0.289063,-0.3125 0.679687,-0.46875 1.171875,-0.46875 0.445312,0 0.796875,0.140625 1.046875,0.421875 C 3.242188,-2.65625 3.375,-2.269531 3.375,-1.78125 Z M 2.828125,-1.9375 c 0,-0.289062 -0.085937,-0.523438 -0.25,-0.703125 -0.15625,-0.175781 -0.367187,-0.265625 -0.625,-0.265625 -0.304687,0 -0.546875,0.089844 -0.734375,0.265625 -0.179688,0.167969 -0.28125,0.402344 -0.3125,0.703125 z m 0,0"
             id="path2608" /></g></g></g><text
       xml:space="preserve"
       style="font-size:3.175px;font-family:comic-sans;-inkscape-font-specification:comic-sans;fill:none;stroke:#073669;stroke-width:1.2;stroke-linecap:round;stroke-linejoin:round"
       x="84.618164"
       y="16.167671"
       id="text2008"><tspan
         sodipodi:role="line"
         id="tspan2006"
         style="fill:none;stroke-width:1.2"
         x="84.618164"
         y="16.167671" /></text><text
       xml:space="preserve"
       style="font-size:3.175px;font-family:comic-sans;-inkscape-font-specification:comic-sans;fill:#073669;fill-opacity:1;stroke:none;stroke-width:1.2;stroke-linecap:round;stroke-linejoin:round;stroke-opacity:1"
       x="80.690887"
       y="15.844831"
       id="text2618"><tspan
         sodipodi:role="line"
         id="tspan2616"
         style="fill:#073669;fill-opacity:1;stroke:none;stroke-width:1.2;stroke-opacity:1"
         x="80.690887"
         y="15.844831">Inference</tspan></text><text
       xml:space="preserve"
       style="font-size:3.175px;font-family:comic-sans;-inkscape-font-specification:comic-sans;fill:#073669;fill-opacity:1;stroke:none;stroke-width:1.2;stroke-linecap:round;stroke-linejoin:round;stroke-opacity:1"
       x="115.31062"
       y="15.844831"
       id="text2878"><tspan
         sodipodi:role="line"
         id="tspan2876"
         style="stroke-width:1.2"
         x="115.31062"
         y="15.844831">Posterior</tspan></text><g
       id="g5503"><path
         style="fill:none;stroke:#000000;stroke-width:0.264999;stroke-linecap:round;stroke-linejoin:miter;stroke-miterlimit:4;stroke-opacity:1"
         d="M 113.83133,19.344023 V 35.87497 h 17.91602"
         id="path2976"
         sodipodi:nodetypes="ccc" /><path
         style="fill:none;fill-opacity:1;stroke:#000000;stroke-width:0.3;stroke-linecap:round;stroke-linejoin:round;stroke-dasharray:none;stroke-opacity:1"
         d="m 114.40184,34.409477 c 0.76328,-0.159211 1.48663,-0.506436 2.08826,-1.002416 0.74704,-0.615859 1.29024,-1.438618 1.80951,-2.255755 0.51142,-0.804779 1.01348,-1.620431 1.63072,-2.347222 0.47476,-0.559021 1.04153,-1.077612 1.74238,-1.293752 0.61672,-0.190196 1.31976,-0.118569 1.85949,0.235286 0.30668,0.201067 0.55277,0.482933 0.76176,0.784274 0.20899,0.30134 0.38426,0.624462 0.57675,0.936603 0.47953,0.777614 1.06396,1.484222 1.63962,2.19362 0.60565,0.746355 1.21916,1.512858 2.03003,2.028944 0.69141,0.440057 1.50961,0.67832 2.32919,0.67827"
         id="path3146"
         inkscape:path-effect="#path-effect3148"
         inkscape:original-d="m 114.40184,34.409477 c 0.69636,-0.333875 1.39244,-0.668012 2.08826,-1.002416 0.69582,-0.334401 1.20661,-1.503571 1.80951,-2.255755 0.60291,-0.752184 1.08741,-1.56455 1.63072,-2.347222 0.54331,-0.782672 1.16185,-0.862238 1.74238,-1.293752 0.58053,-0.431517 1.23993,0.15712 1.85949,0.235286 0.61956,0.07816 0.8926,1.147514 1.33851,1.720877 0.4459,0.57336 1.09334,1.462677 1.63962,2.19362 0.54627,0.730944 1.35361,1.352894 2.03003,2.028944 0.67641,0.67605 1.55305,0.452443 2.32919,0.67827" /></g><path
       style="fill:#318c65;fill-opacity:1;stroke:#000000;stroke-width:0.6;stroke-linecap:round;stroke-linejoin:round;stroke-dasharray:none;stroke-opacity:1;marker-end:url(#TriangleStart)"
       d="m 69.495693,28.641357 8.543636,-0.02826"
       id="path3686"
       inkscape:path-effect="#path-effect3688"
       inkscape:original-d="m 69.495693,28.641357 c 3.284302,-0.0092 5.311481,-0.01857 8.543636,-0.02826"
       sodipodi:nodetypes="cc" /><path
       style="fill:#318c65;fill-opacity:1;stroke:#000000;stroke-width:0.6;stroke-linecap:round;stroke-linejoin:round;stroke-dasharray:none;stroke-opacity:1;marker-end:url(#TriangleStart)"
       d="m 99.481643,28.641357 8.543637,-0.02826"
       id="path3909"
       inkscape:path-effect="#path-effect3913"
       inkscape:original-d="m 99.481643,28.641357 c 3.284307,-0.0092 5.311477,-0.01857 8.543637,-0.02826"
       sodipodi:nodetypes="cc" /><g
       id="g5499"
       transform="translate(-0.30743142)"><circle
         style="fill:#424242;fill-opacity:1;stroke:#424242;stroke-width:0.363932;stroke-linecap:round;stroke-linejoin:round;stroke-dasharray:none;stroke-opacity:1"
         id="path4168"
         cx="83.202034"
         cy="24.541512"
         r="0.99267089" /><circle
         style="fill:#424242;fill-opacity:1;stroke:#424242;stroke-width:0.363932;stroke-linecap:round;stroke-linejoin:round;stroke-dasharray:none;stroke-opacity:1"
         id="circle4170"
         cx="83.202034"
         cy="28.39312"
         r="0.99267089" /><circle
         style="fill:#424242;fill-opacity:1;stroke:#424242;stroke-width:0.363932;stroke-linecap:round;stroke-linejoin:round;stroke-dasharray:none;stroke-opacity:1"
         id="circle4172"
         cx="83.202034"
         cy="32.244724"
         r="0.99267089" /><circle
         style="fill:#424242;fill-opacity:1;stroke:#424242;stroke-width:0.363932;stroke-linecap:round;stroke-linejoin:round;stroke-dasharray:none;stroke-opacity:1"
         id="circle4180"
         cx="95.077827"
         cy="28.39312"
         r="0.99267089" /><circle
         style="fill:#424242;fill-opacity:1;stroke:#424242;stroke-width:0.363932;stroke-linecap:round;stroke-linejoin:round;stroke-dasharray:none;stroke-opacity:1"
         id="circle4184"
         cx="83.202034"
         cy="24.541512"
         r="0.99267089" /><circle
         style="fill:#424242;fill-opacity:1;stroke:#424242;stroke-width:0.363932;stroke-linecap:round;stroke-linejoin:round;stroke-dasharray:none;stroke-opacity:1"
         id="circle4186"
         cx="83.202034"
         cy="28.39312"
         r="0.99267089" /><circle
         style="fill:#424242;fill-opacity:1;stroke:#424242;stroke-width:0.363932;stroke-linecap:round;stroke-linejoin:round;stroke-dasharray:none;stroke-opacity:1"
         id="circle4188"
         cx="83.202034"
         cy="32.244724"
         r="0.99267089" /><circle
         style="fill:#424242;fill-opacity:1;stroke:#424242;stroke-width:0.363932;stroke-linecap:round;stroke-linejoin:round;stroke-dasharray:none;stroke-opacity:1"
         id="circle4190"
         cx="89.300415"
         cy="24.541512"
         r="0.99267089" /><circle
         style="fill:#424242;fill-opacity:1;stroke:#424242;stroke-width:0.363932;stroke-linecap:round;stroke-linejoin:round;stroke-dasharray:none;stroke-opacity:1"
         id="circle4192"
         cx="89.300415"
         cy="28.39312"
         r="0.99267089" /><circle
         style="fill:#424242;fill-opacity:1;stroke:#424242;stroke-width:0.363932;stroke-linecap:round;stroke-linejoin:round;stroke-dasharray:none;stroke-opacity:1"
         id="circle4194"
         cx="89.300415"
         cy="32.244724"
         r="0.99267089" /><circle
         style="fill:#424242;fill-opacity:1;stroke:#424242;stroke-width:0.363932;stroke-linecap:round;stroke-linejoin:round;stroke-dasharray:none;stroke-opacity:1"
         id="circle4196"
         cx="89.300415"
         cy="24.541512"
         r="0.99267089" /><circle
         style="fill:#424242;fill-opacity:1;stroke:#424242;stroke-width:0.363932;stroke-linecap:round;stroke-linejoin:round;stroke-dasharray:none;stroke-opacity:1"
         id="circle4198"
         cx="89.300415"
         cy="28.39312"
         r="0.99267089" /><circle
         style="fill:#424242;fill-opacity:1;stroke:#424242;stroke-width:0.363932;stroke-linecap:round;stroke-linejoin:round;stroke-dasharray:none;stroke-opacity:1"
         id="circle4200"
         cx="89.300415"
         cy="32.244724"
         r="0.99267089" /><path
         style="fill:none;fill-opacity:1;stroke:#424242;stroke-width:0.363932;stroke-linecap:round;stroke-linejoin:round;stroke-dasharray:none;stroke-opacity:1"
         d="m 83.110227,24.580649 5.99424,0.04348 5.967884,3.788041"
         id="path4256" /><path
         style="fill:none;fill-opacity:1;stroke:#424242;stroke-width:0.363932;stroke-linecap:round;stroke-linejoin:round;stroke-dasharray:none;stroke-opacity:1"
         d="m 82.905709,28.514699 12.058059,-0.0846"
         id="path4312" /><path
         style="fill:none;fill-opacity:1;stroke:#424242;stroke-width:0.363932;stroke-linecap:round;stroke-linejoin:round;stroke-dasharray:none;stroke-opacity:1"
         d="m 83.198253,32.189676 6.172138,0.120708 5.562542,-3.744819"
         id="path4314" /><path
         style="fill:none;fill-opacity:1;stroke:#424242;stroke-width:0.363932;stroke-linecap:round;stroke-linejoin:round;stroke-dasharray:none;stroke-opacity:1"
         d="m 83.06977,24.435036 6.255686,4.081112"
         id="path4320" /><path
         style="fill:none;fill-opacity:1;stroke:#424242;stroke-width:0.363932;stroke-linecap:round;stroke-linejoin:round;stroke-dasharray:none;stroke-opacity:1"
         d="m 83.039924,28.700504 6.396224,-4.321736"
         id="path4322" /><path
         style="fill:none;fill-opacity:1;stroke:#424242;stroke-width:0.363932;stroke-linecap:round;stroke-linejoin:round;stroke-dasharray:none;stroke-opacity:1"
         d="M 83.186459,32.397158 89.23598,28.47398"
         id="path4324" /><path
         style="fill:none;fill-opacity:1;stroke:#424242;stroke-width:0.363932;stroke-linecap:round;stroke-linejoin:round;stroke-dasharray:none;stroke-opacity:1"
         d="m 83.312306,28.438795 5.891388,3.927527"
         id="path4326" /><path
         style="fill:none;fill-opacity:1;stroke:#424242;stroke-width:0.363932;stroke-linecap:round;stroke-linejoin:round;stroke-dasharray:none;stroke-opacity:1"
         d="m 83.150221,24.482278 5.95945,7.984985"
         id="path4328" /><path
         style="fill:none;fill-opacity:1;stroke:#424242;stroke-width:0.363932;stroke-linecap:round;stroke-linejoin:round;stroke-dasharray:none;stroke-opacity:1"
         d="m 82.974496,32.413498 6.382321,-8.006136"
         id="path4330" /><circle
         style="fill:#424242;fill-opacity:1;stroke:#424242;stroke-width:0.363932;stroke-linecap:round;stroke-linejoin:round;stroke-dasharray:none;stroke-opacity:1"
         id="circle4332"
         cx="83.202034"
         cy="24.541512"
         r="0.99267089" /><circle
         style="fill:#424242;fill-opacity:1;stroke:#424242;stroke-width:0.363932;stroke-linecap:round;stroke-linejoin:round;stroke-dasharray:none;stroke-opacity:1"
         id="circle4334"
         cx="83.202034"
         cy="28.39312"
         r="0.99267089" /><circle
         style="fill:#424242;fill-opacity:1;stroke:#424242;stroke-width:0.363932;stroke-linecap:round;stroke-linejoin:round;stroke-dasharray:none;stroke-opacity:1"
         id="circle4336"
         cx="83.202034"
         cy="32.244724"
         r="0.99267089" /><circle
         style="fill:#424242;fill-opacity:1;stroke:#424242;stroke-width:0.363932;stroke-linecap:round;stroke-linejoin:round;stroke-dasharray:none;stroke-opacity:1"
         id="circle4338"
         cx="95.077827"
         cy="28.39312"
         r="0.99267089" /><circle
         style="fill:#424242;fill-opacity:1;stroke:#424242;stroke-width:0.363932;stroke-linecap:round;stroke-linejoin:round;stroke-dasharray:none;stroke-opacity:1"
         id="circle4340"
         cx="83.202034"
         cy="24.541512"
         r="0.99267089" /><circle
         style="fill:#424242;fill-opacity:1;stroke:#424242;stroke-width:0.363932;stroke-linecap:round;stroke-linejoin:round;stroke-dasharray:none;stroke-opacity:1"
         id="circle4342"
         cx="83.202034"
         cy="28.39312"
         r="0.99267089" /><circle
         style="fill:#424242;fill-opacity:1;stroke:#424242;stroke-width:0.363932;stroke-linecap:round;stroke-linejoin:round;stroke-dasharray:none;stroke-opacity:1"
         id="circle4344"
         cx="83.202034"
         cy="32.244724"
         r="0.99267089" /><circle
         style="fill:#424242;fill-opacity:1;stroke:#424242;stroke-width:0.363932;stroke-linecap:round;stroke-linejoin:round;stroke-dasharray:none;stroke-opacity:1"
         id="circle4346"
         cx="89.300415"
         cy="24.541512"
         r="0.99267089" /><circle
         style="fill:#424242;fill-opacity:1;stroke:#424242;stroke-width:0.363932;stroke-linecap:round;stroke-linejoin:round;stroke-dasharray:none;stroke-opacity:1"
         id="circle4348"
         cx="89.300415"
         cy="28.39312"
         r="0.99267089" /><circle
         style="fill:#424242;fill-opacity:1;stroke:#424242;stroke-width:0.363932;stroke-linecap:round;stroke-linejoin:round;stroke-dasharray:none;stroke-opacity:1"
         id="circle4350"
         cx="89.300415"
         cy="32.244724"
         r="0.99267089" /><circle
         style="fill:#424242;fill-opacity:1;stroke:#424242;stroke-width:0.363932;stroke-linecap:round;stroke-linejoin:round;stroke-dasharray:none;stroke-opacity:1"
         id="circle4352"
         cx="89.300415"
         cy="24.541512"
         r="0.99267089" /><circle
         style="fill:#424242;fill-opacity:1;stroke:#424242;stroke-width:0.363932;stroke-linecap:round;stroke-linejoin:round;stroke-dasharray:none;stroke-opacity:1"
         id="circle4354"
         cx="89.300415"
         cy="28.39312"
         r="0.99267089" /><circle
         style="fill:#424242;fill-opacity:1;stroke:#424242;stroke-width:0.363932;stroke-linecap:round;stroke-linejoin:round;stroke-dasharray:none;stroke-opacity:1"
         id="circle4356"
         cx="89.300415"
         cy="32.244724"
         r="0.99267089" /><path
         style="fill:none;fill-opacity:1;stroke:#424242;stroke-width:0.363932;stroke-linecap:round;stroke-linejoin:round;stroke-dasharray:none;stroke-opacity:1"
         d="m 83.110227,24.580649 5.99424,0.04348 5.967884,3.788041"
         id="path4358" /><path
         style="fill:none;fill-opacity:1;stroke:#424242;stroke-width:0.363932;stroke-linecap:round;stroke-linejoin:round;stroke-dasharray:none;stroke-opacity:1"
         d="m 82.905709,28.514699 12.058059,-0.0846"
         id="path4360" /><path
         style="fill:none;fill-opacity:1;stroke:#424242;stroke-width:0.363932;stroke-linecap:round;stroke-linejoin:round;stroke-dasharray:none;stroke-opacity:1"
         d="m 83.198253,32.189676 6.172138,0.120708 5.562542,-3.744819"
         id="path4362" /><path
         style="fill:none;fill-opacity:1;stroke:#424242;stroke-width:0.363932;stroke-linecap:round;stroke-linejoin:round;stroke-dasharray:none;stroke-opacity:1"
         d="m 83.06977,24.435036 6.255686,4.081112"
         id="path4364" /><path
         style="fill:none;fill-opacity:1;stroke:#424242;stroke-width:0.363932;stroke-linecap:round;stroke-linejoin:round;stroke-dasharray:none;stroke-opacity:1"
         d="m 83.039924,28.700504 6.396224,-4.321736"
         id="path4366" /><path
         style="fill:none;fill-opacity:1;stroke:#424242;stroke-width:0.363932;stroke-linecap:round;stroke-linejoin:round;stroke-dasharray:none;stroke-opacity:1"
         d="M 83.186459,32.397158 89.23598,28.47398"
         id="path4368" /><path
         style="fill:none;fill-opacity:1;stroke:#424242;stroke-width:0.363932;stroke-linecap:round;stroke-linejoin:round;stroke-dasharray:none;stroke-opacity:1"
         d="m 83.312306,28.438795 5.891388,3.927527"
         id="path4370" /><path
         style="fill:none;fill-opacity:1;stroke:#424242;stroke-width:0.364;stroke-linecap:round;stroke-linejoin:round;stroke-dasharray:none;stroke-opacity:1"
         d="m 83.150221,24.482278 5.95945,7.984985"
         id="path4372" /><path
         style="fill:none;fill-opacity:1;stroke:#424242;stroke-width:0.363932;stroke-linecap:round;stroke-linejoin:round;stroke-dasharray:none;stroke-opacity:1"
         d="m 82.974496,32.413498 6.382321,-8.006136"
         id="path4374" /><path
         style="fill:#000000;fill-opacity:1;fill-rule:nonzero;stroke:none;stroke-width:0.352778"
         d="m 85.979551,21.682231 c 0,0.47405 -0.383095,0.85714 -0.85714,0.85714 -0.472666,0 -0.857141,-0.38309 -0.857141,-0.85714 0,-0.47266 0.384475,-0.85576 0.857141,-0.85576 0.474045,0 0.85714,0.3831 0.85714,0.85576 z m 0,0"
         id="path1787-1" /><path
         style="fill:#000000;fill-opacity:1;fill-rule:nonzero;stroke:none;stroke-width:0.352778"
         d="m 89.611201,21.682921 c 0,0.47267 -0.384471,0.85714 -0.85714,0.85714 -0.474045,0 -0.857137,-0.38447 -0.857137,-0.85714 0,-0.47404 0.383092,-0.85714 0.857137,-0.85714 0.472669,0 0.85714,0.3831 0.85714,0.85714 z m 0,0"
         id="path1789-0" /><path
         style="fill:#000000;fill-opacity:1;fill-rule:nonzero;stroke:none;stroke-width:0.352778"
         d="m 93.242855,21.682916 c 0,0.47267 -0.384472,0.85714 -0.857141,0.85714 -0.474045,0 -0.85714,-0.38447 -0.85714,-0.85714 0,-0.47404 0.383095,-0.85713 0.85714,-0.85713 0.472669,0 0.857141,0.38309 0.857141,0.85713 z m 0,0"
         id="path1791-3" /><path
         style="fill:none;stroke:#bd350a;stroke-width:0.265;stroke-linecap:square;stroke-linejoin:miter;stroke-miterlimit:4;stroke-opacity:1"
         d="m 82.062807,21.104145 -0.418924,0.56224 0.440973,0.595312 h -0.225997 l -0.336243,-0.457507 -0.33624,0.457507 h -0.226 l 0.451997,-0.606336 -0.41341,-0.551216 h 0.225997 l 0.30317,0.413414 0.30868,-0.413414 z m 0,0"
         id="path1797-0" /><path
         style="fill:none;stroke:#bd350a;stroke-width:0.265;stroke-linecap:square;stroke-linejoin:miter;stroke-miterlimit:4;stroke-opacity:1"
         d="m 96.526696,21.104146 -0.418924,0.56224 0.440972,0.59531 h -0.225996 l -0.336243,-0.45751 -0.33624,0.45751 h -0.226 l 0.451997,-0.60634 -0.41341,-0.55121 h 0.225996 l 0.30317,0.41341 0.308681,-0.41341 z m 0,0"
         id="path1799-4" /></g></g></svg>
