<?xml version="1.0" encoding="UTF-8" standalone="no"?>
<!-- Created with Inkscape (http://www.inkscape.org/) -->

<svg
   width="95.973297mm"
   height="21.843241mm"
   viewBox="0 0 95.973297 21.843241"
   version="1.1"
   id="svg2100"
   inkscape:version="1.2.2 (1:1.2.2+202212051551+b0a8486541)"
   sodipodi:docname="missing_datas.svg"
   xmlns:inkscape="http://www.inkscape.org/namespaces/inkscape"
   xmlns:sodipodi="http://sodipodi.sourceforge.net/DTD/sodipodi-0.dtd"
   xmlns="http://www.w3.org/2000/svg"
   xmlns:svg="http://www.w3.org/2000/svg">
  <sodipodi:namedview
     id="namedview2102"
     pagecolor="#ffffff"
     bordercolor="#000000"
     borderopacity="0.25"
     inkscape:showpageshadow="2"
     inkscape:pageopacity="0.0"
     inkscape:pagecheckerboard="0"
     inkscape:deskcolor="#d1d1d1"
     inkscape:document-units="mm"
     showgrid="false"
     inkscape:zoom="2.6501426"
     inkscape:cx="184.89571"
     inkscape:cy="82.259724"
     inkscape:window-width="1874"
     inkscape:window-height="1043"
     inkscape:window-x="0"
     inkscape:window-y="0"
     inkscape:window-maximized="1"
     inkscape:current-layer="layer1" />
  <defs
     id="defs2097">
    <inkscape:path-effect
       effect="spiro"
       id="path-effect4396"
       is_visible="true"
       lpeversion="1" />
    <inkscape:path-effect
       effect="spiro"
       id="path-effect4392"
       is_visible="true"
       lpeversion="1" />
    <inkscape:path-effect
       effect="spiro"
       id="path-effect4319"
       is_visible="true"
       lpeversion="1" />
    <inkscape:path-effect
       effect="spiro"
       id="path-effect3791"
       is_visible="true"
       lpeversion="1" />
    <inkscape:path-effect
       effect="spiro"
       id="path-effect3787"
       is_visible="true"
       lpeversion="1" />
    <inkscape:path-effect
       effect="spiro"
       id="path-effect2865"
       is_visible="true"
       lpeversion="1" />
  </defs>
  <g
     inkscape:label="Layer 1"
     inkscape:groupmode="layer"
     id="layer1"
     transform="translate(-30.267886,-90.790893)">
    <path
       style="fill:#000000;fill-opacity:1;fill-rule:nonzero;stroke:none;stroke-width:0.352778"
       d="m 114.48939,100.89393 c 0,0.47266 -0.3831,0.85713 -0.85577,0.85713 -0.47405,0 -0.85714,-0.38447 -0.85714,-0.85713 0,-0.47405 0.38309,-0.85714 0.85714,-0.85714 0.47267,0 0.85577,0.38309 0.85577,0.85714 z m 0,0"
       id="path1793" />
    <path
       style="fill:none;stroke:#bd350a;stroke-width:0.265;stroke-linecap:square;stroke-linejoin:miter;stroke-miterlimit:4;stroke-opacity:1"
       d="m 114.01121,103.35924 -0.41893,0.56224 0.44097,0.59531 h -0.22599 l -0.33625,-0.45751 -0.33624,0.45751 h -0.226 l 0.452,-0.60634 -0.41341,-0.55121 h 0.22599 l 0.30318,0.41341 0.30868,-0.41341 z m 0,0"
       id="path1801" />
    <g
       id="g4978">
      <path
         style="fill:none;stroke:#cfd7dc;stroke-width:0.264999;stroke-linecap:square;stroke-linejoin:miter;stroke-miterlimit:4;stroke-opacity:1"
         d="m 34.334302,100.42126 c 1.650891,0.6146 3.117124,1.71428 4.167188,3.12815 0.54157,0.72622 0.972897,1.53099 1.535137,2.24206 0.281118,0.35416 0.596688,0.68489 0.959115,0.95636 0.363802,0.2701 0.777211,0.47818 1.219563,0.57464 0.80064,0.17501 1.652266,-0.0303 2.360577,-0.44235 0.708314,-0.41203 1.284333,-1.01837 1.779048,-1.67156 1.067982,-1.41111 1.785937,-3.06613 2.884233,-4.45382 0.988057,-1.2485 2.275142,-2.257222 3.722084,-2.91868"
         id="path1781" />
      <path
         style="fill:none;stroke:#cfd7dc;stroke-width:0.264999;stroke-linecap:square;stroke-linejoin:miter;stroke-miterlimit:4;stroke-opacity:1"
         d="m 34.257132,98.605002 c 1.660539,1.320162 3.057867,2.969668 4.084507,4.825888 0.454752,0.82269 0.841982,1.68948 1.402842,2.44326 0.279742,0.37759 0.604961,0.72485 0.982543,1.00322 0.378961,0.27698 0.814419,0.48507 1.27744,0.56913 0.861275,0.15709 1.755619,-0.12403 2.495627,-0.5898 0.740008,-0.46716 1.350479,-1.10932 1.948547,-1.74736 0.96187,-1.02663 1.920984,-2.06981 3.050977,-2.90766 1.012857,-0.75241 2.153871,-1.33118 3.358279,-1.70325"
         id="path1783" />
      <path
         style="fill:none;stroke:#000000;stroke-width:0.264999;stroke-linecap:round;stroke-linejoin:miter;stroke-miterlimit:4;stroke-opacity:1"
         d="M 32.903901,93.386373 V 109.91732 H 53.586874"
         id="path1785" />
      <path
         style="fill:#000000;fill-opacity:1;fill-rule:nonzero;stroke:none;stroke-width:0.352778"
         d="m 39.433045,103.42262 c 0,0.47405 -0.383095,0.85714 -0.85714,0.85714 -0.472666,0 -0.857141,-0.38309 -0.857141,-0.85714 0,-0.47266 0.384475,-0.85576 0.857141,-0.85576 0.474045,0 0.85714,0.3831 0.85714,0.85576 z m 0,0"
         id="path1787" />
      <path
         style="fill:#000000;fill-opacity:1;fill-rule:nonzero;stroke:none;stroke-width:0.352778"
         d="m 43.133077,107.40102 c 0,0.47267 -0.384471,0.85714 -0.85714,0.85714 -0.474045,0 -0.857137,-0.38447 -0.857137,-0.85714 0,-0.47404 0.383092,-0.85714 0.857137,-0.85714 0.472669,0 0.85714,0.3831 0.85714,0.85714 z m 0,0"
         id="path1789" />
      <path
         style="fill:#000000;fill-opacity:1;fill-rule:nonzero;stroke:none;stroke-width:0.352778"
         d="m 47.392594,105.16446 c 0,0.47267 -0.384472,0.85714 -0.857141,0.85714 -0.474045,0 -0.85714,-0.38447 -0.85714,-0.85714 0,-0.47404 0.383095,-0.85713 0.85714,-0.85713 0.472669,0 0.857141,0.38309 0.857141,0.85713 z m 0,0"
         id="path1791" />
      <path
         style="fill:none;stroke:#000000;stroke-width:0.264999;stroke-linecap:round;stroke-linejoin:miter;stroke-miterlimit:4;stroke-opacity:1"
         d="m 52.772455,102.47316 c -0.837847,0.0565 -1.668805,0.21773 -2.466689,0.47955 -1.429026,0.46578 -2.743673,1.24988 -3.89158,2.2214 -0.640786,0.54157 -1.234722,1.14377 -1.929254,1.61644 -0.694531,0.47267 -1.519974,0.81304 -2.356446,0.74414 -0.486445,-0.0413 -0.957735,-0.21911 -1.368389,-0.48507 -0.409279,-0.26596 -0.760678,-0.61736 -1.052823,-1.00872 -0.587044,-0.78273 -0.938442,-1.71015 -1.281575,-2.62654 C 37.656753,101.36246 36.890565,99.295403 35.784,97.403353 35.304441,96.580665 34.760119,95.793804 34.160672,95.0538"
         id="path1795" />
      <path
         style="fill:none;stroke:#bd350a;stroke-width:0.265;stroke-linecap:square;stroke-linejoin:miter;stroke-miterlimit:4;stroke-opacity:1"
         d="m 36.340726,96.907259 -0.418924,0.56224 0.440973,0.595312 h -0.225997 l -0.336243,-0.457507 -0.33624,0.457507 h -0.226 l 0.451997,-0.606336 -0.41341,-0.551216 h 0.225997 l 0.30317,0.413414 0.30868,-0.413414 z m 0,0"
         id="path1797" />
      <path
         style="fill:none;stroke:#bd350a;stroke-width:0.265;stroke-linecap:square;stroke-linejoin:miter;stroke-miterlimit:4;stroke-opacity:1"
         d="m 50.804615,102.43044 -0.418924,0.56224 0.440972,0.59531 h -0.225996 l -0.336243,-0.45751 -0.33624,0.45751 h -0.226 l 0.451997,-0.60634 -0.41341,-0.55121 h 0.225996 l 0.30317,0.41341 0.308681,-0.41341 z m 0,0"
         id="path1799" />
      <g
         style="fill:#000000;fill-opacity:1"
         id="g1811"
         transform="matrix(0.35277777,0,0,0.35277777,-221.53431,58.610202)">
        <g
           id="use1803"
           transform="translate(718.14502,128.83881)">
          <path
             style="stroke:none"
             d="m -3.890625,-1.1875 h 3.40625 v -0.703125 c 0,-0.601563 -0.132813,-1.046875 -0.40625,-1.328125 C -1.171875,-3.5 -1.601562,-3.640625 -2.1875,-3.640625 c -0.59375,0 -1.023438,0.140625 -1.296875,0.421875 -0.269531,0.28125 -0.40625,0.726562 -0.40625,1.328125 z M -4.375,-0.59375 V -1.8125 c 0,-0.84375 0.179688,-1.460938 0.53125,-1.859375 0.355469,-0.394531 0.90625,-0.59375 1.65625,-0.59375 0.75,0 1.304688,0.199219 1.65625,0.59375 C -0.175781,-3.273438 0,-2.65625 0,-1.8125 v 1.21875 z m 0,0"
             id="path2592" />
        </g>
        <g
           id="use1805"
           transform="translate(718.14502,124.2188)">
          <path
             style="stroke:none"
             d="m -1.65625,-2.0625 c 0,0.4375 0.054688,0.742188 0.15625,0.90625 0.105469,0.167969 0.277344,0.25 0.515625,0.25 0.1875,0 0.339844,-0.0625 0.453125,-0.1875 0.117188,-0.125 0.171875,-0.296875 0.171875,-0.515625 0,-0.289063 -0.101563,-0.523437 -0.3125,-0.703125 C -0.890625,-2.5 -1.175781,-2.59375 -1.53125,-2.59375 h -0.125 z M -1.875,-3.125 H 0 v 0.53125 h -0.5 c 0.199219,0.125 0.34375,0.28125 0.4375,0.46875 0.09375,0.179688 0.140625,0.402344 0.140625,0.671875 0,0.335937 -0.09375,0.601563 -0.28125,0.796875 -0.1875,0.199219 -0.4375,0.296875 -0.75,0.296875 -0.375,0 -0.65625,-0.125 -0.84375,-0.375 -0.1875,-0.25 -0.28125,-0.617187 -0.28125,-1.109375 v -0.75 H -2.125 c -0.25,0 -0.441406,0.085938 -0.578125,0.25 -0.132813,0.15625 -0.203125,0.386719 -0.203125,0.6875 0,0.1875 0.027344,0.371094 0.078125,0.546875 0.042969,0.179687 0.105469,0.351563 0.1875,0.515625 H -3.125 c -0.082031,-0.195312 -0.140625,-0.390625 -0.171875,-0.578125 -0.039063,-0.1875 -0.0625,-0.367187 -0.0625,-0.546875 0,-0.46875 0.125,-0.816406 0.375,-1.046875 C -2.742188,-3.003906 -2.375,-3.125 -1.875,-3.125 Z m 0,0"
             id="path2584" />
        </g>
        <g
           id="use1807"
           transform="translate(718.14502,120.54678)">
          <path
             style="stroke:none"
             d="m -4.21875,-1.09375 h 0.9375 v -1.109375 h 0.421875 v 1.109375 h 1.78125 c 0.261719,0 0.433594,-0.035156 0.515625,-0.109375 0.074219,-0.070313 0.109375,-0.222656 0.109375,-0.453125 V -2.203125 H 0 v 0.546875 c 0,0.417969 -0.078125,0.703125 -0.234375,0.859375 -0.15625,0.15625 -0.4375,0.234375 -0.84375,0.234375 h -1.78125 v 0.40625 H -3.28125 V -0.5625 h -0.9375 z m 0,0"
             id="path2596" />
        </g>
        <g
           id="use1809"
           transform="translate(718.14502,118.19479)">
          <path
             style="stroke:none"
             d="m -1.65625,-2.0625 c 0,0.4375 0.054688,0.742188 0.15625,0.90625 0.105469,0.167969 0.277344,0.25 0.515625,0.25 0.1875,0 0.339844,-0.0625 0.453125,-0.1875 0.117188,-0.125 0.171875,-0.296875 0.171875,-0.515625 0,-0.289063 -0.101563,-0.523437 -0.3125,-0.703125 C -0.890625,-2.5 -1.175781,-2.59375 -1.53125,-2.59375 h -0.125 z M -1.875,-3.125 H 0 v 0.53125 h -0.5 c 0.199219,0.125 0.34375,0.28125 0.4375,0.46875 0.09375,0.179688 0.140625,0.402344 0.140625,0.671875 0,0.335937 -0.09375,0.601563 -0.28125,0.796875 -0.1875,0.199219 -0.4375,0.296875 -0.75,0.296875 -0.375,0 -0.65625,-0.125 -0.84375,-0.375 -0.1875,-0.25 -0.28125,-0.617187 -0.28125,-1.109375 v -0.75 H -2.125 c -0.25,0 -0.441406,0.085938 -0.578125,0.25 -0.132813,0.15625 -0.203125,0.386719 -0.203125,0.6875 0,0.1875 0.027344,0.371094 0.078125,0.546875 0.042969,0.179687 0.105469,0.351563 0.1875,0.515625 H -3.125 c -0.082031,-0.195312 -0.140625,-0.390625 -0.171875,-0.578125 -0.039063,-0.1875 -0.0625,-0.367187 -0.0625,-0.546875 0,-0.46875 0.125,-0.816406 0.375,-1.046875 C -2.742188,-3.003906 -2.375,-3.125 -1.875,-3.125 Z m 0,0"
             id="path2588" />
        </g>
      </g>
      <g
         style="fill:#000000;fill-opacity:1"
         id="g1815"
         transform="matrix(0.35277777,0,0,0.35277777,-221.53431,58.610202)">
        <g
           id="use1813"
           transform="translate(741.17279,153.06058)">
          <path
             style="stroke:none"
             d="M -0.015625,-4.375 H 3.6875 v 0.5 H 2.125 V 0 H 1.53125 v -3.875 h -1.546875 z m 0,0"
             id="path2636" />
        </g>
      </g>
      <g
         style="fill:#000000;fill-opacity:1"
         id="g1823"
         transform="matrix(0.35277777,0,0,0.35277777,-221.53431,58.610202)">
        <g
           id="use1817"
           transform="translate(744.64679,153.06058)">
          <path
             style="stroke:none"
             d="M 0.5625,-3.28125 H 1.109375 V 0 H 0.5625 Z m 0,-1.28125 H 1.109375 V -3.875 H 0.5625 Z m 0,0"
             id="path2620" />
        </g>
        <g
           id="use1819"
           transform="translate(746.30878,153.06058)">
          <path
             style="stroke:none"
             d="m 3.125,-2.65625 c 0.132812,-0.238281 0.296875,-0.414062 0.484375,-0.53125 0.1875,-0.113281 0.40625,-0.171875 0.65625,-0.171875 0.34375,0 0.601563,0.121094 0.78125,0.359375 0.1875,0.242188 0.28125,0.578125 0.28125,1.015625 V 0 h -0.53125 v -1.96875 c 0,-0.3125 -0.058594,-0.539062 -0.171875,-0.6875 -0.117188,-0.15625 -0.289062,-0.234375 -0.515625,-0.234375 -0.273437,0 -0.492187,0.09375 -0.65625,0.28125 -0.15625,0.1875 -0.234375,0.4375 -0.234375,0.75 V 0 H 2.671875 v -1.96875 c 0,-0.3125 -0.058594,-0.539062 -0.171875,-0.6875 -0.117188,-0.15625 -0.289062,-0.234375 -0.515625,-0.234375 -0.273437,0 -0.492187,0.09375 -0.65625,0.28125 -0.15625,0.1875 -0.234375,0.4375 -0.234375,0.75 V 0 H 0.546875 V -3.28125 H 1.09375 v 0.515625 C 1.207031,-2.972656 1.347656,-3.125 1.515625,-3.21875 c 0.175781,-0.09375 0.382813,-0.140625 0.625,-0.140625 0.238281,0 0.441406,0.0625 0.609375,0.1875 0.164062,0.117187 0.289062,0.289063 0.375,0.515625 z m 0,0"
             id="path2616" />
        </g>
        <g
           id="use1821"
           transform="translate(752.15277,153.06058)">
          <path
             style="stroke:none"
             d="m 3.375,-1.78125 v 0.265625 H 0.890625 c 0.019531,0.375 0.128906,0.664063 0.328125,0.859375 0.207031,0.1875 0.488281,0.28125 0.84375,0.28125 0.207031,0 0.40625,-0.023438 0.59375,-0.078125 0.195312,-0.050781 0.394531,-0.125 0.59375,-0.21875 v 0.5 c -0.199219,0.0859375 -0.402344,0.1484375 -0.609375,0.1875 -0.199219,0.0390625 -0.402344,0.0625 -0.609375,0.0625 -0.523438,0 -0.9375,-0.1484375 -1.25,-0.453125 -0.304688,-0.300781 -0.453125,-0.710938 -0.453125,-1.234375 0,-0.539063 0.144531,-0.96875 0.4375,-1.28125 0.289063,-0.3125 0.679687,-0.46875 1.171875,-0.46875 0.445312,0 0.796875,0.140625 1.046875,0.421875 C 3.242188,-2.65625 3.375,-2.269531 3.375,-1.78125 Z M 2.828125,-1.9375 c 0,-0.289062 -0.085937,-0.523438 -0.25,-0.703125 -0.15625,-0.175781 -0.367187,-0.265625 -0.625,-0.265625 -0.304687,0 -0.546875,0.089844 -0.734375,0.265625 -0.179688,0.167969 -0.28125,0.402344 -0.3125,0.703125 z m 0,0"
             id="path2608" />
        </g>
      </g>
    </g>
    <g
       style="fill:#000000;fill-opacity:1"
       id="g1827"
       transform="matrix(0.35277777,0,0,0.35277777,-164.38395,58.610202)">
      <g
         id="use1825"
         transform="translate(793.77667,121.98718)">
        <path
           style="stroke:none"
           d="M 2.046875,-3.796875 1.25,-1.609375 H 2.859375 Z M 1.71875,-4.375 H 2.390625 L 4.0625,0 H 3.4375 L 3.046875,-1.125 H 1.0625 L 0.671875,0 h -0.625 z m 0,0"
           id="path2604" />
      </g>
    </g>
    <g
       style="fill:#000000;fill-opacity:1"
       id="g1845"
       transform="matrix(0.35277777,0,0,0.35277777,-164.38395,58.610202)">
      <g
         id="use1829"
         transform="translate(797.52667,121.98718)">
        <path
           style="stroke:none"
           d="M 0.171875,-3.28125 H 0.75 l 1.03125,2.75 1.015625,-2.75 H 3.375 L 2.140625,0 H 1.40625 Z m 0,0"
           id="path2600" />
      </g>
      <g
         id="use1831"
         transform="translate(801.07269,121.98718)">
        <path
           style="stroke:none"
           d="m 2.0625,-1.65625 c -0.4375,0 -0.742188,0.054688 -0.90625,0.15625 -0.167969,0.105469 -0.25,0.277344 -0.25,0.515625 0,0.1875 0.0625,0.339844 0.1875,0.453125 0.125,0.117188 0.296875,0.171875 0.515625,0.171875 0.289063,0 0.523437,-0.101563 0.703125,-0.3125 C 2.5,-0.890625 2.59375,-1.175781 2.59375,-1.53125 v -0.125 z M 3.125,-1.875 V 0 H 2.59375 V -0.5 C 2.46875,-0.300781 2.3125,-0.15625 2.125,-0.0625 1.945312,0.03125 1.722656,0.078125 1.453125,0.078125 c -0.335937,0 -0.601563,-0.09375 -0.796875,-0.28125 -0.199219,-0.1875 -0.296875,-0.4375 -0.296875,-0.75 0,-0.375 0.125,-0.65625 0.375,-0.84375 0.25,-0.1875 0.617187,-0.28125 1.109375,-0.28125 h 0.75 V -2.125 c 0,-0.25 -0.085938,-0.441406 -0.25,-0.578125 C 2.1875,-2.835938 1.957031,-2.90625 1.65625,-2.90625 c -0.1875,0 -0.371094,0.027344 -0.546875,0.078125 -0.179687,0.042969 -0.351563,0.105469 -0.515625,0.1875 V -3.125 c 0.195312,-0.082031 0.390625,-0.140625 0.578125,-0.171875 0.1875,-0.039063 0.367187,-0.0625 0.546875,-0.0625 0.46875,0 0.816406,0.125 1.046875,0.375 C 3.003906,-2.742188 3.125,-2.375 3.125,-1.875 Z m 0,0"
           id="path2576" />
      </g>
      <g
         id="use1833"
         transform="translate(804.74469,121.98718)">
        <path
           style="stroke:none"
           d="M 0.5625,-3.28125 H 1.109375 V 0 H 0.5625 Z m 0,-1.28125 H 1.109375 V -3.875 H 0.5625 Z m 0,0"
           id="path2624" />
      </g>
      <g
         id="use1835"
         transform="translate(806.40668,121.98718)">
        <path
           style="stroke:none"
           d="M 0.5625,-4.5625 H 1.109375 V 0 H 0.5625 Z m 0,0"
           id="path2568" />
      </g>
      <g
         id="use1837"
         transform="translate(808.06873,121.98718)">
        <path
           style="stroke:none"
           d="m 2.0625,-1.65625 c -0.4375,0 -0.742188,0.054688 -0.90625,0.15625 -0.167969,0.105469 -0.25,0.277344 -0.25,0.515625 0,0.1875 0.0625,0.339844 0.1875,0.453125 0.125,0.117188 0.296875,0.171875 0.515625,0.171875 0.289063,0 0.523437,-0.101563 0.703125,-0.3125 C 2.5,-0.890625 2.59375,-1.175781 2.59375,-1.53125 v -0.125 z M 3.125,-1.875 V 0 H 2.59375 V -0.5 C 2.46875,-0.300781 2.3125,-0.15625 2.125,-0.0625 1.945312,0.03125 1.722656,0.078125 1.453125,0.078125 c -0.335937,0 -0.601563,-0.09375 -0.796875,-0.28125 -0.199219,-0.1875 -0.296875,-0.4375 -0.296875,-0.75 0,-0.375 0.125,-0.65625 0.375,-0.84375 0.25,-0.1875 0.617187,-0.28125 1.109375,-0.28125 h 0.75 V -2.125 c 0,-0.25 -0.085938,-0.441406 -0.25,-0.578125 C 2.1875,-2.835938 1.957031,-2.90625 1.65625,-2.90625 c -0.1875,0 -0.371094,0.027344 -0.546875,0.078125 -0.179687,0.042969 -0.351563,0.105469 -0.515625,0.1875 V -3.125 c 0.195312,-0.082031 0.390625,-0.140625 0.578125,-0.171875 0.1875,-0.039063 0.367187,-0.0625 0.546875,-0.0625 0.46875,0 0.816406,0.125 1.046875,0.375 C 3.003906,-2.742188 3.125,-2.375 3.125,-1.875 Z m 0,0"
           id="path2580" />
      </g>
      <g
         id="use1839"
         transform="translate(811.74072,121.98718)">
        <path
           style="stroke:none"
           d="m 2.921875,-1.640625 c 0,-0.394531 -0.085937,-0.703125 -0.25,-0.921875 C 2.515625,-2.789062 2.289062,-2.90625 2,-2.90625 c -0.28125,0 -0.507812,0.117188 -0.671875,0.34375 -0.15625,0.21875 -0.234375,0.527344 -0.234375,0.921875 0,0.398437 0.078125,0.710937 0.234375,0.9375 0.164063,0.230469 0.390625,0.34375 0.671875,0.34375 0.289062,0 0.515625,-0.113281 0.671875,-0.34375 0.164063,-0.226563 0.25,-0.539063 0.25,-0.9375 z M 1.09375,-2.78125 c 0.101562,-0.195312 0.242188,-0.34375 0.421875,-0.4375 0.175781,-0.09375 0.382813,-0.140625 0.625,-0.140625 0.394531,0 0.71875,0.164063 0.96875,0.484375 0.25,0.3125 0.375,0.726562 0.375,1.234375 0,0.523437 -0.125,0.9375 -0.375,1.25 -0.25,0.3125 -0.574219,0.46875 -0.96875,0.46875 -0.242187,0 -0.449219,-0.046875 -0.625,-0.140625 C 1.335938,-0.15625 1.195312,-0.300781 1.09375,-0.5 V 0 H 0.546875 V -4.5625 H 1.09375 Z m 0,0"
           id="path2564" />
      </g>
      <g
         id="use1841"
         transform="translate(815.54474,121.98718)">
        <path
           style="stroke:none"
           d="M 0.5625,-4.5625 H 1.109375 V 0 H 0.5625 Z m 0,0"
           id="path2572" />
      </g>
      <g
         id="use1843"
         transform="translate(817.20673,121.98718)">
        <path
           style="stroke:none"
           d="m 3.375,-1.78125 v 0.265625 H 0.890625 c 0.019531,0.375 0.128906,0.664063 0.328125,0.859375 0.207031,0.1875 0.488281,0.28125 0.84375,0.28125 0.207031,0 0.40625,-0.023438 0.59375,-0.078125 0.195312,-0.050781 0.394531,-0.125 0.59375,-0.21875 v 0.5 c -0.199219,0.0859375 -0.402344,0.1484375 -0.609375,0.1875 -0.199219,0.0390625 -0.402344,0.0625 -0.609375,0.0625 -0.523438,0 -0.9375,-0.1484375 -1.25,-0.453125 -0.304688,-0.300781 -0.453125,-0.710938 -0.453125,-1.234375 0,-0.539063 0.144531,-0.96875 0.4375,-1.28125 0.289063,-0.3125 0.679687,-0.46875 1.171875,-0.46875 0.445312,0 0.796875,0.140625 1.046875,0.421875 C 3.242188,-2.65625 3.375,-2.269531 3.375,-1.78125 Z M 2.828125,-1.9375 c 0,-0.289062 -0.085937,-0.523438 -0.25,-0.703125 -0.15625,-0.175781 -0.367187,-0.265625 -0.625,-0.265625 -0.304687,0 -0.546875,0.089844 -0.734375,0.265625 -0.179688,0.167969 -0.28125,0.402344 -0.3125,0.703125 z m 0,0"
           id="path2612" />
      </g>
    </g>
    <g
       style="fill:#000000;fill-opacity:1"
       id="g1861"
       transform="matrix(0.35277777,0,0,0.35277777,-164.38395,58.610202)">
      <g
         id="use1847"
         transform="translate(793.23462,131.0316)">
        <path
           style="stroke:none"
           d="m 0.59375,-4.375 h 0.875 l 1.125,2.984375 L 3.703125,-4.375 H 4.59375 V 0 H 4.015625 v -3.84375 l -1.125,3 h -0.59375 l -1.140625,-3 V 0 h -0.5625 z m 0,0"
           id="path2560" />
      </g>
      <g
         id="use1849"
         transform="translate(798.40668,131.0316)">
        <path
           style="stroke:none"
           d="M 0.5625,-3.28125 H 1.109375 V 0 H 0.5625 Z m 0,-1.28125 H 1.109375 V -3.875 H 0.5625 Z m 0,0"
           id="path2628" />
      </g>
      <g
         id="use1851"
         transform="translate(800.06866,131.0316)">
        <path
           style="stroke:none"
           d="m 2.65625,-3.1875 v 0.515625 C 2.5,-2.753906 2.335938,-2.8125 2.171875,-2.84375 c -0.15625,-0.039062 -0.324219,-0.0625 -0.5,-0.0625 -0.273437,0 -0.476563,0.042969 -0.609375,0.125 -0.125,0.085938 -0.1875,0.203125 -0.1875,0.359375 0,0.125 0.046875,0.226563 0.140625,0.296875 0.09375,0.074219 0.285156,0.140625 0.578125,0.203125 L 1.78125,-1.875 c 0.375,0.085938 0.640625,0.199219 0.796875,0.34375 0.164063,0.148438 0.25,0.355469 0.25,0.625 0,0.304688 -0.121094,0.542969 -0.359375,0.71875 C 2.226562,-0.0078125 1.898438,0.078125 1.484375,0.078125 1.304688,0.078125 1.117188,0.0625 0.921875,0.03125 0.734375,0 0.535156,-0.0507812 0.328125,-0.125 v -0.546875 c 0.195313,0.105469 0.390625,0.183594 0.578125,0.234375 0.195312,0.054688 0.390625,0.078125 0.578125,0.078125 0.257813,0 0.457031,-0.039063 0.59375,-0.125 0.132813,-0.09375 0.203125,-0.21875 0.203125,-0.375 C 2.28125,-1.003906 2.226562,-1.113281 2.125,-1.1875 2.03125,-1.269531 1.816406,-1.347656 1.484375,-1.421875 L 1.296875,-1.46875 C 0.960938,-1.539062 0.71875,-1.648438 0.5625,-1.796875 0.414062,-1.941406 0.34375,-2.140625 0.34375,-2.390625 c 0,-0.3125 0.109375,-0.550781 0.328125,-0.71875 0.21875,-0.164063 0.53125,-0.25 0.9375,-0.25 0.195313,0 0.382813,0.015625 0.5625,0.046875 0.175781,0.03125 0.335937,0.074219 0.484375,0.125 z m 0,0"
           id="path2552" />
      </g>
      <g
         id="use1853"
         transform="translate(803.18866,131.0316)">
        <path
           style="stroke:none"
           d="m 2.65625,-3.1875 v 0.515625 C 2.5,-2.753906 2.335938,-2.8125 2.171875,-2.84375 c -0.15625,-0.039062 -0.324219,-0.0625 -0.5,-0.0625 -0.273437,0 -0.476563,0.042969 -0.609375,0.125 -0.125,0.085938 -0.1875,0.203125 -0.1875,0.359375 0,0.125 0.046875,0.226563 0.140625,0.296875 0.09375,0.074219 0.285156,0.140625 0.578125,0.203125 L 1.78125,-1.875 c 0.375,0.085938 0.640625,0.199219 0.796875,0.34375 0.164063,0.148438 0.25,0.355469 0.25,0.625 0,0.304688 -0.121094,0.542969 -0.359375,0.71875 C 2.226562,-0.0078125 1.898438,0.078125 1.484375,0.078125 1.304688,0.078125 1.117188,0.0625 0.921875,0.03125 0.734375,0 0.535156,-0.0507812 0.328125,-0.125 v -0.546875 c 0.195313,0.105469 0.390625,0.183594 0.578125,0.234375 0.195312,0.054688 0.390625,0.078125 0.578125,0.078125 0.257813,0 0.457031,-0.039063 0.59375,-0.125 0.132813,-0.09375 0.203125,-0.21875 0.203125,-0.375 C 2.28125,-1.003906 2.226562,-1.113281 2.125,-1.1875 2.03125,-1.269531 1.816406,-1.347656 1.484375,-1.421875 L 1.296875,-1.46875 C 0.960938,-1.539062 0.71875,-1.648438 0.5625,-1.796875 0.414062,-1.941406 0.34375,-2.140625 0.34375,-2.390625 c 0,-0.3125 0.109375,-0.550781 0.328125,-0.71875 0.21875,-0.164063 0.53125,-0.25 0.9375,-0.25 0.195313,0 0.382813,0.015625 0.5625,0.046875 0.175781,0.03125 0.335937,0.074219 0.484375,0.125 z m 0,0"
           id="path2556" />
      </g>
      <g
         id="use1855"
         transform="translate(806.30865,131.0316)">
        <path
           style="stroke:none"
           d="M 0.5625,-3.28125 H 1.109375 V 0 H 0.5625 Z m 0,-1.28125 H 1.109375 V -3.875 H 0.5625 Z m 0,0"
           id="path2632" />
      </g>
      <g
         id="use1857"
         transform="translate(807.97064,131.0316)">
        <path
           style="stroke:none"
           d="M 3.296875,-1.984375 V 0 H 2.75 V -1.96875 C 2.75,-2.269531 2.6875,-2.5 2.5625,-2.65625 2.445312,-2.8125 2.269531,-2.890625 2.03125,-2.890625 c -0.292969,0 -0.523438,0.09375 -0.6875,0.28125 -0.167969,0.1875 -0.25,0.4375 -0.25,0.75 V 0 H 0.546875 V -3.28125 H 1.09375 v 0.515625 c 0.125,-0.195313 0.273438,-0.34375 0.453125,-0.4375 0.175781,-0.101563 0.375,-0.15625 0.59375,-0.15625 C 2.523438,-3.359375 2.8125,-3.238281 3,-3 c 0.195312,0.230469 0.296875,0.570312 0.296875,1.015625 z m 0,0"
           id="path2548" />
      </g>
      <g
         id="use1859"
         transform="translate(811.76868,131.0316)">
        <path
           style="stroke:none"
           d="m 2.71875,-1.671875 c 0,-0.394531 -0.085938,-0.695313 -0.25,-0.90625 -0.15625,-0.21875 -0.375,-0.328125 -0.65625,-0.328125 -0.292969,0 -0.523438,0.109375 -0.6875,0.328125 -0.15625,0.210937 -0.234375,0.511719 -0.234375,0.90625 0,0.386719 0.078125,0.6875 0.234375,0.90625 0.164062,0.210937 0.394531,0.3125 0.6875,0.3125 0.28125,0 0.5,-0.101563 0.65625,-0.3125 0.164062,-0.21875 0.25,-0.519531 0.25,-0.90625 z m 0.546875,1.265625 c 0,0.5625 -0.125,0.976562 -0.375,1.25 C 2.640625,1.113281 2.257812,1.25 1.75,1.25 1.5625,1.25 1.382812,1.234375 1.21875,1.203125 1.050781,1.171875 0.890625,1.128906 0.734375,1.078125 v -0.53125 c 0.15625,0.09375 0.304687,0.15625 0.453125,0.1875 0.15625,0.039063 0.316406,0.0625 0.484375,0.0625 0.351563,0 0.613281,-0.09375 0.78125,-0.28125 C 2.628906,0.335938 2.71875,0.0625 2.71875,-0.3125 v -0.265625 c -0.105469,0.199219 -0.246094,0.34375 -0.421875,0.4375 C 2.117188,-0.046875 1.910156,0 1.671875,0 1.265625,0 0.9375,-0.148438 0.6875,-0.453125 c -0.242188,-0.3125 -0.359375,-0.71875 -0.359375,-1.21875 0,-0.507813 0.117187,-0.914063 0.359375,-1.21875 0.25,-0.3125 0.578125,-0.46875 0.984375,-0.46875 0.238281,0 0.445313,0.046875 0.625,0.140625 0.175781,0.09375 0.316406,0.242188 0.421875,0.4375 v -0.5 h 0.546875 z m 0,0"
           id="path2544" />
      </g>
    </g>
    <path
       style="fill:none;stroke:#ebeef0;stroke-width:0.165;stroke-linecap:round;stroke-linejoin:miter;stroke-miterlimit:4;stroke-opacity:1"
       d="m 111.66853,99.185159 h 14.49015 v 6.738611 h -14.49015 z m 0,0"
       id="path1863" />
    <g
       id="g5008"
       transform="translate(-0.5290865)">
      <path
         style="fill:none;stroke:#cfd7dc;stroke-width:0.264999;stroke-linecap:round;stroke-linejoin:round;stroke-dasharray:none;stroke-opacity:1"
         d="m 61.751675,95.363058 c 0.387831,0.455027 0.730067,0.948896 1.019924,1.471816 0.493925,0.891071 0.845282,1.879439 1.525296,2.638089 0.577351,0.644117 1.354704,1.078717 1.956726,1.699837 0.914289,0.94329 1.358075,2.24665 1.612665,3.53541 0.109329,0.55344 0.191831,1.12183 0.438878,1.62899 0.123523,0.25358 0.288555,0.48953 0.501683,0.6743 0.213128,0.18476 0.47615,0.3166 0.755902,0.35266 0.309379,0.0399 0.628346,-0.0394 0.89791,-0.19635 0.269565,-0.15698 0.491393,-0.38848 0.661116,-0.6502 0.339446,-0.52345 0.470332,-1.15099 0.594862,-1.76231 0.149752,-0.73514 0.302586,-1.47913 0.629605,-2.15434 0.327018,-0.67522 0.852279,-1.2853 1.551657,-1.55682 0.370188,-0.14372 0.775083,-0.18724 1.170969,-0.15612 0.395886,0.0311 0.783576,0.13521 1.154228,0.27773 0.741306,0.28504 1.413792,0.72059 2.124087,1.07592 0.75648,0.37843 1.558178,0.66638 2.382567,0.85574"
         id="path3785"
         inkscape:path-effect="#path-effect3787"
         inkscape:original-d="m 61.751675,95.363058 c 0.354044,0.480668 0.680212,0.981474 1.019924,1.471816 0.339709,0.490339 1.017129,1.75899 1.525296,2.638089 0.508169,0.879097 1.304748,1.133487 1.956726,1.699837 0.651976,0.56635 1.075373,2.3572 1.612665,3.53541 0.537289,1.1782 1.131239,1.7709 1.696463,2.65595 0.565221,0.88505 1.43619,-1.73897 2.153888,-2.60886 0.717698,-0.86988 1.454439,-2.47384 2.181262,-3.71116 0.726821,-1.237318 2.966453,0.79862 4.449284,1.19753 1.482831,0.39891 1.588643,0.57076 2.382567,0.85574" />
      <path
         style="fill:none;stroke:#cfd7dc;stroke-width:0.264999;stroke-linecap:round;stroke-linejoin:round;stroke-dasharray:none;stroke-opacity:1"
         d="m 62.00622,94.769037 c 0.314771,0.745168 0.578515,1.511886 0.788773,2.293006 0.379688,1.410565 0.58388,2.862566 0.928853,4.282017 0.344972,1.41946 0.845113,2.8315 1.73919,3.9867 0.496998,0.64215 1.113156,1.19678 1.824313,1.58872 0.711157,0.39195 1.518563,0.61796 2.330555,0.6122 0.872321,-0.006 1.727402,-0.27702 2.504366,-0.67365 0.776963,-0.39662 1.483546,-0.9168 2.173121,-1.45109 1.347548,-1.0441 2.648421,-2.15377 4.074115,-3.08834 0.760562,-0.49856 1.554731,-0.94585 2.375331,-1.33781"
         id="path3789"
         inkscape:path-effect="#path-effect3791"
         inkscape:original-d="m 62.00622,94.769037 c 0.263189,0.767876 0.526113,1.528937 0.788773,2.293006 0.26266,0.764071 1.778961,5.512737 2.668043,8.268717 0.889082,2.75597 2.770176,1.46754 4.154868,2.20092 1.384692,0.73337 3.118588,-1.41623 4.677487,-2.12474 1.558898,-0.70851 2.716339,-2.05863 4.074115,-3.08834 1.357772,-1.02971 1.583819,-0.89161 2.375331,-1.33781" />
      <path
         style="fill:none;stroke:#000000;stroke-width:0.265;stroke-linecap:round;stroke-linejoin:round;stroke-dasharray:none;stroke-opacity:1"
         d="m 61.931751,95.167014 c 1.306685,2.762465 2.561448,5.549486 3.763403,8.359106 0.376635,0.8804 0.755838,1.77611 1.359516,2.51943 0.301839,0.37166 0.659107,0.70193 1.071592,0.94503 0.412485,0.24309 0.881761,0.39701 1.360311,0.41213 0.488412,0.0154 0.974887,-0.11362 1.414035,-0.32794 0.439148,-0.21432 0.83349,-0.51188 1.194192,-0.84155 0.721404,-0.65932 1.315759,-1.44973 2.053192,-2.09108 1.140398,-0.99181 2.585837,-1.58838 4.067915,-1.88443 0.853047,-0.1704 1.724928,-0.24633 2.594589,-0.22597"
         id="path2863"
         inkscape:path-effect="#path-effect2865"
         inkscape:original-d="m 61.931751,95.167014 c 0.967962,3.435788 2.430135,5.678716 3.763403,8.359106 1.333267,2.6804 2.681629,2.7443 3.791419,3.87659 1.109789,1.13228 3.103179,-2.17168 4.661419,-3.26057 1.558239,-1.08889 2.644375,-1.32743 4.067915,-1.88443 1.423543,-0.557 1.729991,-0.15038 2.594589,-0.22597"
         sodipodi:nodetypes="cssssc" />
      <path
         style="fill:none;stroke:#000000;stroke-width:0.264999;stroke-linecap:round;stroke-linejoin:miter;stroke-miterlimit:4;stroke-opacity:1"
         d="M 60.420584,93.386373 V 109.91732 H 81.103557"
         id="path2710" />
      <path
         style="fill:#000000;fill-opacity:1;fill-rule:nonzero;stroke:none;stroke-width:0.352778"
         d="m 63.664093,97.035643 c 0,0.47405 -0.383095,0.85714 -0.85714,0.85714 -0.472666,0 -0.857141,-0.38309 -0.857141,-0.85714 0,-0.47266 0.384475,-0.85576 0.857141,-0.85576 0.474045,0 0.85714,0.3831 0.85714,0.85576 z m 0,0"
         id="path2712" />
      <path
         style="fill:#000000;fill-opacity:1;fill-rule:nonzero;stroke:none;stroke-width:0.352778"
         d="m 70.541261,107.37864 c 0,0.47267 -0.384471,0.85714 -0.85714,0.85714 -0.474045,0 -0.857137,-0.38447 -0.857137,-0.85714 0,-0.47404 0.383092,-0.85714 0.857137,-0.85714 0.472669,0 0.85714,0.3831 0.85714,0.85714 z m 0,0"
         id="path2714" />
      <path
         style="fill:#000000;fill-opacity:1;fill-rule:nonzero;stroke:none;stroke-width:0.352778"
         d="m 79.358676,102.31251 c 0,0.47267 -0.384472,0.85714 -0.857141,0.85714 -0.474045,0 -0.85714,-0.38447 -0.85714,-0.85714 0,-0.47404 0.383095,-0.85713 0.85714,-0.85713 0.472669,0 0.857141,0.38309 0.857141,0.85713 z m 0,0"
         id="path2716" />
      <path
         style="fill:none;stroke:#bd350a;stroke-width:0.265;stroke-linecap:square;stroke-linejoin:miter;stroke-miterlimit:4;stroke-opacity:1"
         d="m 66.199895,102.89418 -0.418924,0.56224 0.440973,0.59531 h -0.225997 l -0.336243,-0.45751 -0.33624,0.45751 h -0.226 l 0.451997,-0.60634 -0.41341,-0.55121 h 0.225997 l 0.30317,0.41341 0.30868,-0.41341 z m 0,0"
         id="path2720" />
      <path
         style="fill:none;stroke:#bd350a;stroke-width:0.265;stroke-linecap:square;stroke-linejoin:miter;stroke-miterlimit:4;stroke-opacity:1"
         d="m 74.571475,103.62488 -0.418924,0.56224 0.440972,0.59531 h -0.225996 l -0.336243,-0.45751 -0.33624,0.45751 h -0.226 l 0.451997,-0.60634 -0.41341,-0.55121 h 0.225996 l 0.30317,0.41341 0.308681,-0.41341 z m 0,0"
         id="path2722" />
      <g
         style="fill:#000000;fill-opacity:1"
         id="g2740"
         transform="matrix(0.35277777,0,0,0.35277777,-194.01748,58.610202)">
        <g
           id="g2726"
           transform="translate(718.14502,128.83881)">
          <path
             style="stroke:none"
             d="m -3.890625,-1.1875 h 3.40625 v -0.703125 c 0,-0.601563 -0.132813,-1.046875 -0.40625,-1.328125 C -1.171875,-3.5 -1.601562,-3.640625 -2.1875,-3.640625 c -0.59375,0 -1.023438,0.140625 -1.296875,0.421875 -0.269531,0.28125 -0.40625,0.726562 -0.40625,1.328125 z M -4.375,-0.59375 V -1.8125 c 0,-0.84375 0.179688,-1.460938 0.53125,-1.859375 0.355469,-0.394531 0.90625,-0.59375 1.65625,-0.59375 0.75,0 1.304688,0.199219 1.65625,0.59375 C -0.175781,-3.273438 0,-2.65625 0,-1.8125 v 1.21875 z m 0,0"
             id="path2724" />
        </g>
        <g
           id="g2730"
           transform="translate(718.14502,124.2188)">
          <path
             style="stroke:none"
             d="m -1.65625,-2.0625 c 0,0.4375 0.054688,0.742188 0.15625,0.90625 0.105469,0.167969 0.277344,0.25 0.515625,0.25 0.1875,0 0.339844,-0.0625 0.453125,-0.1875 0.117188,-0.125 0.171875,-0.296875 0.171875,-0.515625 0,-0.289063 -0.101563,-0.523437 -0.3125,-0.703125 C -0.890625,-2.5 -1.175781,-2.59375 -1.53125,-2.59375 h -0.125 z M -1.875,-3.125 H 0 v 0.53125 h -0.5 c 0.199219,0.125 0.34375,0.28125 0.4375,0.46875 0.09375,0.179688 0.140625,0.402344 0.140625,0.671875 0,0.335937 -0.09375,0.601563 -0.28125,0.796875 -0.1875,0.199219 -0.4375,0.296875 -0.75,0.296875 -0.375,0 -0.65625,-0.125 -0.84375,-0.375 -0.1875,-0.25 -0.28125,-0.617187 -0.28125,-1.109375 v -0.75 H -2.125 c -0.25,0 -0.441406,0.085938 -0.578125,0.25 -0.132813,0.15625 -0.203125,0.386719 -0.203125,0.6875 0,0.1875 0.027344,0.371094 0.078125,0.546875 0.042969,0.179687 0.105469,0.351563 0.1875,0.515625 H -3.125 c -0.082031,-0.195312 -0.140625,-0.390625 -0.171875,-0.578125 -0.039063,-0.1875 -0.0625,-0.367187 -0.0625,-0.546875 0,-0.46875 0.125,-0.816406 0.375,-1.046875 C -2.742188,-3.003906 -2.375,-3.125 -1.875,-3.125 Z m 0,0"
             id="path2728" />
        </g>
        <g
           id="g2734"
           transform="translate(718.14502,120.54678)">
          <path
             style="stroke:none"
             d="m -4.21875,-1.09375 h 0.9375 v -1.109375 h 0.421875 v 1.109375 h 1.78125 c 0.261719,0 0.433594,-0.035156 0.515625,-0.109375 0.074219,-0.070313 0.109375,-0.222656 0.109375,-0.453125 V -2.203125 H 0 v 0.546875 c 0,0.417969 -0.078125,0.703125 -0.234375,0.859375 -0.15625,0.15625 -0.4375,0.234375 -0.84375,0.234375 h -1.78125 v 0.40625 H -3.28125 V -0.5625 h -0.9375 z m 0,0"
             id="path2732" />
        </g>
        <g
           id="g2738"
           transform="translate(718.14502,118.19479)">
          <path
             style="stroke:none"
             d="m -1.65625,-2.0625 c 0,0.4375 0.054688,0.742188 0.15625,0.90625 0.105469,0.167969 0.277344,0.25 0.515625,0.25 0.1875,0 0.339844,-0.0625 0.453125,-0.1875 0.117188,-0.125 0.171875,-0.296875 0.171875,-0.515625 0,-0.289063 -0.101563,-0.523437 -0.3125,-0.703125 C -0.890625,-2.5 -1.175781,-2.59375 -1.53125,-2.59375 h -0.125 z M -1.875,-3.125 H 0 v 0.53125 h -0.5 c 0.199219,0.125 0.34375,0.28125 0.4375,0.46875 0.09375,0.179688 0.140625,0.402344 0.140625,0.671875 0,0.335937 -0.09375,0.601563 -0.28125,0.796875 -0.1875,0.199219 -0.4375,0.296875 -0.75,0.296875 -0.375,0 -0.65625,-0.125 -0.84375,-0.375 -0.1875,-0.25 -0.28125,-0.617187 -0.28125,-1.109375 v -0.75 H -2.125 c -0.25,0 -0.441406,0.085938 -0.578125,0.25 -0.132813,0.15625 -0.203125,0.386719 -0.203125,0.6875 0,0.1875 0.027344,0.371094 0.078125,0.546875 0.042969,0.179687 0.105469,0.351563 0.1875,0.515625 H -3.125 c -0.082031,-0.195312 -0.140625,-0.390625 -0.171875,-0.578125 -0.039063,-0.1875 -0.0625,-0.367187 -0.0625,-0.546875 0,-0.46875 0.125,-0.816406 0.375,-1.046875 C -2.742188,-3.003906 -2.375,-3.125 -1.875,-3.125 Z m 0,0"
             id="path2736" />
        </g>
      </g>
      <g
         style="fill:#000000;fill-opacity:1"
         id="g2746"
         transform="matrix(0.35277777,0,0,0.35277777,-194.01748,58.610202)">
        <g
           id="g2744"
           transform="translate(741.17279,153.06058)">
          <path
             style="stroke:none"
             d="M -0.015625,-4.375 H 3.6875 v 0.5 H 2.125 V 0 H 1.53125 v -3.875 h -1.546875 z m 0,0"
             id="path2742" />
        </g>
      </g>
      <g
         style="fill:#000000;fill-opacity:1"
         id="g2760"
         transform="matrix(0.35277777,0,0,0.35277777,-194.01748,58.610202)">
        <g
           id="g2750"
           transform="translate(744.64679,153.06058)">
          <path
             style="stroke:none"
             d="M 0.5625,-3.28125 H 1.109375 V 0 H 0.5625 Z m 0,-1.28125 H 1.109375 V -3.875 H 0.5625 Z m 0,0"
             id="path2748" />
        </g>
        <g
           id="g2754"
           transform="translate(746.30878,153.06058)">
          <path
             style="stroke:none"
             d="m 3.125,-2.65625 c 0.132812,-0.238281 0.296875,-0.414062 0.484375,-0.53125 0.1875,-0.113281 0.40625,-0.171875 0.65625,-0.171875 0.34375,0 0.601563,0.121094 0.78125,0.359375 0.1875,0.242188 0.28125,0.578125 0.28125,1.015625 V 0 h -0.53125 v -1.96875 c 0,-0.3125 -0.058594,-0.539062 -0.171875,-0.6875 -0.117188,-0.15625 -0.289062,-0.234375 -0.515625,-0.234375 -0.273437,0 -0.492187,0.09375 -0.65625,0.28125 -0.15625,0.1875 -0.234375,0.4375 -0.234375,0.75 V 0 H 2.671875 v -1.96875 c 0,-0.3125 -0.058594,-0.539062 -0.171875,-0.6875 -0.117188,-0.15625 -0.289062,-0.234375 -0.515625,-0.234375 -0.273437,0 -0.492187,0.09375 -0.65625,0.28125 -0.15625,0.1875 -0.234375,0.4375 -0.234375,0.75 V 0 H 0.546875 V -3.28125 H 1.09375 v 0.515625 C 1.207031,-2.972656 1.347656,-3.125 1.515625,-3.21875 c 0.175781,-0.09375 0.382813,-0.140625 0.625,-0.140625 0.238281,0 0.441406,0.0625 0.609375,0.1875 0.164062,0.117187 0.289062,0.289063 0.375,0.515625 z m 0,0"
             id="path2752" />
        </g>
        <g
           id="g2758"
           transform="translate(752.15277,153.06058)">
          <path
             style="stroke:none"
             d="m 3.375,-1.78125 v 0.265625 H 0.890625 c 0.019531,0.375 0.128906,0.664063 0.328125,0.859375 0.207031,0.1875 0.488281,0.28125 0.84375,0.28125 0.207031,0 0.40625,-0.023438 0.59375,-0.078125 0.195312,-0.050781 0.394531,-0.125 0.59375,-0.21875 v 0.5 c -0.199219,0.0859375 -0.402344,0.1484375 -0.609375,0.1875 -0.199219,0.0390625 -0.402344,0.0625 -0.609375,0.0625 -0.523438,0 -0.9375,-0.1484375 -1.25,-0.453125 -0.304688,-0.300781 -0.453125,-0.710938 -0.453125,-1.234375 0,-0.539063 0.144531,-0.96875 0.4375,-1.28125 0.289063,-0.3125 0.679687,-0.46875 1.171875,-0.46875 0.445312,0 0.796875,0.140625 1.046875,0.421875 C 3.242188,-2.65625 3.375,-2.269531 3.375,-1.78125 Z M 2.828125,-1.9375 c 0,-0.289062 -0.085937,-0.523438 -0.25,-0.703125 -0.15625,-0.175781 -0.367187,-0.265625 -0.625,-0.265625 -0.304687,0 -0.546875,0.089844 -0.734375,0.265625 -0.179688,0.167969 -0.28125,0.402344 -0.3125,0.703125 z m 0,0"
             id="path2756" />
        </g>
      </g>
    </g>
    <path
       style="fill:none;stroke:#cfd7dc;stroke-width:0.264999;stroke-linecap:round;stroke-linejoin:round;stroke-dasharray:none;stroke-opacity:1"
       d="m 87.574069,106.27041 c 1.051341,-2.07903 1.986023,-4.21704 2.798184,-6.400632 0.254606,-0.684539 0.503505,-1.385424 0.944043,-1.967956 0.220269,-0.291266 0.488081,-0.549865 0.802659,-0.735323 0.314579,-0.185458 0.677447,-0.295629 1.042542,-0.287892 0.466927,0.0099 0.915908,0.211847 1.281221,0.502821 0.365313,0.290973 0.654002,0.667174 0.905833,1.060494 0.503662,0.786638 0.893179,1.678548 1.613297,2.273448 0.612608,0.50608 1.413826,0.74421 2.207202,0.78853 0.793376,0.0443 1.58573,-0.0925 2.361,-0.26673 1.80755,-0.4063 3.56838,-1.02006 5.23685,-1.825389"
       id="path4394"
       inkscape:path-effect="#path-effect4396"
       inkscape:original-d="m 87.574069,106.27041 c 0.649874,-0.28671 2.148839,-6.10572 2.798184,-6.400632 0.649346,-0.29492 1.576643,-0.154959 2.789244,-2.991171 1.212601,-2.836211 2.533833,2.558111 3.800351,3.836763 1.266518,1.27866 3.045732,0.34813 4.568202,0.5218 1.52247,0.17366 3.4915,-1.21666 5.23685,-1.825389"
       sodipodi:nodetypes="cssssc" />
    <path
       style="fill:none;stroke:#cfd7dc;stroke-width:0.264999;stroke-linecap:round;stroke-linejoin:round;stroke-dasharray:none;stroke-opacity:1"
       d="m 87.727897,107.6602 c 0.524521,-0.21304 1.005688,-0.53219 1.405967,-0.93255 0.568019,-0.56813 0.965306,-1.28923 1.240827,-2.04388 0.275521,-0.75466 0.434924,-1.54614 0.577721,-2.33673 0.285595,-1.58117 0.535743,-3.240818 1.479249,-4.541387 0.1418,-0.195463 0.298844,-0.381378 0.483009,-0.537571 0.184164,-0.156193 0.396619,-0.282321 0.628855,-0.348496 0.227288,-0.06476 0.469885,-0.07069 0.70216,-0.02706 0.232275,0.04362 0.454287,0.136065 0.654543,0.261573 0.400513,0.251014 0.708586,0.628597 0.94741,1.036495 0.477648,0.815798 0.70535,1.77083 1.26662,2.53152 0.484328,0.65641 1.19109,1.125 1.948062,1.42904 0.756972,0.30404 1.56667,0.45355 2.37503,0.56307 1.5187,0.20577 3.05267,0.2766 4.58499,0.30447 0.38428,0.007 0.76862,0.0113 1.15296,0.0129"
       id="path4317"
       inkscape:path-effect="#path-effect4319"
       inkscape:original-d="m 87.727897,107.6602 c 0.605417,-0.78899 0.802772,-0.13311 1.405967,-0.93255 0.603192,-0.79945 2.66938,-6.97968 3.297797,-8.921997 0.628417,-1.942317 0.543079,-0.01098 1.111864,-0.886067 0.568786,-0.875083 2.243401,2.499434 3.570733,3.802524 1.327335,1.3031 2.882326,1.32834 4.323092,1.99211 1.44076,0.66377 3.05692,0.20324 4.58499,0.30447 1.52806,0.10122 0.7689,0.009 1.15296,0.0129"
       sodipodi:nodetypes="cssssssc" />
    <path
       style="fill:none;stroke:#000000;stroke-width:0.264999;stroke-linecap:round;stroke-linejoin:miter;stroke-miterlimit:4;stroke-opacity:1"
       d="M 86.878935,93.386373 V 109.91732 H 107.56195"
       id="path4265" />
    <path
       style="fill:#000000;fill-opacity:1;fill-rule:nonzero;stroke:none;stroke-width:0.352778"
       d="m 94.133577,96.854409 c 0,0.47405 -0.383095,0.85714 -0.85714,0.85714 -0.472666,0 -0.857141,-0.38309 -0.857141,-0.85714 0,-0.47266 0.384475,-0.85576 0.857141,-0.85576 0.474045,0 0.85714,0.3831 0.85714,0.85576 z m 0,0"
       id="path4267" />
    <path
       style="fill:#000000;fill-opacity:1;fill-rule:nonzero;stroke:none;stroke-width:0.352778"
       d="m 97.912517,100.88715 c 0,0.47267 -0.384471,0.85714 -0.85714,0.85714 -0.474045,0 -0.857137,-0.38447 -0.857137,-0.85714 0,-0.47404 0.383092,-0.85714 0.857137,-0.85714 0.472669,0 0.85714,0.3831 0.85714,0.85714 z m 0,0"
       id="path4269" />
    <g
       style="fill:#000000;fill-opacity:1"
       id="g4295"
       transform="matrix(0.35277777,0,0,0.35277777,-167.55897,58.610202)">
      <g
         id="g4281"
         transform="translate(718.14502,128.83881)">
        <path
           style="stroke:none"
           d="m -3.890625,-1.1875 h 3.40625 v -0.703125 c 0,-0.601563 -0.132813,-1.046875 -0.40625,-1.328125 C -1.171875,-3.5 -1.601562,-3.640625 -2.1875,-3.640625 c -0.59375,0 -1.023438,0.140625 -1.296875,0.421875 -0.269531,0.28125 -0.40625,0.726562 -0.40625,1.328125 z M -4.375,-0.59375 V -1.8125 c 0,-0.84375 0.179688,-1.460938 0.53125,-1.859375 0.355469,-0.394531 0.90625,-0.59375 1.65625,-0.59375 0.75,0 1.304688,0.199219 1.65625,0.59375 C -0.175781,-3.273438 0,-2.65625 0,-1.8125 v 1.21875 z m 0,0"
           id="path4279" />
      </g>
      <g
         id="g4285"
         transform="translate(718.14502,124.2188)">
        <path
           style="stroke:none"
           d="m -1.65625,-2.0625 c 0,0.4375 0.054688,0.742188 0.15625,0.90625 0.105469,0.167969 0.277344,0.25 0.515625,0.25 0.1875,0 0.339844,-0.0625 0.453125,-0.1875 0.117188,-0.125 0.171875,-0.296875 0.171875,-0.515625 0,-0.289063 -0.101563,-0.523437 -0.3125,-0.703125 C -0.890625,-2.5 -1.175781,-2.59375 -1.53125,-2.59375 h -0.125 z M -1.875,-3.125 H 0 v 0.53125 h -0.5 c 0.199219,0.125 0.34375,0.28125 0.4375,0.46875 0.09375,0.179688 0.140625,0.402344 0.140625,0.671875 0,0.335937 -0.09375,0.601563 -0.28125,0.796875 -0.1875,0.199219 -0.4375,0.296875 -0.75,0.296875 -0.375,0 -0.65625,-0.125 -0.84375,-0.375 -0.1875,-0.25 -0.28125,-0.617187 -0.28125,-1.109375 v -0.75 H -2.125 c -0.25,0 -0.441406,0.085938 -0.578125,0.25 -0.132813,0.15625 -0.203125,0.386719 -0.203125,0.6875 0,0.1875 0.027344,0.371094 0.078125,0.546875 0.042969,0.179687 0.105469,0.351563 0.1875,0.515625 H -3.125 c -0.082031,-0.195312 -0.140625,-0.390625 -0.171875,-0.578125 -0.039063,-0.1875 -0.0625,-0.367187 -0.0625,-0.546875 0,-0.46875 0.125,-0.816406 0.375,-1.046875 C -2.742188,-3.003906 -2.375,-3.125 -1.875,-3.125 Z m 0,0"
           id="path4283" />
      </g>
      <g
         id="g4289"
         transform="translate(718.14502,120.54678)">
        <path
           style="stroke:none"
           d="m -4.21875,-1.09375 h 0.9375 v -1.109375 h 0.421875 v 1.109375 h 1.78125 c 0.261719,0 0.433594,-0.035156 0.515625,-0.109375 0.074219,-0.070313 0.109375,-0.222656 0.109375,-0.453125 V -2.203125 H 0 v 0.546875 c 0,0.417969 -0.078125,0.703125 -0.234375,0.859375 -0.15625,0.15625 -0.4375,0.234375 -0.84375,0.234375 h -1.78125 v 0.40625 H -3.28125 V -0.5625 h -0.9375 z m 0,0"
           id="path4287" />
      </g>
      <g
         id="g4293"
         transform="translate(718.14502,118.19479)">
        <path
           style="stroke:none"
           d="m -1.65625,-2.0625 c 0,0.4375 0.054688,0.742188 0.15625,0.90625 0.105469,0.167969 0.277344,0.25 0.515625,0.25 0.1875,0 0.339844,-0.0625 0.453125,-0.1875 0.117188,-0.125 0.171875,-0.296875 0.171875,-0.515625 0,-0.289063 -0.101563,-0.523437 -0.3125,-0.703125 C -0.890625,-2.5 -1.175781,-2.59375 -1.53125,-2.59375 h -0.125 z M -1.875,-3.125 H 0 v 0.53125 h -0.5 c 0.199219,0.125 0.34375,0.28125 0.4375,0.46875 0.09375,0.179688 0.140625,0.402344 0.140625,0.671875 0,0.335937 -0.09375,0.601563 -0.28125,0.796875 -0.1875,0.199219 -0.4375,0.296875 -0.75,0.296875 -0.375,0 -0.65625,-0.125 -0.84375,-0.375 -0.1875,-0.25 -0.28125,-0.617187 -0.28125,-1.109375 v -0.75 H -2.125 c -0.25,0 -0.441406,0.085938 -0.578125,0.25 -0.132813,0.15625 -0.203125,0.386719 -0.203125,0.6875 0,0.1875 0.027344,0.371094 0.078125,0.546875 0.042969,0.179687 0.105469,0.351563 0.1875,0.515625 H -3.125 c -0.082031,-0.195312 -0.140625,-0.390625 -0.171875,-0.578125 -0.039063,-0.1875 -0.0625,-0.367187 -0.0625,-0.546875 0,-0.46875 0.125,-0.816406 0.375,-1.046875 C -2.742188,-3.003906 -2.375,-3.125 -1.875,-3.125 Z m 0,0"
           id="path4291" />
      </g>
    </g>
    <g
       style="fill:#000000;fill-opacity:1"
       id="g4301"
       transform="matrix(0.35277777,0,0,0.35277777,-167.55897,58.610202)">
      <g
         id="g4299"
         transform="translate(741.17279,153.06058)">
        <path
           style="stroke:none"
           d="M -0.015625,-4.375 H 3.6875 v 0.5 H 2.125 V 0 H 1.53125 v -3.875 h -1.546875 z m 0,0"
           id="path4297" />
      </g>
    </g>
    <g
       style="fill:#000000;fill-opacity:1"
       id="g4315"
       transform="matrix(0.35277777,0,0,0.35277777,-167.55897,58.610202)">
      <g
         id="g4305"
         transform="translate(744.64679,153.06058)">
        <path
           style="stroke:none"
           d="M 0.5625,-3.28125 H 1.109375 V 0 H 0.5625 Z m 0,-1.28125 H 1.109375 V -3.875 H 0.5625 Z m 0,0"
           id="path4303" />
      </g>
      <g
         id="g4309"
         transform="translate(746.30878,153.06058)">
        <path
           style="stroke:none"
           d="m 3.125,-2.65625 c 0.132812,-0.238281 0.296875,-0.414062 0.484375,-0.53125 0.1875,-0.113281 0.40625,-0.171875 0.65625,-0.171875 0.34375,0 0.601563,0.121094 0.78125,0.359375 0.1875,0.242188 0.28125,0.578125 0.28125,1.015625 V 0 h -0.53125 v -1.96875 c 0,-0.3125 -0.058594,-0.539062 -0.171875,-0.6875 -0.117188,-0.15625 -0.289062,-0.234375 -0.515625,-0.234375 -0.273437,0 -0.492187,0.09375 -0.65625,0.28125 -0.15625,0.1875 -0.234375,0.4375 -0.234375,0.75 V 0 H 2.671875 v -1.96875 c 0,-0.3125 -0.058594,-0.539062 -0.171875,-0.6875 -0.117188,-0.15625 -0.289062,-0.234375 -0.515625,-0.234375 -0.273437,0 -0.492187,0.09375 -0.65625,0.28125 -0.15625,0.1875 -0.234375,0.4375 -0.234375,0.75 V 0 H 0.546875 V -3.28125 H 1.09375 v 0.515625 C 1.207031,-2.972656 1.347656,-3.125 1.515625,-3.21875 c 0.175781,-0.09375 0.382813,-0.140625 0.625,-0.140625 0.238281,0 0.441406,0.0625 0.609375,0.1875 0.164062,0.117187 0.289062,0.289063 0.375,0.515625 z m 0,0"
           id="path4307" />
      </g>
      <g
         id="g4313"
         transform="translate(752.15277,153.06058)">
        <path
           style="stroke:none"
           d="m 3.375,-1.78125 v 0.265625 H 0.890625 c 0.019531,0.375 0.128906,0.664063 0.328125,0.859375 0.207031,0.1875 0.488281,0.28125 0.84375,0.28125 0.207031,0 0.40625,-0.023438 0.59375,-0.078125 0.195312,-0.050781 0.394531,-0.125 0.59375,-0.21875 v 0.5 c -0.199219,0.0859375 -0.402344,0.1484375 -0.609375,0.1875 -0.199219,0.0390625 -0.402344,0.0625 -0.609375,0.0625 -0.523438,0 -0.9375,-0.1484375 -1.25,-0.453125 -0.304688,-0.300781 -0.453125,-0.710938 -0.453125,-1.234375 0,-0.539063 0.144531,-0.96875 0.4375,-1.28125 0.289063,-0.3125 0.679687,-0.46875 1.171875,-0.46875 0.445312,0 0.796875,0.140625 1.046875,0.421875 C 3.242188,-2.65625 3.375,-2.269531 3.375,-1.78125 Z M 2.828125,-1.9375 c 0,-0.289062 -0.085937,-0.523438 -0.25,-0.703125 -0.15625,-0.175781 -0.367187,-0.265625 -0.625,-0.265625 -0.304687,0 -0.546875,0.089844 -0.734375,0.265625 -0.179688,0.167969 -0.28125,0.402344 -0.3125,0.703125 z m 0,0"
           id="path4311" />
      </g>
    </g>
    <path
       style="fill:none;stroke:#000000;stroke-width:0.264999;stroke-linecap:round;stroke-linejoin:round;stroke-dasharray:none;stroke-opacity:1"
       d="m 87.726479,107.10151 c 0.722282,-0.44423 1.335795,-1.06392 1.772772,-1.79062 0.711574,-1.18335 0.934356,-2.58591 1.196248,-3.94166 0.261893,-1.35576 0.602802,-2.756931 1.487976,-3.816709 0.143395,-0.17168 0.300808,-0.333387 0.482826,-0.463408 0.182018,-0.130021 0.389954,-0.227803 0.610835,-0.263124 0.286427,-0.0458 0.583426,0.01579 0.845731,0.13962 0.262305,0.123833 0.492535,0.307391 0.699963,0.510152 0.963968,0.942277 1.436811,2.268074 2.208661,3.373229 1.264435,1.81045 3.279839,2.95447 5.334279,3.76428 1.545,0.609 3.15081,1.06363 4.78576,1.35491"
       id="path4390"
       inkscape:path-effect="#path-effect4392"
       inkscape:original-d="m 87.726479,107.10151 c 0.592844,-0.58817 1.203139,-1.17339 1.772772,-1.79062 0.311446,-0.33747 1.918832,-5.939539 2.684224,-7.758369 0.765393,-1.818839 0.688792,0.145559 1.093661,-0.726532 0.651865,-1.40412 0.92647,-0.539416 1.545694,0.649772 0.619224,1.189188 1.583067,2.702859 2.208661,3.373229 1.251185,1.34073 3.556449,2.50979 5.334279,3.76428 1.77783,1.2545 3.19077,0.90354 4.78576,1.35491"
       sodipodi:nodetypes="cssssssc" />
    <g
       aria-label="Dataset 1"
       id="text5094"
       style="font-size:2.46944px;font-family:comic-sans;-inkscape-font-specification:comic-sans;stroke-width:0.264999;stroke-linecap:round;stroke-linejoin:round"
       transform="translate(0.52916667)">
      <path
         d="m 37.553183,91.023608 v 1.399912 h 0.294211 q 0.372586,0 0.545013,-0.168809 0.173632,-0.168809 0.173632,-0.532955 0,-0.361735 -0.173632,-0.529338 -0.172427,-0.16881 -0.545013,-0.16881 z m -0.243568,-0.200159 h 0.500399 q 0.523309,0 0.768083,0.218246 0.244774,0.217041 0.244774,0.680061 0,0.465431 -0.24598,0.683678 -0.245979,0.218246 -0.766877,0.218246 h -0.500399 z"
         style="stroke-width:0.265"
         id="path8641" />
      <path
         d="m 39.815229,91.944825 q -0.26889,0 -0.372587,0.0615 -0.103697,0.06149 -0.103697,0.209806 0,0.118167 0.07717,0.188102 0.07838,0.06873 0.212217,0.06873 0.184485,0 0.295417,-0.130224 0.112138,-0.13143 0.112138,-0.348471 v -0.04944 z m 0.442521,-0.09164 v 0.770494 h -0.221863 v -0.204983 q -0.07597,0.12299 -0.189308,0.182073 -0.113344,0.05788 -0.27733,0.05788 -0.207394,0 -0.330384,-0.115755 -0.121784,-0.116961 -0.121784,-0.312298 0,-0.227892 0.151929,-0.343647 0.153134,-0.115755 0.455785,-0.115755 h 0.311092 v -0.0217 q 0,-0.153135 -0.101286,-0.236333 -0.10008,-0.0844 -0.282153,-0.0844 -0.115755,0 -0.225481,0.02773 -0.109726,0.02773 -0.211012,0.0832 V 91.3347 q 0.121784,-0.04703 0.236333,-0.06994 0.11455,-0.02412 0.22307,-0.02412 0.293005,0 0.437699,0.151928 0.144693,0.151929 0.144693,0.460609 z"
         style="stroke-width:0.265"
         id="path8643" />
      <path
         d="m 40.934194,90.889767 v 0.383438 h 0.456991 v 0.172427 h -0.456991 v 0.733115 q 0,0.165192 0.04461,0.212217 0.04582,0.04703 0.184485,0.04703 h 0.227893 v 0.18569 h -0.227893 q -0.256831,0 -0.3545,-0.09526 -0.09767,-0.09646 -0.09767,-0.349676 v -0.733115 h -0.16278 v -0.172427 h 0.16278 v -0.383438 z"
         style="stroke-width:0.265"
         id="path8645" />
      <path
         d="m 42.296726,91.944825 q -0.268889,0 -0.372586,0.0615 -0.103697,0.06149 -0.103697,0.209806 0,0.118167 0.07717,0.188102 0.07838,0.06873 0.212217,0.06873 0.184485,0 0.295417,-0.130224 0.112137,-0.13143 0.112137,-0.348471 v -0.04944 z m 0.442522,-0.09164 v 0.770494 h -0.221864 v -0.204983 q -0.07596,0.12299 -0.189307,0.182073 -0.113344,0.05788 -0.27733,0.05788 -0.207395,0 -0.330384,-0.115755 -0.121784,-0.116961 -0.121784,-0.312298 0,-0.227892 0.151928,-0.343647 0.153135,-0.115755 0.455786,-0.115755 h 0.311091 v -0.0217 q 0,-0.153135 -0.101285,-0.236333 -0.10008,-0.0844 -0.282153,-0.0844 -0.115755,0 -0.225481,0.02773 -0.109726,0.02773 -0.211012,0.0832 V 91.3347 q 0.121784,-0.04703 0.236333,-0.06994 0.114549,-0.02412 0.22307,-0.02412 0.293004,0 0.437698,0.151928 0.144694,0.151929 0.144694,0.460609 z"
         style="stroke-width:0.265"
         id="path8647" />
      <path
         d="m 44.057167,91.312996 v 0.209806 q -0.09405,-0.04823 -0.195337,-0.07235 -0.101285,-0.02412 -0.209806,-0.02412 -0.165192,0 -0.24839,0.05064 -0.08199,0.05064 -0.08199,0.151929 0,0.07717 0.05908,0.121783 0.05908,0.04341 0.237539,0.0832 l 0.07596,0.01688 q 0.236333,0.05064 0.335207,0.143488 0.10008,0.09164 0.10008,0.256832 0,0.188102 -0.149517,0.297828 -0.148311,0.109726 -0.40876,0.109726 -0.10852,0 -0.226687,-0.0217 -0.116961,-0.0205 -0.247185,-0.0627 V 92.34514 q 0.12299,0.06391 0.242362,0.09646 0.119372,0.03135 0.236333,0.03135 0.156752,0 0.241157,-0.05305 0.0844,-0.05426 0.0844,-0.151928 0,-0.09043 -0.0615,-0.138665 -0.06029,-0.04823 -0.266477,-0.09284 l -0.07717,-0.01809 q -0.206189,-0.04341 -0.297828,-0.132636 -0.09164,-0.09043 -0.09164,-0.247185 0,-0.190514 0.135048,-0.294211 0.135047,-0.103697 0.383438,-0.103697 0.12299,0 0.23151,0.01809 0.108521,0.01809 0.20016,0.05426 z"
         style="stroke-width:0.265"
         id="path8649" />
      <path
         d="m 45.637946,91.892977 v 0.10852 h -1.020091 q 0.01447,0.229098 0.137459,0.349677 0.124196,0.119372 0.344854,0.119372 0.127813,0 0.247185,-0.03135 0.120578,-0.03135 0.238745,-0.09405 v 0.209806 q -0.119373,0.05064 -0.244774,0.07717 -0.125401,0.02653 -0.25442,0.02653 -0.323149,0 -0.512457,-0.188102 -0.188102,-0.188102 -0.188102,-0.50884 0,-0.33159 0.178456,-0.52572 0.179661,-0.195337 0.483518,-0.195337 0.272507,0 0.430464,0.176044 0.159163,0.174838 0.159163,0.476284 z m -0.221864,-0.06511 q -0.0024,-0.182072 -0.102491,-0.290593 -0.09887,-0.10852 -0.26286,-0.10852 -0.185691,0 -0.297828,0.104903 -0.110932,0.104903 -0.127813,0.295416 z"
         style="stroke-width:0.265"
         id="path8651" />
      <path
         d="m 46.221545,90.889767 v 0.383438 h 0.456991 v 0.172427 h -0.456991 v 0.733115 q 0,0.165192 0.04461,0.212217 0.04582,0.04703 0.184484,0.04703 h 0.227893 v 0.18569 h -0.227893 q -0.256831,0 -0.3545,-0.09526 -0.09767,-0.09646 -0.09767,-0.349676 v -0.733115 h -0.16278 v -0.172427 h 0.16278 v -0.383438 z"
         style="stroke-width:0.265"
         id="path8653" />
      <path
         d="m 47.82885,92.418697 h 0.397908 v -1.373385 l -0.432875,0.08682 v -0.221864 l 0.430464,-0.08682 h 0.243568 v 1.595248 h 0.397907 V 92.62368 H 47.82885 Z"
         style="stroke-width:0.265"
         id="path8655" />
    </g>
    <g
       aria-label="Dataset 2"
       id="text5545"
       style="font-size:2.46944px;font-family:comic-sans;-inkscape-font-specification:comic-sans;stroke-width:0.264999;stroke-linecap:round;stroke-linejoin:round"
       transform="translate(0.52916667)">
      <path
         d="m 64.540709,91.023608 v 1.399912 h 0.294211 q 0.372586,0 0.545013,-0.168809 0.173632,-0.168809 0.173632,-0.532955 0,-0.361735 -0.173632,-0.529338 -0.172427,-0.16881 -0.545013,-0.16881 z m -0.243568,-0.200159 h 0.500399 q 0.523309,0 0.768083,0.218246 0.244774,0.217041 0.244774,0.680061 0,0.465431 -0.24598,0.683678 -0.245979,0.218246 -0.766877,0.218246 h -0.500399 z"
         style="stroke-width:0.265"
         id="path8658" />
      <path
         d="m 66.802755,91.944825 q -0.26889,0 -0.372587,0.0615 -0.103697,0.06149 -0.103697,0.209806 0,0.118167 0.07717,0.188102 0.07838,0.06873 0.212217,0.06873 0.184485,0 0.295417,-0.130224 0.112137,-0.13143 0.112137,-0.348471 v -0.04944 z m 0.442521,-0.09164 v 0.770494 h -0.221864 v -0.204983 q -0.07596,0.12299 -0.189307,0.182073 -0.113344,0.05788 -0.27733,0.05788 -0.207394,0 -0.330384,-0.115755 -0.121784,-0.116961 -0.121784,-0.312298 0,-0.227892 0.151929,-0.343647 0.153134,-0.115755 0.455785,-0.115755 h 0.311091 v -0.0217 q 0,-0.153135 -0.101285,-0.236333 -0.10008,-0.0844 -0.282153,-0.0844 -0.115755,0 -0.225481,0.02773 -0.109726,0.02773 -0.211012,0.0832 V 91.3347 q 0.121784,-0.04703 0.236333,-0.06994 0.11455,-0.02412 0.22307,-0.02412 0.293005,0 0.437698,0.151928 0.144694,0.151929 0.144694,0.460609 z"
         style="stroke-width:0.265"
         id="path8660" />
      <path
         d="m 67.92172,90.889767 v 0.383438 h 0.456991 v 0.172427 H 67.92172 v 0.733115 q 0,0.165192 0.04461,0.212217 0.04582,0.04703 0.184485,0.04703 h 0.227893 v 0.18569 h -0.227893 q -0.256831,0 -0.3545,-0.09526 -0.09767,-0.09646 -0.09767,-0.349676 v -0.733115 h -0.16278 v -0.172427 h 0.16278 v -0.383438 z"
         style="stroke-width:0.265"
         id="path8662" />
      <path
         d="m 69.284252,91.944825 q -0.268889,0 -0.372586,0.0615 -0.103697,0.06149 -0.103697,0.209806 0,0.118167 0.07717,0.188102 0.07838,0.06873 0.212217,0.06873 0.184485,0 0.295416,-0.130224 0.112138,-0.13143 0.112138,-0.348471 v -0.04944 z m 0.442522,-0.09164 V 92.62368 H 69.50491 v -0.204983 q -0.07596,0.12299 -0.189308,0.182073 -0.113343,0.05788 -0.277329,0.05788 -0.207395,0 -0.330384,-0.115755 -0.121784,-0.116961 -0.121784,-0.312298 0,-0.227892 0.151928,-0.343647 0.153134,-0.115755 0.455786,-0.115755 h 0.311091 v -0.0217 q 0,-0.153135 -0.101285,-0.236333 -0.10008,-0.0844 -0.282153,-0.0844 -0.115755,0 -0.225481,0.02773 -0.109726,0.02773 -0.211012,0.0832 V 91.3347 q 0.121784,-0.04703 0.236333,-0.06994 0.114549,-0.02412 0.22307,-0.02412 0.293004,0 0.437698,0.151928 0.144694,0.151929 0.144694,0.460609 z"
         style="stroke-width:0.265"
         id="path8664" />
      <path
         d="m 71.044693,91.312996 v 0.209806 q -0.09405,-0.04823 -0.195337,-0.07235 -0.101285,-0.02412 -0.209806,-0.02412 -0.165192,0 -0.248391,0.05064 -0.08199,0.05064 -0.08199,0.151929 0,0.07717 0.05908,0.121783 0.05908,0.04341 0.237539,0.0832 l 0.07596,0.01688 q 0.236333,0.05064 0.335207,0.143488 0.10008,0.09164 0.10008,0.256832 0,0.188102 -0.149517,0.297828 -0.148311,0.109726 -0.40876,0.109726 -0.10852,0 -0.226687,-0.0217 -0.116961,-0.0205 -0.247185,-0.0627 V 92.34514 q 0.12299,0.06391 0.242362,0.09646 0.119372,0.03135 0.236333,0.03135 0.156752,0 0.241156,-0.05305 0.0844,-0.05426 0.0844,-0.151928 0,-0.09043 -0.06149,-0.138665 -0.06029,-0.04823 -0.266477,-0.09284 L 70.484,92.018377 q -0.206189,-0.04341 -0.297828,-0.132636 -0.09164,-0.09043 -0.09164,-0.247185 0,-0.190514 0.135048,-0.294211 0.135047,-0.103697 0.383438,-0.103697 0.12299,0 0.23151,0.01809 0.108521,0.01809 0.20016,0.05426 z"
         style="stroke-width:0.265"
         id="path8666" />
      <path
         d="m 72.625472,91.892977 v 0.10852 h -1.020091 q 0.01447,0.229098 0.137459,0.349677 0.124196,0.119372 0.344854,0.119372 0.127813,0 0.247185,-0.03135 0.120578,-0.03135 0.238745,-0.09405 v 0.209806 q -0.119373,0.05064 -0.244774,0.07717 -0.125401,0.02653 -0.25442,0.02653 -0.323149,0 -0.512457,-0.188102 -0.188102,-0.188102 -0.188102,-0.50884 0,-0.33159 0.178456,-0.52572 0.179661,-0.195337 0.483518,-0.195337 0.272507,0 0.430464,0.176044 0.159163,0.174838 0.159163,0.476284 z m -0.221864,-0.06511 q -0.0024,-0.182072 -0.102491,-0.290593 -0.09887,-0.10852 -0.26286,-0.10852 -0.185691,0 -0.297828,0.104903 -0.110932,0.104903 -0.127813,0.295416 z"
         style="stroke-width:0.265"
         id="path8668" />
      <path
         d="m 73.209071,90.889767 v 0.383438 h 0.456991 v 0.172427 h -0.456991 v 0.733115 q 0,0.165192 0.04461,0.212217 0.04582,0.04703 0.184484,0.04703 h 0.227893 v 0.18569 h -0.227893 q -0.256831,0 -0.3545,-0.09526 -0.09767,-0.09646 -0.09767,-0.349676 v -0.733115 h -0.16278 v -0.172427 h 0.16278 v -0.383438 z"
         style="stroke-width:0.265"
         id="path8670" />
      <path
         d="m 74.98398,92.418697 h 0.850076 v 0.204983 h -1.143081 v -0.204983 q 0.138665,-0.143488 0.37741,-0.384644 0.23995,-0.242362 0.301445,-0.312297 0.116961,-0.13143 0.16278,-0.221864 0.04703,-0.09164 0.04703,-0.179661 0,-0.143488 -0.101286,-0.233922 -0.10008,-0.09043 -0.261654,-0.09043 -0.114549,0 -0.242362,0.03979 -0.126607,0.03979 -0.271301,0.120578 v -0.245979 q 0.147105,-0.05908 0.274918,-0.08923 0.127813,-0.03014 0.233922,-0.03014 0.279741,0 0.446139,0.13987 0.166398,0.139871 0.166398,0.373792 0,0.110932 -0.0422,0.211012 -0.041,0.09887 -0.150722,0.233922 -0.03015,0.03497 -0.19172,0.202571 -0.161574,0.166398 -0.455785,0.466637 z"
         style="stroke-width:0.265"
         id="path8672" />
    </g>
    <g
       aria-label="Dataset 3"
       id="text5549"
       style="font-size:2.46944px;font-family:comic-sans;-inkscape-font-specification:comic-sans;stroke-width:0.264999;stroke-linecap:round;stroke-linejoin:round"
       transform="translate(-0.52916667)">
      <path
         d="m 92.057402,91.023608 v 1.399912 h 0.294211 q 0.372586,0 0.545013,-0.168809 0.173632,-0.168809 0.173632,-0.532955 0,-0.361735 -0.173632,-0.529338 -0.172427,-0.16881 -0.545013,-0.16881 z m -0.243568,-0.200159 h 0.500399 q 0.523309,0 0.768083,0.218246 0.244774,0.217041 0.244774,0.680061 0,0.465431 -0.24598,0.683678 -0.245979,0.218246 -0.766877,0.218246 h -0.500399 z"
         style="stroke-width:0.265"
         id="path8675" />
      <path
         d="m 94.319448,91.944825 q -0.26889,0 -0.372587,0.0615 -0.103697,0.06149 -0.103697,0.209806 0,0.118167 0.07717,0.188102 0.07838,0.06873 0.212218,0.06873 0.184484,0 0.295416,-0.130224 0.112138,-0.13143 0.112138,-0.348471 v -0.04944 z m 0.442521,-0.09164 v 0.770494 h -0.221863 v -0.204983 q -0.07596,0.12299 -0.189308,0.182073 -0.113343,0.05788 -0.27733,0.05788 -0.207394,0 -0.330384,-0.115755 -0.121784,-0.116961 -0.121784,-0.312298 0,-0.227892 0.151929,-0.343647 0.153134,-0.115755 0.455785,-0.115755 h 0.311092 v -0.0217 q 0,-0.153135 -0.101286,-0.236333 -0.10008,-0.0844 -0.282153,-0.0844 -0.115755,0 -0.225481,0.02773 -0.109726,0.02773 -0.211012,0.0832 V 91.3347 q 0.121784,-0.04703 0.236333,-0.06994 0.11455,-0.02412 0.22307,-0.02412 0.293005,0 0.437699,0.151928 0.144693,0.151929 0.144693,0.460609 z"
         style="stroke-width:0.265"
         id="path8677" />
      <path
         d="m 95.438413,90.889767 v 0.383438 h 0.456991 v 0.172427 h -0.456991 v 0.733115 q 0,0.165192 0.04461,0.212217 0.04582,0.04703 0.184484,0.04703 H 95.8954 v 0.18569 h -0.227893 q -0.256831,0 -0.3545,-0.09526 -0.09767,-0.09646 -0.09767,-0.349676 v -0.733115 h -0.16278 v -0.172427 h 0.16278 v -0.383438 z"
         style="stroke-width:0.265"
         id="path8679" />
      <path
         d="m 96.800945,91.944825 q -0.268889,0 -0.372586,0.0615 -0.103697,0.06149 -0.103697,0.209806 0,0.118167 0.07717,0.188102 0.07837,0.06873 0.212217,0.06873 0.184485,0 0.295417,-0.130224 0.112137,-0.13143 0.112137,-0.348471 v -0.04944 z m 0.442522,-0.09164 v 0.770494 h -0.221864 v -0.204983 q -0.07596,0.12299 -0.189307,0.182073 -0.113344,0.05788 -0.27733,0.05788 -0.207394,0 -0.330384,-0.115755 -0.121784,-0.116961 -0.121784,-0.312298 0,-0.227892 0.151928,-0.343647 0.153135,-0.115755 0.455786,-0.115755 h 0.311091 v -0.0217 q 0,-0.153135 -0.101285,-0.236333 -0.10008,-0.0844 -0.282153,-0.0844 -0.115755,0 -0.225481,0.02773 -0.109726,0.02773 -0.211012,0.0832 V 91.3347 q 0.121784,-0.04703 0.236333,-0.06994 0.114549,-0.02412 0.22307,-0.02412 0.293004,0 0.437698,0.151928 0.144694,0.151929 0.144694,0.460609 z"
         style="stroke-width:0.265"
         id="path8681" />
      <path
         d="m 98.561386,91.312996 v 0.209806 q -0.09405,-0.04823 -0.195337,-0.07235 -0.101285,-0.02412 -0.209805,-0.02412 -0.165192,0 -0.248391,0.05064 -0.08199,0.05064 -0.08199,0.151929 0,0.07717 0.05908,0.121783 0.05908,0.04341 0.237539,0.0832 l 0.07596,0.01688 q 0.236333,0.05064 0.335207,0.143488 0.10008,0.09164 0.10008,0.256832 0,0.188102 -0.149517,0.297828 -0.148311,0.109726 -0.40876,0.109726 -0.10852,0 -0.226687,-0.0217 -0.11696,-0.0205 -0.247185,-0.0627 V 92.34514 q 0.12299,0.06391 0.242362,0.09646 0.119373,0.03135 0.236333,0.03135 0.156752,0 0.241157,-0.05305 0.0844,-0.05426 0.0844,-0.151928 0,-0.09043 -0.06149,-0.138665 -0.06029,-0.04823 -0.266477,-0.09284 l -0.07717,-0.01809 q -0.206189,-0.04341 -0.297828,-0.132636 -0.09164,-0.09043 -0.09164,-0.247185 0,-0.190514 0.135048,-0.294211 0.135047,-0.103697 0.383438,-0.103697 0.12299,0 0.23151,0.01809 0.108521,0.01809 0.20016,0.05426 z"
         style="stroke-width:0.265"
         id="path8683" />
      <path
         d="m 100.14217,91.892977 v 0.10852 h -1.020096 q 0.01447,0.229098 0.137459,0.349677 0.124196,0.119372 0.344854,0.119372 0.127813,0 0.247185,-0.03135 0.120578,-0.03135 0.238748,-0.09405 v 0.209806 q -0.119376,0.05064 -0.244777,0.07717 -0.125401,0.02653 -0.25442,0.02653 -0.323149,0 -0.512457,-0.188102 -0.188102,-0.188102 -0.188102,-0.50884 0,-0.33159 0.178456,-0.52572 0.179661,-0.195337 0.483518,-0.195337 0.272507,0 0.430464,0.176044 0.159168,0.174838 0.159168,0.476284 z m -0.221868,-0.06511 q -0.0024,-0.182072 -0.102492,-0.290593 -0.09887,-0.10852 -0.26286,-0.10852 -0.18569,0 -0.297828,0.104903 -0.110932,0.104903 -0.127813,0.295416 z"
         style="stroke-width:0.265"
         id="path8685" />
      <path
         d="m 100.72576,90.889767 v 0.383438 h 0.45699 v 0.172427 h -0.45699 v 0.733115 q 0,0.165192 0.0446,0.212217 0.0458,0.04703 0.18448,0.04703 h 0.22789 v 0.18569 h -0.22789 q -0.25683,0 -0.3545,-0.09526 -0.0977,-0.09646 -0.0977,-0.349676 v -0.733115 h -0.16278 v -0.172427 h 0.16278 v -0.383438 z"
         style="stroke-width:0.265"
         id="path8687" />
      <path
         d="m 103.02881,91.653026 q 0.17483,0.03738 0.2725,0.155546 0.0989,0.118167 0.0989,0.291799 0,0.266478 -0.18328,0.412377 -0.18328,0.1459 -0.5209,0.1459 -0.11334,0 -0.23392,-0.02291 -0.11937,-0.0217 -0.24719,-0.06632 v -0.235127 q 0.10129,0.05908 0.22187,0.08923 0.12057,0.03015 0.25201,0.03015 0.22909,0 0.34847,-0.09043 0.12057,-0.09043 0.12057,-0.26286 0,-0.159163 -0.11213,-0.248391 -0.11094,-0.09043 -0.30989,-0.09043 h -0.20981 V 91.5614 h 0.21946 q 0.17966,0 0.27491,-0.07114 0.0953,-0.07235 0.0953,-0.207395 0,-0.138664 -0.0989,-0.212217 -0.0977,-0.07476 -0.28095,-0.07476 -0.10008,0 -0.21463,0.0217 -0.11455,0.0217 -0.25201,0.06752 v -0.21704 q 0.13867,-0.03859 0.25925,-0.05788 0.12178,-0.01929 0.22909,-0.01929 0.27733,0 0.43891,0.126607 0.16157,0.125401 0.16157,0.34003 0,0.149517 -0.0856,0.253214 -0.0856,0.102491 -0.24356,0.142282 z"
         style="stroke-width:0.265"
         id="path8689" />
    </g>
    <path
       style="fill:none;stroke:#bd350a;stroke-width:0.265;stroke-linecap:square;stroke-linejoin:miter;stroke-miterlimit:4;stroke-opacity:1"
       d="m 102.13435,103.61609 -0.41892,0.56224 0.44097,0.59532 h -0.22599 l -0.33625,-0.45751 -0.33624,0.45751 h -0.226 l 0.452,-0.60634 -0.41341,-0.55122 h 0.226 l 0.30317,0.41342 0.30868,-0.41342 z m 0,0"
       id="path4275" />
    <path
       style="fill:none;stroke:#bd350a;stroke-width:0.265;stroke-linecap:square;stroke-linejoin:miter;stroke-miterlimit:4;stroke-opacity:1"
       d="m 106.52794,105.10133 -0.41893,0.56224 0.44097,0.59531 h -0.226 l -0.33624,-0.45751 -0.33624,0.45751 h -0.226 l 0.452,-0.60634 -0.41341,-0.55121 h 0.22599 l 0.30317,0.41341 0.30869,-0.41341 z m 0,0"
       id="path4277" />
    <path
       style="fill:none;stroke:#bd350a;stroke-width:0.265;stroke-linecap:square;stroke-linejoin:miter;stroke-miterlimit:4;stroke-opacity:1"
       d="m 90.122326,104.7046 -0.41892,0.56224 0.44097,0.59532 h -0.22599 l -0.33625,-0.45751 -0.33624,0.45751 h -0.226 l 0.452,-0.60634 -0.41341,-0.55122 h 0.226 l 0.30317,0.41342 0.30868,-0.41342 z m 0,0"
       id="path4644" />
  </g>
</svg>
