<?xml version="1.0" encoding="UTF-8" standalone="no"?>
<!-- Created with Inkscape (http://www.inkscape.org/) -->

<svg
   width="116.46685mm"
   height="38.292721mm"
   viewBox="0 0 116.46685 38.292721"
   version="1.1"
   id="svg8"
   inkscape:version="1.1 (ce6663b3b7, 2021-05-25)"
   sodipodi:docname="bayestheorem_lf.svg"
   xmlns:inkscape="http://www.inkscape.org/namespaces/inkscape"
   xmlns:sodipodi="http://sodipodi.sourceforge.net/DTD/sodipodi-0.dtd"
   xmlns="http://www.w3.org/2000/svg"
   xmlns:svg="http://www.w3.org/2000/svg"
   xmlns:rdf="http://www.w3.org/1999/02/22-rdf-syntax-ns#"
   xmlns:cc="http://creativecommons.org/ns#"
   xmlns:dc="http://purl.org/dc/elements/1.1/"
   xmlns:ns0="http://www.iki.fi/pav/software/textext/">
  <defs
     id="defs2">
    <marker
       inkscape:stockid="Arrow2Lend"
       orient="auto"
       refY="0"
       refX="0"
       id="Arrow2Lend"
       style="overflow:visible"
       inkscape:isstock="true">
      <path
         id="path924"
         style="fill:#000000;fill-opacity:1;fill-rule:evenodd;stroke:#000000;stroke-width:0.625;stroke-linejoin:round;stroke-opacity:1"
         d="M 8.7185878,4.0337352 -2.2072895,0.01601326 8.7185884,-4.0017078 c -1.7454984,2.3720609 -1.7354408,5.6174519 -6e-7,8.035443 z"
         transform="matrix(-1.1,0,0,-1.1,-1.1,0)"
         inkscape:connector-curvature="0" />
    </marker>
    <marker
       inkscape:stockid="Arrow1Lend"
       orient="auto"
       refY="0"
       refX="0"
       id="Arrow1Lend"
       style="overflow:visible"
       inkscape:isstock="true">
      <path
         id="path906"
         d="M 0,0 5,-5 -12.5,0 5,5 Z"
         style="fill:#000000;fill-opacity:1;fill-rule:evenodd;stroke:#000000;stroke-width:1.00000003pt;stroke-opacity:1"
         transform="matrix(-0.8,0,0,-0.8,-10,0)"
         inkscape:connector-curvature="0" />
    </marker>
    <marker
       inkscape:stockid="Arrow1Mend"
       orient="auto"
       refY="0"
       refX="0"
       id="Arrow1Mend"
       style="overflow:visible"
       inkscape:isstock="true">
      <path
         id="path912"
         d="M 0,0 5,-5 -12.5,0 5,5 Z"
         style="fill:#000000;fill-opacity:1;fill-rule:evenodd;stroke:#000000;stroke-width:1.00000003pt;stroke-opacity:1"
         transform="matrix(-0.4,0,0,-0.4,-4,0)"
         inkscape:connector-curvature="0" />
    </marker>
    <marker
       inkscape:stockid="Arrow1Send"
       orient="auto"
       refY="0"
       refX="0"
       id="Arrow1Send"
       style="overflow:visible"
       inkscape:isstock="true">
      <path
         id="path918"
         d="M 0,0 5,-5 -12.5,0 5,5 Z"
         style="fill:#000000;fill-opacity:1;fill-rule:evenodd;stroke:#000000;stroke-width:1.00000003pt;stroke-opacity:1"
         transform="matrix(-0.2,0,0,-0.2,-1.2,0)"
         inkscape:connector-curvature="0" />
    </marker>
    <marker
       inkscape:stockid="Arrow2Lend"
       orient="auto"
       refY="0"
       refX="0"
       id="Arrow2Lend-0"
       style="overflow:visible"
       inkscape:isstock="true">
      <path
         inkscape:connector-curvature="0"
         id="path924-8"
         style="fill:#ff4081;fill-opacity:1;fill-rule:evenodd;stroke:#ff4081;stroke-width:0.625;stroke-linejoin:round;stroke-opacity:1"
         d="M 8.7185878,4.0337352 -2.2072895,0.01601326 8.7185884,-4.0017078 c -1.7454984,2.3720609 -1.7354408,5.6174519 -6e-7,8.035443 z"
         transform="matrix(-1.1,0,0,-1.1,-1.1,0)" />
    </marker>
    <marker
       inkscape:stockid="Arrow2Lend"
       orient="auto"
       refY="0"
       refX="0"
       id="Arrow2Lend-5"
       style="overflow:visible"
       inkscape:isstock="true">
      <path
         inkscape:connector-curvature="0"
         id="path924-9"
         style="fill:#000000;fill-opacity:1;fill-rule:evenodd;stroke:#000000;stroke-width:0.625;stroke-linejoin:round;stroke-opacity:1"
         d="M 8.7185878,4.0337352 -2.2072895,0.01601326 8.7185884,-4.0017078 c -1.7454984,2.3720609 -1.7354408,5.6174519 -6e-7,8.035443 z"
         transform="matrix(-1.1,0,0,-1.1,-1.1,0)" />
    </marker>
    <marker
       inkscape:stockid="Arrow2Lend"
       orient="auto"
       refY="0"
       refX="0"
       id="Arrow2Lend-1"
       style="overflow:visible"
       inkscape:isstock="true">
      <path
         inkscape:connector-curvature="0"
         id="path924-83"
         style="fill:#000000;fill-opacity:1;fill-rule:evenodd;stroke:#000000;stroke-width:0.625;stroke-linejoin:round;stroke-opacity:1"
         d="M 8.7185878,4.0337352 -2.2072895,0.01601326 8.7185884,-4.0017078 c -1.7454984,2.3720609 -1.7354408,5.6174519 -6e-7,8.035443 z"
         transform="matrix(-1.1,0,0,-1.1,-1.1,0)" />
    </marker>
  </defs>
  <sodipodi:namedview
     id="base"
     pagecolor="#ffffff"
     bordercolor="#666666"
     borderopacity="1.0"
     inkscape:pageopacity="0.0"
     inkscape:pageshadow="2"
     inkscape:zoom="1.979899"
     inkscape:cx="208.09142"
     inkscape:cy="98.994949"
     inkscape:document-units="mm"
     inkscape:current-layer="layer1"
     showgrid="false"
     inkscape:window-width="1864"
     inkscape:window-height="1163"
     inkscape:window-x="0"
     inkscape:window-y="0"
     inkscape:window-maximized="1"
     inkscape:pagecheckerboard="0" />
  <metadata
     id="metadata5">
    <rdf:RDF>
      <cc:Work
         rdf:about="">
        <dc:format>image/svg+xml</dc:format>
        <dc:type
           rdf:resource="http://purl.org/dc/dcmitype/StillImage" />
        <dc:title />
      </cc:Work>
    </rdf:RDF>
  </metadata>
  <g
     inkscape:label="Layer 1"
     inkscape:groupmode="layer"
     id="layer1"
     transform="translate(-23.429462,-42.416666)">
    <g
       ns0:jacobian_sqrt="0.352778"
       inkscapeversion="0.92.3"
       ns0:alignment="middle center"
       ns0:scale="1.0"
       ns0:preamble="C:\\Users\\yannik.schaelte\\AppData\\Roaming\\inkscape\\extensions\\default_packages.tex"
       ns0:text="\\[\\pi(\\theta|y_{obs}) = \\frac{\\pi(y_{obs}|\\theta)\\pi(\\theta)}{\\pi(y_{obs})}\\]"
       ns0:pdfconverter="pstoedit"
       ns0:texconverter="pdflatex"
       ns0:version="0.8.1"
       word-spacing="normal"
       letter-spacing="normal"
       font-size-adjust="none"
       font-stretch="normal"
       font-weight="normal"
       font-variant="normal"
       font-style="normal"
       stroke-miterlimit="10.433"
       xml:space="preserve"
       transform="matrix(0.58894864,0,0,-0.58894864,-98.072727,442.29505)"
       id="g26521"
       style="font-style:normal;font-variant:normal;font-weight:normal;font-stretch:normal;letter-spacing:normal;word-spacing:normal;text-anchor:start;fill:none;fill-opacity:1;fill-rule:evenodd;stroke:#000000;stroke-linecap:butt;stroke-linejoin:miter;stroke-miterlimit:10.43299961;stroke-dasharray:none;stroke-dashoffset:0;stroke-opacity:1">
<path
   id="path26457"
   d="m 252.98,645.73 h 1.12 c -0.33,-1.47 -0.42,-1.89 -0.42,-2.56 0,-0.15 0,-0.42 0.08,-0.76 0.1,-0.43 0.21,-0.49 0.36,-0.49 0.2,0 0.41,0.18 0.41,0.37 0,0.06 0,0.09 -0.06,0.22 -0.29,0.72 -0.29,1.37 -0.29,1.64 0,0.53 0.07,1.07 0.18,1.58 h 1.14 c 0.13,0 0.49,0 0.49,0.34 0,0.24 -0.21,0.24 -0.4,0.24 h -3.34 c -0.22,0 -0.6,0 -1.04,-0.47 -0.35,-0.39 -0.61,-0.84 -0.61,-0.89 0,-0.01 0,-0.1 0.12,-0.1 0.08,0 0.1,0.04 0.16,0.12 0.49,0.76 1.07,0.76 1.27,0.76 h 0.56 c -0.31,-1.2 -0.85,-2.4 -1.27,-3.31 -0.08,-0.14 -0.08,-0.16 -0.08,-0.23 0,-0.19 0.16,-0.27 0.29,-0.27 0.3,0 0.38,0.28 0.5,0.64 0.14,0.46 0.14,0.48 0.27,0.98 z"
   inkscape:connector-curvature="0"
   style="fill:#000000;stroke-width:0" />
<path
   id="path26459"
   d="m 259.67,639.64 v 0.01 0 0.01 0 0 0.01 0 h -0.01 v 0.01 0 0.01 0 h -0.01 v 0.01 l -0.01,0.01 v 0 l -0.01,0.01 v 0.01 0 h -0.01 v 0.01 h -0.01 v 0.01 0 l -0.01,0.01 v 0 l -0.01,0.01 v 0 l -0.01,0.01 v 0 l -0.01,0.01 v 0 l -0.01,0.01 v 0 l -0.01,0.01 -0.01,0.01 v 0 l -0.01,0.01 -0.01,0.01 v 0.01 h -0.01 l -0.01,0.01 c -1.25,1.25 -1.57,3.13 -1.57,4.65 0,1.73 0.38,3.46 1.61,4.7 0.13,0.12 0.13,0.14 0.13,0.17 0,0.07 -0.04,0.1 -0.1,0.1 -0.1,0 -1,-0.68 -1.59,-1.94 -0.5,-1.09 -0.62,-2.2 -0.62,-3.03 0,-0.77 0.11,-1.98 0.65,-3.1 0.6,-1.22 1.46,-1.87 1.56,-1.87 0.06,0 0.1,0.03 0.1,0.1 z"
   inkscape:connector-curvature="0"
   style="fill:#000000;stroke-width:0" />
<path
   id="path26461"
   d="m 264.78,646.99 v 0.07 0.06 l -0.01,0.08 v 0.07 l -0.01,0.08 v 0.08 l -0.01,0.08 -0.01,0.08 -0.02,0.08 -0.01,0.09 -0.02,0.08 -0.02,0.09 -0.02,0.08 -0.03,0.08 -0.03,0.09 -0.03,0.08 -0.03,0.08 -0.04,0.07 -0.04,0.08 -0.04,0.07 -0.05,0.07 -0.05,0.06 -0.05,0.06 -0.06,0.05 -0.06,0.05 -0.03,0.03 -0.04,0.02 -0.03,0.02 -0.04,0.02 -0.03,0.01 -0.04,0.02 -0.04,0.01 -0.04,0.02 -0.04,0.01 h -0.04 l -0.05,0.01 -0.04,0.01 h -0.05 -0.05 l -0.01,-0.22 c 0.49,0 0.55,-0.63 0.55,-1.2 0,-0.49 -0.08,-0.99 -0.32,-1.98 h -2.08 c 0.17,0.64 0.37,1.43 0.77,2.14 0.27,0.49 0.64,1.04 1.08,1.04 l 0.01,0.22 c -1.38,0 -2.92,-2.8 -2.92,-5.08 0,-0.93 0.29,-2.03 1.2,-2.03 v 0.22 c -0.33,0 -0.54,0.28 -0.54,1.21 0,0.42 0.06,0.99 0.32,1.97 h 2.07 c -0.11,-0.46 -0.32,-1.31 -0.69,-2.02 -0.35,-0.68 -0.73,-1.16 -1.16,-1.16 v -0.22 c 1.41,0 2.92,2.85 2.92,5.07 z"
   inkscape:connector-curvature="0"
   style="fill:#000000;stroke-width:0" />
<path
   id="path26463"
   d="m 266.78,649.12 v 0.03 0.04 0.03 0.02 0.01 0.02 0.01 l -0.01,0.02 v 0.01 0.02 0.01 l -0.01,0.01 v 0.02 l -0.01,0.01 v 0.01 l -0.01,0.01 -0.01,0.01 v 0.01 l -0.01,0.01 -0.01,0.01 -0.01,0.01 h -0.01 l -0.01,0.01 v 0 h -0.01 -0.01 v 0.01 h -0.01 -0.01 -0.01 v 0 h -0.01 l -0.01,0.01 h -0.01 -0.01 -0.01 c -0.2,0 -0.2,-0.18 -0.2,-0.36 v -9.22 c 0,-0.18 0,-0.36 0.2,-0.36 0.2,0 0.2,0.18 0.2,0.36 z"
   inkscape:connector-curvature="0"
   style="fill:#000000;stroke-width:0" />
<path
   id="path26465"
   d="m 272.81,645.81 v 0.01 0 l 0.01,0.01 v 0.01 0.01 0.01 l 0.01,0.01 v 0.01 0.01 0.01 h 0.01 v 0.01 0.01 0.01 0 0.01 0.01 h 0.01 v 0.01 0 0.01 0 0.01 0.01 0.02 0.01 0 0.01 0 0.01 c 0,0.18 -0.14,0.27 -0.29,0.27 -0.1,0 -0.26,-0.06 -0.35,-0.21 -0.02,-0.05 -0.1,-0.36 -0.14,-0.54 -0.07,-0.26 -0.14,-0.52 -0.2,-0.79 l -0.45,-1.79 c -0.04,-0.15 -0.46,-0.84 -1.12,-0.84 -0.51,0 -0.62,0.43 -0.62,0.8 0,0.46 0.17,1.07 0.51,1.95 0.16,0.4 0.2,0.51 0.2,0.71 0,0.45 -0.32,0.82 -0.82,0.82 -0.95,0 -1.32,-1.44 -1.32,-1.53 0,-0.1 0.1,-0.1 0.12,-0.1 0.1,0 0.11,0.02 0.16,0.18 0.27,0.93 0.67,1.23 1.01,1.23 0.08,0 0.25,0 0.25,-0.32 0,-0.25 -0.1,-0.5 -0.17,-0.69 -0.4,-1.06 -0.58,-1.62 -0.58,-2.09 0,-0.88 0.63,-1.18 1.22,-1.18 0.39,0 0.73,0.17 1.01,0.44 -0.13,-0.51 -0.25,-1 -0.65,-1.52 -0.26,-0.34 -0.64,-0.63 -1.1,-0.63 -0.14,0 -0.59,0.03 -0.76,0.42 0.16,0 0.29,0 0.43,0.12 0.1,0.09 0.2,0.21 0.2,0.4 0,0.31 -0.27,0.35 -0.37,0.35 -0.23,0 -0.56,-0.16 -0.56,-0.65 0,-0.49 0.44,-0.86 1.06,-0.86 1.03,0 2.05,0.9 2.33,2.03 z"
   inkscape:connector-curvature="0"
   style="fill:#000000;stroke-width:0" />
<path
   id="path26467"
   d="m 276.56,642.38 v 0.07 0.07 l -0.01,0.07 -0.01,0.07 -0.02,0.06 -0.02,0.06 -0.02,0.06 -0.02,0.06 -0.03,0.05 -0.02,0.06 -0.03,0.05 -0.04,0.05 -0.03,0.04 -0.04,0.05 -0.04,0.04 -0.04,0.04 -0.05,0.04 -0.04,0.03 -0.05,0.04 -0.05,0.03 -0.05,0.03 -0.06,0.02 -0.05,0.03 -0.06,0.02 -0.05,0.02 -0.06,0.01 -0.06,0.02 -0.06,0.01 -0.06,0.01 h -0.07 l -0.06,0.01 h -0.06 l -0.01,-0.19 c 0.38,0 0.7,-0.26 0.7,-0.78 0,-0.16 -0.09,-0.85 -0.39,-1.34 -0.27,-0.41 -0.69,-0.63 -1.04,-0.63 v 0 c -0.35,0 -0.7,0.22 -0.7,0.77 0,0.29 0.14,0.97 0.41,1.36 0.3,0.43 0.71,0.62 1.02,0.62 l 0.01,0.19 c -1.04,0 -2.02,-0.97 -2.02,-1.92 0,-0.7 0.51,-1.22 1.27,-1.22 1,0 2.01,0.92 2.01,1.92 z"
   inkscape:connector-curvature="0"
   style="fill:#000000;stroke-width:0" />
<path
   id="path26469"
   d="m 278.63,645.15 v 0 0 0 0 0 0.01 0 0 0 0 0.01 0 l 0.01,0.01 v 0 0.01 0 0 0.01 0.01 0 l 0.01,0.01 v 0 0.01 0 0.01 0 0 0.01 0 0 0 0 0.01 0 0 0 0 0 0 0 0 c 0,0.04 -0.02,0.1 -0.11,0.1 -0.14,0 -0.72,-0.06 -0.89,-0.07 -0.06,-0.01 -0.16,-0.01 -0.16,-0.16 0,-0.1 0.1,-0.1 0.19,-0.1 0.33,0 0.33,-0.05 0.33,-0.1 0,-0.05 -0.07,-0.33 -0.11,-0.49 l -0.16,-0.64 c -0.06,-0.23 -0.45,-1.76 -0.46,-1.85 -0.04,-0.17 -0.04,-0.26 -0.04,-0.34 0,-0.7 0.45,-1.15 1.03,-1.15 0.87,0 1.81,0.95 1.81,1.98 0,0.81 -0.57,1.16 -1.05,1.16 l -0.02,-0.19 c 0.27,0 0.51,-0.21 0.51,-0.68 0,-0.28 -0.16,-0.99 -0.37,-1.4 -0.17,-0.34 -0.52,-0.67 -0.87,-0.67 v 0 c -0.35,0 -0.54,0.3 -0.54,0.71 0,0.26 0.06,0.49 0.26,1.28 0.04,0.13 0.04,0.14 0.17,0.3 0.27,0.3 0.58,0.46 0.84,0.46 l 0.02,0.19 c -0.37,0 -0.67,-0.2 -0.89,-0.38 z"
   inkscape:connector-curvature="0"
   style="fill:#000000;stroke-width:0" />
<path
   id="path26471"
   d="m 283.3,643.15 -0.02,-0.01 h -0.01 l -0.02,-0.01 h -0.02 l -0.01,-0.01 -0.02,-0.01 h -0.01 l -0.01,-0.01 -0.02,-0.01 -0.01,-0.01 -0.01,-0.01 -0.01,-0.01 -0.02,-0.01 -0.01,-0.01 -0.01,-0.01 -0.01,-0.01 -0.01,-0.01 V 643 l -0.01,-0.01 -0.01,-0.02 -0.01,-0.01 v -0.01 l -0.01,-0.01 v -0.02 l -0.01,-0.01 v -0.01 l -0.01,-0.01 v -0.02 -0.01 -0.01 -0.02 -0.01 c 0,-0.16 0.13,-0.22 0.23,-0.22 0.07,0 0.33,0.04 0.33,0.39 0,0.46 -0.5,0.61 -0.93,0.61 -1.09,0 -1.28,-0.8 -1.28,-1.02 0,-0.25 0.14,-0.42 0.24,-0.5 0.18,-0.14 0.31,-0.17 0.79,-0.25 0.15,-0.03 0.59,-0.11 0.59,-0.46 0,-0.12 -0.07,-0.39 -0.37,-0.56 -0.27,-0.15 -0.61,-0.15 -0.7,-0.15 -0.27,0 -0.67,0.06 -0.83,0.29 0.23,0.03 0.38,0.2 0.38,0.4 0,0.17 -0.13,0.25 -0.27,0.25 -0.21,0 -0.41,-0.16 -0.41,-0.46 0,-0.42 0.45,-0.68 1.13,-0.68 1.28,0 1.52,0.88 1.52,1.15 0,0.64 -0.7,0.77 -0.96,0.81 -0.07,0.02 -0.24,0.05 -0.28,0.06 -0.26,0.05 -0.39,0.19 -0.39,0.35 0,0.16 0.13,0.34 0.28,0.44 0.19,0.12 0.44,0.14 0.55,0.14 0.15,0 0.51,-0.03 0.67,-0.26 z"
   inkscape:connector-curvature="0"
   style="fill:#000000;stroke-width:0" />
<path
   id="path26473"
   d="m 287.42,644.51 v 0.07 0.08 0.08 0.08 l -0.01,0.17 -0.01,0.17 -0.02,0.19 -0.02,0.19 -0.03,0.19 -0.03,0.2 -0.04,0.2 -0.04,0.21 -0.06,0.21 -0.06,0.21 -0.07,0.21 -0.08,0.22 -0.04,0.1 -0.05,0.11 -0.04,0.1 -0.05,0.11 c -0.6,1.22 -1.46,1.87 -1.56,1.87 -0.06,0 -0.1,-0.04 -0.1,-0.1 0,-0.03 0,-0.05 0.19,-0.23 0.98,-0.98 1.55,-2.56 1.55,-4.64 0,-1.7 -0.37,-3.45 -1.61,-4.7 -0.13,-0.12 -0.13,-0.14 -0.13,-0.17 0,-0.06 0.04,-0.1 0.1,-0.1 0.1,0 1,0.68 1.59,1.94 0.5,1.09 0.62,2.2 0.62,3.03 z"
   inkscape:connector-curvature="0"
   style="fill:#000000;stroke-width:0" />
<path
   id="path26475"
   d="m 298.04,645.28 h 0.03 0.03 0.02 0.02 0.01 0.02 0.01 0.02 l 0.01,0.01 h 0.01 0.02 l 0.01,0.01 h 0.01 0.02 l 0.01,0.01 0.01,0.01 h 0.01 l 0.01,0.01 0.01,0.01 0.01,0.01 0.01,0.01 v 0 0.01 l 0.01,0.01 v 0 0.01 0 l 0.01,0.01 v 0.01 0.01 0 0.01 0.01 l 0.01,0.01 v 0.01 0 0.01 c 0,0.2 -0.19,0.2 -0.33,0.2 h -5.97 c -0.15,0 -0.34,0 -0.34,-0.2 0,-0.19 0.19,-0.19 0.34,-0.19 z"
   inkscape:connector-curvature="0"
   style="fill:#000000;stroke-width:0" />
<path
   id="path26477"
   d="m 298.05,643.35 h 0.02 0.03 0.03 0.01 0.02 0.01 0.02 l 0.01,0.01 h 0.01 0.02 0.01 l 0.01,0.01 h 0.02 l 0.01,0.01 h 0.01 l 0.01,0.01 0.01,0.01 h 0.01 l 0.01,0.01 0.01,0.01 v 0.01 h 0.01 v 0.01 0 l 0.01,0.01 v 0 0.01 0.01 h 0.01 v 0.01 0.01 0.01 0 0.01 l 0.01,0.01 v 0.01 0.01 0.01 c 0,0.2 -0.19,0.2 -0.34,0.2 h -5.96 c -0.15,0 -0.34,0 -0.34,-0.2 0,-0.2 0.19,-0.2 0.34,-0.2 z"
   inkscape:connector-curvature="0"
   style="fill:#000000;stroke-width:0" />
<path
   id="path26479"
   d="m 305.54,652.47 h 1.13 c -0.33,-1.47 -0.42,-1.89 -0.42,-2.56 0,-0.15 0,-0.42 0.08,-0.76 0.1,-0.43 0.21,-0.49 0.35,-0.49 0.21,0 0.41,0.18 0.41,0.37 0,0.06 0,0.08 -0.06,0.22 -0.29,0.72 -0.29,1.36 -0.29,1.64 0,0.53 0.08,1.07 0.18,1.58 h 1.14 c 0.13,0 0.49,0 0.49,0.34 0,0.24 -0.21,0.24 -0.4,0.24 h -3.34 c -0.22,0 -0.6,0 -1.04,-0.47 -0.35,-0.39 -0.6,-0.84 -0.6,-0.89 0,-0.01 0,-0.1 0.12,-0.1 0.07,0 0.1,0.04 0.15,0.12 0.49,0.76 1.07,0.76 1.27,0.76 h 0.57 c -0.32,-1.2 -0.86,-2.4 -1.28,-3.31 -0.08,-0.14 -0.08,-0.17 -0.08,-0.23 0,-0.19 0.16,-0.27 0.29,-0.27 0.3,0 0.38,0.28 0.5,0.64 0.14,0.46 0.14,0.48 0.27,0.98 z"
   inkscape:connector-curvature="0"
   style="fill:#ff4081;fill-opacity:1;stroke-width:0" />
<path
   id="path26481"
   d="m 312.23,646.38 v 0.01 0 0.01 0 0 0.01 0 0 0.01 0 h -0.01 v 0.01 0 l -0.01,0.01 v 0.01 h -0.01 v 0.01 l -0.01,0.01 v 0 0 l -0.01,0.01 v 0 l -0.01,0.01 v 0 0.01 h -0.01 v 0 l -0.01,0.01 v 0.01 h -0.01 v 0.01 h -0.01 v 0.01 h -0.01 l -0.01,0.01 v 0.01 h -0.01 l -0.01,0.01 v 0.01 l -0.01,0.01 h -0.01 l -0.01,0.01 c -1.24,1.25 -1.56,3.13 -1.56,4.65 0,1.73 0.38,3.46 1.6,4.7 0.13,0.12 0.13,0.14 0.13,0.17 0,0.07 -0.04,0.1 -0.1,0.1 -0.1,0 -0.99,-0.68 -1.58,-1.94 -0.51,-1.09 -0.63,-2.19 -0.63,-3.03 0,-0.77 0.11,-1.98 0.66,-3.1 0.6,-1.22 1.45,-1.87 1.55,-1.87 0.06,0 0.1,0.03 0.1,0.1 z"
   inkscape:connector-curvature="0"
   style="fill:#ff4081;fill-opacity:1;stroke-width:0" />
<path
   id="path26483"
   d="m 317.65,652.55 v 0.01 h 0.01 v 0.01 0.01 0.01 l 0.01,0.01 v 0.01 0.01 0.01 l 0.01,0.01 v 0 0.01 0.01 0.01 0 l 0.01,0.01 v 0.01 0 0.01 0 0.01 0 0.01 0.01 0.02 0.01 0 0.01 0 0.01 c 0,0.18 -0.14,0.27 -0.29,0.27 -0.1,0 -0.26,-0.06 -0.35,-0.21 -0.01,-0.05 -0.1,-0.36 -0.13,-0.54 -0.07,-0.26 -0.14,-0.52 -0.2,-0.79 l -0.45,-1.79 c -0.04,-0.15 -0.47,-0.84 -1.13,-0.84 -0.51,0 -0.62,0.43 -0.62,0.8 0,0.46 0.17,1.07 0.51,1.95 0.16,0.4 0.2,0.51 0.2,0.71 0,0.45 -0.32,0.82 -0.82,0.82 -0.95,0 -1.31,-1.44 -1.31,-1.53 0,-0.1 0.1,-0.1 0.12,-0.1 0.1,0 0.11,0.02 0.16,0.18 0.26,0.93 0.66,1.23 1,1.23 0.08,0 0.25,0 0.25,-0.32 0,-0.25 -0.1,-0.51 -0.17,-0.69 -0.4,-1.06 -0.58,-1.62 -0.58,-2.09 0,-0.88 0.63,-1.18 1.22,-1.18 0.39,0 0.73,0.17 1.01,0.44 -0.13,-0.51 -0.25,-1 -0.65,-1.52 -0.26,-0.34 -0.64,-0.63 -1.1,-0.63 -0.14,0 -0.59,0.03 -0.75,0.42 0.15,0 0.28,0 0.42,0.12 0.1,0.09 0.2,0.21 0.2,0.4 0,0.31 -0.27,0.35 -0.37,0.35 -0.22,0 -0.55,-0.16 -0.55,-0.65 0,-0.49 0.43,-0.86 1.05,-0.86 1.03,0 2.06,0.9 2.34,2.03 z"
   inkscape:connector-curvature="0"
   style="fill:#ff4081;fill-opacity:1;stroke-width:0" />
<path
   id="path26485"
   d="m 321.4,649.12 v 0.07 0.07 l -0.01,0.07 -0.01,0.07 -0.02,0.06 -0.01,0.06 -0.02,0.06 -0.03,0.06 -0.02,0.05 -0.03,0.06 -0.03,0.05 -0.03,0.05 -0.04,0.04 -0.04,0.05 -0.04,0.04 -0.04,0.04 -0.05,0.04 -0.04,0.03 -0.05,0.04 -0.05,0.03 -0.05,0.03 -0.05,0.02 -0.06,0.03 -0.05,0.02 -0.06,0.02 -0.06,0.01 -0.06,0.02 -0.06,0.01 -0.06,0.01 h -0.06 l -0.07,0.01 h -0.06 l -0.01,-0.19 c 0.38,0 0.7,-0.26 0.7,-0.78 0,-0.16 -0.08,-0.85 -0.39,-1.34 -0.27,-0.41 -0.68,-0.63 -1.04,-0.63 v 0 c -0.35,0 -0.69,0.22 -0.69,0.77 0,0.29 0.13,0.97 0.4,1.36 0.3,0.43 0.71,0.62 1.02,0.62 l 0.01,0.19 c -1.04,0 -2.01,-0.97 -2.01,-1.92 0,-0.7 0.51,-1.22 1.27,-1.22 1,0 2,0.92 2,1.92 z"
   inkscape:connector-curvature="0"
   style="fill:#ff4081;fill-opacity:1;stroke-width:0" />
<path
   id="path26487"
   d="m 323.47,651.89 v 0 0 0 0 0 0.01 0 0 0 h 0.01 v 0.01 0 0.01 0 0.01 0 0 0.01 l 0.01,0.01 v 0 0.01 0 0.01 0 0.01 0 0 l 0.01,0.01 v 0 0 0 0 0.01 0 0 0 0 0 0 0 0 c 0,0.04 -0.03,0.1 -0.11,0.1 -0.14,0 -0.72,-0.06 -0.9,-0.07 -0.05,-0.01 -0.15,-0.01 -0.15,-0.16 0,-0.1 0.1,-0.1 0.18,-0.1 0.34,0 0.34,-0.05 0.34,-0.1 0,-0.05 -0.07,-0.33 -0.12,-0.49 l -0.16,-0.64 c -0.06,-0.24 -0.44,-1.76 -0.46,-1.85 -0.03,-0.16 -0.03,-0.26 -0.03,-0.34 0,-0.7 0.44,-1.15 1.02,-1.15 0.88,0 1.81,0.95 1.81,1.98 0,0.81 -0.57,1.16 -1.05,1.16 l -0.02,-0.19 c 0.27,0 0.51,-0.21 0.51,-0.68 0,-0.29 -0.16,-0.99 -0.37,-1.4 -0.16,-0.34 -0.51,-0.67 -0.87,-0.67 v 0 c -0.34,0 -0.54,0.3 -0.54,0.71 0,0.25 0.06,0.49 0.26,1.28 0.04,0.13 0.04,0.14 0.18,0.3 0.26,0.3 0.58,0.46 0.83,0.46 l 0.02,0.19 c -0.36,0 -0.67,-0.2 -0.88,-0.38 z"
   inkscape:connector-curvature="0"
   style="fill:#ff4081;fill-opacity:1;stroke-width:0" />
<path
   id="path26489"
   d="m 328.14,649.89 -0.01,-0.01 h -0.02 l -0.02,-0.01 h -0.01 l -0.02,-0.01 -0.01,-0.01 h -0.02 l -0.01,-0.01 -0.01,-0.01 -0.02,-0.01 -0.01,-0.01 -0.01,-0.01 -0.01,-0.01 -0.01,-0.01 -0.01,-0.01 -0.01,-0.01 -0.01,-0.01 -0.01,-0.01 -0.01,-0.01 -0.01,-0.02 v -0.01 l -0.01,-0.01 -0.01,-0.01 v -0.02 l -0.01,-0.01 v -0.01 -0.01 l -0.01,-0.02 v -0.01 -0.01 -0.02 -0.01 c 0,-0.16 0.14,-0.22 0.23,-0.22 0.07,0 0.33,0.04 0.33,0.39 0,0.46 -0.5,0.61 -0.93,0.61 -1.09,0 -1.28,-0.8 -1.28,-1.02 0,-0.25 0.15,-0.42 0.24,-0.5 0.18,-0.14 0.31,-0.17 0.79,-0.25 0.15,-0.03 0.6,-0.11 0.6,-0.46 0,-0.12 -0.08,-0.39 -0.37,-0.56 -0.28,-0.15 -0.62,-0.15 -0.7,-0.15 -0.28,0 -0.68,0.06 -0.84,0.29 0.23,0.03 0.38,0.2 0.38,0.4 0,0.17 -0.12,0.25 -0.27,0.25 -0.2,0 -0.4,-0.16 -0.4,-0.46 0,-0.42 0.44,-0.68 1.12,-0.68 1.29,0 1.52,0.88 1.52,1.15 0,0.64 -0.7,0.77 -0.96,0.81 -0.06,0.02 -0.24,0.05 -0.28,0.06 -0.26,0.05 -0.39,0.19 -0.39,0.35 0,0.16 0.13,0.34 0.28,0.44 0.19,0.12 0.44,0.14 0.56,0.14 0.14,0 0.51,-0.03 0.66,-0.26 z"
   inkscape:connector-curvature="0"
   style="fill:#ff4081;fill-opacity:1;stroke-width:0" />
<path
   id="path26491"
   d="m 330.97,655.86 v 0.03 0.04 0.03 0.02 0.01 0.02 0.01 l -0.01,0.02 v 0.01 0.02 0.01 l -0.01,0.01 v 0.02 l -0.01,0.01 v 0.01 l -0.01,0.01 -0.01,0.01 v 0.01 l -0.01,0.01 -0.01,0.01 -0.01,0.01 h -0.01 l -0.01,0.01 h -0.01 v 0 h -0.01 v 0.01 h -0.01 -0.01 -0.01 v 0 h -0.01 l -0.01,0.01 h -0.01 -0.01 -0.01 c -0.2,0 -0.2,-0.18 -0.2,-0.36 v -9.22 c 0,-0.18 0,-0.36 0.2,-0.36 0.2,0 0.2,0.18 0.2,0.36 z"
   inkscape:connector-curvature="0"
   style="fill:#ff4081;fill-opacity:1;stroke-width:0" />
<path
   id="path26493"
   d="m 336.69,653.73 v 0.07 0.06 l -0.01,0.08 v 0.07 l -0.01,0.08 v 0.08 l -0.01,0.08 -0.01,0.08 -0.02,0.08 -0.01,0.09 -0.02,0.08 -0.02,0.09 -0.02,0.08 -0.03,0.08 -0.03,0.09 -0.03,0.08 -0.03,0.08 -0.04,0.07 -0.04,0.08 -0.04,0.07 -0.05,0.07 -0.05,0.06 -0.05,0.06 -0.06,0.05 -0.06,0.05 -0.03,0.03 -0.04,0.02 -0.03,0.02 -0.04,0.02 -0.03,0.01 -0.04,0.02 -0.04,0.01 -0.04,0.02 -0.04,0.01 h -0.04 l -0.05,0.01 -0.04,0.01 h -0.05 -0.05 l -0.01,-0.22 c 0.49,0 0.55,-0.63 0.55,-1.2 0,-0.49 -0.08,-0.99 -0.32,-1.98 h -2.08 c 0.17,0.64 0.37,1.43 0.77,2.14 0.27,0.48 0.64,1.04 1.08,1.04 l 0.01,0.22 c -1.38,0 -2.92,-2.8 -2.92,-5.08 0,-0.93 0.29,-2.03 1.2,-2.03 v 0.22 c -0.33,0 -0.54,0.28 -0.54,1.21 0,0.42 0.06,0.99 0.32,1.96 h 2.07 c -0.11,-0.45 -0.32,-1.3 -0.7,-2.01 -0.34,-0.68 -0.72,-1.16 -1.15,-1.16 v -0.22 c 1.4,0 2.92,2.85 2.92,5.07 z"
   inkscape:connector-curvature="0"
   style="fill:#ff4081;fill-opacity:1;stroke-width:0" />
<path
   id="path26495"
   d="m 339.99,651.25 v 0.07 0.08 0.08 l -0.01,0.08 v 0.17 l -0.02,0.17 -0.01,0.19 -0.02,0.19 -0.03,0.19 -0.03,0.2 -0.04,0.2 -0.05,0.21 -0.05,0.21 -0.07,0.21 -0.06,0.21 -0.08,0.22 -0.05,0.1 -0.04,0.11 -0.05,0.1 -0.05,0.11 c -0.6,1.22 -1.45,1.87 -1.56,1.87 -0.06,0 -0.1,-0.04 -0.1,-0.1 0,-0.03 0,-0.05 0.19,-0.23 0.98,-0.98 1.55,-2.56 1.55,-4.64 0,-1.7 -0.37,-3.45 -1.61,-4.7 -0.13,-0.12 -0.13,-0.14 -0.13,-0.17 0,-0.06 0.04,-0.1 0.1,-0.1 0.11,0 1,0.68 1.59,1.94 0.51,1.09 0.63,2.2 0.63,3.03 z"
   inkscape:connector-curvature="0"
   style="fill:#ff4081;fill-opacity:1;stroke-width:0" />
<path
   id="path26497"
   d="m 343.62,652.47 h 1.13 c -0.33,-1.47 -0.42,-1.89 -0.42,-2.56 0,-0.15 0,-0.42 0.08,-0.76 0.1,-0.43 0.21,-0.49 0.36,-0.49 0.2,0 0.41,0.18 0.41,0.37 0,0.06 0,0.08 -0.06,0.22 -0.29,0.72 -0.29,1.36 -0.29,1.64 0,0.53 0.07,1.07 0.18,1.58 h 1.14 c 0.13,0 0.49,0 0.49,0.34 0,0.24 -0.21,0.24 -0.4,0.24 h -3.34 c -0.22,0 -0.6,0 -1.04,-0.47 -0.35,-0.39 -0.61,-0.84 -0.61,-0.89 0,-0.01 0,-0.1 0.12,-0.1 0.08,0 0.1,0.04 0.16,0.12 0.49,0.76 1.07,0.76 1.27,0.76 h 0.56 c -0.31,-1.2 -0.85,-2.4 -1.27,-3.31 -0.08,-0.14 -0.08,-0.17 -0.08,-0.23 0,-0.19 0.16,-0.27 0.29,-0.27 0.3,0 0.38,0.28 0.5,0.64 0.14,0.46 0.14,0.48 0.27,0.98 z"
   inkscape:connector-curvature="0"
   style="fill:#000000;stroke-width:0" />
<path
   id="path26499"
   d="m 350.32,646.38 v 0.01 0 0.01 0 0 0.01 0 h -0.01 v 0.01 0 0 l -0.01,0.01 v 0 0.01 l -0.01,0.01 v 0 l -0.01,0.01 v 0.01 h -0.01 v 0 0.01 h -0.01 v 0.01 0 l -0.01,0.01 v 0 h -0.01 v 0.01 l -0.01,0.01 v 0 l -0.01,0.01 v 0 l -0.01,0.01 v 0 l -0.01,0.01 -0.01,0.01 v 0 l -0.01,0.01 -0.01,0.01 -0.01,0.01 v 0 l -0.01,0.01 c -1.25,1.25 -1.57,3.13 -1.57,4.65 0,1.73 0.38,3.46 1.61,4.7 0.13,0.12 0.13,0.14 0.13,0.17 0,0.07 -0.04,0.1 -0.1,0.1 -0.1,0 -1,-0.68 -1.59,-1.94 -0.5,-1.09 -0.62,-2.19 -0.62,-3.03 0,-0.77 0.1,-1.98 0.65,-3.1 0.6,-1.22 1.46,-1.87 1.56,-1.87 0.06,0 0.1,0.03 0.1,0.1 z"
   inkscape:connector-curvature="0"
   style="fill:#000000;stroke-width:0" />
<path
   id="path26501"
   d="m 355.43,653.73 v 0.07 0.06 l -0.01,0.08 v 0.07 l -0.01,0.08 v 0.08 l -0.01,0.08 -0.01,0.08 -0.02,0.08 -0.01,0.09 -0.02,0.08 -0.02,0.09 -0.02,0.08 -0.03,0.08 -0.03,0.09 -0.03,0.08 -0.03,0.08 -0.04,0.07 -0.04,0.08 -0.04,0.07 -0.05,0.07 -0.05,0.06 -0.05,0.06 -0.06,0.05 -0.06,0.05 -0.04,0.03 -0.03,0.02 -0.03,0.02 -0.04,0.02 -0.04,0.01 -0.03,0.02 -0.04,0.01 -0.04,0.02 -0.04,0.01 h -0.05 l -0.04,0.01 -0.04,0.01 h -0.05 -0.05 l -0.01,-0.22 c 0.49,0 0.55,-0.63 0.55,-1.2 0,-0.49 -0.08,-0.99 -0.32,-1.98 h -2.08 c 0.17,0.64 0.37,1.43 0.77,2.14 0.26,0.48 0.63,1.04 1.08,1.04 l 0.01,0.22 c -1.38,0 -2.92,-2.8 -2.92,-5.08 0,-0.93 0.29,-2.03 1.2,-2.03 v 0.22 c -0.33,0 -0.54,0.28 -0.54,1.21 0,0.42 0.06,0.99 0.32,1.96 h 2.07 c -0.11,-0.45 -0.32,-1.3 -0.7,-2.01 -0.34,-0.68 -0.72,-1.16 -1.15,-1.16 v -0.22 c 1.4,0 2.92,2.85 2.92,5.07 z"
   inkscape:connector-curvature="0"
   style="fill:#000000;stroke-width:0" />
<path
   id="path26503"
   d="m 358.73,651.25 v 0.07 0.08 l -0.01,0.08 v 0.08 l -0.01,0.17 -0.01,0.17 -0.01,0.19 -0.03,0.19 -0.02,0.19 -0.04,0.2 -0.03,0.2 -0.05,0.21 -0.05,0.21 -0.07,0.21 -0.07,0.21 -0.07,0.22 -0.05,0.1 -0.04,0.11 -0.05,0.1 -0.05,0.11 c -0.6,1.22 -1.46,1.87 -1.56,1.87 -0.06,0 -0.1,-0.04 -0.1,-0.1 0,-0.03 0,-0.05 0.19,-0.23 0.98,-0.98 1.55,-2.56 1.55,-4.64 0,-1.7 -0.37,-3.45 -1.61,-4.7 -0.13,-0.12 -0.13,-0.14 -0.13,-0.17 0,-0.06 0.04,-0.1 0.1,-0.1 0.1,0 1,0.68 1.59,1.94 0.51,1.09 0.63,2.2 0.63,3.03 z"
   inkscape:connector-curvature="0"
   style="fill:#000000;stroke-width:0" />
<line
   id="line26505"
   y2="644.52002"
   x2="359.72"
   y1="644.52002"
   x1="302.89999"
   style="stroke-width:0.398" />
<path
   id="path26507"
   d="m 318.77,638.9 h 1.12 c -0.32,-1.47 -0.41,-1.9 -0.41,-2.56 0,-0.15 0,-0.42 0.08,-0.76 0.1,-0.44 0.21,-0.5 0.36,-0.5 0.19,0 0.4,0.18 0.4,0.38 0,0.06 0,0.08 -0.06,0.22 -0.28,0.72 -0.28,1.36 -0.28,1.64 0,0.52 0.07,1.06 0.17,1.58 h 1.14 c 0.13,0 0.49,0 0.49,0.34 0,0.23 -0.21,0.23 -0.4,0.23 h -3.34 c -0.22,0 -0.6,0 -1.04,-0.46 -0.35,-0.39 -0.61,-0.85 -0.61,-0.9 0,-0.01 0,-0.1 0.13,-0.1 0.08,0 0.09,0.04 0.15,0.12 0.49,0.77 1.07,0.77 1.27,0.77 h 0.57 c -0.32,-1.2 -0.86,-2.41 -1.28,-3.31 -0.08,-0.15 -0.08,-0.17 -0.08,-0.24 0,-0.19 0.16,-0.27 0.29,-0.27 0.3,0 0.38,0.28 0.5,0.65 0.14,0.46 0.14,0.48 0.27,0.97 z"
   inkscape:connector-curvature="0"
   style="fill:#000000;stroke-width:0" />
<path
   id="path26509"
   d="m 325.46,632.81 v 0 0.01 0 0.01 0 0 0.01 0 0 0.01 h -0.01 v 0.01 0 l -0.01,0.01 v 0 l -0.01,0.01 v 0 l -0.01,0.01 v 0.01 0 h -0.01 v 0.01 h -0.01 v 0.01 0 l -0.01,0.01 v 0 l -0.01,0.01 v 0 l -0.01,0.01 v 0 l -0.01,0.01 v 0 l -0.01,0.01 -0.01,0.01 v 0 l -0.01,0.01 -0.01,0.01 v 0 l -0.01,0.01 -0.01,0.01 -0.01,0.01 c -1.24,1.25 -1.56,3.13 -1.56,4.65 0,1.73 0.38,3.45 1.6,4.7 0.13,0.11 0.13,0.13 0.13,0.16 0,0.07 -0.04,0.1 -0.1,0.1 -0.1,0 -0.99,-0.67 -1.58,-1.93 -0.51,-1.1 -0.63,-2.2 -0.63,-3.03 0,-0.78 0.11,-1.98 0.66,-3.1 0.6,-1.23 1.45,-1.87 1.55,-1.87 0.06,0 0.1,0.03 0.1,0.1 z"
   inkscape:connector-curvature="0"
   style="fill:#000000;stroke-width:0" />
<path
   id="path26511"
   d="m 330.88,638.98 v 0 l 0.01,0.01 v 0.01 0 0.01 l 0.01,0.01 v 0.02 0 0.01 l 0.01,0.01 v 0.01 0.01 0.01 0 0.01 l 0.01,0.01 v 0 0.01 0 0.01 0 0.01 0.01 0.01 0.01 0.01 0.01 0 0.01 0.01 c 0,0.18 -0.14,0.26 -0.29,0.26 -0.1,0 -0.25,-0.06 -0.34,-0.2 -0.02,-0.05 -0.11,-0.36 -0.15,-0.54 -0.06,-0.26 -0.13,-0.53 -0.19,-0.8 l -0.45,-1.78 c -0.04,-0.15 -0.47,-0.85 -1.13,-0.85 -0.51,0 -0.62,0.44 -0.62,0.81 0,0.45 0.17,1.07 0.51,1.94 0.16,0.41 0.2,0.52 0.2,0.72 0,0.45 -0.32,0.81 -0.82,0.81 -0.94,0 -1.31,-1.44 -1.31,-1.53 0,-0.09 0.1,-0.09 0.12,-0.09 0.1,0 0.11,0.01 0.16,0.17 0.27,0.94 0.66,1.23 1,1.23 0.08,0 0.25,0 0.25,-0.31 0,-0.25 -0.1,-0.51 -0.17,-0.7 -0.4,-1.05 -0.58,-1.62 -0.58,-2.08 0,-0.89 0.63,-1.19 1.22,-1.19 0.39,0 0.73,0.17 1.01,0.45 -0.13,-0.52 -0.25,-1 -0.65,-1.53 -0.26,-0.34 -0.64,-0.62 -1.1,-0.62 -0.14,0 -0.59,0.03 -0.76,0.41 0.16,0 0.29,0 0.43,0.12 0.1,0.09 0.2,0.22 0.2,0.41 0,0.31 -0.27,0.35 -0.37,0.35 -0.23,0 -0.55,-0.16 -0.55,-0.65 0,-0.5 0.43,-0.86 1.05,-0.86 1.03,0 2.06,0.9 2.34,2.02 z"
   inkscape:connector-curvature="0"
   style="fill:#000000;stroke-width:0" />
<path
   id="path26513"
   d="m 334.63,635.55 v 0.07 0.07 l -0.01,0.07 -0.01,0.06 -0.02,0.07 -0.01,0.06 -0.02,0.06 -0.03,0.05 -0.02,0.06 -0.03,0.05 -0.03,0.05 -0.04,0.05 -0.03,0.05 -0.04,0.04 -0.04,0.05 -0.04,0.04 -0.05,0.03 -0.04,0.04 -0.05,0.03 -0.05,0.03 -0.05,0.03 -0.05,0.03 -0.06,0.02 -0.06,0.02 -0.05,0.02 -0.06,0.02 -0.06,0.01 -0.06,0.02 h -0.06 l -0.06,0.01 h -0.07 l -0.06,0.01 c -1.04,0 -2.02,-0.97 -2.02,-1.92 0,-0.7 0.51,-1.22 1.28,-1.22 v 0.19 c -0.35,0 -0.7,0.23 -0.7,0.78 0,0.28 0.14,0.96 0.41,1.36 0.3,0.43 0.71,0.61 1.02,0.61 0.38,0 0.7,-0.26 0.7,-0.77 0,-0.17 -0.08,-0.86 -0.39,-1.34 -0.27,-0.41 -0.69,-0.64 -1.04,-0.64 v 0 -0.19 c 1,0 2,0.92 2,1.92 z"
   inkscape:connector-curvature="0"
   style="fill:#000000;stroke-width:0" />
<path
   id="path26515"
   d="m 336.7,638.32 v 0 0 0 0 0 0 0 0 0.01 0 h 0.01 v 0.01 0 0.01 0 0.01 0 0.01 h 0.01 v 0.01 0 0.01 0 0.01 0 0.01 0 0 l 0.01,0.01 v 0 0 0 0 0 0 0 0 0.01 0 0 0 c 0,0.03 -0.03,0.1 -0.12,0.1 -0.13,0 -0.72,-0.06 -0.89,-0.07 -0.05,-0.01 -0.15,-0.02 -0.15,-0.17 0,-0.09 0.1,-0.09 0.18,-0.09 0.33,0 0.33,-0.05 0.33,-0.11 0,-0.05 -0.07,-0.32 -0.11,-0.48 l -0.16,-0.64 c -0.06,-0.24 -0.45,-1.76 -0.46,-1.85 -0.03,-0.17 -0.03,-0.26 -0.03,-0.34 0,-0.71 0.44,-1.15 1.02,-1.15 l 0.01,0.19 c -0.34,0 -0.54,0.3 -0.54,0.71 0,0.26 0.06,0.5 0.26,1.28 0.04,0.14 0.04,0.15 0.17,0.3 0.27,0.31 0.59,0.46 0.84,0.46 0.27,0 0.51,-0.2 0.51,-0.67 0,-0.29 -0.16,-1 -0.37,-1.4 -0.16,-0.34 -0.51,-0.68 -0.87,-0.68 v 0 l -0.01,-0.19 c 0.88,0 1.81,0.95 1.81,1.97 0,0.82 -0.57,1.17 -1.05,1.17 -0.37,0 -0.67,-0.21 -0.88,-0.39 z"
   inkscape:connector-curvature="0"
   style="fill:#000000;stroke-width:0" />
<path
   id="path26517"
   d="m 341.37,636.31 h -0.02 l -0.01,-0.01 h -0.02 l -0.01,-0.01 h -0.02 l -0.01,-0.01 -0.02,-0.01 -0.01,-0.01 h -0.02 l -0.01,-0.01 -0.01,-0.01 -0.01,-0.01 -0.01,-0.01 -0.01,-0.01 -0.01,-0.01 -0.01,-0.01 -0.01,-0.01 -0.01,-0.02 -0.01,-0.01 -0.01,-0.01 -0.01,-0.01 v -0.01 l -0.01,-0.02 v -0.01 l -0.01,-0.01 v -0.01 -0.02 l -0.01,-0.01 v -0.01 -0.02 -0.01 -0.01 c 0,-0.16 0.14,-0.23 0.23,-0.23 0.07,0 0.33,0.05 0.33,0.4 0,0.45 -0.5,0.61 -0.93,0.61 -1.09,0 -1.28,-0.8 -1.28,-1.02 0,-0.26 0.14,-0.42 0.24,-0.51 0.18,-0.14 0.31,-0.16 0.79,-0.25 0.15,-0.02 0.6,-0.11 0.6,-0.46 0,-0.12 -0.08,-0.38 -0.38,-0.55 -0.27,-0.16 -0.61,-0.16 -0.69,-0.16 -0.28,0 -0.68,0.07 -0.84,0.3 0.23,0.02 0.38,0.2 0.38,0.39 0,0.18 -0.12,0.26 -0.27,0.26 -0.2,0 -0.41,-0.16 -0.41,-0.47 0,-0.41 0.45,-0.67 1.13,-0.67 1.29,0 1.52,0.88 1.52,1.15 0,0.64 -0.7,0.76 -0.96,0.81 -0.06,0.01 -0.24,0.04 -0.28,0.06 -0.26,0.05 -0.39,0.19 -0.39,0.34 0,0.16 0.13,0.35 0.28,0.45 0.19,0.12 0.44,0.13 0.56,0.13 0.14,0 0.51,-0.02 0.66,-0.26 z"
   inkscape:connector-curvature="0"
   style="fill:#000000;stroke-width:0" />
<path
   id="path26519"
   d="m 345.5,637.68 v 0.07 0.08 l -0.01,0.07 v 0.09 l -0.01,0.16 -0.01,0.18 -0.01,0.18 -0.03,0.19 -0.02,0.2 -0.04,0.2 -0.03,0.2 -0.05,0.21 -0.05,0.21 -0.07,0.21 -0.07,0.21 -0.07,0.21 -0.05,0.11 -0.04,0.1 -0.05,0.11 -0.05,0.11 c -0.6,1.22 -1.46,1.86 -1.56,1.86 -0.06,0 -0.1,-0.04 -0.1,-0.1 0,-0.03 0,-0.05 0.19,-0.22 0.98,-0.99 1.55,-2.57 1.55,-4.64 0,-1.7 -0.37,-3.45 -1.61,-4.7 -0.13,-0.12 -0.13,-0.14 -0.13,-0.17 0,-0.06 0.04,-0.1 0.1,-0.1 0.1,0 1,0.68 1.59,1.94 0.51,1.09 0.63,2.19 0.63,3.03 z"
   inkscape:connector-curvature="0"
   style="fill:#000000;stroke-width:0" />
</g>
    <g
       aria-label="likelihood"
       id="text82"
       style="font-size:4.23333px;line-height:1.25;font-family:Verdana;-inkscape-font-specification:Verdana;letter-spacing:0px;word-spacing:0px;fill:#ff4081;stroke-width:0.264583">
      <path
         d="m 91.282241,45.633007 h -0.388606 v -3.216338 h 0.388606 z"
         id="path952" />
      <path
         d="m 92.468731,42.937567 h -0.438216 v -0.403076 h 0.438216 z m -0.02481,2.69544 H 92.05532 v -2.308901 h 0.388606 z"
         id="path954" />
      <path
         d="m 95.308865,45.633007 h -0.512629 l -0.926041,-1.01079 -0.252181,0.239778 v 0.771012 h -0.388606 v -3.216338 h 0.388606 v 2.062921 l 1.122411,-1.155484 h 0.489892 l -1.072802,1.066601 z"
         id="path956" />
      <path
         d="m 97.609498,44.518864 h -1.701187 q 0,0.212907 0.06408,0.37207 0.06408,0.157096 0.1757,0.258382 0.107487,0.09922 0.254248,0.148828 0.148828,0.04961 0.326594,0.04961 0.235645,0 0.473356,-0.09302 0.239779,-0.09509 0.341064,-0.186035 h 0.02067 v 0.423746 q -0.19637,0.08268 -0.401009,0.138493 -0.204638,0.05581 -0.429947,0.05581 -0.574642,0 -0.897103,-0.310058 -0.32246,-0.312125 -0.32246,-0.8847 0,-0.566373 0.307991,-0.899169 0.310058,-0.332796 0.81442,-0.332796 0.467155,0 0.719335,0.272852 0.254248,0.272851 0.254248,0.775145 z m -0.378271,-0.297656 q -0.0021,-0.305924 -0.155029,-0.473356 -0.150895,-0.167431 -0.460954,-0.167431 -0.312125,0 -0.49816,0.183968 -0.183968,0.183968 -0.208773,0.456819 z"
         id="path958" />
      <path
         d="M 98.59135,45.633007 H 98.202743 V 42.416669 H 98.59135 Z"
         id="path960" />
      <path
         d="m 99.77784,42.937567 h -0.438216 v -0.403076 h 0.438216 z m -0.02481,2.69544 h -0.388607 v -2.308901 h 0.388607 z"
         id="path962" />
      <path
         d="M 102.45261,45.633007 H 102.064 V 44.31836 q 0,-0.159164 -0.0186,-0.297656 -0.0186,-0.14056 -0.0682,-0.219108 -0.0517,-0.08682 -0.14883,-0.128158 -0.0971,-0.04341 -0.25218,-0.04341 -0.15917,0 -0.3328,0.07855 -0.17363,0.07855 -0.33279,0.200505 v 1.723924 h -0.38861 v -3.216338 h 0.38861 v 1.163752 q 0.1819,-0.150895 0.3762,-0.235644 0.1943,-0.08475 0.39894,-0.08475 0.37414,0 0.57051,0.225309 0.19637,0.225309 0.19637,0.649056 z"
         id="path964" />
      <path
         d="m 105.16872,44.47959 q 0,0.564306 -0.28939,0.890901 -0.28938,0.326595 -0.77514,0.326595 -0.4899,0 -0.77928,-0.326595 -0.28732,-0.326595 -0.28732,-0.890901 0,-0.564306 0.28732,-0.890901 0.28938,-0.328662 0.77928,-0.328662 0.48576,0 0.77514,0.328662 0.28939,0.326595 0.28939,0.890901 z m -0.40101,0 q 0,-0.448551 -0.1757,-0.665592 -0.1757,-0.219108 -0.48782,-0.219108 -0.31626,0 -0.49196,0.219108 -0.17363,0.217041 -0.17363,0.665592 0,0.434082 0.17569,0.659391 0.1757,0.223242 0.4899,0.223242 0.31006,0 0.48576,-0.221175 0.17776,-0.223242 0.17776,-0.661458 z"
         id="path966" />
      <path
         d="m 107.73807,44.47959 q 0,0.564306 -0.28939,0.890901 -0.28938,0.326595 -0.77514,0.326595 -0.48989,0 -0.77928,-0.326595 -0.28732,-0.326595 -0.28732,-0.890901 0,-0.564306 0.28732,-0.890901 0.28939,-0.328662 0.77928,-0.328662 0.48576,0 0.77514,0.328662 0.28939,0.326595 0.28939,0.890901 z m -0.40101,0 q 0,-0.448551 -0.1757,-0.665592 -0.1757,-0.219108 -0.48782,-0.219108 -0.31626,0 -0.49196,0.219108 -0.17363,0.217041 -0.17363,0.665592 0,0.434082 0.1757,0.659391 0.17569,0.223242 0.48989,0.223242 0.31006,0 0.48576,-0.221175 0.17776,-0.223242 0.17776,-0.661458 z"
         id="path968" />
      <path
         d="m 110.21234,45.633007 h -0.38861 v -0.241845 q -0.16743,0.144693 -0.34933,0.225309 -0.1819,0.08062 -0.39481,0.08062 -0.41341,0 -0.65732,-0.318327 -0.24185,-0.318326 -0.24185,-0.882633 0,-0.293521 0.0827,-0.522965 0.0847,-0.229443 0.22738,-0.390673 0.14056,-0.157096 0.32659,-0.239779 0.18811,-0.08268 0.38861,-0.08268 0.1819,0 0.32246,0.03927 0.14056,0.03721 0.29559,0.117822 v -1.000454 h 0.38861 z m -0.38861,-0.56844 v -1.324983 q -0.1571,-0.07028 -0.28112,-0.09715 -0.12402,-0.02687 -0.27078,-0.02687 -0.3266,0 -0.5085,0.227376 -0.1819,0.227376 -0.1819,0.644921 0,0.411344 0.14056,0.626318 0.14056,0.212907 0.45062,0.212907 0.16536,0 0.33486,-0.07235 0.1695,-0.07441 0.31626,-0.190169 z"
         id="path970" />
    </g>
    <g
       aria-label="posterior"
       id="text86"
       style="font-size:4.23333px;line-height:1.25;font-family:Verdana;-inkscape-font-specification:Verdana;letter-spacing:0px;word-spacing:0px;stroke-width:0.264583">
      <path
         d="m 25.461377,52.945143 q 0,0.281119 -0.08061,0.514697 -0.08062,0.23151 -0.227376,0.39274 -0.136426,0.152962 -0.322461,0.237712 -0.183968,0.08268 -0.390673,0.08268 -0.179834,0 -0.326595,-0.03927 -0.144694,-0.03927 -0.295589,-0.121956 v 0.967382 h -0.388607 v -3.160528 h 0.388607 v 0.241845 q 0.155029,-0.130224 0.347265,-0.217041 0.194303,-0.08888 0.413411,-0.08888 0.417546,0 0.649056,0.316259 0.233577,0.314193 0.233577,0.874365 z m -0.401009,0.01033 q 0,-0.417545 -0.142627,-0.624251 -0.142626,-0.206705 -0.438215,-0.206705 -0.167432,0 -0.33693,0.07235 -0.169499,0.07235 -0.324528,0.190169 v 1.308446 q 0.165364,0.07441 0.283187,0.101286 0.119889,0.02687 0.270784,0.02687 0.324528,0 0.506428,-0.219107 0.181901,-0.219108 0.181901,-0.649056 z"
         id="path991" />
      <path
         d="m 28.034861,52.974082 q 0,0.564306 -0.289387,0.890901 -0.289388,0.326594 -0.775146,0.326594 -0.489892,0 -0.77928,-0.326594 -0.287321,-0.326595 -0.287321,-0.890901 0,-0.564307 0.287321,-0.890901 0.289388,-0.328662 0.77928,-0.328662 0.485758,0 0.775146,0.328662 0.289387,0.326594 0.289387,0.890901 z m -0.401008,0 q 0,-0.448551 -0.1757,-0.665592 -0.1757,-0.219108 -0.487825,-0.219108 -0.31626,0 -0.491959,0.219108 -0.173633,0.217041 -0.173633,0.665592 0,0.434081 0.1757,0.65939 0.175699,0.223242 0.489892,0.223242 0.310058,0 0.485758,-0.221175 0.177767,-0.223242 0.177767,-0.661457 z"
         id="path993" />
      <path
         d="m 30.285885,53.461907 q 0,0.316259 -0.262516,0.518831 -0.260449,0.202571 -0.713134,0.202571 -0.256315,0 -0.471289,-0.05994 -0.212907,-0.06201 -0.357601,-0.134359 v -0.436149 h 0.02067 q 0.183968,0.138493 0.409277,0.221175 0.225309,0.08062 0.432014,0.08062 0.256315,0 0.401009,-0.08268 0.144694,-0.08268 0.144694,-0.260449 0,-0.136426 -0.07855,-0.206705 -0.07855,-0.07028 -0.30179,-0.11989 -0.08268,-0.0186 -0.217041,-0.04341 -0.132291,-0.02481 -0.241845,-0.05374 -0.303858,-0.08062 -0.432015,-0.235645 -0.12609,-0.157096 -0.12609,-0.384472 0,-0.142627 0.05788,-0.268717 0.05994,-0.126091 0.179834,-0.225309 0.115755,-0.09715 0.293522,-0.152962 0.179834,-0.05788 0.401009,-0.05788 0.206705,0 0.417545,0.05168 0.212907,0.04961 0.353466,0.121957 v 0.415478 h -0.02067 q -0.148828,-0.109554 -0.361735,-0.183968 -0.212907,-0.07648 -0.417545,-0.07648 -0.212907,0 -0.359668,0.08268 -0.146761,0.08061 -0.146761,0.241846 0,0.142626 0.08888,0.214973 0.08682,0.07235 0.281119,0.117823 0.107487,0.0248 0.239779,0.04961 0.134358,0.02481 0.223242,0.04548 0.270784,0.06201 0.417545,0.212907 0.146761,0.152962 0.146761,0.405143 z"
         id="path995" />
      <path
         d="m 32.040815,54.106828 q -0.109554,0.02894 -0.239778,0.04754 -0.128158,0.0186 -0.229444,0.0186 -0.353466,0 -0.537434,-0.190169 -0.183968,-0.190169 -0.183968,-0.609782 v -1.227831 h -0.262516 v -0.326594 h 0.262516 v -0.663525 h 0.388606 v 0.663525 h 0.802018 v 0.326594 h -0.802018 v 1.052132 q 0,0.181901 0.0083,0.285253 0.0083,0.101286 0.05788,0.190169 0.04547,0.08268 0.124024,0.121957 0.08062,0.03721 0.243912,0.03721 0.09509,0 0.198437,-0.02687 0.103353,-0.02894 0.148828,-0.04754 h 0.02067 z"
         id="path997" />
      <path
         d="m 34.442733,53.013356 h -1.701186 q 0,0.212906 0.06408,0.37207 0.06408,0.157096 0.1757,0.258382 0.107487,0.09922 0.254248,0.148828 0.148828,0.04961 0.326595,0.04961 0.235644,0 0.473355,-0.09302 0.239779,-0.09508 0.341065,-0.186035 h 0.02067 v 0.423747 q -0.19637,0.08268 -0.401009,0.138493 -0.204638,0.05581 -0.429947,0.05581 -0.574642,0 -0.897102,-0.310058 -0.322461,-0.312126 -0.322461,-0.8847 0,-0.566373 0.307991,-0.899169 0.310059,-0.332796 0.81442,-0.332796 0.467155,0 0.719336,0.272851 0.254247,0.272852 0.254247,0.775146 z M 34.064462,52.7157 q -0.0021,-0.305925 -0.155029,-0.473356 -0.150895,-0.167432 -0.460953,-0.167432 -0.312126,0 -0.498161,0.183968 -0.183968,0.183968 -0.208772,0.45682 z"
         id="path999" />
      <path
         d="m 36.472582,52.242344 h -0.02067 q -0.08682,-0.02067 -0.169498,-0.02894 -0.08062,-0.01034 -0.192236,-0.01034 -0.179834,0 -0.347266,0.08062 -0.167431,0.07855 -0.32246,0.204639 v 1.639175 h -0.388607 v -2.308901 h 0.388607 v 0.341064 q 0.23151,-0.186035 0.40721,-0.262516 0.177766,-0.07855 0.361734,-0.07855 0.101286,0 0.146761,0.0062 0.04547,0.0041 0.136426,0.0186 z"
         id="path1001" />
      <path
         d="M 37.255996,51.432058 H 36.81778 v -0.403076 h 0.438216 z m -0.02481,2.695441 h -0.388606 v -2.308901 h 0.388606 z"
         id="path1003" />
      <path
         d="m 39.967973,52.974082 q 0,0.564306 -0.289388,0.890901 -0.289387,0.326594 -0.775145,0.326594 -0.489893,0 -0.77928,-0.326594 -0.287321,-0.326595 -0.287321,-0.890901 0,-0.564307 0.287321,-0.890901 0.289387,-0.328662 0.77928,-0.328662 0.485758,0 0.775145,0.328662 0.289388,0.326594 0.289388,0.890901 z m -0.401009,0 q 0,-0.448551 -0.175699,-0.665592 -0.1757,-0.219108 -0.487825,-0.219108 -0.31626,0 -0.49196,0.219108 -0.173632,0.217041 -0.173632,0.665592 0,0.434081 0.175699,0.65939 0.1757,0.223242 0.489893,0.223242 0.310058,0 0.485758,-0.221175 0.177766,-0.223242 0.177766,-0.661457 z"
         id="path1005" />
      <path
         d="m 42.010223,52.242344 h -0.02067 q -0.08682,-0.02067 -0.169499,-0.02894 -0.08062,-0.01034 -0.192236,-0.01034 -0.179834,0 -0.347265,0.08062 -0.167432,0.07855 -0.322461,0.204639 v 1.639175 h -0.388606 v -2.308901 h 0.388606 v 0.341064 q 0.23151,-0.186035 0.40721,-0.262516 0.177767,-0.07855 0.361735,-0.07855 0.101285,0 0.146761,0.0062 0.04547,0.0041 0.136425,0.0186 z"
         id="path1007" />
    </g>
    <g
       aria-label="prior"
       id="text90"
       style="font-size:4.23333px;line-height:1.25;font-family:Verdana;-inkscape-font-specification:Verdana;letter-spacing:0px;word-spacing:0px;stroke-width:0.264583">
      <path
         d="m 132.30194,58.482306 q 0,0.281119 -0.0806,0.514696 -0.0806,0.231511 -0.22737,0.392741 -0.13643,0.152962 -0.32246,0.237711 -0.18397,0.08268 -0.39068,0.08268 -0.17983,0 -0.32659,-0.03927 -0.14469,-0.03927 -0.29559,-0.121957 v 0.967382 h -0.38861 V 57.35576 h 0.38861 v 0.241846 q 0.15503,-0.130225 0.34727,-0.217041 0.1943,-0.08888 0.41341,-0.08888 0.41754,0 0.64905,0.316259 0.23358,0.314193 0.23358,0.874365 z m -0.40101,0.01033 q 0,-0.417545 -0.14263,-0.624251 -0.14262,-0.206705 -0.43821,-0.206705 -0.16743,0 -0.33693,0.07235 -0.1695,0.07235 -0.32453,0.190169 v 1.308446 q 0.16537,0.07441 0.28319,0.101286 0.11989,0.02687 0.27078,0.02687 0.32453,0 0.50643,-0.219108 0.1819,-0.219108 0.1819,-0.649055 z"
         id="path923" />
      <path
         d="m 134.34833,57.779507 h -0.0207 q -0.0868,-0.02067 -0.16949,-0.02894 -0.0806,-0.01033 -0.19224,-0.01033 -0.17983,0 -0.34727,0.08061 -0.16743,0.07855 -0.32246,0.204638 v 1.639175 h -0.3886 V 57.35576 h 0.3886 v 0.341065 q 0.23151,-0.186035 0.40721,-0.262517 0.17777,-0.07855 0.36174,-0.07855 0.10128,0 0.14676,0.0062 0.0455,0.0041 0.13643,0.0186 z"
         id="path925" />
      <path
         d="m 135.13174,56.969221 h -0.43822 v -0.403076 h 0.43822 z m -0.0248,2.69544 h -0.3886 V 57.35576 h 0.3886 z"
         id="path927" />
      <path
         d="m 137.84372,58.511244 q 0,0.564307 -0.28939,0.890901 -0.28939,0.326595 -0.77515,0.326595 -0.48989,0 -0.77928,-0.326595 -0.28732,-0.326594 -0.28732,-0.890901 0,-0.564306 0.28732,-0.890901 0.28939,-0.328661 0.77928,-0.328661 0.48576,0 0.77515,0.328661 0.28939,0.326595 0.28939,0.890901 z m -0.40101,0 q 0,-0.448551 -0.1757,-0.665591 -0.1757,-0.219108 -0.48783,-0.219108 -0.31626,0 -0.49196,0.219108 -0.17363,0.21704 -0.17363,0.665591 0,0.434082 0.1757,0.659391 0.1757,0.223242 0.48989,0.223242 0.31006,0 0.48576,-0.221175 0.17777,-0.223242 0.17777,-0.661458 z"
         id="path929" />
      <path
         d="m 139.88597,57.779507 h -0.0207 q -0.0868,-0.02067 -0.1695,-0.02894 -0.0806,-0.01033 -0.19224,-0.01033 -0.17983,0 -0.34726,0.08061 -0.16743,0.07855 -0.32246,0.204638 v 1.639175 h -0.38861 V 57.35576 h 0.38861 v 0.341065 q 0.23151,-0.186035 0.40721,-0.262517 0.17776,-0.07855 0.36173,-0.07855 0.10129,0 0.14676,0.0062 0.0455,0.0041 0.13643,0.0186 z"
         id="path931" />
    </g>
    <g
       aria-label="evidence"
       id="text94"
       style="font-size:4.23333px;line-height:1.25;font-family:Verdana;-inkscape-font-specification:Verdana;letter-spacing:0px;word-spacing:0px;stroke-width:0.264583">
      <path
         d="m 75.413323,79.531167 h -1.701187 q 0,0.212906 0.06408,0.37207 0.06408,0.157096 0.1757,0.258381 0.107487,0.09922 0.254248,0.148828 0.148828,0.04961 0.326594,0.04961 0.235645,0 0.473356,-0.09302 0.239779,-0.09508 0.341064,-0.186035 h 0.02067 v 0.423747 q -0.19637,0.08268 -0.401009,0.138492 -0.204638,0.05581 -0.429948,0.05581 -0.574641,0 -0.897102,-0.310058 -0.32246,-0.312126 -0.32246,-0.8847 0,-0.566373 0.307991,-0.899169 0.310058,-0.332796 0.81442,-0.332796 0.467154,0 0.719335,0.272851 0.254248,0.272851 0.254248,0.775146 z m -0.378271,-0.297656 q -0.0021,-0.305925 -0.155029,-0.473356 -0.150895,-0.167432 -0.460954,-0.167432 -0.312125,0 -0.49816,0.183968 -0.183968,0.183968 -0.208773,0.45682 z"
         id="path1028" />
      <path
         d="M 77.999209,78.336408 77.0649,80.645309 h -0.390673 l -0.928108,-2.308901 h 0.421679 l 0.715201,1.837613 0.709,-1.837613 z"
         id="path1030" />
      <path
         d="m 78.92525,77.949869 h -0.438215 v -0.403076 h 0.438215 z m -0.0248,2.69544 h -0.388607 v -2.308901 h 0.388607 z"
         id="path1032" />
      <path
         d="m 81.542143,80.645309 h -0.388606 v -0.241845 q -0.167432,0.144694 -0.349333,0.225309 -0.181901,0.08062 -0.394807,0.08062 -0.413412,0 -0.657324,-0.318326 -0.241846,-0.318327 -0.241846,-0.882633 0,-0.293522 0.08268,-0.522965 0.08475,-0.229443 0.227376,-0.390674 0.14056,-0.157096 0.326595,-0.239778 0.188102,-0.08268 0.388606,-0.08268 0.181901,0 0.322461,0.03927 0.140559,0.03721 0.295589,0.117822 v -1.000455 h 0.388606 z m -0.388606,-0.56844 v -1.324982 q -0.157097,-0.07028 -0.28112,-0.09715 -0.124023,-0.02687 -0.270784,-0.02687 -0.326595,0 -0.508496,0.227376 -0.181901,0.227376 -0.181901,0.644922 0,0.411344 0.14056,0.626318 0.14056,0.212906 0.450618,0.212906 0.165365,0 0.334863,-0.07235 0.169499,-0.07441 0.31626,-0.190169 z"
         id="path1034" />
      <path
         d="m 84.23965,79.531167 h -1.701186 q 0,0.212906 0.06408,0.37207 0.06408,0.157096 0.1757,0.258381 0.107487,0.09922 0.254248,0.148828 0.148828,0.04961 0.326595,0.04961 0.235644,0 0.473355,-0.09302 0.239779,-0.09508 0.341065,-0.186035 h 0.02067 v 0.423747 q -0.19637,0.08268 -0.401009,0.138492 -0.204638,0.05581 -0.429947,0.05581 -0.574642,0 -0.897102,-0.310058 -0.322461,-0.312126 -0.322461,-0.8847 0,-0.566373 0.307991,-0.899169 0.310059,-0.332796 0.81442,-0.332796 0.467155,0 0.719336,0.272851 0.254247,0.272851 0.254247,0.775146 z m -0.378271,-0.297656 q -0.0021,-0.305925 -0.155029,-0.473356 -0.150895,-0.167432 -0.460953,-0.167432 -0.312126,0 -0.498161,0.183968 -0.183968,0.183968 -0.208772,0.45682 z"
         id="path1036" />
      <path
         d="m 86.759391,80.645309 h -0.388606 v -1.314647 q 0,-0.159163 -0.0186,-0.297656 -0.0186,-0.14056 -0.06821,-0.219108 -0.05168,-0.08682 -0.148828,-0.128157 -0.09715,-0.04341 -0.252181,-0.04341 -0.159163,0 -0.332796,0.07855 -0.173632,0.07855 -0.332795,0.200504 v 1.723924 h -0.388607 v -2.308901 h 0.388607 v 0.256315 q 0.1819,-0.150895 0.376204,-0.235644 0.194303,-0.08475 0.398941,-0.08475 0.374137,0 0.570508,0.225309 0.19637,0.225309 0.19637,0.649055 z"
         id="path1038" />
      <path
         d="m 89.215053,80.500616 q -0.194304,0.09302 -0.370003,0.144693 -0.173633,0.05168 -0.370003,0.05168 -0.250114,0 -0.458887,-0.07235 -0.208772,-0.07441 -0.3576,-0.223242 -0.150895,-0.148828 -0.233578,-0.376204 -0.08268,-0.227376 -0.08268,-0.531233 0,-0.566374 0.310059,-0.888834 0.312125,-0.322461 0.822688,-0.322461 0.198437,0 0.388606,0.05581 0.192236,0.05581 0.3514,0.136426 v 0.432015 h -0.02067 q -0.177767,-0.138493 -0.367936,-0.212907 -0.188102,-0.07441 -0.367936,-0.07441 -0.330729,0 -0.522965,0.223242 -0.190169,0.221175 -0.190169,0.651123 0,0.417545 0.186035,0.642854 0.188102,0.223242 0.527099,0.223242 0.117822,0 0.239779,-0.03101 0.121956,-0.03101 0.219108,-0.08061 0.08475,-0.04341 0.159163,-0.09095 0.07441,-0.04961 0.117822,-0.08475 h 0.02067 z"
         id="path1040" />
      <path
         d="m 91.645911,79.531167 h -1.701187 q 0,0.212906 0.06408,0.37207 0.06408,0.157096 0.1757,0.258381 0.107486,0.09922 0.254247,0.148828 0.148828,0.04961 0.326595,0.04961 0.235645,0 0.473356,-0.09302 0.239778,-0.09508 0.341064,-0.186035 h 0.02067 v 0.423747 q -0.196371,0.08268 -0.401009,0.138492 -0.204639,0.05581 -0.429948,0.05581 -0.574641,0 -0.897102,-0.310058 -0.32246,-0.312126 -0.32246,-0.8847 0,-0.566373 0.307991,-0.899169 0.310058,-0.332796 0.81442,-0.332796 0.467154,0 0.719335,0.272851 0.254248,0.272851 0.254248,0.775146 z M 91.26764,79.233511 q -0.0021,-0.305925 -0.155029,-0.473356 -0.150896,-0.167432 -0.460954,-0.167432 -0.312125,0 -0.49816,0.183968 -0.183968,0.183968 -0.208773,0.45682 z"
         id="path1042" />
    </g>
    <path
       style="fill:none;stroke:#000000;stroke-width:0.26499999;stroke-linecap:butt;stroke-linejoin:miter;stroke-miterlimit:4;stroke-dasharray:none;stroke-opacity:1;marker-end:url(#Arrow2Lend)"
       d="m 42.676498,54.45012 8.90652,4.91386"
       id="path96"
       inkscape:connector-curvature="0"
       sodipodi:nodetypes="cc" />
    <path
       style="fill:none;stroke:#ff4081;stroke-width:0.26499999;stroke-linecap:butt;stroke-linejoin:miter;stroke-miterlimit:4;stroke-dasharray:none;stroke-opacity:1;marker-end:url(#Arrow2Lend-0)"
       d="M 99.780165,47.014399 93.01801,54.333686"
       id="path96-3"
       inkscape:connector-curvature="0"
       sodipodi:nodetypes="cc" />
    <path
       style="fill:none;stroke:#000000;stroke-width:0.26499999;stroke-linecap:butt;stroke-linejoin:miter;stroke-miterlimit:4;stroke-dasharray:none;stroke-opacity:1;marker-end:url(#Arrow2Lend-5)"
       d="m 83.325894,76.726428 9.190002,-6.000202"
       id="path96-6"
       inkscape:connector-curvature="0"
       sodipodi:nodetypes="cc" />
    <path
       style="fill:none;stroke:#000000;stroke-width:0.26499999;stroke-linecap:butt;stroke-linejoin:miter;stroke-miterlimit:4;stroke-dasharray:none;stroke-opacity:1;marker-end:url(#Arrow2Lend-1)"
       d="m 129.06346,58.426442 -13.84431,0.748711"
       id="path96-8"
       inkscape:connector-curvature="0"
       sodipodi:nodetypes="cc" />
  </g>
</svg>
