<?xml version="1.0" encoding="UTF-8" standalone="no"?>
<svg
   version="1.1"
   id="svg2"
   xml:space="preserve"
   width="982.43817"
   height="411.4653"
   viewBox="0 0 982.43817 411.46531"
   sodipodi:docname="front.svg"
   inkscape:version="1.2.2 (1:1.2.2+202212051551+b0a8486541)"
   xmlns:inkscape="http://www.inkscape.org/namespaces/inkscape"
   xmlns:sodipodi="http://sodipodi.sourceforge.net/DTD/sodipodi-0.dtd"
   xmlns="http://www.w3.org/2000/svg"
   xmlns:svg="http://www.w3.org/2000/svg"
   xmlns:rdf="http://www.w3.org/1999/02/22-rdf-syntax-ns#"
   xmlns:cc="http://creativecommons.org/ns#"
   xmlns:dc="http://purl.org/dc/elements/1.1/"><metadata
     id="metadata8"><rdf:RDF><cc:Work
         rdf:about=""><dc:format>image/svg+xml</dc:format><dc:type
           rdf:resource="http://purl.org/dc/dcmitype/StillImage" /></cc:Work></rdf:RDF></metadata><defs
     id="defs6"><rect
   x="536.9129"
   y="-160.87737"
   width="304.20255"
   height="157.21185"
   id="rect1299" /><inkscape:path-effect
   effect="bspline"
   id="path-effect1623"
   is_visible="true"
   lpeversion="1"
   weight="33.333333"
   steps="2"
   helper_size="0"
   apply_no_weight="true"
   apply_with_weight="true"
   only_selected="false" /><inkscape:path-effect
   effect="bspline"
   id="path-effect17271"
   is_visible="true"
   lpeversion="1"
   weight="33.333333"
   steps="2"
   helper_size="0"
   apply_no_weight="true"
   apply_with_weight="true"
   only_selected="false" /><clipPath
   clipPathUnits="userSpaceOnUse"
   id="clipPath18"><path
     d="M 0,0.028 H 719.971 V 539.999 H 0 Z"
     id="path16"
     inkscape:connector-curvature="0"
     style="clip-rule:evenodd" /></clipPath><clipPath
   clipPathUnits="userSpaceOnUse"
   id="clipPath30"><path
     d="M 0,0.056 H 719.971 V 539.999 H 0 Z"
     id="path28"
     inkscape:connector-curvature="0"
     style="clip-rule:evenodd" /></clipPath><clipPath
   clipPathUnits="userSpaceOnUse"
   id="clipPath62"><path
     d="M 0,0.028 H 719.971 V 539.999 H 0 Z"
     id="path60"
     inkscape:connector-curvature="0"
     style="clip-rule:evenodd" /></clipPath><clipPath
   id="clipPath936"
   clipPathUnits="userSpaceOnUse"><path
     style="clip-rule:evenodd"
     inkscape:connector-curvature="0"
     id="path934"
     d="M 0,0.028 H 719.971 V 539.999 H 0 Z" /></clipPath><clipPath
   id="clipPath948"
   clipPathUnits="userSpaceOnUse"><path
     style="clip-rule:evenodd"
     inkscape:connector-curvature="0"
     id="path946"
     d="M 0,0.056 H 719.971 V 539.999 H 0 Z" /></clipPath><clipPath
   id="clipPath980"
   clipPathUnits="userSpaceOnUse"><path
     style="clip-rule:evenodd"
     inkscape:connector-curvature="0"
     id="path978"
     d="M 0,0.028 H 719.971 V 539.999 H 0 Z" /></clipPath><clipPath
   clipPathUnits="userSpaceOnUse"
   id="clipPath1097"><rect
     style="fill:#e9e9e9;fill-opacity:1;stroke:none;stroke-width:2.04258;stroke-miterlimit:4;stroke-dasharray:none;stroke-opacity:1"
     id="rect1099"
     width="298.51294"
     height="40.448906"
     x="40.381569"
     y="-403.68008" /></clipPath><clipPath
   id="clip1"><path
     id="path1101"
     d="M 0.910156,0 H 338.41797 V 49.222656 H 0.910156 Z m 0,0"
     inkscape:connector-curvature="0" /></clipPath><clipPath
   clipPathUnits="userSpaceOnUse"
   id="clipPath1317"><rect
     style="fill:#e9e9e9;fill-opacity:1;stroke:none;stroke-width:2.84882;stroke-miterlimit:4;stroke-dasharray:none;stroke-opacity:1"
     id="rect1319"
     width="234.53389"
     height="38.326275"
     x="24.365492"
     y="5.7361679" /></clipPath><clipPath
   id="clip1-7"><path
     id="path1101-5"
     d="M 0.910156,0 H 338.41797 V 49.222656 H 0.910156 Z m 0,0"
     inkscape:connector-curvature="0" /></clipPath><clipPath
   clipPathUnits="userSpaceOnUse"
   id="clipPath3018"><path
     d="M 0,56.958 H 147.026 V 0 H 0 Z"
     id="path3020" /></clipPath>




<clipPath
   clipPathUnits="userSpaceOnUse"
   id="clipPath9096"><path
     d="M -19.569529,216.99362 H 146.30788 V 49.537056 H -19.569529 Z"
     id="path9094" /></clipPath><radialGradient
   fx="0"
   fy="0"
   cx="0"
   cy="0"
   r="1"
   gradientUnits="userSpaceOnUse"
   gradientTransform="matrix(20.87648,0,0,-20.421158,48.704285,94.012909)"
   spreadMethod="pad"
   id="radialGradient9102"><stop
     style="stop-opacity:1;stop-color:#ffffff"
     offset="0"
     id="stop9098" /><stop
     style="stop-opacity:1;stop-color:#52ace4"
     offset="1"
     id="stop9100" /></radialGradient><clipPath
   clipPathUnits="userSpaceOnUse"
   id="clipPath9122"><path
     d="M -19.569985,217.00041 148.40605,218.95555 146.30883,49.541582 -21.66721,47.586438 Z"
     id="path9120" /></clipPath><radialGradient
   fx="0"
   fy="0"
   cx="0"
   cy="0"
   r="1"
   gradientUnits="userSpaceOnUse"
   gradientTransform="matrix(17.256134,0.2008514,-0.2046051,-16.528015,48.70462,94.017761)"
   spreadMethod="pad"
   id="radialGradient9128"><stop
     style="stop-opacity:1;stop-color:#ffffff"
     offset="0"
     id="stop9124" /><stop
     style="stop-opacity:1;stop-color:#5dade4"
     offset="1"
     id="stop9126" /></radialGradient><clipPath
   clipPathUnits="userSpaceOnUse"
   id="clipPath9276"><path
     d="M 0,141.286 H 155.556 V 0 H 0 Z"
     id="path9274" /></clipPath><clipPath
   clipPathUnits="userSpaceOnUse"
   id="clipPath15598"><g
     id="g15602"
     transform="matrix(1.1915785,0,0,-1.1915785,-982.61116,282.40052)"><path
       d="M 788.08428,258.48648 H 911.21507 V 181.14286 H 788.08428 Z"
       id="path15600"
       style="stroke-width:0.839223" /></g></clipPath><clipPath
   clipPathUnits="userSpaceOnUse"
   id="clipPath15604"><g
     id="g15608"
     transform="matrix(1.1915785,0,0,-1.1915785,-968.84796,268.62903)"><path
       d="M 788.08428,258.48648 H 911.21507 V 181.14286 H 788.08428 Z"
       id="path15606"
       style="stroke-width:0.839223" /></g></clipPath><clipPath
   clipPathUnits="userSpaceOnUse"
   id="clipPath15610"><g
     id="g15614"
     transform="matrix(1.1915785,0,0,-1.1915785,-970.17707,254.17492)"><path
       d="M 788.08428,258.48648 H 911.21507 V 181.14286 H 788.08428 Z"
       id="path15612"
       style="stroke-width:0.839223" /></g></clipPath><clipPath
   clipPathUnits="userSpaceOnUse"
   id="clipPath15616"><g
     id="g15620"
     transform="matrix(1.1915785,0,0,-1.1915785,-992.64047,243.99183)"><path
       d="M 788.08428,258.48648 H 911.21507 V 181.14286 H 788.08428 Z"
       id="path15618"
       style="stroke-width:0.839223" /></g></clipPath><clipPath
   clipPathUnits="userSpaceOnUse"
   id="clipPath15622"><g
     id="g15626"
     transform="matrix(1.1915785,0,0,-1.1915785,-987.84987,242.99133)"><path
       d="M 788.08428,258.48648 H 911.21507 V 181.14286 H 788.08428 Z"
       id="path15624"
       style="stroke-width:0.839223" /></g></clipPath><clipPath
   clipPathUnits="userSpaceOnUse"
   id="clipPath15628"><g
     id="g15632"
     transform="matrix(1.1915785,0,0,-1.1915785,-1007.8602,257.29113)"><path
       d="M 788.08428,258.48648 H 911.21507 V 181.14286 H 788.08428 Z"
       id="path15630"
       style="stroke-width:0.839223" /></g></clipPath><clipPath
   clipPathUnits="userSpaceOnUse"
   id="clipPath15634"><g
     id="g15638"
     transform="matrix(1.1915785,0,0,-1.1915785,-1006.3597,253.66713)"><path
       d="M 788.08428,258.48648 H 911.21507 V 181.14286 H 788.08428 Z"
       id="path15636"
       style="stroke-width:0.839223" /></g></clipPath><clipPath
   clipPathUnits="userSpaceOnUse"
   id="clipPath15640"><g
     id="g15644"
     transform="matrix(1.1915785,0,0,-1.1915785,-1003.8441,277.32822)"><path
       d="M 788.08428,258.48648 H 911.21507 V 181.14286 H 788.08428 Z"
       id="path15642"
       style="stroke-width:0.839223" /></g></clipPath><clipPath
   clipPathUnits="userSpaceOnUse"
   id="clipPath15646"><g
     id="g15650"
     transform="matrix(1.1915785,0,0,-1.1915785,-1006.2621,273.55672)"><path
       d="M 788.08428,258.48648 H 911.21507 V 181.14286 H 788.08428 Z"
       id="path15648"
       style="stroke-width:0.839223" /></g></clipPath><clipPath
   clipPathUnits="userSpaceOnUse"
   id="clipPath15652"><g
     id="g15656"
     transform="matrix(1.1915785,0,0,-1.1915785,-979.72586,296.48742)"><path
       d="M 788.08428,258.48648 H 911.21507 V 181.14286 H 788.08428 Z"
       id="path15654"
       style="stroke-width:0.839223" /></g></clipPath><clipPath
   clipPathUnits="userSpaceOnUse"
   id="clipPath15658"><g
     id="g15662"
     transform="matrix(1.1915785,0,0,-1.1915785,-979.72586,296.48742)"><path
       d="M 788.08428,258.48648 H 911.21507 V 181.14286 H 788.08428 Z"
       id="path15660"
       style="stroke-width:0.839223" /></g></clipPath><clipPath
   clipPathUnits="userSpaceOnUse"
   id="clipPath15664"><g
     id="g15668"
     transform="matrix(1.1915785,0,0,-1.1915785,-985.23756,283.84683)"><path
       d="M 788.08428,258.48648 H 911.21507 V 181.14286 H 788.08428 Z"
       id="path15666"
       style="stroke-width:0.839223" /></g></clipPath><clipPath
   clipPathUnits="userSpaceOnUse"
   id="clipPath15670"><g
     id="g15674"
     transform="matrix(1.1915785,0,0,-1.1915785,-955.31576,273.62413)"><path
       d="M 788.08428,258.48648 H 911.21507 V 181.14286 H 788.08428 Z"
       id="path15672"
       style="stroke-width:0.839223" /></g></clipPath><clipPath
   clipPathUnits="userSpaceOnUse"
   id="clipPath15676"><g
     id="g15680"
     transform="matrix(1.1915785,0,0,-1.1915785,-955.31576,273.62413)"><path
       d="M 788.08428,258.48648 H 911.21507 V 181.14286 H 788.08428 Z"
       id="path15678"
       style="stroke-width:0.839223" /></g></clipPath><clipPath
   clipPathUnits="userSpaceOnUse"
   id="clipPath15682"><g
     id="g15686"
     transform="matrix(1.1915785,0,0,-1.1915785,-968.30597,271.41813)"><path
       d="M 788.08428,258.48648 H 911.21507 V 181.14286 H 788.08428 Z"
       id="path15684"
       style="stroke-width:0.839223" /></g></clipPath><clipPath
   clipPathUnits="userSpaceOnUse"
   id="clipPath15688"><g
     id="g15692"
     transform="matrix(1.1915785,0,0,-1.1915785,-964.09896,239.14363)"><path
       d="M 788.08428,258.48648 H 911.21507 V 181.14286 H 788.08428 Z"
       id="path15690"
       style="stroke-width:0.839223" /></g></clipPath><clipPath
   clipPathUnits="userSpaceOnUse"
   id="clipPath15694"><g
     id="g15698"
     transform="matrix(1.1915785,0,0,-1.1915785,-964.09896,239.14363)"><path
       d="M 788.08428,258.48648 H 911.21507 V 181.14286 H 788.08428 Z"
       id="path15696"
       style="stroke-width:0.839223" /></g></clipPath><clipPath
   clipPathUnits="userSpaceOnUse"
   id="clipPath15700"><g
     id="g15704"
     transform="matrix(1.1915785,0,0,-1.1915785,-970.63506,251.30583)"><path
       d="M 788.08428,258.48648 H 911.21507 V 181.14286 H 788.08428 Z"
       id="path15702"
       style="stroke-width:0.839223" /></g></clipPath><clipPath
   clipPathUnits="userSpaceOnUse"
   id="clipPath15706"><g
     id="g15710"
     transform="matrix(1.1915785,0,0,-1.1915785,-1012.4427,287.82723)"><path
       d="M 788.08428,258.48648 H 911.21507 V 181.14286 H 788.08428 Z"
       id="path15708"
       style="stroke-width:0.839223" /></g></clipPath><clipPath
   clipPathUnits="userSpaceOnUse"
   id="clipPath15712"><g
     id="g15716"
     transform="matrix(1.1915785,0,0,-1.1915785,-1005.4994,275.88392)"><path
       d="M 788.08428,258.48648 H 911.21507 V 181.14286 H 788.08428 Z"
       id="path15714"
       style="stroke-width:0.839223" /></g></clipPath><clipPath
   clipPathUnits="userSpaceOnUse"
   id="clipPath15718"><g
     id="g15722"
     transform="matrix(1.1915785,0,0,-1.1915785,-1008.0072,255.00302)"><path
       d="M 788.08428,258.48648 H 911.21507 V 181.14286 H 788.08428 Z"
       id="path15720"
       style="stroke-width:0.839223" /></g></clipPath><clipPath
   clipPathUnits="userSpaceOnUse"
   id="clipPath15724"><g
     id="g15728"
     transform="matrix(1.1915785,0,0,-1.1915785,-994.28256,229.04013)"><path
       d="M 788.08428,258.48648 H 911.21507 V 181.14286 H 788.08428 Z"
       id="path15726"
       style="stroke-width:0.839223" /></g></clipPath><clipPath
   clipPathUnits="userSpaceOnUse"
   id="clipPath15730"><g
     id="g15734"
     transform="matrix(1.1915785,0,0,-1.1915785,-994.28256,229.04013)"><path
       d="M 788.08428,258.48648 H 911.21507 V 181.14286 H 788.08428 Z"
       id="path15732"
       style="stroke-width:0.839223" /></g></clipPath><clipPath
   clipPathUnits="userSpaceOnUse"
   id="clipPath15736"><g
     id="g15740"
     transform="matrix(1.1915785,0,0,-1.1915785,-990.35286,242.23153)"><path
       d="M 788.08428,258.48648 H 911.21507 V 181.14286 H 788.08428 Z"
       id="path15738"
       style="stroke-width:0.839223" /></g></clipPath><clipPath
   clipPathUnits="userSpaceOnUse"
   id="clipPath15755"><g
     id="g15761"><g
       id="g15759"><path
         d="M 788.08428,258.48648 H 911.21507 V 181.14286 H 788.08428 Z"
         id="path15757"
         style="stroke-width:0.839223" /></g></g></clipPath><inkscape:path-effect
   effect="bspline"
   id="path-effect1623-3"
   is_visible="true"
   lpeversion="1"
   weight="33.333333"
   steps="2"
   helper_size="0"
   apply_no_weight="true"
   apply_with_weight="true"
   only_selected="false" /><clipPath
   clipPathUnits="userSpaceOnUse"
   id="clipPath68"><path
     d="M 186.712,255.74 H 398.65 V 384.815 H 186.712 Z"
     id="path66" /></clipPath>




<clipPath
   clipPathUnits="userSpaceOnUse"
   id="clipPath106"><path
     d="M 443.625,255.424 H 655.214 V 384.286 H 443.625 Z"
     id="path104" /></clipPath></defs><sodipodi:namedview
     pagecolor="#ffffff"
     bordercolor="#666666"
     borderopacity="1"
     objecttolerance="10"
     gridtolerance="10"
     guidetolerance="10"
     inkscape:pageopacity="0"
     inkscape:pageshadow="2"
     inkscape:window-width="2514"
     inkscape:window-height="1403"
     id="namedview4"
     showgrid="false"
     showguides="true"
     inkscape:guide-bbox="true"
     inkscape:zoom="1.3299629"
     inkscape:cx="672.57515"
     inkscape:cy="156.39534"
     inkscape:window-x="0"
     inkscape:window-y="0"
     inkscape:window-maximized="1"
     inkscape:current-layer="g10"
     inkscape:document-rotation="0"
     inkscape:pagecheckerboard="0"
     inkscape:showpageshadow="2"
     inkscape:deskcolor="#d1d1d1" /><g
     id="g10"
     inkscape:groupmode="layer"
     inkscape:label="Formatvorlage_englisch"
     transform="matrix(1.3333333,0,0,-1.3333333,-5.669916,561.29387)">



<rect
   style="opacity:1;fill:#5c2874;fill-opacity:0.200775;stroke:none;stroke-width:3.1042;stroke-miterlimit:4;stroke-dasharray:none;stroke-opacity:1"
   id="rect1044"
   width="696.1947"
   height="75.092216"
   x="44.886372"
   y="-187.46365"
   transform="scale(1,-1)" /><rect
   style="fill:#5c2874;fill-opacity:1;stroke:none;stroke-width:3.33809;stroke-miterlimit:4;stroke-dasharray:none;stroke-opacity:1"
   id="rect918"
   width="711.16827"
   height="170.09248"
   x="4.2524371"
   y="-363.3783"
   transform="scale(1,-1)" /><text
   id="text967"
   style="font-variant:normal;font-weight:normal;font-size:20px;font-family:Carlito;-inkscape-font-specification:Carlito;writing-mode:lr-tb;fill:#5c2874;fill-opacity:1;fill-rule:nonzero;stroke:none"
   transform="scale(1,-1)"
   y="-156.88551"
   x="58.924362"><tspan
     id="tspan965"
     sodipodi:role="line"
     y="-156.88551"
     x="58.924362"
     style="font-size:20px;fill:#5c2874;fill-opacity:1">Yannik Schälte</tspan></text><g
   transform="translate(-19.865466,-75.012486)"
   id="g975"
   style="fill:#5c2874;fill-opacity:1"><text
   id="text973"
   style="font-variant:normal;font-weight:normal;font-size:18px;font-family:Carlito;-inkscape-font-specification:Carlito;writing-mode:lr-tb;fill:#5c2874;fill-opacity:1;fill-rule:nonzero;stroke:none"
   transform="matrix(1,0,0,-1,78.491,207.298)"
   y="0"><tspan
     id="tspan971"
     sodipodi:role="line"
     y="0"
     x="0"
     style="font-size:18px;fill:#5c2874;fill-opacity:1">JHS Add-On 8th Cohort First Meeting, Hamburg 2023-02-11</tspan></text>




</g>




<g
   id="g6761"
   transform="translate(121.47031)"><g
     id="g3642"
     transform="matrix(0.9999925,0,0,0.9999925,-15.293528,50.911566)"><g
       id="g3022"
       transform="matrix(0.72316989,0,0,0.72316989,423.66483,358.69092)"
       style="fill:#07529a;fill-opacity:1"><path
         d="M 0,0 C 4.722,5.559 7.378,10.12 9.502,15.723 H -26.884 V -15.712 C -19.686,-14.741 -9.592,-11.294 0,0"
         style="fill:#07529a;fill-opacity:1;fill-rule:nonzero;stroke:none"
         id="path3024" /></g><path
       d="m 404.22675,328.87108 h 41.19393 v 11.5794 h -41.19393 z"
       style="fill:#eab90c;fill-opacity:1;fill-rule:nonzero;stroke:none;stroke-width:0.72317"
       id="path3026" /><g
       id="g3028"
       transform="matrix(0.72316989,0,0,0.72316989,445.41713,370.06139)"
       style="fill:#909085;fill-opacity:1"><path
         d="m 0,0 h -18.197 c -2.179,-5.927 -5.489,-11.923 -10.518,-17.844 -9.903,-11.658 -20.868,-15.169 -28.248,-16.142 v -4.423 H 0 Z"
         style="fill:#909085;fill-opacity:1;fill-rule:nonzero;stroke:none"
         id="path3030" /></g><g
       id="g3032"
       transform="matrix(0.72316989,0,0,0.72316989,408.95643,331.96755)"><path
         d="m 0,0 c 1.386,0 1.818,0.283 1.818,1.52 0,1.371 -0.462,1.728 -1.878,1.744 H -1.952 V 0.015 Z M -1.952,7.51 V 4.619 h 1.863 c 1.251,0 1.669,0.298 1.669,1.476 0,1.147 -0.447,1.415 -1.818,1.415 z M 1.609,3.919 c 1.55,-0.134 2.072,-1.103 2.072,-2.742 0,-2.116 -0.969,-2.682 -3.368,-2.682 -1.877,0 -2.861,0.015 -4.098,0.119 V 8.896 c 1.102,0.104 1.997,0.12 3.636,0.12 2.593,0 3.517,-0.567 3.517,-2.683 0,-1.476 -0.507,-2.235 -1.759,-2.354 z"
         style="fill:#ffffff;fill-opacity:1;fill-rule:nonzero;stroke:none"
         id="path3034" /></g><g
       id="g3036"
       transform="matrix(0.72316989,0,0,0.72316989,414.14922,334.68298)"><path
         d="m 0,0 c 0,-2.861 0.536,-3.74 2.265,-3.74 1.743,0 2.28,0.879 2.28,3.74 0,2.861 -0.537,3.74 -2.28,3.74 C 0.536,3.74 0,2.861 0,0 m 6.512,0 c 0,-4.083 -1.103,-5.335 -4.247,-5.335 -3.129,0 -4.232,1.252 -4.232,5.335 0,4.083 1.103,5.335 4.232,5.335 3.144,0 4.247,-1.252 4.247,-5.335"
         style="fill:#ffffff;fill-opacity:1;fill-rule:nonzero;stroke:none"
         id="path3038" /></g><g
       id="g3040"
       transform="matrix(0.72316989,0,0,0.72316989,426.3026,331.46119)"><path
         d="m 0,0 c 0,-0.447 -0.238,-0.686 -0.686,-0.686 h -1.475 c -0.402,0 -0.61,0.179 -0.775,0.566 l -2.89,6.304 c -0.195,0.417 -0.507,1.057 -0.611,1.535 h -0.179 c 0.074,-0.522 0.09,-1.043 0.09,-1.55 v -6.855 h -1.833 v 9.597 c 0,0.446 0.253,0.685 0.7,0.685 h 1.445 c 0.402,0 0.596,-0.179 0.776,-0.566 l 2.8,-6.125 c 0.195,-0.447 0.492,-1.072 0.716,-1.624 h 0.179 C -1.788,1.848 -1.817,2.398 -1.817,2.95 V 9.596 H 0 Z"
         style="fill:#ffffff;fill-opacity:1;fill-rule:nonzero;stroke:none"
         id="path3042" /></g><g
       id="g3044"
       transform="matrix(0.72316989,0,0,0.72316989,434.00602,331.46119)"><path
         d="m 0,0 c 0,-0.447 -0.239,-0.686 -0.686,-0.686 h -1.475 c -0.402,0 -0.611,0.179 -0.775,0.566 l -2.891,6.304 c -0.193,0.417 -0.506,1.057 -0.61,1.535 h -0.179 c 0.074,-0.522 0.089,-1.043 0.089,-1.55 V -0.686 H -8.36 v 9.597 c 0,0.446 0.254,0.685 0.7,0.685 h 1.446 c 0.402,0 0.596,-0.179 0.775,-0.566 l 2.801,-6.125 c 0.194,-0.447 0.492,-1.072 0.715,-1.624 h 0.179 C -1.789,1.848 -1.818,2.398 -1.818,2.95 V 9.596 H 0 Z"
         style="fill:#ffffff;fill-opacity:1;fill-rule:nonzero;stroke:none"
         id="path3046" /></g><g
       id="g3048"
       transform="matrix(0.72316989,0,0,0.72316989,344.57275,333.83333)"
       style="fill:#909085;fill-opacity:1"><path
         d="m 0,0 c 0,-3.011 -0.999,-4.159 -3.727,-4.159 -2.817,0 -3.846,1.148 -3.846,4.159 v 6.321 h 1.491 V 0 c 0,-2.116 0.582,-2.832 2.295,-2.832 1.685,0 2.296,0.716 2.296,2.832 V 6.321 H 0 Z"
         style="fill:#909085;fill-opacity:1;fill-rule:nonzero;stroke:none"
         id="path3050" /></g><g
       id="g3052"
       transform="matrix(0.72316989,0,0,0.72316989,352.15541,331.38634)"
       style="fill:#909085;fill-opacity:1"><path
         d="m 0,0 c 0,-0.388 -0.194,-0.581 -0.552,-0.581 h -1.416 c -0.328,0 -0.507,0.148 -0.641,0.461 l -3.205,7.008 c -0.179,0.386 -0.492,0.998 -0.611,1.43 H -6.634 C -6.574,7.842 -6.56,7.35 -6.56,6.888 v -7.469 h -1.49 v 9.704 c 0,0.388 0.208,0.582 0.567,0.582 h 1.371 c 0.328,0 0.506,-0.149 0.655,-0.462 L -2.34,2.415 c 0.193,-0.418 0.491,-1.014 0.715,-1.536 h 0.224 c -0.045,0.537 -0.075,1.058 -0.075,1.596 v 7.23 H 0 Z"
         style="fill:#909085;fill-opacity:1;fill-rule:nonzero;stroke:none"
         id="path3054" /></g><path
       d="m 353.97078,338.40463 h 1.07825 v -7.43853 h -1.07825 z"
       style="fill:#909085;fill-opacity:1;fill-rule:nonzero;stroke:none;stroke-width:0.72317"
       id="path3056" /><g
       id="g3058"
       transform="matrix(0.72316989,0,0,0.72316989,360.19257,331.26767)"
       style="fill:#909085;fill-opacity:1"><path
         d="m 0,0 c -0.074,-0.238 -0.298,-0.417 -0.566,-0.417 h -1.461 c -0.269,0 -0.492,0.179 -0.567,0.417 L -5.635,9.869 H -4.1 L -1.774,1.863 C -1.669,1.491 -1.58,1.103 -1.49,0.73 h 0.402 c 0.075,0.373 0.179,0.761 0.283,1.133 l 2.311,8.006 h 1.536 z"
         style="fill:#909085;fill-opacity:1;fill-rule:nonzero;stroke:none"
         id="path3060" /></g><g
       id="g3062"
       transform="matrix(0.72316989,0,0,0.72316989,368.0885,331.03039)"
       style="fill:#909085;fill-opacity:1"><path
         d="m 0,0 c -1.357,-0.119 -2.937,-0.119 -4.413,-0.119 -1.282,0 -2.058,0.716 -2.072,1.848 v 6.649 c 0.014,1.133 0.804,1.849 2.072,1.849 1.476,0 3.056,0 4.413,-0.12 L -0.075,8.944 H -4.16 c -0.596,0 -0.819,-0.253 -0.819,-0.953 V 5.934 h 4.337 V 4.726 H -4.979 V 2.103 c 0,-0.702 0.223,-0.955 0.819,-0.955 h 4.085 z"
         style="fill:#909085;fill-opacity:1;fill-rule:nonzero;stroke:none"
         id="path3064" /></g><g
       id="g3066"
       transform="matrix(0.72316989,0,0,0.72316989,372.10231,334.95482)"
       style="fill:#909085;fill-opacity:1"><path
         d="M 0,0 C 1.446,0.015 1.923,0.417 1.923,1.833 1.923,3.25 1.446,3.622 0,3.622 c -0.806,0 -1.521,0 -2.087,-0.015 V 0 Z M 2.206,-5.516 1.327,-2.311 C 1.088,-1.565 0.686,-1.282 0.03,-1.282 l -2.117,0.014 V -5.516 H -3.563 V 4.771 c 1.133,0.119 1.908,0.133 3.593,0.133 2.415,0 3.398,-0.671 3.398,-2.981 0,-1.625 -0.522,-2.445 -1.892,-2.624 v -0.074 c 0.506,-0.15 1.072,-0.597 1.297,-1.491 l 0.968,-3.25 z"
         style="fill:#909085;fill-opacity:1;fill-rule:nonzero;stroke:none"
         id="path3068" /></g><g
       id="g3070"
       transform="matrix(0.72316989,0,0,0.72316989,380.56883,338.30729)"
       style="fill:#909085;fill-opacity:1"><path
         d="m 0,0 -0.09,-1.088 c -0.864,0.029 -1.983,0.074 -2.951,0.074 -1.402,0 -1.938,-0.059 -1.938,-1.43 0,-1.059 0.373,-1.342 1.237,-1.566 L -1.7,-4.576 c 1.596,-0.433 2.087,-1.387 2.087,-2.922 0,-2.37 -1.029,-2.833 -3.503,-2.833 -0.656,0 -1.804,0.03 -3.235,0.299 l 0.104,1.102 c 1.864,-0.059 2.386,-0.074 3.161,-0.074 1.505,0.015 1.953,0.238 1.953,1.521 0,1.118 -0.388,1.356 -1.222,1.58 l -2.088,0.581 c -1.505,0.418 -2.042,1.356 -2.042,2.923 0,2.384 1.059,2.712 3.383,2.712 C -2.132,0.313 -1.044,0.254 0,0"
         style="fill:#909085;fill-opacity:1;fill-rule:nonzero;stroke:none"
         id="path3072" /></g><path
       d="m 382.28578,338.40463 h 1.07824 v -7.43853 h -1.07824 z"
       style="fill:#909085;fill-opacity:1;fill-rule:nonzero;stroke:none;stroke-width:0.72317"
       id="path3074" /><g
       id="g3076"
       transform="matrix(0.72316989,0,0,0.72316989,387.95803,337.44498)"
       style="fill:#909085;fill-opacity:1"><path
         d="M 0,0 V -8.959 H -1.505 V 0 H -4.741 V 1.327 H 3.265 V 0 Z"
         style="fill:#909085;fill-opacity:1;fill-rule:nonzero;stroke:none"
         id="path3078" /></g><g
       id="g3080"
       transform="matrix(0.72316989,0,0,0.72316989,394.10599,339.21263)"
       style="fill:#909085;fill-opacity:1"><path
         d="m 0,0 c -0.268,0 -0.388,0.12 -0.388,0.402 v 0.806 c 0,0.238 0.12,0.402 0.388,0.402 H 0.478 C 0.731,1.61 0.88,1.446 0.88,1.208 V 0.402 C 0.88,0.12 0.731,0 0.478,0 Z m -0.641,-3.101 c -0.074,0.269 -0.178,0.568 -0.238,0.835 H -1.281 C -1.371,-2.533 -1.46,-2.832 -1.535,-3.101 L -2.728,-7.006 H 0.566 Z M -2.638,0 c -0.269,0 -0.388,0.12 -0.388,0.402 v 0.806 c 0,0.238 0.119,0.402 0.388,0.402 h 0.477 c 0.268,0 0.388,-0.164 0.388,-0.402 V 0.402 C -1.773,0.12 -1.893,0 -2.161,0 Z m -0.492,-8.303 -0.954,-3.1 H -5.62 l 3.235,9.883 c 0.06,0.253 0.283,0.403 0.537,0.403 h 1.521 c 0.267,0 0.476,-0.15 0.552,-0.403 l 3.234,-9.883 H 1.924 l -0.954,3.1 z"
         style="fill:#909085;fill-opacity:1;fill-rule:nonzero;stroke:none"
         id="path3082" /></g><g
       id="g3084"
       transform="matrix(0.72316989,0,0,0.72316989,399.75792,337.44498)"
       style="fill:#909085;fill-opacity:1"><path
         d="M 0,0 V -8.959 H -1.505 V 0 H -4.739 V 1.327 H 3.266 V 0 Z"
         style="fill:#909085;fill-opacity:1;fill-rule:nonzero;stroke:none"
         id="path3086" /></g></g><g
     id="Logo_White_Red"
     data-name="Logo White Red"
     transform="matrix(0.16476127,0,0,-0.16476127,472.46533,420.97041)"><path
       id="Munich"
       class="cls-1"
       d="M 162.8,221.54 V 150 h 19.32 v 74 a 16.1,16.1 0 0 1 -4.84,11.24 l -9.85,10 A 15.87,15.87 0 0 1 156.17,250 h -19 a 15.87,15.87 0 0 1 -11.26,-4.68 l -9.86,-10 a 16,16 0 0 1 -4.69,-11.24 V 150 h 19.14 v 71.51 a 3.42,3.42 0 0 0 0.85,2.25 l 6.2,6.07 a 2.83,2.83 0 0 0 2.26,1 h 13.68 a 2.83,2.83 0 0 0 2.26,-1 l 6.2,-6.07 a 3.42,3.42 0 0 0 0.85,-2.22 z M 276.46,150 v 100 h -17.35 a 3,3 0 0 1 -2.68,-1.56 L 222.72,189 v 61 H 203.54 V 150 h 17.2 a 3.21,3.21 0 0 1 2.83,1.69 l 33.71,59.38 V 150 Z m 41.42,100 H 298.7 V 150 h 19.18 z m 170.2,-100 h -20.55 l 16.26,40.42 h -34.7 v 19.11 h 34.7 L 467.53,250 h 20.55 l 19,-50 z m -94,71.37 -2.39,2.39 v 0 l -6.07,6.07 a 3.33,3.33 0 0 1 -2.4,1 H 366 a 3,3 0 0 1 -2.26,-1 l -6.07,-6.07 a 3,3 0 0 1 -1,-2.26 v -42.84 a 2.82,2.82 0 0 1 1,-2.26 l 6.07,-6.21 a 3.66,3.66 0 0 1 2.26,-1 h 17.2 a 4,4 0 0 1 2.4,1 l 8.46,8.46 13.52,-13.52 c -0.13,-0.14 -0.25,-0.3 -0.4,-0.44 l -10,-9.87 A 16.36,16.36 0 0 0 385.92,150 H 363.5 a 16.09,16.09 0 0 0 -11.43,4.79 l -9.87,9.87 A 16,16 0 0 0 337.54,176 v 48.1 a 16,16 0 0 0 4.66,11.29 l 9.87,10 A 15.75,15.75 0 0 0 363.5,250 h 22.42 a 16,16 0 0 0 11.29,-4.66 l 10,-10 c 0.15,-0.14 0.27,-0.3 0.4,-0.44 z M 439.34,250 H 420.16 V 150 h 19.18 z M 71.72,150 45,196.24 18.35,150 H 0 V 250 H 19.18 V 188.18 L 36.39,218 a 3.2,3.2 0 0 0 2.77,1.6 H 50.91 A 3.19,3.19 0 0 0 53.68,218 L 70.76,188.43 V 250 H 89.94 V 150 Z"
       style="fill:#ff506e;fill-opacity:1" /><path
       id="Helmholtz"
       class="cls-2"
       d="M 53.45,0 H 72.64 V 100 H 53.45 V 59.67 H 19.18 V 100 H 0 V 0 h 19.18 v 40.47 h 34.27 z m 50.13,0 a 3.25,3.25 0 0 0 -2.26,1 l -6.2,6.2 a 2.81,2.81 0 0 0 -1,2.25 v 81.1 a 2.82,2.82 0 0 0 1,2.26 l 6.2,6.2 a 2.82,2.82 0 0 0 2.26,1 h 53.6 V 80.82 H 113.31 V 59.67 H 151.4 V 40.47 H 113.31 V 19.18 h 43.87 V 0 Z m 82.47,100 h 44.6 V 80.82 H 195.78 V 0 H 176.6 v 90.55 a 2.76,2.76 0 0 0 1,2.26 l 6.2,6.2 a 2.82,2.82 0 0 0 2.26,1 z M 374,40.47 V 0 H 354.82 V 100 H 374 V 59.67 h 34.27 V 100 h 19.19 V 0 h -19.19 v 40.47 z m 127.61,31 a 3.61,3.61 0 0 1 -1,2.26 l -6.06,6.06 a 3.33,3.33 0 0 1 -2.4,1 H 475 a 3,3 0 0 1 -2.26,-1 l -6.06,-6.06 a 3,3 0 0 1 -1,-2.26 V 28.63 a 2.82,2.82 0 0 1 1,-2.26 l 6.06,-6.2 a 3.61,3.61 0 0 1 2.26,-1 h 17.21 a 4,4 0 0 1 2.4,1 l 6.06,6.2 a 3.3,3.3 0 0 1 1,2.26 z M 506.12,4.75 A 16.4,16.4 0 0 0 494.84,0 H 472.42 A 16.13,16.13 0 0 0 461,4.79 l -9.88,9.88 A 16,16 0 0 0 446.46,26 v 48 a 16,16 0 0 0 4.65,11.29 l 9.88,10 a 15.76,15.76 0 0 0 11.43,4.71 h 22.42 a 16,16 0 0 0 11.28,-4.65 l 10,-10 A 16,16 0 0 0 520.79,74 V 26 a 16,16 0 0 0 -4.65,-11.28 l -10,-9.88 z m 42.7,95.25 h 45.4 V 80.82 H 558.55 V 0 h -19.18 v 90.55 a 2.78,2.78 0 0 0 1,2.26 l 6.21,6.2 a 2.82,2.82 0 0 0 2.26,1 z m 67,-80.82 V 100 H 635 V 19.18 h 26.51 V 0 H 589.32 V 19.18 Z M 730.19,1 a 3.3,3.3 0 0 0 -2.27,-1 h -56 v 19.18 h 39.64 L 670.1,84.77 v 5.78 a 3.33,3.33 0 0 0 1,2.26 l 6.21,6.2 a 2.82,2.82 0 0 0 2.26,1 h 57.26 V 80.82 h -41.49 l 42,-66.44 V 9.44 a 3.34,3.34 0 0 0 -1,-2.25 z M 314.31,0 287.63,46.21 260.94,0 h -18.35 v 100 h 19.18 V 38.15 L 279,68 a 3.2,3.2 0 0 0 2.77,1.6 H 293.5 A 3.19,3.19 0 0 0 296.27,68 L 313.35,38.43 V 100 h 19.18 V 0 Z"
       style="fill:#69005f;fill-opacity:1" /></g></g><g
   id="g4776"
   transform="matrix(1.1880612,0,0,1.1880612,-131.217,-54.271395)"><g
     id="g94"
     transform="translate(530.7602,244.15942)"><path
       d="m 0,0 71.591,0.001 v 71.59 L 0,71.591 Z"
       style="fill:#ffffff;fill-opacity:1;fill-rule:nonzero;stroke:none"
       id="path96" /></g><path
     d="m 685.07721,244.15923 h -69.99999 v 14.318 h 69.99999 z"
     style="fill:#ffffff;fill-opacity:1;fill-rule:nonzero;stroke:none;stroke-width:1"
     id="path98" /><g
     id="g100"
     transform="translate(58.4992,-39.899785)"><g
       id="g102"
       clip-path="url(#clipPath106)"><g
         id="g108"
         transform="translate(487.7168,324.5768)"><path
           d="M 0,0 V 9.337 H -1.254 V 5.273 h -5.125 v 4.064 h -1.27 V 0 h 1.27 v 4.123 h 5.125 L -1.254,0 Z M 8.635,0 V 1.18 H 3.99 V 4.094 H 7.859 V 5.273 H 3.99 v 2.884 h 4.645 v 1.18 H 2.719 V 0 Z M 12.161,3.601 13.76,3.705 16.031,0 h 1.509 l -2.525,3.915 c 1.284,0.417 2.106,1.284 2.106,2.689 0,1.658 -1.181,2.733 -3.436,2.733 H 10.891 V 0 h 1.27 z m 0,1.12 v 3.451 h 1.373 c 1.42,0 2.317,-0.523 2.317,-1.628 0,-1.151 -0.926,-1.733 -2.152,-1.778 z M 25.412,0 v 1.18 h -5.26 l 5.275,7.171 v 0.986 h -6.783 v -1.18 h 5.2 L 18.556,0.956 V 0 Z"
           style="fill:#55297e;fill-opacity:1;fill-rule:nonzero;stroke:none"
           id="path110" /></g><g
         id="g112"
         transform="translate(508.5079,339.2525)"><path
           d="m 0,0 c -2.821,0 -4.716,1.974 -4.716,4.911 0,2.918 1.94,4.956 4.716,4.956 1.067,0 2.21,-0.301 2.979,-0.784 L 2.592,7.885 2.575,7.838 2.532,7.865 C 1.69,8.416 0.933,8.65 0,8.65 c -2.036,0 -3.351,-1.444 -3.351,-3.679 0,-2.282 1.327,-3.754 3.38,-3.754 0.909,0 1.889,0.337 2.621,0.902 L 2.703,2.16 2.712,2.094 2.922,0.825 C 2.122,0.293 1.037,0 0,0 m -19.881,0 c -2.829,0 -4.73,1.974 -4.73,4.911 0,2.872 1.99,4.956 4.73,4.956 2.83,0 4.731,-1.968 4.731,-4.896 C -15.15,2.09 -17.14,0 -19.881,0 m -0.03,8.65 c -1.995,0 -3.336,-1.477 -3.336,-3.679 0,-2.246 1.364,-3.754 3.397,-3.754 1.973,0 3.35,1.519 3.35,3.694 0,2.237 -1.371,3.739 -3.411,3.739 M 29.038,0.225 h -0.042 -1.283 -0.039 l -0.001,0.04 -0.089,7.551 -2.761,-7.43 -1.308,-0.027 -2.817,7.476 -0.101,-7.57 -0.001,-0.04 h -0.04 -1.239 -0.042 l 0.001,0.041 0.314,9.337 0.002,0.039 h 0.039 1.686 l 2.87,-7.604 2.814,7.577 1.697,0.027 h 0.039 l 0.001,-0.039 0.298,-9.337 z m -12.19,0 h -0.04 -1.257 -0.04 v 0.04 9.336 0.041 h 0.04 1.257 0.04 V 9.601 0.265 Z m -4.006,0 h -0.041 -1.253 -0.041 v 0.04 4.083 H 6.464 V 0.265 0.225 h -0.04 -1.27 -0.04 v 0.04 9.336 0.041 h 0.04 1.27 0.04 V 9.601 5.579 h 5.043 v 4.022 0.041 h 0.041 1.253 0.041 V 9.601 0.265 Z m -18.504,0 h -0.058 -1.3 l -0.919,2.476 -4.012,-0.026 -0.842,-2.423 -1.355,-0.027 h -0.057 l 0.022,0.053 3.511,9.337 1.485,0.027 3.505,-9.364 z m -5.812,3.681 h 3.096 l -1.541,4.263 z"
           style="fill:#55297e;fill-opacity:1;fill-rule:nonzero;stroke:none"
           id="path114" /></g><g
         id="g116"
         transform="translate(477.7766,336.6195)"><path
           d="m 0,0 -0.005,1.36 c 1.724,0.068 2.597,1.079 2.597,3.01 v 7.927 H 3.933 V 4.02 C 3.933,1.506 2.501,0.043 0,0"
           style="fill:#55297e;fill-opacity:1;fill-rule:nonzero;stroke:none"
           id="path118" /></g><g
         id="g120"
         transform="translate(534.667,289.4122)"><path
           d="m 0,0 c -2.62,0 -4.382,1.834 -4.382,4.563 0,2.711 1.802,4.604 4.382,4.604 1.028,0 2.197,-0.303 2.908,-0.756 L 2.536,7.283 2.519,7.236 2.476,7.263 C 1.711,7.753 0.807,8.033 0,8.033 c -1.888,0 -3.108,-1.34 -3.108,-3.415 0,-2.116 1.23,-3.482 3.136,-3.482 0.797,0 1.457,0.238 1.871,0.44 L 1.875,3.553 h -2.387 -0.04 v 0.041 1.095 0.039 h 0.04 3.563 0.041 V 4.689 0.873 C 2.244,0.329 1.038,0 0,0 m -18.465,0 c -2.144,0 -3.424,1.298 -3.424,3.467 V 8.92 8.959 h 0.04 1.166 0.04 V 8.92 3.647 c 0,-1.607 0.777,-2.457 2.249,-2.457 1.377,0 2.136,0.843 2.136,2.374 V 8.92 8.959 h 0.04 1.167 0.041 V 8.92 3.594 C -15.01,1.277 -16.238,0 -18.465,0 m -34.93,0 c -1.028,0 -2.091,0.3 -2.919,0.826 l 0.371,1.115 0.017,0.048 0.042,-0.028 c 0.865,-0.57 1.642,-0.825 2.519,-0.825 1.086,0 1.845,0.582 1.845,1.415 0,0.862 -0.66,1.189 -2.05,1.557 -1.363,0.369 -2.626,0.937 -2.626,2.578 0,1.485 1.183,2.481 2.941,2.481 1.014,0 1.914,-0.252 2.754,-0.768 l -0.401,-1.077 -0.018,-0.046 -0.04,0.028 c -0.669,0.448 -1.523,0.714 -2.281,0.714 -1.094,0 -1.721,-0.454 -1.721,-1.248 0,-0.814 0.641,-1.124 2.078,-1.516 1.202,-0.319 2.582,-0.902 2.582,-2.618 C -50.302,1.084 -51.574,0 -53.395,0 m 47.36,0.126 h -0.04 -1.278 l -4.605,6.981 V 0.249 0.208 h -0.041 -1.151 -0.04 V 0.249 8.92 8.959 h 0.04 1.302 L -7.267,2.06 v 6.86 0.039 h 0.04 1.152 0.04 V 8.92 0.166 Z m -20.157,0.082 h -0.04 -1.165 -0.04 v 0.041 7.519 h -2.999 -0.041 v 0.04 1.112 0.039 h 0.041 7.242 0.04 V 8.92 7.808 7.768 h -0.04 -2.998 V 0.249 Z m -9.723,0 h -0.041 -1.18 -0.041 V 0.249 8.92 8.959 h 0.041 5.356 0.039 V 8.92 7.808 7.768 h -0.039 -4.135 V 5.033 h 3.412 0.04 V 4.993 3.898 3.857 h -0.04 -3.412 V 0.249 Z m -3.414,0 h -0.04 -1.165 -0.041 V 0.249 8.92 8.959 h 0.041 1.165 0.04 V 8.92 0.249 Z m -2.664,7.6 v -0.04 h -0.04 -2.998 V 0.249 0.208 h -0.04 -1.165 -0.04 v 0.041 7.519 h -2.997 -0.041 v 0.04 1.112 0.039 h 0.041 7.24 0.04 z"
           style="fill:#55297e;fill-opacity:1;fill-rule:nonzero;stroke:none"
           id="path122" /></g><g
         id="g124"
         transform="translate(628.5186,316.8296)"><path
           d="m 0,0 c -0.68,0.677 -6.762,6.298 -8.041,7.48 -0.157,0.144 -0.33,0.271 -0.515,0.377 l -4.924,2.813 c -0.156,0.089 -0.258,0.245 -0.279,0.421 -0.377,3.226 -1.219,5.72 -3.082,8.581 -0.673,1.033 -1.207,2.15 -1.597,3.318 -0.066,0.196 -0.624,1.798 -0.702,2.029 -0.52,1.558 -1.256,3.757 -1.62,4.842 -0.111,0.331 0.071,0.688 0.407,0.795 0.75,0.239 1.997,0.887 2.736,2.622 0,0 0.322,1.314 2.463,1.829 0.946,0.251 1.238,1.491 1.223,2.514 -0.02,1.291 -1.251,1.328 -2.198,1.077 -0.143,-0.038 -0.276,-0.093 -0.4,-0.163 -0.312,-0.178 -0.639,-0.33 -0.986,-0.424 -1.058,-0.288 -2.784,-0.758 -4.688,-1.276 -0.952,-0.231 -1.473,-0.261 -1.906,-0.182 -0.407,0.062 -0.843,0.027 -1.254,-0.084 -0.411,-0.111 -0.804,-0.3 -1.122,-0.558 -0.386,-0.331 -0.945,-0.594 -2.21,-0.936 l -3.552,-0.973 c 0,0 1.078,-0.781 2.807,-0.781 0,0 -0.983,-1.722 -3.889,-2.27 0,0 1.515,-0.765 2.835,-0.642 0,0 -0.963,-2.498 -3.504,-3.004 0.451,-0.323 2.648,-0.742 3.835,0.012 0,0 -0.896,-1.732 -3.681,-2.257 0,0 1.36,-1.112 3.159,-0.814 0,0 -1.094,-0.896 -2.542,-0.626 0,0 -2.234,0.196 -2.827,2.109 -0.17,0.541 -0.538,1.901 -2.507,2.531 -0.93,0.297 -0.684,0.664 -0.684,0.664 0.118,0.176 0.335,0.329 0.721,0.368 0.38,0.039 0.693,0.281 0.527,0.604 -0.032,0.063 -0.087,0.171 -0.105,0.232 -0.017,0.077 0.044,0.093 0.088,0.162 0.071,0.107 -0.003,0.169 -0.012,0.193 0.03,0.03 0.082,0.194 0.024,0.221 -0.091,0.054 -0.097,0.146 -0.082,0.232 0.034,0.152 0.227,0.147 0.211,0.34 -0.011,0.054 -0.033,0.106 -0.166,0.204 -0.089,0.064 -0.238,0.188 -0.431,0.416 -0.081,0.128 -0.041,0.262 -0.049,0.315 0,0.153 -0.02,0.178 -0.05,0.265 l -0.31,0.6 c -0.158,0.302 -0.557,0.917 -1.379,0.979 -1.024,0.078 -1.774,-0.271 -2.233,-0.742 -0.461,-0.47 -0.96,-0.915 -1.644,-0.857 -0.43,0.037 -0.325,-0.222 -0.27,-0.309 0.133,-0.212 0.472,-0.415 0.835,-0.517 0.517,-0.143 0.343,-0.293 0.15,-0.358 -0.657,-0.218 -0.947,-0.619 0.243,-1.051 0.494,-0.179 0.492,-0.506 0.208,-0.463 -0.635,0.097 -0.191,-0.371 0.493,-0.595 0.514,-0.168 0.697,-0.417 0.636,-0.734 -0.201,-1.026 -0.997,-2.492 -1.433,-4.756 -0.406,-2.365 0.99,-2.938 2.801,-3.223 0.637,-0.101 0.665,-0.74 0.665,-1.294 0,-0.792 -1.211,-0.925 -3.233,-1 -6.132,-0.226 -9.266,-0.88 -11.457,-4.177 -0.125,-0.187 -0.361,-0.267 -0.573,-0.191 -0.51,0.182 -1.448,0.519 -2.181,0.798 -0.746,0.282 -1.543,0.548 -2.336,0.799 -2.168,0.689 -5.285,0.114 -7.089,-2.474 -1.106,-1.588 -1.895,-4.651 -6.465,-5.919 0,0 1.308,-1.282 3.205,-0.611 0,0 -2.234,-4.572 -7.158,-5.177 0,0 0.854,-1.801 4.001,-1.685 0,0 -2.219,-1.456 -5.464,-1.456 0,0 2.213,-3.29 6.387,-1.932 0,0 0,-0.928 -1.276,-1.618 0,0 3.272,-0.121 6.355,2.727 -0.149,-0.616 -0.421,-1.44 -0.916,-2.504 5.989,4.028 5.989,14.404 5.989,14.404 l -10e-4,-10e-4 c 0.016,0.14 0.032,0.281 0.047,0.424 0.344,3.263 2.477,3.808 5.95,2.75 0.246,-0.075 0.389,-0.325 0.33,-0.571 -0.283,-1.198 -0.771,-4.708 2.125,-7.916 0.476,-0.47 0.291,-0.781 -0.037,-1.197 L -55.45,0.507 c -0.305,-0.367 -0.678,-0.674 -1.103,-0.896 -0.615,-0.322 -0.965,-0.611 -1.017,-1.469 -0.012,-0.223 -0.047,-0.445 -0.089,-0.664 l -0.198,-1.019 -0.523,-2.482 c -0.736,-2.873 -2.647,-3.93 -1.965,-5.724 0.357,-0.942 -1.071,-1.251 -1.167,-1.58 -0.248,-0.853 1.406,-2.493 1.996,-2.325 0.205,0.058 0.727,0.931 0.642,2.976 -0.014,0.375 3.687,9.161 3.687,9.161 0.137,0.322 0.367,0.595 0.661,0.788 l 3.883,2.541 -0.314,-0.915 c -0.167,-0.485 -0.454,-0.917 -0.811,-1.288 -0.185,-0.195 -0.325,-0.426 -0.411,-0.674 -0.194,-0.564 -0.067,-1.188 0.295,-1.665 l 3.734,-4.908 c 1.893,-2.872 0.838,-2.892 2.407,-4.014 1.28,-0.913 0.675,-2.535 0.961,-2.819 0.577,-0.571 2.99,-0.443 3.122,-0.1 0,0.921 -1.227,2.378 -1.834,2.856 l -4.711,8.166 c -0.172,0.297 -0.248,0.629 -0.233,0.954 0.023,0.504 0.286,0.968 0.684,1.283 l 3.012,2.389 c 1.711,1.358 3.102,3.096 3.89,5.118 0.49,1.255 2.189,1.659 3.256,1.659 h 4.426 c -0.543,-1.03 -1.337,-2.026 -1.337,-2.45 0,-0.415 3.167,-1.341 4.247,-1.341 0.259,0 0.425,0.07 0.529,0.138 0.189,0.121 0.156,0.406 -0.049,0.5 -0.343,0.158 -1.082,0.547 -1.476,1.119 -0.183,0.267 -0.22,0.554 -0.183,0.826 0.091,0.687 0.651,1.222 1.342,1.34 l 7.405,1.813 c 0.487,0.119 0.996,-0.095 1.248,-0.525 l 3.321,-5.673 C -17.828,1.1 -17.881,0.468 -18.257,0.02 l -2.072,-2.473 c -0.388,-0.385 -0.651,-0.575 -0.959,-0.645 -0.74,-0.224 -1.362,-1.038 -1.143,-1.864 -0.338,-0.201 -0.665,-0.069 -0.79,-0.032 -0.3,0.085 -0.844,0.293 -1.044,0.189 -0.37,-0.188 -1.394,-3.058 -0.743,-3.151 1.5,-0.213 3.266,1.31 3.266,1.31 l 6.452,6.537 c 0.351,0.356 0.484,0.868 0.348,1.347 l -1.424,5.04 c -0.117,0.415 0.265,0.798 0.687,0.689 l 5.386,-1.393 c 0.362,-0.094 0.702,-0.257 0.999,-0.482 0,0 5.176,-3.863 5.507,-4.14 0.672,-0.569 0.917,-1.027 1.008,-1.415 0.219,-0.807 1.04,-1.292 1.857,-1.114 l 0.002,-0.001 c 0.053,-0.046 0.082,-0.114 0.074,-0.183 -0.052,-0.477 -0.452,-1.068 -0.105,-1.23 1.385,-0.65 3.263,-0.431 3.263,-0.082 0,0.954 -1.434,2.2 -2.312,3.073"
           style="fill:#ffffff;fill-opacity:1;fill-rule:nonzero;stroke:none"
           id="path126" /></g></g></g></g><text
   xml:space="preserve"
   transform="matrix(0.75000002,0,0,-0.75000002,15.940675,420.97041)"
   id="text1297"
   style="font-size:32px;font-family:comic-sans;-inkscape-font-specification:comic-sans;white-space:pre;shape-inside:url(#rect1299);display:inline;fill:#3647ff;stroke-width:5.38583;stroke-linecap:round;stroke-linejoin:round" /><g
   aria-label="Amortized training for
pharmacological mixed-effects
models with incomplete data"
   transform="scale(1,-1)"
   id="text7405"
   style="font-size:24px;font-family:comic-sans;-inkscape-font-specification:comic-sans;fill:#ffffff;stroke-width:4.03937;stroke-linecap:round;stroke-linejoin:round"><path
     d="m 68.275925,-325.27121 -3.746094,10.1582 h 7.505859 z m -1.558594,-2.7207 h 3.130859 l 7.779297,20.41211 h -2.871094 l -1.859375,-5.23633 h -9.201171 l -1.859375,5.23633 h -2.91211 z"
     style="font-size:28px"
     id="path1035" /><path
     d="m 92.420456,-319.95285 q 0.943359,-1.69531 2.255859,-2.50195 1.3125,-0.80664 3.089844,-0.80664 2.392581,0 3.691411,1.68164 1.29882,1.66797 1.29882,4.75781 v 9.24219 h -2.52929 v -9.16016 q 0,-2.20117 -0.7793,-3.26758 -0.779297,-1.0664 -2.378907,-1.0664 -1.955078,0 -3.089843,1.29882 -1.134766,1.29883 -1.134766,3.54102 v 8.6543 h -2.529297 v -9.16016 q 0,-2.21484 -0.779297,-3.26758 -0.779297,-1.0664 -2.40625,-1.0664 -1.927734,0 -3.0625,1.3125 -1.134765,1.29882 -1.134765,3.52734 v 8.6543 h -2.529297 v -15.3125 h 2.529297 v 2.3789 q 0.861328,-1.4082 2.064453,-2.07812 1.203125,-0.66992 2.857422,-0.66992 1.667968,0 2.830078,0.84765 1.175781,0.84766 1.736328,2.46094 z"
     style="font-size:28px"
     id="path1037" /><path
     d="m 113.70757,-321.12863 q -2.02344,0 -3.19922,1.58594 -1.17578,1.57226 -1.17578,4.32031 0,2.74805 1.1621,4.33398 1.17579,1.57227 3.2129,1.57227 2.00976,0 3.18554,-1.58594 1.17578,-1.58594 1.17578,-4.32031 0,-2.7207 -1.17578,-4.30664 -1.17578,-1.59961 -3.18554,-1.59961 z m 0,-2.13281 q 3.28125,0 5.15429,2.13281 1.87305,2.13281 1.87305,5.90625 0,3.75976 -1.87305,5.90625 -1.87304,2.13281 -5.15429,2.13281 -3.29493,0 -5.16797,-2.13281 -1.85938,-2.14649 -1.85938,-5.90625 0,-3.77344 1.85938,-5.90625 1.87304,-2.13281 5.16797,-2.13281 z"
     style="font-size:28px"
     id="path1039" /><path
     d="m 133.77788,-320.54074 q -0.42383,-0.24609 -0.92969,-0.35547 -0.49219,-0.12305 -1.09375,-0.12305 -2.13281,0 -3.28125,1.39453 -1.13477,1.38086 -1.13477,3.97852 v 8.06641 h -2.52929 v -15.3125 h 2.52929 v 2.3789 q 0.79297,-1.39453 2.06446,-2.06445 1.27148,-0.68359 3.08984,-0.68359 0.25977,0 0.57422,0.041 0.31445,0.0274 0.69727,0.0957 z"
     style="font-size:28px"
     id="path1041" /><path
     d="m 138.90483,-327.23996 v 4.34766 h 5.18164 v 1.95507 h -5.18164 v 8.3125 q 0,1.87305 0.50586,2.40625 0.51953,0.53321 2.0918,0.53321 h 2.58398 v 2.10547 h -2.58398 q -2.91211,0 -4.01953,-1.08008 -1.10743,-1.09375 -1.10743,-3.96485 v -8.3125 h -1.8457 v -1.95507 h 1.8457 v -4.34766 z"
     style="font-size:28px"
     id="path1043" /><path
     d="m 147.39507,-322.8923 h 2.51562 v 15.3125 h -2.51562 z m 0,-5.96094 h 2.51562 v 3.18555 h -2.51562 z"
     style="font-size:28px"
     id="path1045" /><path
     d="m 154.08061,-322.8923 h 11.94922 v 2.29687 l -9.46094,11.00586 h 9.46094 v 2.00977 h -12.29101 v -2.29688 l 9.46093,-11.00586 h -9.11914 z"
     style="font-size:28px"
     id="path1047" /><path
     d="m 182.96928,-315.86496 v 1.23047 h -11.5664 q 0.16406,2.59766 1.55859,3.96484 1.4082,1.35352 3.91016,1.35352 1.44922,0 2.80273,-0.35547 1.36719,-0.35547 2.70703,-1.06641 v 2.37891 q -1.35351,0.57422 -2.77539,0.875 -1.42187,0.30078 -2.88476,0.30078 -3.66407,0 -5.81055,-2.13281 -2.13281,-2.13281 -2.13281,-5.76953 0,-3.75977 2.02344,-5.96094 2.0371,-2.21484 5.48242,-2.21484 3.08984,0 4.88086,1.99609 1.80468,1.98242 1.80468,5.40039 z m -2.51562,-0.73828 q -0.0273,-2.06445 -1.16211,-3.29492 -1.12109,-1.23047 -2.98047,-1.23047 -2.10547,0 -3.37695,1.18945 -1.25781,1.18945 -1.44922,3.34961 z"
     style="font-size:28px"
     id="path1049" /><path
     d="m 197.17436,-320.56808 v -8.28516 h 2.51563 v 21.27344 h -2.51563 v -2.29688 q -0.79297,1.36719 -2.00976,2.03711 -1.20313,0.65625 -2.89844,0.65625 -2.77539,0 -4.52539,-2.21484 -1.73633,-2.21485 -1.73633,-5.82422 0,-3.60938 1.73633,-5.82422 1.75,-2.21484 4.52539,-2.21484 1.69531,0 2.89844,0.66992 1.21679,0.65625 2.00976,2.02344 z m -8.57226,5.3457 q 0,2.77539 1.13476,4.36133 1.14844,1.57226 3.14453,1.57226 1.9961,0 3.14453,-1.57226 1.14844,-1.58594 1.14844,-4.36133 0,-2.77539 -1.14844,-4.34766 -1.14843,-1.58594 -3.14453,-1.58594 -1.99609,0 -3.14453,1.58594 -1.13476,1.57227 -1.13476,4.34766 z"
     style="font-size:28px"
     id="path1051" /><path
     d="m 214.25639,-324.43137 v 3.72657 h 4.44141 v 1.67578 h -4.44141 v 7.125 q 0,1.60547 0.4336,2.0625 0.44531,0.45703 1.79297,0.45703 h 2.21484 v 1.80469 h -2.21484 q -2.4961,0 -3.44532,-0.92578 -0.94922,-0.9375 -0.94922,-3.39844 v -7.125 h -1.58203 v -1.67578 h 1.58203 v -3.72657 z"
     id="path1053" /><path
     d="m 229.13921,-318.68918 q -0.36329,-0.21094 -0.79688,-0.30469 -0.42187,-0.10546 -0.9375,-0.10546 -1.82812,0 -2.8125,1.19531 -0.97266,1.18359 -0.97266,3.41015 v 6.91407 h -2.16796 v -13.125 h 2.16796 v 2.03906 q 0.67969,-1.19531 1.76954,-1.76953 1.08984,-0.58594 2.64843,-0.58594 0.22266,0 0.49219,0.0352 0.26953,0.0234 0.59766,0.082 z"
     id="path1055" /><path
     d="m 237.36577,-314.17746 q -2.61328,0 -3.6211,0.59766 -1.00781,0.59765 -1.00781,2.03906 0,1.14844 0.75,1.82812 0.76172,0.66797 2.0625,0.66797 1.79297,0 2.8711,-1.26562 1.08984,-1.27735 1.08984,-3.38672 v -0.48047 z m 4.30078,-0.89062 v 7.48828 h -2.15625 v -1.99219 q -0.73828,1.19531 -1.83984,1.76953 -1.10157,0.5625 -2.69532,0.5625 -2.01562,0 -3.21093,-1.125 -1.1836,-1.13672 -1.1836,-3.03516 0,-2.21484 1.47656,-3.33984 1.48829,-1.125 4.42969,-1.125 h 3.02344 v -0.21094 q 0,-1.48828 -0.98438,-2.29687 -0.97265,-0.82031 -2.74218,-0.82031 -1.125,0 -2.19141,0.26953 -1.06641,0.26953 -2.05078,0.80859 v -1.99219 q 1.18359,-0.45703 2.29687,-0.67968 1.11329,-0.23438 2.16797,-0.23438 2.84766,0 4.25391,1.47656 1.40625,1.47657 1.40625,4.47657 z"
     id="path1057" /><path
     d="m 246.10796,-320.7048 h 2.15625 v 13.125 h -2.15625 z m 0,-5.10938 h 2.15625 v 2.73047 h -2.15625 z"
     id="path1059" /><path
     d="m 263.68608,-315.50168 v 7.92188 h -2.15625 v -7.85157 q 0,-1.86328 -0.72656,-2.78906 -0.72656,-0.92578 -2.17969,-0.92578 -1.74609,0 -2.75391,1.11328 -1.00781,1.11328 -1.00781,3.03516 v 7.41797 h -2.16797 v -13.125 h 2.16797 v 2.03906 q 0.77344,-1.18359 1.81641,-1.76953 1.05469,-0.58594 2.42578,-0.58594 2.26172,0 3.42187,1.40625 1.16016,1.39453 1.16016,4.11328 z"
     id="path1061" /><path
     d="m 267.98686,-320.7048 h 2.15625 v 13.125 h -2.15625 z m 0,-5.10938 h 2.15625 v 2.73047 h -2.15625 z"
     id="path1063" /><path
     d="m 285.56499,-315.50168 v 7.92188 h -2.15625 v -7.85157 q 0,-1.86328 -0.72657,-2.78906 -0.72656,-0.92578 -2.17968,-0.92578 -1.7461,0 -2.75391,1.11328 -1.00781,1.11328 -1.00781,3.03516 v 7.41797 h -2.16797 v -13.125 h 2.16797 v 2.03906 q 0.77344,-1.18359 1.8164,-1.76953 1.05469,-0.58594 2.42579,-0.58594 2.26171,0 3.42187,1.40625 1.16016,1.39453 1.16016,4.11328 z"
     id="path1065" /><path
     d="m 298.50249,-314.29465 q 0,-2.34375 -0.97266,-3.63281 -0.96094,-1.28906 -2.70703,-1.28906 -1.73438,0 -2.70703,1.28906 -0.96094,1.28906 -0.96094,3.63281 0,2.33203 0.96094,3.6211 0.97265,1.28906 2.70703,1.28906 1.74609,0 2.70703,-1.28906 0.97266,-1.28907 0.97266,-3.6211 z m 2.15625,5.08594 q 0,3.35156 -1.48828,4.98047 -1.48829,1.64062 -4.5586,1.64062 -1.13672,0 -2.14453,-0.17578 -1.00781,-0.16406 -1.95703,-0.51562 v -2.09766 q 0.94922,0.51563 1.875,0.76172 0.92578,0.24609 1.88672,0.24609 2.12109,0 3.17578,-1.11328 1.05469,-1.10156 1.05469,-3.33984 v -1.06641 q -0.66797,1.16016 -1.71094,1.73438 -1.04297,0.57422 -2.49609,0.57422 -2.41407,0 -3.89063,-1.83985 -1.47656,-1.83984 -1.47656,-4.875 0,-3.04687 1.47656,-4.88672 1.47656,-1.83984 3.89063,-1.83984 1.45312,0 2.49609,0.57422 1.04297,0.57422 1.71094,1.73437 v -1.99218 h 2.15625 z"
     id="path1067" /><path
     d="m 317.88921,-322.77512 v 1.49414 h -1.71875 q -0.9668,0 -1.34766,0.39063 -0.37109,0.39062 -0.37109,1.40625 v 0.9668 h 2.95898 v 1.39648 h -2.95898 v 9.54102 h -1.80664 v -9.54102 h -1.71875 v -1.39648 h 1.71875 v -0.76172 q 0,-1.82617 0.8496,-2.65625 0.84961,-0.83985 2.69532,-0.83985 z"
     style="font-size:20px"
     id="path1069" /><path
     d="m 323.63139,-317.25754 q -1.44531,0 -2.28515,1.13281 -0.83985,1.12305 -0.83985,3.08594 0,1.96289 0.83008,3.09571 0.83985,1.12304 2.29492,1.12304 1.43555,0 2.27539,-1.13281 0.83985,-1.13281 0.83985,-3.08594 0,-1.94336 -0.83985,-3.07617 -0.83984,-1.14258 -2.27539,-1.14258 z m 0,-1.52344 q 2.34375,0 3.68164,1.52344 1.33789,1.52344 1.33789,4.21875 0,2.68555 -1.33789,4.21875 -1.33789,1.52344 -3.68164,1.52344 -2.35351,0 -3.6914,-1.52344 -1.32813,-1.5332 -1.32813,-4.21875 0,-2.69531 1.32813,-4.21875 1.33789,-1.52344 3.6914,-1.52344 z"
     style="font-size:20px"
     id="path1071" /><path
     d="m 337.96733,-316.83762 q -0.30273,-0.17578 -0.66406,-0.2539 -0.35156,-0.0879 -0.78125,-0.0879 -1.52344,0 -2.34375,0.99609 -0.81055,0.98633 -0.81055,2.8418 v 5.76172 h -1.80664 v -10.9375 h 1.80664 v 1.69922 q 0.56641,-0.9961 1.47461,-1.47461 0.9082,-0.48829 2.20703,-0.48829 0.18555,0 0.41016,0.0293 0.22461,0.0195 0.49805,0.0684 z"
     style="font-size:20px"
     id="path1073" /><path
     d="m 63.777878,-274.87668 v 8.1211 h -2.529297 v -21.13672 h 2.529297 v 2.32422 q 0.792969,-1.36719 1.996094,-2.02344 1.216796,-0.66992 2.898437,-0.66992 2.789063,0 4.525391,2.21484 1.75,2.21484 1.75,5.82422 0,3.60937 -1.75,5.82422 -1.736328,2.21484 -4.525391,2.21484 -1.681641,0 -2.898437,-0.65625 -1.203125,-0.66992 -1.996094,-2.03711 z m 8.558594,-5.3457 q 0,-2.77539 -1.148438,-4.34766 -1.134766,-1.58594 -3.130859,-1.58594 -1.996094,0 -3.144532,1.58594 -1.134765,1.57227 -1.134765,4.34766 0,2.77539 1.134765,4.36133 1.148438,1.57226 3.144532,1.57226 1.996093,0 3.130859,-1.57226 1.148438,-1.58594 1.148438,-4.36133 z"
     style="font-size:28px"
     id="path1075" /><path
     d="m 91.846237,-281.82199 v 9.24219 h -2.515625 v -9.16016 q 0,-2.17383 -0.847656,-3.25391 -0.847656,-1.08007 -2.542969,-1.08007 -2.037109,0 -3.21289,1.29882 -1.175782,1.29883 -1.175782,3.54102 v 8.6543 h -2.529297 v -21.27344 h 2.529297 v 8.33984 q 0.902344,-1.38086 2.119141,-2.06445 1.230469,-0.68359 2.830078,-0.68359 2.638672,0 3.992188,1.64062 1.353515,1.62695 1.353515,4.79883 z"
     style="font-size:28px"
     id="path1077" /><path
     d="m 103.8228,-280.27707 q -3.04883,0 -4.22461,0.69727 -1.175781,0.69726 -1.175781,2.3789 0,1.33985 0.875,2.13282 0.888671,0.77929 2.406251,0.77929 2.0918,0 3.34961,-1.47656 1.27148,-1.49023 1.27148,-3.95117 v -0.56055 z m 5.01758,-1.03906 v 8.73633 h -2.51563 v -2.32422 q -0.86133,1.39453 -2.14648,2.06445 -1.28516,0.65625 -3.14453,0.65625 -2.351565,0 -3.746097,-1.3125 -1.380859,-1.32617 -1.380859,-3.54101 0,-2.58399 1.722656,-3.89649 1.736328,-1.3125 5.16797,-1.3125 h 3.52734 v -0.24609 q 0,-1.73633 -1.14843,-2.67969 -1.13477,-0.95703 -3.19922,-0.95703 -1.3125,0 -2.556644,0.31445 -1.244141,0.31445 -2.392578,0.94336 v -2.32422 q 1.380859,-0.5332 2.679687,-0.79297 1.298825,-0.27343 2.529295,-0.27343 3.32227,0 4.96289,1.72265 1.64063,1.72266 1.64063,5.22266 z"
     style="font-size:28px"
     id="path1079" /><path
     d="m 122.89507,-285.54074 q -0.42383,-0.24609 -0.92969,-0.35547 -0.49219,-0.12305 -1.09375,-0.12305 -2.13281,0 -3.28125,1.39453 -1.13477,1.38086 -1.13477,3.97852 v 8.06641 h -2.52929 v -15.3125 h 2.52929 v 2.3789 q 0.79297,-1.39453 2.06446,-2.06445 1.27148,-0.68359 3.08984,-0.68359 0.25976,0 0.57422,0.041 0.31445,0.0274 0.69726,0.0957 z"
     style="font-size:28px"
     id="path1081" /><path
     d="m 136.96342,-284.95285 q 0.94336,-1.69531 2.25586,-2.50195 1.3125,-0.80664 3.08985,-0.80664 2.39258,0 3.6914,1.68164 1.29883,1.66797 1.29883,4.75781 v 9.24219 h -2.52929 v -9.16016 q 0,-2.20117 -0.7793,-3.26758 -0.7793,-1.0664 -2.37891,-1.0664 -1.95508,0 -3.08984,1.29882 -1.13477,1.29883 -1.13477,3.54102 v 8.6543 h -2.52929 v -9.16016 q 0,-2.21484 -0.7793,-3.26758 -0.7793,-1.0664 -2.40625,-1.0664 -1.92774,0 -3.0625,1.3125 -1.13477,1.29882 -1.13477,3.52734 v 8.6543 h -2.52929 v -15.3125 h 2.52929 v 2.3789 q 0.86133,-1.4082 2.06446,-2.07812 1.20312,-0.66992 2.85742,-0.66992 1.66797,0 2.83008,0.84765 1.17578,0.84766 1.73632,2.46094 z"
     style="font-size:28px"
     id="path1083" /><path
     d="m 159.27592,-280.27707 q -3.04882,0 -4.2246,0.69727 -1.17579,0.69726 -1.17579,2.3789 0,1.33985 0.875,2.13282 0.88868,0.77929 2.40625,0.77929 2.0918,0 3.34961,-1.47656 1.27149,-1.49023 1.27149,-3.95117 v -0.56055 z m 5.01758,-1.03906 v 8.73633 h -2.51562 v -2.32422 q -0.86133,1.39453 -2.14649,2.06445 -1.28515,0.65625 -3.14453,0.65625 -2.35156,0 -3.74609,-1.3125 -1.38086,-1.32617 -1.38086,-3.54101 0,-2.58399 1.72266,-3.89649 1.73632,-1.3125 5.16796,-1.3125 h 3.52735 v -0.24609 q 0,-1.73633 -1.14844,-2.67969 -1.13477,-0.95703 -3.19922,-0.95703 -1.3125,0 -2.55664,0.31445 -1.24414,0.31445 -2.39258,0.94336 v -2.32422 q 1.38086,-0.5332 2.67969,-0.79297 1.29883,-0.27343 2.5293,-0.27343 3.32226,0 4.96289,1.72265 1.64062,1.72266 1.64062,5.22266 z"
     style="font-size:28px"
     id="path1085" /><path
     d="m 180.49467,-287.30441 v 2.35156 q -1.0664,-0.58789 -2.14648,-0.875 -1.06641,-0.30078 -2.16016,-0.30078 -2.44726,0 -3.80078,1.55859 -1.35351,1.54492 -1.35351,4.34766 0,2.80273 1.35351,4.36133 1.35352,1.54492 3.80078,1.54492 1.09375,0 2.16016,-0.28711 1.08008,-0.30078 2.14648,-0.88867 v 2.32422 q -1.05273,0.49218 -2.1875,0.73828 -1.12109,0.24609 -2.39257,0.24609 -3.45899,0 -5.4961,-2.17383 -2.03711,-2.17383 -2.03711,-5.86523 0,-3.7461 2.05078,-5.89258 2.06446,-2.14648 5.64649,-2.14648 1.16211,0 2.26953,0.24609 1.10742,0.23242 2.14648,0.71094 z"
     style="font-size:28px"
     id="path1087" /><path
     d="m 190.80327,-286.12863 q -2.02344,0 -3.19922,1.58594 -1.17578,1.57226 -1.17578,4.32031 0,2.74805 1.16211,4.33398 1.17578,1.57227 3.21289,1.57227 2.00976,0 3.18555,-1.58594 1.17578,-1.58594 1.17578,-4.32031 0,-2.7207 -1.17578,-4.30664 -1.17579,-1.59961 -3.18555,-1.59961 z m 0,-2.13281 q 3.28125,0 5.1543,2.13281 1.87304,2.13281 1.87304,5.90625 0,3.75976 -1.87304,5.90625 -1.87305,2.13281 -5.1543,2.13281 -3.29492,0 -5.16797,-2.13281 -1.85938,-2.14649 -1.85938,-5.90625 0,-3.77344 1.85938,-5.90625 1.87305,-2.13281 5.16797,-2.13281 z"
     style="font-size:28px"
     id="path1089" /><path
     d="m 202.00053,-293.85324 h 2.51563 v 21.27344 h -2.51563 z"
     style="font-size:28px"
     id="path1091" /><path
     d="m 215.71342,-286.12863 q -2.02343,0 -3.19921,1.58594 -1.17579,1.57226 -1.17579,4.32031 0,2.74805 1.16211,4.33398 1.17579,1.57227 3.21289,1.57227 2.00977,0 3.18555,-1.58594 1.17578,-1.58594 1.17578,-4.32031 0,-2.7207 -1.17578,-4.30664 -1.17578,-1.59961 -3.18555,-1.59961 z m 0,-2.13281 q 3.28125,0 5.1543,2.13281 1.87305,2.13281 1.87305,5.90625 0,3.75976 -1.87305,5.90625 -1.87305,2.13281 -5.1543,2.13281 -3.29492,0 -5.16796,-2.13281 -1.85938,-2.14649 -1.85938,-5.90625 0,-3.77344 1.85938,-5.90625 1.87304,-2.13281 5.16796,-2.13281 z"
     style="font-size:28px"
     id="path1093" /><path
     d="m 236.98686,-280.41379 q 0,-2.73437 -1.13476,-4.23828 -1.1211,-1.50391 -3.15821,-1.50391 -2.02343,0 -3.1582,1.50391 -1.12109,1.50391 -1.12109,4.23828 0,2.72071 1.12109,4.22461 1.13477,1.50391 3.1582,1.50391 2.03711,0 3.15821,-1.50391 1.13476,-1.5039 1.13476,-4.22461 z m 2.51563,5.9336 q 0,3.91015 -1.73633,5.81054 -1.73633,1.91407 -5.31836,1.91407 -1.32617,0 -2.50195,-0.20508 -1.17578,-0.19141 -2.28321,-0.60157 v -2.44726 q 1.10743,0.60156 2.1875,0.88867 1.08008,0.28711 2.20118,0.28711 2.4746,0 3.70507,-1.29883 1.23047,-1.28515 1.23047,-3.89648 v -1.24414 q -0.77929,1.35351 -1.99609,2.02343 -1.2168,0.66993 -2.91211,0.66993 -2.81641,0 -4.53906,-2.14649 -1.72266,-2.14648 -1.72266,-5.6875 0,-3.55469 1.72266,-5.70117 1.72265,-2.14648 4.53906,-2.14648 1.69531,0 2.91211,0.66992 1.2168,0.66992 1.99609,2.02344 v -2.32422 h 2.51563 z"
     style="font-size:28px"
     id="path1095" /><path
     d="m 244.68413,-287.8923 h 2.51562 v 15.3125 h -2.51562 z m 0,-5.96094 h 2.51562 v 3.18555 h -2.51562 z"
     style="font-size:28px"
     id="path1097" /><path
     d="m 263.48296,-287.30441 v 2.35156 q -1.06641,-0.58789 -2.14649,-0.875 -1.0664,-0.30078 -2.16015,-0.30078 -2.44727,0 -3.80079,1.55859 -1.35351,1.54492 -1.35351,4.34766 0,2.80273 1.35351,4.36133 1.35352,1.54492 3.80079,1.54492 1.09375,0 2.16015,-0.28711 1.08008,-0.30078 2.14649,-0.88867 v 2.32422 q -1.05274,0.49218 -2.1875,0.73828 -1.1211,0.24609 -2.39258,0.24609 -3.45899,0 -5.4961,-2.17383 -2.03711,-2.17383 -2.03711,-5.86523 0,-3.7461 2.05079,-5.89258 2.06445,-2.14648 5.64648,-2.14648 1.16211,0 2.26953,0.24609 1.10742,0.23242 2.14649,0.71094 z"
     style="font-size:28px"
     id="path1099" /><path
     d="m 274.81694,-280.27707 q -3.04883,0 -4.22461,0.69727 -1.17578,0.69726 -1.17578,2.3789 0,1.33985 0.875,2.13282 0.88867,0.77929 2.40625,0.77929 2.0918,0 3.34961,-1.47656 1.27148,-1.49023 1.27148,-3.95117 v -0.56055 z m 5.01758,-1.03906 v 8.73633 h -2.51563 v -2.32422 q -0.86132,1.39453 -2.14648,2.06445 -1.28516,0.65625 -3.14453,0.65625 -2.35156,0 -3.7461,-1.3125 -1.38086,-1.32617 -1.38086,-3.54101 0,-2.58399 1.72266,-3.89649 1.73633,-1.3125 5.16797,-1.3125 h 3.52734 v -0.24609 q 0,-1.73633 -1.14843,-2.67969 -1.13477,-0.95703 -3.19922,-0.95703 -1.3125,0 -2.55664,0.31445 -1.24414,0.31445 -2.39258,0.94336 v -2.32422 q 1.38086,-0.5332 2.67969,-0.79297 1.29882,-0.27343 2.52929,-0.27343 3.32227,0 4.96289,1.72265 1.64063,1.72266 1.64063,5.22266 z"
     style="font-size:28px"
     id="path1102" /><path
     d="m 285.01616,-293.85324 h 2.51562 v 21.27344 h -2.51562 z"
     style="font-size:28px"
     id="path1104" /><path
     d="m 310.26616,-283.18527 q 0.80859,-1.45313 1.93359,-2.14453 1.125,-0.69141 2.64844,-0.69141 2.05078,0 3.16406,1.44141 1.11328,1.42968 1.11328,4.07812 v 7.92188 h -2.16796 v -7.85157 q 0,-1.88671 -0.66797,-2.80078 -0.66797,-0.91406 -2.03907,-0.91406 -1.67578,0 -2.64843,1.11328 -0.97266,1.11328 -0.97266,3.03516 v 7.41797 h -2.16797 v -7.85157 q 0,-1.89843 -0.66797,-2.80078 -0.66797,-0.91406 -2.0625,-0.91406 -1.65234,0 -2.625,1.125 -0.97265,1.11328 -0.97265,3.02344 v 7.41797 h -2.16797 v -13.125 h 2.16797 v 2.03906 q 0.73828,-1.20703 1.76953,-1.78125 1.03125,-0.57422 2.44922,-0.57422 1.42968,0 2.42578,0.72656 1.00781,0.72657 1.48828,2.10938 z"
     id="path1106" /><path
     d="m 323.42632,-285.7048 h 2.15625 v 13.125 h -2.15625 z m 0,-5.10938 h 2.15625 v 2.73047 h -2.15625 z"
     id="path1108" /><path
     d="m 341.00444,-285.7048 -4.74609,6.38672 4.99218,6.73828 h -2.54296 l -3.82032,-5.15625 -3.82031,5.15625 h -2.54297 l 5.09766,-6.86719 -4.66406,-6.25781 h 2.54296 l 3.48047,4.67578 3.48047,-4.67578 z"
     id="path1110" /><path
     d="m 354.78569,-279.68137 v 1.05469 h -9.91406 q 0.14062,2.22656 1.33594,3.39844 1.20703,1.16016 3.35156,1.16016 1.24219,0 2.40234,-0.30469 1.17188,-0.30469 2.32031,-0.91406 v 2.03906 q -1.16015,0.49219 -2.3789,0.75 -1.21875,0.25781 -2.47266,0.25781 -3.14062,0 -4.98047,-1.82812 -1.82812,-1.82813 -1.82812,-4.94532 0,-3.22265 1.73437,-5.10937 1.7461,-1.89844 4.69922,-1.89844 2.64844,0 4.1836,1.71094 1.54687,1.69922 1.54687,4.6289 z m -2.15625,-0.63281 q -0.0234,-1.76953 -0.99609,-2.82422 -0.96094,-1.05468 -2.55469,-1.05468 -1.80469,0 -2.89453,1.01953 -1.07813,1.01953 -1.24219,2.87109 z"
     id="path1112" /><path
     d="m 366.96147,-283.71262 v -7.10156 h 2.15625 v 18.23438 h -2.15625 v -1.96875 q -0.67969,1.17187 -1.72265,1.74609 -1.03125,0.5625 -2.48438,0.5625 -2.37891,0 -3.87891,-1.89844 -1.48828,-1.89843 -1.48828,-4.99218 0,-3.09375 1.48828,-4.99219 1.5,-1.89844 3.87891,-1.89844 1.45313,0 2.48438,0.57422 1.04296,0.5625 1.72265,1.73437 z m -7.34765,4.58204 q 0,2.3789 0.97265,3.73828 0.98438,1.34765 2.69531,1.34765 1.71094,0 2.69532,-1.34765 0.98437,-1.35938 0.98437,-3.73828 0,-2.37891 -0.98437,-3.72657 -0.98438,-1.35937 -2.69532,-1.35937 -1.71093,0 -2.69531,1.35937 -0.97265,1.34766 -0.97265,3.72657 z"
     id="path1114" /><path
     d="m 372.46928,-280.11496 h 6.31641 v 1.92188 h -6.31641 z"
     id="path1116" /><path
     d="m 393.44585,-279.68137 v 1.05469 h -9.91407 q 0.14063,2.22656 1.33594,3.39844 1.20703,1.16016 3.35156,1.16016 1.24219,0 2.40235,-0.30469 1.17187,-0.30469 2.32031,-0.91406 v 2.03906 q -1.16016,0.49219 -2.37891,0.75 -1.21875,0.25781 -2.47265,0.25781 -3.14063,0 -4.98047,-1.82812 -1.82813,-1.82813 -1.82813,-4.94532 0,-3.22265 1.73438,-5.10937 1.74609,-1.89844 4.69922,-1.89844 2.64844,0 4.18359,1.71094 1.54688,1.69922 1.54688,4.6289 z m -2.15625,-0.63281 q -0.0234,-1.76953 -0.9961,-2.82422 -0.96093,-1.05468 -2.55468,-1.05468 -1.80469,0 -2.89454,1.01953 -1.07812,1.01953 -1.24218,2.87109 z"
     id="path1118" /><path
     d="m 411.71538,-290.81418 v 1.79297 h -2.0625 q -1.16016,0 -1.61719,0.46875 -0.44531,0.46875 -0.44531,1.6875 v 1.16016 h 3.55078 v 1.67578 h -3.55078 v 11.44922 h -2.16797 v -11.44922 h -5.91797 v 11.44922 h -2.16797 v -11.44922 h -2.0625 v -1.67578 h 2.0625 v -0.91407 q 0,-2.1914 1.01953,-3.1875 1.01953,-1.00781 3.23438,-1.00781 h 2.03906 v 1.79297 h -2.0625 q -1.16016,0 -1.61719,0.46875 -0.44531,0.46875 -0.44531,1.6875 v 1.16016 h 5.91797 v -0.91407 q 0,-2.1914 1.01953,-3.1875 1.01953,-1.00781 3.23438,-1.00781 z"
     id="path1120" /><path
     d="m 424.74663,-279.68137 v 1.05469 h -9.91406 q 0.14062,2.22656 1.33593,3.39844 1.20703,1.16016 3.35157,1.16016 1.24218,0 2.40234,-0.30469 1.17187,-0.30469 2.32031,-0.91406 v 2.03906 q -1.16015,0.49219 -2.3789,0.75 -1.21875,0.25781 -2.47266,0.25781 -3.14063,0 -4.98047,-1.82812 -1.82812,-1.82813 -1.82812,-4.94532 0,-3.22265 1.73437,-5.10937 1.74609,-1.89844 4.69922,-1.89844 2.64844,0 4.18359,1.71094 1.54688,1.69922 1.54688,4.6289 z m -2.15625,-0.63281 q -0.0234,-1.76953 -0.9961,-2.82422 -0.96093,-1.05468 -2.55468,-1.05468 -1.80469,0 -2.89453,1.01953 -1.07813,1.01953 -1.24219,2.87109 z"
     id="path1122" /><path
     d="m 437.731,-285.2009 v 2.01563 q -0.91406,-0.50391 -1.83984,-0.75 -0.91406,-0.25781 -1.85156,-0.25781 -2.09766,0 -3.25782,1.33593 -1.16015,1.32422 -1.16015,3.72657 0,2.40234 1.16015,3.73828 1.16016,1.32422 3.25782,1.32422 0.9375,0 1.85156,-0.2461 0.92578,-0.25781 1.83984,-0.76172 v 1.99219 q -0.90234,0.42188 -1.875,0.63281 -0.96093,0.21094 -2.05078,0.21094 -2.96484,0 -4.71094,-1.86328 -1.74609,-1.86328 -1.74609,-5.02734 0,-3.21094 1.75781,-5.05079 1.76953,-1.83984 4.83985,-1.83984 0.99609,0 1.94531,0.21094 0.94922,0.19922 1.83984,0.60937 z"
     id="path1124" /><path
     d="m 443.61382,-289.43137 v 3.72657 h 4.4414 v 1.67578 h -4.4414 v 7.125 q 0,1.60547 0.43359,2.0625 0.44531,0.45703 1.79297,0.45703 h 2.21484 v 1.80469 h -2.21484 q -2.4961,0 -3.44531,-0.92578 -0.94922,-0.9375 -0.94922,-3.39844 v -7.125 h -1.58203 v -1.67578 h 1.58203 v -3.72657 z"
     id="path1126" /><path
     d="m 459.25835,-285.31808 v 2.03906 q -0.91407,-0.46875 -1.89844,-0.70313 -0.98438,-0.23437 -2.03906,-0.23437 -1.60547,0 -2.41407,0.49219 -0.79687,0.49218 -0.79687,1.47656 0,0.75 0.57422,1.18359 0.57422,0.42188 2.30859,0.8086 l 0.73828,0.16406 q 2.29688,0.49219 3.25782,1.39453 0.97265,0.89062 0.97265,2.49609 0,1.82813 -1.45312,2.89453 -1.44141,1.06641 -3.97266,1.06641 -1.05469,0 -2.20312,-0.21094 -1.13672,-0.19922 -2.40235,-0.60937 v -2.22656 q 1.19531,0.62109 2.35547,0.9375 1.16016,0.30468 2.29688,0.30468 1.52343,0 2.34375,-0.51562 0.82031,-0.52735 0.82031,-1.47656 0,-0.87891 -0.59766,-1.34766 -0.58594,-0.46875 -2.58984,-0.90234 l -0.75,-0.17579 q -2.00391,-0.42187 -2.89453,-1.28906 -0.89063,-0.8789 -0.89063,-2.40234 0,-1.85156 1.3125,-2.85938 1.3125,-1.00781 3.72656,-1.00781 1.19532,0 2.25,0.17578 1.05469,0.17578 1.94532,0.52735 z"
     id="path1128" /><path
     d="m 71.186081,-248.18527 q 0.808594,-1.45313 1.933594,-2.14453 1.125,-0.69141 2.648437,-0.69141 2.050781,0 3.164063,1.44141 1.113281,1.42968 1.113281,4.07812 v 7.92188 h -2.167969 v -7.85157 q 0,-1.88671 -0.667969,-2.80078 -0.667968,-0.91406 -2.039062,-0.91406 -1.675781,0 -2.648438,1.11328 -0.972656,1.11328 -0.972656,3.03516 v 7.41797 h -2.167969 v -7.85157 q 0,-1.89843 -0.667968,-2.80078 -0.667969,-0.91406 -2.0625,-0.91406 -1.652344,0 -2.625,1.125 -0.972657,1.11328 -0.972657,3.02344 v 7.41797 H 60.8853 v -13.125 h 2.167968 v 2.03906 q 0.738282,-1.20703 1.769532,-1.78125 1.03125,-0.57422 2.449218,-0.57422 1.429688,0 2.425782,0.72656 1.007812,0.72657 1.488281,2.10938 z"
     id="path1130" /><path
     d="m 89.432175,-249.19308 q -1.734375,0 -2.742188,1.35937 -1.007812,1.34766 -1.007812,3.70313 0,2.35546 0.996093,3.71484 1.007813,1.34766 2.753907,1.34766 1.722656,0 2.730468,-1.35938 1.007813,-1.35937 1.007813,-3.70312 0,-2.33204 -1.007813,-3.69141 -1.007812,-1.37109 -2.730468,-1.37109 z m 0,-1.82813 q 2.8125,0 4.417968,1.82813 1.605469,1.82812 1.605469,5.0625 0,3.22265 -1.605469,5.0625 -1.605468,1.82812 -4.417968,1.82812 -2.824219,0 -4.429688,-1.82812 -1.59375,-1.83985 -1.59375,-5.0625 0,-3.23438 1.59375,-5.0625 1.605469,-1.82813 4.429688,-1.82813 z"
     id="path1132" /><path
     d="m 107.66655,-248.71262 v -7.10156 h 2.15625 v 18.23438 h -2.15625 v -1.96875 q -0.67969,1.17187 -1.72266,1.74609 -1.03125,0.5625 -2.48437,0.5625 -2.37891,0 -3.878908,-1.89844 -1.488281,-1.89843 -1.488281,-4.99218 0,-3.09375 1.488281,-4.99219 1.499998,-1.89844 3.878908,-1.89844 1.45312,0 2.48437,0.57422 1.04297,0.5625 1.72266,1.73437 z m -7.34766,4.58204 q 0,2.3789 0.97266,3.73828 0.98437,1.34765 2.69531,1.34765 1.71094,0 2.69531,-1.34765 0.98438,-1.35938 0.98438,-3.73828 0,-2.37891 -0.98438,-3.72657 -0.98437,-1.35937 -2.69531,-1.35937 -1.71094,0 -2.69531,1.35937 -0.97266,1.34766 -0.97266,3.72657 z"
     id="path1134" /><path
     d="m 125.49077,-244.68137 v 1.05469 h -9.91406 q 0.14062,2.22656 1.33593,3.39844 1.20703,1.16016 3.35157,1.16016 1.24218,0 2.40234,-0.30469 1.17187,-0.30469 2.32031,-0.91406 v 2.03906 q -1.16015,0.49219 -2.3789,0.75 -1.21875,0.25781 -2.47266,0.25781 -3.14063,0 -4.98047,-1.82812 -1.82812,-1.82813 -1.82812,-4.94532 0,-3.22265 1.73437,-5.10937 1.74609,-1.89844 4.69922,-1.89844 2.64844,0 4.18359,1.71094 1.54688,1.69922 1.54688,4.6289 z m -2.15625,-0.63281 q -0.0234,-1.76953 -0.9961,-2.82422 -0.96093,-1.05468 -2.55468,-1.05468 -1.80469,0 -2.89453,1.01953 -1.07813,1.01953 -1.24219,2.87109 z"
     id="path1136" /><path
     d="m 129.02983,-255.81418 h 2.15625 v 18.23438 h -2.15625 z"
     id="path1138" /><path
     d="m 144.06499,-250.31808 v 2.03906 q -0.91407,-0.46875 -1.89844,-0.70313 -0.98438,-0.23437 -2.03906,-0.23437 -1.60547,0 -2.41407,0.49219 -0.79687,0.49218 -0.79687,1.47656 0,0.75 0.57422,1.18359 0.57422,0.42188 2.30859,0.8086 l 0.73828,0.16406 q 2.29688,0.49219 3.25782,1.39453 0.97265,0.89062 0.97265,2.49609 0,1.82813 -1.45312,2.89453 -1.44141,1.06641 -3.97266,1.06641 -1.05469,0 -2.20312,-0.21094 -1.13672,-0.19922 -2.40235,-0.60937 v -2.22656 q 1.19531,0.62109 2.35547,0.9375 1.16016,0.30468 2.29688,0.30468 1.52343,0 2.34375,-0.51562 0.82031,-0.52735 0.82031,-1.47656 0,-0.87891 -0.59766,-1.34766 -0.58594,-0.46875 -2.58984,-0.90234 l -0.75,-0.17579 q -2.00391,-0.42187 -2.89453,-1.28906 -0.89063,-0.8789 -0.89063,-2.40234 0,-1.85156 1.3125,-2.85938 1.3125,-1.00781 3.72656,-1.00781 1.19532,0 2.25,0.17578 1.05469,0.17578 1.94532,0.52735 z"
     id="path1140" /><path
     d="m 154.40874,-248.5173 h 1.79687 l 2.2461,8.53515 2.23632,-8.53515 h 2.11914 l 2.2461,8.53515 2.23633,-8.53515 h 1.79687 l -2.86133,10.9375 H 164.106 l -2.35351,-8.96485 -2.36328,8.96485 h -2.11914 z"
     style="font-size:20px"
     id="path1142" /><path
     d="m 171.81108,-248.5173 h 1.79688 v 10.9375 h -1.79688 z m 0,-4.25782 h 1.79688 v 2.27539 h -1.79688 z"
     style="font-size:20px"
     id="path1144" /><path
     d="m 179.14507,-251.62277 v 3.10547 h 3.70117 v 1.39648 h -3.70117 v 5.9375 q 0,1.33789 0.36132,1.71875 0.3711,0.38086 1.49414,0.38086 h 1.84571 v 1.50391 h -1.84571 q -2.08007,0 -2.87109,-0.77149 -0.79102,-0.78125 -0.79102,-2.83203 v -5.9375 h -1.31835 v -1.39648 h 1.31835 v -3.10547 z"
     style="font-size:20px"
     id="path1146" /><path
     d="m 194.30132,-244.18137 v 6.60157 h -1.79688 v -6.54297 q 0,-1.55274 -0.60547,-2.32422 -0.60547,-0.77149 -1.8164,-0.77149 -1.45508,0 -2.29493,0.92774 -0.83984,0.92773 -0.83984,2.5293 v 6.18164 h -1.80664 v -15.19532 h 1.80664 v 5.95704 q 0.64453,-0.98633 1.51367,-1.47461 0.87891,-0.48829 2.02149,-0.48829 1.88476,0 2.85156,1.17188 0.9668,1.16211 0.9668,3.42773 z"
     style="font-size:20px"
     id="path1148" /><path
     d="m 204.99663,-252.8923 h 2.51562 v 15.3125 h -2.51562 z m 0,-5.96094 h 2.51562 v 3.18555 h -2.51562 z"
     style="font-size:28px"
     id="path1150" /><path
     d="m 225.50444,-246.82199 v 9.24219 h -2.51562 v -9.16016 q 0,-2.17383 -0.84766,-3.25391 -0.84766,-1.08007 -2.54297,-1.08007 -2.03711,0 -3.21289,1.29882 -1.17578,1.29883 -1.17578,3.54102 v 8.6543 h -2.5293 v -15.3125 h 2.5293 v 2.3789 q 0.90234,-1.38086 2.11914,-2.06445 1.23047,-0.68359 2.83008,-0.68359 2.63867,0 3.99218,1.64062 1.35352,1.62695 1.35352,4.79883 z"
     style="font-size:28px"
     id="path1152" /><path
     d="m 241.54155,-252.30441 v 2.35156 q -1.06641,-0.58789 -2.14648,-0.875 -1.06641,-0.30078 -2.16016,-0.30078 -2.44727,0 -3.80078,1.55859 -1.35352,1.54492 -1.35352,4.34766 0,2.80273 1.35352,4.36133 1.35351,1.54492 3.80078,1.54492 1.09375,0 2.16016,-0.28711 1.08007,-0.30078 2.14648,-0.88867 v 2.32422 q -1.05273,0.49218 -2.1875,0.73828 -1.12109,0.24609 -2.39258,0.24609 -3.45898,0 -5.49609,-2.17383 -2.03711,-2.17383 -2.03711,-5.86523 0,-3.7461 2.05078,-5.89258 2.06445,-2.14648 5.64648,-2.14648 1.16211,0 2.26954,0.24609 1.10742,0.23242 2.14648,0.71094 z"
     style="font-size:28px"
     id="path1154" /><path
     d="m 251.85014,-251.12863 q -2.02343,0 -3.19922,1.58594 -1.17578,1.57226 -1.17578,4.32031 0,2.74805 1.16211,4.33398 1.17578,1.57227 3.21289,1.57227 2.00977,0 3.18555,-1.58594 1.17578,-1.58594 1.17578,-4.32031 0,-2.7207 -1.17578,-4.30664 -1.17578,-1.59961 -3.18555,-1.59961 z m 0,-2.13281 q 3.28125,0 5.1543,2.13281 1.87305,2.13281 1.87305,5.90625 0,3.75976 -1.87305,5.90625 -1.87305,2.13281 -5.1543,2.13281 -3.29492,0 -5.16797,-2.13281 -1.85937,-2.14649 -1.85937,-5.90625 0,-3.77344 1.85937,-5.90625 1.87305,-2.13281 5.16797,-2.13281 z"
     style="font-size:28px"
     id="path1156" /><path
     d="m 274.96928,-249.95285 q 0.94336,-1.69531 2.25586,-2.50195 1.3125,-0.80664 3.08985,-0.80664 2.39258,0 3.6914,1.68164 1.29883,1.66797 1.29883,4.75781 v 9.24219 h -2.5293 v -9.16016 q 0,-2.20117 -0.77929,-3.26758 -0.7793,-1.0664 -2.37891,-1.0664 -1.95508,0 -3.08984,1.29882 -1.13477,1.29883 -1.13477,3.54102 v 8.6543 h -2.52929 v -9.16016 q 0,-2.21484 -0.7793,-3.26758 -0.7793,-1.0664 -2.40625,-1.0664 -1.92774,0 -3.0625,1.3125 -1.13477,1.29882 -1.13477,3.52734 v 8.6543 h -2.52929 v -15.3125 h 2.52929 v 2.3789 q 0.86133,-1.4082 2.06446,-2.07812 1.20312,-0.66992 2.85742,-0.66992 1.66797,0 2.83008,0.84765 1.17578,0.84766 1.73632,2.46094 z"
     style="font-size:28px"
     id="path1158" /><path
     d="m 292.75639,-239.87668 v 8.1211 h -2.52929 v -21.13672 h 2.52929 v 2.32422 q 0.79297,-1.36719 1.9961,-2.02344 1.21679,-0.66992 2.89843,-0.66992 2.78907,0 4.5254,2.21484 1.75,2.21484 1.75,5.82422 0,3.60937 -1.75,5.82422 -1.73633,2.21484 -4.5254,2.21484 -1.68164,0 -2.89843,-0.65625 -1.20313,-0.66992 -1.9961,-2.03711 z m 8.5586,-5.3457 q 0,-2.77539 -1.14844,-4.34766 -1.13477,-1.58594 -3.13086,-1.58594 -1.99609,0 -3.14453,1.58594 -1.13477,1.57227 -1.13477,4.34766 0,2.77539 1.13477,4.36133 1.14844,1.57226 3.14453,1.57226 1.99609,0 3.13086,-1.57226 1.14844,-1.58594 1.14844,-4.36133 z"
     style="font-size:28px"
     id="path1160" /><path
     d="m 308.09624,-258.85324 h 2.51562 v 21.27344 h -2.51562 z"
     style="font-size:28px"
     id="path1162" /><path
     d="m 328.97319,-245.86496 v 1.23047 h -11.56641 q 0.16407,2.59766 1.5586,3.96484 1.4082,1.35352 3.91015,1.35352 1.44922,0 2.80274,-0.35547 1.36719,-0.35547 2.70703,-1.06641 v 2.37891 q -1.35352,0.57422 -2.77539,0.875 -1.42188,0.30078 -2.88477,0.30078 -3.66406,0 -5.81054,-2.13281 -2.13282,-2.13281 -2.13282,-5.76953 0,-3.75977 2.02344,-5.96094 2.03711,-2.21484 5.48242,-2.21484 3.08985,0 4.88086,1.99609 1.80469,1.98242 1.80469,5.40039 z m -2.51562,-0.73828 q -0.0273,-2.06445 -1.16211,-3.29492 -1.1211,-1.23047 -2.98047,-1.23047 -2.10547,0 -3.37696,1.18945 -1.25781,1.18945 -1.44921,3.34961 z"
     style="font-size:28px"
     id="path1164" /><path
     d="m 335.59038,-257.23996 v 4.34766 h 5.18164 v 1.95507 h -5.18164 v 8.3125 q 0,1.87305 0.50586,2.40625 0.51953,0.53321 2.09179,0.53321 h 2.58399 v 2.10547 h -2.58399 q -2.91211,0 -4.01953,-1.08008 -1.10742,-1.09375 -1.10742,-3.96485 v -8.3125 h -1.8457 v -1.95507 h 1.8457 v -4.34766 z"
     style="font-size:28px"
     id="path1166" /><path
     d="m 357.17827,-245.86496 v 1.23047 h -11.56641 q 0.16406,2.59766 1.5586,3.96484 1.4082,1.35352 3.91015,1.35352 1.44922,0 2.80274,-0.35547 1.36718,-0.35547 2.70703,-1.06641 v 2.37891 q -1.35352,0.57422 -2.77539,0.875 -1.42188,0.30078 -2.88477,0.30078 -3.66406,0 -5.81055,-2.13281 -2.13281,-2.13281 -2.13281,-5.76953 0,-3.75977 2.02344,-5.96094 2.03711,-2.21484 5.48242,-2.21484 3.08985,0 4.88086,1.99609 1.80469,1.98242 1.80469,5.40039 z m -2.51563,-0.73828 q -0.0273,-2.06445 -1.16211,-3.29492 -1.12109,-1.23047 -2.98046,-1.23047 -2.10547,0 -3.37696,1.18945 -1.25781,1.18945 -1.44922,3.34961 z"
     style="font-size:28px"
     id="path1168" /><path
     d="m 377.19585,-248.71262 v -7.10156 h 2.15625 v 18.23438 h -2.15625 v -1.96875 q -0.67969,1.17187 -1.72266,1.74609 -1.03125,0.5625 -2.48437,0.5625 -2.37891,0 -3.87891,-1.89844 -1.48828,-1.89843 -1.48828,-4.99218 0,-3.09375 1.48828,-4.99219 1.5,-1.89844 3.87891,-1.89844 1.45312,0 2.48437,0.57422 1.04297,0.5625 1.72266,1.73437 z m -7.34766,4.58204 q 0,2.3789 0.97266,3.73828 0.98437,1.34765 2.69531,1.34765 1.71094,0 2.69531,-1.34765 0.98438,-1.35938 0.98438,-3.73828 0,-2.37891 -0.98438,-3.72657 -0.98437,-1.35937 -2.69531,-1.35937 -1.71094,0 -2.69531,1.35937 -0.97266,1.34766 -0.97266,3.72657 z"
     id="path1170" /><path
     d="m 389.75835,-244.17746 q -2.61328,0 -3.6211,0.59766 -1.00781,0.59765 -1.00781,2.03906 0,1.14844 0.75,1.82812 0.76172,0.66797 2.0625,0.66797 1.79297,0 2.87109,-1.26562 1.08985,-1.27735 1.08985,-3.38672 v -0.48047 z m 4.30078,-0.89062 v 7.48828 h -2.15625 v -1.99219 q -0.73828,1.19531 -1.83985,1.76953 -1.10156,0.5625 -2.69531,0.5625 -2.01562,0 -3.21094,-1.125 -1.18359,-1.13672 -1.18359,-3.03516 0,-2.21484 1.47656,-3.33984 1.48828,-1.125 4.42969,-1.125 h 3.02344 v -0.21094 q 0,-1.48828 -0.98438,-2.29687 -0.97265,-0.82031 -2.74218,-0.82031 -1.125,0 -2.19141,0.26953 -1.06641,0.26953 -2.05078,0.80859 v -1.99219 q 1.18359,-0.45703 2.29687,-0.67968 1.11328,-0.23438 2.16797,-0.23438 2.84766,0 4.25391,1.47656 1.40625,1.47657 1.40625,4.47657 z"
     id="path1172" /><path
     d="m 400.63335,-254.43137 v 3.72657 h 4.4414 v 1.67578 h -4.4414 v 7.125 q 0,1.60547 0.43359,2.0625 0.44531,0.45703 1.79297,0.45703 h 2.21484 v 1.80469 h -2.21484 q -2.49609,0 -3.44531,-0.92578 -0.94922,-0.9375 -0.94922,-3.39844 v -7.125 h -1.58203 v -1.67578 h 1.58203 v -3.72657 z"
     id="path1174" /><path
     d="m 413.87553,-244.17746 q -2.61328,0 -3.62109,0.59766 -1.00781,0.59765 -1.00781,2.03906 0,1.14844 0.75,1.82812 0.76172,0.66797 2.0625,0.66797 1.79297,0 2.87109,-1.26562 1.08985,-1.27735 1.08985,-3.38672 v -0.48047 z m 4.30079,-0.89062 v 7.48828 h -2.15625 v -1.99219 q -0.73829,1.19531 -1.83985,1.76953 -1.10156,0.5625 -2.69531,0.5625 -2.01563,0 -3.21094,-1.125 -1.18359,-1.13672 -1.18359,-3.03516 0,-2.21484 1.47656,-3.33984 1.48828,-1.125 4.42969,-1.125 h 3.02344 v -0.21094 q 0,-1.48828 -0.98438,-2.29687 -0.97266,-0.82031 -2.74219,-0.82031 -1.125,0 -2.1914,0.26953 -1.06641,0.26953 -2.05078,0.80859 v -1.99219 q 1.18359,-0.45703 2.29687,-0.67968 1.11328,-0.23438 2.16797,-0.23438 2.84766,0 4.25391,1.47656 1.40625,1.47657 1.40625,4.47657 z"
     id="path1176" /></g></g></svg>
