<?xml version="1.0" encoding="UTF-8" standalone="no"?>
<svg
   xmlns:dc="http://purl.org/dc/elements/1.1/"
   xmlns:cc="http://creativecommons.org/ns#"
   xmlns:rdf="http://www.w3.org/1999/02/22-rdf-syntax-ns#"
   xmlns:svg="http://www.w3.org/2000/svg"
   xmlns="http://www.w3.org/2000/svg"
   xmlns:sodipodi="http://sodipodi.sourceforge.net/DTD/sodipodi-0.dtd"
   xmlns:inkscape="http://www.inkscape.org/namespaces/inkscape"
   width="749.16608mm"
   height="240.29222mm"
   viewBox="0 0 749.16608 240.29222"
   version="1.1"
   id="svg1122"
   inkscape:version="1.0.2 (394de47547, 2021-03-26)"
   sodipodi:docname="good_bad_methods.svg">
  <defs
     id="defs1116" />
  <sodipodi:namedview
     id="base"
     pagecolor="#ffffff"
     bordercolor="#666666"
     borderopacity="1.0"
     inkscape:pageopacity="0.0"
     inkscape:pageshadow="2"
     inkscape:zoom="0.24748737"
     inkscape:cx="1424.6971"
     inkscape:cy="410.88624"
     inkscape:document-units="mm"
     inkscape:current-layer="layer1"
     inkscape:document-rotation="0"
     showgrid="false"
     inkscape:window-width="1864"
     inkscape:window-height="1043"
     inkscape:window-x="56"
     inkscape:window-y="0"
     inkscape:window-maximized="1" />
  <metadata
     id="metadata1119">
    <rdf:RDF>
      <cc:Work
         rdf:about="">
        <dc:format>image/svg+xml</dc:format>
        <dc:type
           rdf:resource="http://purl.org/dc/dcmitype/StillImage" />
        <dc:title></dc:title>
      </cc:Work>
    </rdf:RDF>
  </metadata>
  <g
     inkscape:label="Layer 1"
     inkscape:groupmode="layer"
     id="layer1"
     transform="translate(566.78363,305.88773)">
    <path
       style="opacity:1;fill:#006858;fill-opacity:1;stroke:#342f2f;stroke-width:0.499999;stroke-linecap:round;stroke-linejoin:round;stroke-dasharray:0.499999, 1;stroke-opacity:1"
       id="path1685"
       d="m -437.43747,-264.84842 c -0.60833,2.98438 -1.52159,5.89957 -2.27071,8.85133 -0.74181,4.34552 -1.20721,8.72516 -1.63335,13.11048 -0.33872,3.34443 -0.8056,6.66077 -0.91332,10.0241 -0.003,4.56376 0.0214,9.1258 -0.1139,13.68823 -0.15512,3.58708 -0.0456,7.17217 0.0279,10.75845 0.23376,6.3768 0.25636,12.75572 0.23059,19.13579 -0.27488,7.17786 -0.93596,14.33643 -1.59777,21.48721 -0.94964,8.61432 -2.60749,17.12663 -3.59153,25.73614 -0.62561,6.54144 -1.43013,13.05252 -1.92506,19.60605 -0.45201,6.83355 -0.67188,13.67765 -0.76692,20.52441 -0.10856,6.302782 0.0482,12.606369 -0.0646,18.908416 0.091,4.671819 -1.07567,9.341583 -0.55661,14.001824 0.30901,0.985025 0.29186,1.432597 1.28937,2.096624 2.21956,1.477529 7.35375,1.000874 9.88364,1.000967 7.37669,-0.06623 14.75356,-0.08749 22.13036,-0.133983 9.85216,-0.146203 19.70535,-0.17155 29.55771,-0.298148 13.62411,-0.272791 27.25021,-0.04104 40.87527,-0.110863 12.95022,-0.100447 25.89977,0.0442 38.84941,0.132786 12.24425,0.07533 24.48859,0.0031 36.72554,-0.434911 10.16854,-0.418539 20.30065,-1.39831 30.45915,-1.989833 5.74074,-0.354301 11.49378,-0.229415 17.23884,-0.414047 4.61148,-0.339368 9.19992,-0.895585 13.81544,-1.187847 3.686,-0.271298 7.38363,-0.03069 11.06987,-0.238638 3.13304,-0.365122 6.27884,-0.518782 9.43117,-0.56774 0,0 17.75633,-12.950854 17.75633,-12.950854 v 0 c -3.1281,0.06666 -6.27151,0.0048 -9.38584,0.326115 -3.77923,0.500491 -7.58596,0.490979 -11.3934,0.600741 -4.62806,0.161872 -9.22238,0.581393 -13.81236,1.201743 -5.92915,0.322633 -11.87785,0.291322 -17.80103,0.773316 -10.4494,0.718087 -20.84033,2.068023 -31.29764,2.677631 -12.1125,0.41451 -24.22062,0.210373 -36.33804,0.23961 -13.07099,0.0876 -26.14194,0.231978 -39.21349,0.131775 -13.52461,-0.07088 -27.05029,0.161626 -40.57391,-0.108812 -9.61689,-0.122616 -19.23452,-0.144399 -28.85173,-0.22519 -7.30895,0.01587 -14.61823,0.122764 -21.92705,0.02998 -2.44681,-0.06221 -4.87754,-0.23446 -7.32031,-0.332645 -0.31813,-0.01278 -0.63664,0.01222 -0.95498,0.01643 -0.11444,0.0016 -0.26313,0.08237 -0.34333,7.94e-4 -0.14914,-0.1519 -0.15867,-0.395126 -0.23799,-0.592688 -0.78886,-4.259638 0.0454,-8.945502 -0.0971,-13.252696 0.20797,-6.329783 0.13235,-12.662437 0.16505,-18.994907 0.0494,-6.76996 0.0961,-13.5492 0.66842,-20.29965 0.61071,-6.56874 1.5444,-13.10353 2.11942,-19.67697 0.63844,-8.46549 1.67314,-16.89033 2.85321,-25.29659 1.16858,-7.30435 2.34789,-14.61857 2.12296,-22.04644 -0.0269,-6.45768 0,-12.91408 0.22432,-19.36875 0.0684,-3.59258 0.16962,-7.18364 0.0259,-10.77696 -0.11039,-4.54772 -0.0771,-9.10029 0.2777,-13.63817 0.27342,-3.30126 0.67416,-6.59352 0.8041,-9.90486 0.30318,-4.33765 0.84569,-8.66736 2.02139,-12.86529 0.62566,-2.22277 1.02269,-5.23711 2.31613,-7.15756 0.20736,-0.3079 0.53113,-0.51875 0.79672,-0.77812 0,0 -20.75392,8.58229 -20.75392,8.58229 z" />
    <path
       style="opacity:1;fill:#006858;fill-opacity:1;stroke:#342f2f;stroke-width:0.499999;stroke-linecap:round;stroke-linejoin:round;stroke-dasharray:0.499999, 1;stroke-opacity:1"
       id="path1685-0"
       d="m -83.774242,-267.44302 c -0.60833,2.98438 -1.52159,5.89957 -2.27071,8.85133 -0.74181,4.34552 -1.20721,8.72516 -1.63335,13.11048 -0.33872,3.34443 -0.8056,6.66077 -0.91332,10.0241 -0.003,4.56376 0.0214,9.1258 -0.1139,13.68823 -0.15512,3.58708 -0.0456,7.17217 0.0279,10.75845 0.23376,6.3768 0.25636,12.75572 0.23059,19.13579 -0.27488,7.17786 -0.93596,14.33643 -1.59777,21.48721 -0.94964,8.61432 -2.60749,17.12663 -3.59153,25.73614 -0.62561,6.54144 -1.43013,13.05252 -1.92506,19.60605 -0.45201,6.83355 -0.67188,13.67765 -0.76692,20.52441 -0.10856,6.302783 0.0482,12.60637 -0.0646,18.908417 0.091,4.671819 -1.07567,9.341583 -0.55661,14.001824 0.30901,0.985025 0.29186,1.432597 1.28937,2.096624 2.21956,1.477529 7.35375,1.000874 9.88364,1.000967 7.37669,-0.06623 14.75356,-0.08749 22.13036,-0.133983 9.85216,-0.146203 19.70535,-0.17155 29.55771,-0.298148 13.624111,-0.272791 27.2502168,-0.04104 40.8752721,-0.110863 12.9502179,-0.100447 25.8997679,0.0442 38.8494079,0.132786 12.24425,0.07533 24.48859,0.0031 36.72554,-0.434911 10.168517,-0.418539 20.300582,-1.39831 30.459082,-1.989833 5.74074,-0.354301 11.49378,-0.229415 17.23884,-0.414047 4.61148,-0.339368 9.19992,-0.895585 13.81544,-1.187847 3.686,-0.271298 7.38363,-0.03069 11.06987,-0.238638 3.13304,-0.365122 6.27884,-0.518782 9.43117,-0.56774 0,0 17.75633,-12.950854 17.75633,-12.950854 v 0 c -3.1281,0.06666 -6.27151,0.0048 -9.38584,0.326115 -3.77923,0.500491 -7.58596,0.490979 -11.3934,0.600741 -4.62806,0.161872 -9.22238,0.581393 -13.81236,1.201743 -5.92915,0.322633 -11.87785,0.291322 -17.80103,0.773316 -10.4494,0.718087 -20.84033,2.068023 -31.297631,2.677631 -12.112441,0.41451 -24.220561,0.210373 -36.337981,0.23961 -13.07099,0.0876 -26.14194,0.231978 -39.21349,0.131775 -13.5246094,-0.07088 -27.0502831,0.161626 -40.573907,-0.108812 -9.616893,-0.122616 -19.234523,-0.144399 -28.851733,-0.22519 -7.30895,0.01587 -14.61823,0.122764 -21.92705,0.02998 -2.44681,-0.06221 -4.87754,-0.23446 -7.32031,-0.332645 -0.31813,-0.01278 -0.63664,0.01222 -0.95498,0.01643 -0.11444,0.0016 -0.26313,0.08237 -0.34333,7.94e-4 -0.14914,-0.1519 -0.15867,-0.395126 -0.23799,-0.592688 -0.78886,-4.259638 0.0454,-8.945502 -0.0971,-13.252696 0.20797,-6.329778 0.13235,-12.662438 0.16505,-18.994908 0.0494,-6.76996 0.0961,-13.5492 0.66842,-20.29965 0.61071,-6.56874 1.5444,-13.10353 2.11942,-19.67697 0.63844,-8.46549 1.67314,-16.89033 2.85321,-25.29659 1.16858,-7.30435 2.34789,-14.61857 2.12296,-22.04644 -0.0269,-6.45768 0,-12.91408 0.22432,-19.36875 0.0684,-3.59258 0.16962,-7.18364 0.0259,-10.77696 -0.11039,-4.54772 -0.0771,-9.10029 0.2777,-13.63817 0.27342,-3.30126 0.67416,-6.59352 0.8041,-9.90486 0.30318,-4.33765 0.84569,-8.66736 2.02139,-12.86529 0.62566,-2.22277 1.02269,-5.23711 2.31613,-7.15756 0.20736,-0.3079 0.53113,-0.51875 0.79672,-0.77812 0,0 -20.75392,8.58229 -20.75392,8.58229 z" />
    <path
       style="opacity:1;fill:#006858;fill-opacity:1;stroke:#342f2f;stroke-width:0.499999;stroke-linecap:round;stroke-linejoin:round;stroke-dasharray:0.499999, 1;stroke-opacity:1"
       id="path1707"
       d="m -391.04006,-194.57705 c 6.09825,-0.31874 11.96107,0.13291 17.95547,1.22164 4.73022,0.89953 9.45999,1.81289 14.24321,2.38192 3.63699,0.36048 7.30004,0.25371 10.94936,0.25008 3.84267,0.0758 7.66921,0.003 11.49927,-0.30353 4.3694,-0.36844 8.75567,-0.34806 13.13428,-0.49122 3.84577,-0.24954 7.68819,-0.46105 11.54174,-0.54448 4.3403,0.12536 8.65788,-0.25609 12.98379,-0.5197 5.10267,-0.32197 10.20704,-0.61778 15.31564,-0.82704 3.51264,-0.18395 7.03202,-0.18284 10.54836,-0.15342 3.36492,0.0162 6.72401,-0.0575 10.08152,-0.27964 2.07101,-0.0721 4.07551,-0.61216 6.12429,-0.86513 2.81978,-0.14727 5.64103,0.13784 8.45376,0.31798 1.33732,0.0246 0.69265,0.0326 1.9341,-0.0158 0,0 8.97827,-6.62364 8.97827,-6.62364 v 0 c -1.22061,0.13124 -0.58883,0.0753 -1.89579,0.16279 -2.85163,-0.12677 -5.69958,-0.31833 -8.55055,-0.45754 -2.09039,0.15669 -4.08774,0.64985 -6.15877,0.91671 -3.33266,0.31219 -6.66132,0.46873 -10.00958,0.33264 -3.54607,0.0482 -7.09223,0.089 -10.63807,0.15213 -5.16689,0.321 -10.32698,0.75523 -15.49972,0.97781 -4.32083,0.0788 -8.60845,0.57327 -12.93397,0.51565 -3.82807,0.0379 -7.65886,-0.005 -11.46736,0.44726 -4.36607,0.27262 -8.74611,0.14128 -13.11179,0.44134 -3.84059,0.24778 -7.66845,0.58919 -11.5252,0.42093 -3.59497,-0.007 -7.19455,-0.009 -10.78381,-0.2342 -4.85494,-0.40425 -9.66957,-1.16901 -14.44559,-2.12529 -2.08486,-0.40793 -4.06955,-0.838 -6.18164,-1.08703 -3.86731,-0.45599 -7.76999,-0.31049 -11.65244,-0.46126 0,0 -8.88878,6.45007 -8.88878,6.45007 z" />
    <path
       style="opacity:1;fill:#006858;fill-opacity:1;stroke:#342f2f;stroke-width:0.499999;stroke-linecap:round;stroke-linejoin:round;stroke-dasharray:0.499999, 1;stroke-opacity:1"
       id="path1709"
       d="m 31.306857,-196.98111 c 2.794503,-0.76895 5.625817,-1.36757 8.497435,-1.75348 3.917638,-0.30615 7.85164,-0.10035 11.767889,0.12448 1.301406,0.0858 2.60283,0.16492 3.906959,0.18879 1.148196,0.11589 2.24409,-0.11217 3.356858,-0.35442 0.186524,-0.0354 0.373044,-0.0708 0.559568,-0.10619 0,0 8.971986,-6.73933 8.971986,-6.73933 v 0 c -0.194381,0.0258 -0.388765,0.0515 -0.58315,0.0773 -1.081915,0.18678 -2.104755,0.62059 -3.210933,0.53277 -1.335563,-0.009 -2.670868,-0.0334 -4.005804,-0.0767 -3.993835,-0.11022 -7.989015,-0.21761 -11.984776,-0.17426 -2.846104,0.24923 -5.614622,0.80292 -8.392364,1.46462 0,0 -8.883668,6.81649 -8.883668,6.81649 z" />
    <path
       style="opacity:1;fill:#006858;fill-opacity:1;stroke:#342f2f;stroke-width:0.499999;stroke-linecap:round;stroke-linejoin:round;stroke-dasharray:0.499999, 1;stroke-opacity:1"
       id="path1711"
       d="m -343.22554,-158.48925 c 1.94413,0.0224 3.86916,-0.0442 5.7967,-0.29927 2.26873,-0.36785 4.56793,-0.42264 6.86084,-0.46419 2.05779,0.0586 4.09162,-0.0539 6.13089,-0.31577 2.44145,-0.29744 4.90191,-0.37134 7.3587,-0.41289 1.70622,0.0958 3.37585,-0.23336 5.05992,-0.43623 2.04451,-0.14086 4.07842,-0.28089 6.10738,-0.57557 1.41226,-0.15367 2.77045,-0.57757 4.14639,-0.90989 0,0 8.86182,-6.8521 8.86182,-6.8521 v 0 c -1.3045,0.49701 -2.73714,0.73235 -4.08678,1.06931 -2.02621,0.33032 -4.04191,0.60889 -6.09981,0.6455 -1.67741,0.12955 -3.30862,0.49995 -4.99129,0.48887 -2.48084,0.0762 -4.96379,0.156 -7.4387,0.34655 -2.03267,0.20651 -4.03852,0.54287 -6.09407,0.42025 -2.2945,0.0461 -4.60632,0.0134 -6.8843,0.3131 -1.87907,0.28443 -3.73886,0.56057 -5.64777,0.38539 0,0 -9.07992,6.59694 -9.07992,6.59694 z" />
    <path
       style="opacity:1;fill:#006858;fill-opacity:1;stroke:#342f2f;stroke-width:0.499999;stroke-linecap:round;stroke-linejoin:round;stroke-dasharray:0.499999, 1;stroke-opacity:1"
       id="path1715"
       d="m -385.96773,-225.39705 c 5.86036,0.38897 11.69905,1.02975 17.53351,1.69176 5.02169,0.72941 10.05766,1.04563 15.12557,0.92262 4.6351,-0.18993 9.27462,0.0466 13.90832,0.18355 4.08813,0.19619 8.17275,-0.12429 12.25341,-0.32909 5.39361,-0.22708 10.79191,-0.12808 16.17774,-0.51751 4.957,-0.5617 9.92666,-0.91392 14.91054,-1.10463 4.82089,-0.004 9.62544,-0.18656 14.39394,-0.91899 4.25702,-0.95009 8.60227,-1.18945 12.94559,-1.36623 5.12753,-0.13693 10.25327,-0.0562 15.37726,-0.30571 2.90277,-0.17568 5.79844,-0.36412 8.70542,-0.2291 0,0 8.96755,-6.44638 8.96755,-6.44638 v 0 c -2.9811,-0.1624 -5.93824,-0.027 -8.91307,0.23761 -5.14533,0.31223 -10.2939,0.30416 -15.44711,0.38739 -4.3144,0.0995 -8.67187,0.13366 -12.89378,1.13736 -4.76244,0.93045 -9.58874,1.16487 -14.43558,1.14055 -4.9932,0.12672 -9.98009,0.38243 -14.93452,1.05313 -5.34241,0.50787 -10.697,0.36958 -16.05732,0.48868 -4.08961,0.11376 -8.1692,0.56004 -12.26219,0.42461 -4.62688,-0.11516 -9.25965,-0.42529 -13.88571,-0.27773 -5.11365,0.18897 -10.20363,0.0728 -15.28564,-0.61998 -5.68513,-0.61794 -11.36425,-1.27906 -17.03506,-2.01387 0,0 -9.14887,6.46196 -9.14887,6.46196 z" />
    <path
       style="opacity:1;fill:#006858;fill-opacity:1;stroke:#342f2f;stroke-width:0.499999;stroke-linecap:round;stroke-linejoin:round;stroke-dasharray:0.499999, 1;stroke-opacity:1"
       id="path1717"
       d="m -48.26681,-233.8584 c 2.664336,-0.0486 5.328735,-0.0346 7.993288,-0.0804 5.640636,-0.0931 11.280109,0.0587 16.9113,-0.32297 6.427549,-0.92175 12.88176,-1.46432 19.365956,-1.75929 6.4918545,-0.0591 12.9781456,0.14203 19.470573,0.0602 4.586621,-0.0941 9.172379,-0.22136 13.759405,-0.29494 6.38126,-0.0894 12.762944,-0.0595 19.143958,0.0269 5.204124,0.0214 10.40769,-0.0448 15.611893,-0.0391 5.609167,0.0802 11.11585,-1.03639 16.615383,-1.98209 8.04493,-1.33723 16.203245,-1.48204 24.336114,-1.38232 4.5394,0.13941 9.06792,0.30898 13.60516,0.0652 2.87157,-0.18155 5.73064,0.23387 8.56959,0.61019 0,0 9.0176,-6.38578 9.0176,-6.38578 v 0 c -2.89721,-0.32411 -5.79714,-0.74747 -8.71693,-0.75678 -4.63305,0.34845 -9.25851,0.37134 -13.9043,0.2481 -8.1234,-0.004 -16.260452,0.0847 -24.329047,1.14625 -5.472031,0.91313 -10.936558,2.08569 -16.507595,2.12659 -5.166485,0.005 -10.332271,-0.0629 -15.498678,-0.0433 -6.432508,0.0845 -12.865362,0.12115 -19.298415,0.0782 -4.549769,-0.0246 -9.100909,-0.0703 -13.646245,0.18518 -6.565024,0.25508 -13.120477,0.13787 -19.6882707,0.0759 -6.4363252,0.26585 -12.8742809,0.58359 -19.2420623,1.62319 -5.564548,0.48467 -11.141329,0.3692 -16.722109,0.28837 -2.590764,-0.0468 -5.181394,-0.0308 -7.77192,-0.0804 0,0 -9.074648,6.59312 -9.074648,6.59312 z" />
    <circle
       id="path1719"
       style="opacity:1;fill:#006858;fill-opacity:1;stroke:#342f2f;stroke-width:0.264583;stroke-opacity:1"
       cx="-315.98114"
       cy="-120.77972"
       r="0.066750564" />
    <path
       style="opacity:1;fill:#006858;fill-opacity:1;stroke:#342f2f;stroke-width:0.499999;stroke-linecap:round;stroke-linejoin:round;stroke-dasharray:0.499999, 1;stroke-opacity:1"
       id="path1721"
       d="m -338.66388,-114.16466 c 2.80738,0.0159 5.60001,-0.27532 8.39631,-0.48333 3.43905,-0.16563 6.70761,1.00458 10.0085,1.77119 1.75495,0.46198 3.4912,0.35212 5.25767,0.0931 0.2799,-0.0511 0.5598,-0.10213 0.8397,-0.15319 0,0 8.8903,-6.76341 8.8903,-6.76341 v 0 c -0.258,0.0694 -0.51597,0.13883 -0.77396,0.20825 -1.71622,0.25165 -3.39215,0.67861 -5.13271,0.28737 -3.42487,-0.57379 -6.71679,-1.88615 -10.22146,-1.98464 -2.72465,0.19156 -5.45005,0.54915 -8.18391,0.42738 0,0 -9.08044,6.59732 -9.08044,6.59732 z" />
    <path
       style="opacity:1;fill:#006858;fill-opacity:1;stroke:#342f2f;stroke-width:0.499999;stroke-linecap:round;stroke-linejoin:round;stroke-dasharray:0.499999, 1;stroke-opacity:1"
       id="path1723"
       d="m 25.781995,-116.7156 c 2.199534,-0.55926 4.363722,-1.24503 6.556922,-1.82616 4.506373,-1.33847 9.224627,-1.00021 13.852798,-0.75448 2.337712,0.12173 4.664942,0.38378 7.005005,0.44768 0,0 8.955304,-6.52311 8.955304,-6.52311 v 0 c -2.401655,0.1242 -4.79588,-0.14253 -7.19705,-0.22373 -4.582277,-0.22254 -9.303118,-0.79245 -13.807493,0.32471 -2.175404,0.49036 -4.275894,1.25219 -6.456087,1.72049 0,0 -8.909399,6.8346 -8.909399,6.8346 z" />
    <text
       xml:space="preserve"
       style="font-size:16.9333px;line-height:1.25;font-family:sans-serif;fill:#006858;fill-opacity:1;stroke-width:0.264583"
       x="-347.83319"
       y="-292.99759"
       id="text1727"><tspan
         sodipodi:role="line"
         id="tspan1725"
         x="-347.83319"
         y="-292.99759"
         style="font-style:normal;font-variant:normal;font-weight:normal;font-stretch:normal;font-size:16.9333px;font-family:'Comic Sans MS';-inkscape-font-specification:'Comic Sans MS';fill:#006858;fill-opacity:1;stroke-width:0.264583">parameter 1</tspan></text>
    <text
       xml:space="preserve"
       style="font-size:16.9333px;line-height:1.25;font-family:sans-serif;fill:#006858;fill-opacity:1;stroke-width:0.264583"
       x="0.81044585"
       y="-293.01074"
       id="text1727-2"><tspan
         sodipodi:role="line"
         id="tspan1725-5"
         x="0.81044585"
         y="-293.01074"
         style="font-style:normal;font-variant:normal;font-weight:normal;font-stretch:normal;font-size:16.9333px;font-family:'Comic Sans MS';-inkscape-font-specification:'Comic Sans MS';fill:#006858;fill-opacity:1;stroke-width:0.264583">parameter 2</tspan></text>
    <text
       xml:space="preserve"
       style="font-size:16.9333px;line-height:1.25;font-family:sans-serif;fill:#006858;fill-opacity:1;stroke-width:0.264583"
       x="-567.26318"
       y="-222.25854"
       id="text1755"><tspan
         sodipodi:role="line"
         id="tspan1753"
         x="-567.26318"
         y="-222.25854"
         style="font-style:normal;font-variant:normal;font-weight:normal;font-stretch:normal;font-size:16.9333px;font-family:'Comic Sans MS';-inkscape-font-specification:'Comic Sans MS';fill:#006858;fill-opacity:1;stroke-width:0.264583">bad 1</tspan></text>
    <text
       xml:space="preserve"
       style="font-size:16.9333px;line-height:1.25;font-family:sans-serif;fill:#006858;fill-opacity:1;stroke-width:0.264583"
       x="-567.26318"
       y="-187.33401"
       id="text1759"><tspan
         sodipodi:role="line"
         id="tspan1757"
         x="-567.26318"
         y="-187.33401"
         style="font-style:normal;font-variant:normal;font-weight:normal;font-stretch:normal;font-size:16.9333px;font-family:'Comic Sans MS';-inkscape-font-specification:'Comic Sans MS';fill:#006858;fill-opacity:1;stroke-width:0.264583">bad 2</tspan></text>
    <text
       xml:space="preserve"
       style="font-size:16.9333px;line-height:1.25;font-family:sans-serif;fill:#006858;fill-opacity:1;stroke-width:0.264583"
       x="-567.26318"
       y="-152.40948"
       id="text1763"><tspan
         sodipodi:role="line"
         id="tspan1761"
         x="-567.26318"
         y="-152.40948"
         style="font-style:normal;font-variant:normal;font-weight:normal;font-stretch:normal;font-size:16.9333px;font-family:'Comic Sans MS';-inkscape-font-specification:'Comic Sans MS';fill:#006858;fill-opacity:1;stroke-width:0.264583">bad 3</tspan></text>
    <text
       xml:space="preserve"
       style="font-size:16.9333px;line-height:1.25;font-family:sans-serif;fill:#006858;fill-opacity:1;stroke-width:0.264583"
       x="-567.26318"
       y="-113.25148"
       id="text1767"><tspan
         sodipodi:role="line"
         id="tspan1765"
         x="-567.26318"
         y="-113.25148"
         style="font-style:normal;font-variant:normal;font-weight:normal;font-stretch:normal;font-size:16.9333px;font-family:'Comic Sans MS';-inkscape-font-specification:'Comic Sans MS';fill:#006858;fill-opacity:1;stroke-width:0.264583">good</tspan></text>
    <circle
       id="path1769"
       style="fill:#006858;stroke:#342f2f;stroke-width:0.264583"
       cx="-390.13391"
       cy="-238.22501"
       r="0.26700225" />
    <path
       style="opacity:1;fill:#006858;fill-opacity:1;stroke:#342f2f;stroke-width:0.499999;stroke-linecap:round;stroke-linejoin:round;stroke-dasharray:0.499999, 1;stroke-opacity:1"
       id="path1773"
       d="m -386.58474,-238.73846 c -0.73499,4.51987 -1.2442,9.0668 -1.50879,13.63731 -0.19163,3.54314 -0.24193,7.09099 -0.26201,10.63848 -0.003,0.43127 -0.003,0.86253 -0.005,1.2938 0,0 4.68469,-2.38655 4.68469,-2.38655 v 0 c 0,-0.42944 -0.003,-0.85887 -0.003,-1.28831 0.005,-3.52916 0.0371,-7.05962 0.22132,-10.58476 0.28591,-4.5605 0.74306,-9.11388 1.60634,-13.60554 0,0 -4.734,2.29557 -4.734,2.29557 z" />
    <path
       style="opacity:1;fill:#006858;fill-opacity:1;stroke:#342f2f;stroke-width:0.499999;stroke-linecap:round;stroke-linejoin:round;stroke-dasharray:0.499999, 1;stroke-opacity:1"
       id="path1775"
       d="m -239.68736,-238.73846 c -0.73499,4.51987 -1.2442,9.0668 -1.50879,13.63731 -0.19163,3.54314 -0.24193,7.09099 -0.26201,10.63848 -0.003,0.43127 -0.003,0.86253 -0.005,1.2938 0,0 4.68469,-2.38655 4.68469,-2.38655 v 0 c 0,-0.42944 -0.003,-0.85887 -0.003,-1.28831 0.005,-3.52916 0.0371,-7.05962 0.22132,-10.58476 0.28591,-4.5605 0.74306,-9.11388 1.60634,-13.60554 0,0 -4.734,2.29557 -4.734,2.29557 z" />
    <path
       style="opacity:1;fill:#006858;fill-opacity:1;stroke:#342f2f;stroke-width:0.499999;stroke-linecap:round;stroke-linejoin:round;stroke-dasharray:0.499999, 1;stroke-opacity:1"
       id="path1777"
       d="m -239.68736,-208.0466 c -0.73499,4.51987 -1.2442,9.0668 -1.50879,13.63731 -0.19163,3.54314 -0.24193,7.09099 -0.26201,10.63848 -0.003,0.43127 -0.003,0.86253 -0.005,1.2938 0,0 4.68469,-2.38655 4.68469,-2.38655 v 0 c 0,-0.42944 -0.003,-0.85887 -0.003,-1.28831 0.005,-3.52916 0.0371,-7.05962 0.22132,-10.58476 0.28591,-4.5605 0.74306,-9.11388 1.60634,-13.60554 0,0 -4.734,2.29557 -4.734,2.29557 z" />
    <path
       style="opacity:1;fill:#006858;fill-opacity:1;stroke:#342f2f;stroke-width:0.499999;stroke-linecap:round;stroke-linejoin:round;stroke-dasharray:0.499999, 1;stroke-opacity:1"
       id="path1779"
       d="m -387.9245,-208.0466 c -0.73499,4.51987 -1.2442,9.0668 -1.50879,13.63731 -0.19163,3.54314 -0.24193,7.09099 -0.26201,10.63848 -0.003,0.43127 -0.003,0.86253 -0.005,1.2938 0,0 4.68469,-2.38655 4.68469,-2.38655 v 0 c 0,-0.42944 -0.003,-0.85887 -0.003,-1.28831 0.005,-3.52916 0.0371,-7.05962 0.22132,-10.58476 0.28591,-4.5605 0.74306,-9.11388 1.60634,-13.60554 0,0 -4.734,2.29557 -4.734,2.29557 z" />
    <path
       style="opacity:1;fill:#006858;fill-opacity:1;stroke:#342f2f;stroke-width:0.499999;stroke-linecap:round;stroke-linejoin:round;stroke-dasharray:0.499999, 1;stroke-opacity:1"
       id="path1781"
       d="m -343.0714,-173.05817 c -0.73499,4.51987 -1.2442,9.0668 -1.50879,13.63731 -0.19163,3.54314 -0.24193,7.09099 -0.26201,10.63848 -0.003,0.43127 -0.003,0.86253 -0.005,1.2938 0,0 4.68469,-2.38655 4.68469,-2.38655 v 0 c 0,-0.42944 -0.003,-0.85887 -0.003,-1.28831 0.005,-3.52916 0.0371,-7.05962 0.22132,-10.58476 0.28591,-4.5605 0.74306,-9.11388 1.60634,-13.60554 0,0 -4.734,2.29557 -4.734,2.29557 z" />
    <path
       style="opacity:1;fill:#006858;fill-opacity:1;stroke:#342f2f;stroke-width:0.499999;stroke-linecap:round;stroke-linejoin:round;stroke-dasharray:0.499999, 1;stroke-opacity:1"
       id="path1783"
       d="m -298.94284,-173.05817 c -0.73499,4.51987 -1.2442,9.0668 -1.50879,13.63731 -0.19163,3.54314 -0.24193,7.09099 -0.26201,10.63848 -0.003,0.43127 -0.003,0.86253 -0.005,1.2938 0,0 4.68469,-2.38655 4.68469,-2.38655 v 0 c 0,-0.42944 -0.003,-0.85887 -0.003,-1.28831 0.005,-3.52916 0.0371,-7.05962 0.22132,-10.58476 0.28591,-4.5605 0.74306,-9.11388 1.60634,-13.60554 0,0 -4.734,2.29557 -4.734,2.29557 z" />
    <path
       style="opacity:1;fill:#006858;fill-opacity:1;stroke:#342f2f;stroke-width:0.499999;stroke-linecap:round;stroke-linejoin:round;stroke-dasharray:0.499999, 1;stroke-opacity:1"
       id="path1785"
       d="m -341.16581,-126.04111 c -0.73499,4.51987 -1.2442,9.0668 -1.50879,13.63731 -0.19163,3.54314 -0.24193,7.09099 -0.26201,10.63848 -0.003,0.43127 -0.003,0.86253 -0.005,1.2938 0,0 4.68469,-2.38655 4.68469,-2.38655 v 0 c 0,-0.42944 -0.003,-0.85887 -0.003,-1.28831 0.005,-3.52916 0.0371,-7.05962 0.22132,-10.58476 0.28591,-4.5605 0.74306,-9.11388 1.60634,-13.60554 0,0 -4.734,2.29557 -4.734,2.29557 z" />
    <path
       style="opacity:1;fill:#006858;fill-opacity:1;stroke:#342f2f;stroke-width:0.499999;stroke-linecap:round;stroke-linejoin:round;stroke-dasharray:0.499999, 1;stroke-opacity:1"
       id="path1787"
       d="m -309.21464,-126.04111 c -0.73499,4.51987 -1.2442,9.0668 -1.50879,13.63731 -0.19163,3.54314 -0.24193,7.09099 -0.26201,10.63848 -0.003,0.43127 -0.003,0.86253 -0.005,1.2938 0,0 4.68469,-2.38655 4.68469,-2.38655 v 0 c 0,-0.42944 -0.003,-0.85887 -0.003,-1.28831 0.005,-3.52916 0.0371,-7.05962 0.22132,-10.58476 0.28591,-4.5605 0.74306,-9.11388 1.60634,-13.60554 0,0 -4.734,2.29557 -4.734,2.29557 z" />
    <path
       style="opacity:1;fill:#006858;fill-opacity:1;stroke:#342f2f;stroke-width:0.499999;stroke-linecap:round;stroke-linejoin:round;stroke-dasharray:0.499999, 1;stroke-opacity:1"
       id="path1789"
       d="m -50.074669,-251.24732 c -0.73499,4.51987 -1.2442,9.0668 -1.50879,13.63731 -0.19163,3.54314 -0.24193,7.09099 -0.26201,10.63848 -0.003,0.43127 -0.003,0.86253 -0.005,1.2938 0,0 4.68469,-2.38655 4.68469,-2.38655 v 0 c 0,-0.42944 -0.003,-0.85887 -0.003,-1.28831 0.005,-3.52916 0.0371,-7.05962 0.22132,-10.58476 0.28591,-4.5605 0.74306,-9.11388 1.60634,-13.60554 0,0 -4.734,2.29557 -4.734,2.29557 z" />
    <path
       style="opacity:1;fill:#006858;fill-opacity:1;stroke:#342f2f;stroke-width:0.499999;stroke-linecap:round;stroke-linejoin:round;stroke-dasharray:0.499999, 1;stroke-opacity:1"
       id="path1802"
       d="m 132.23301,-253.4078 c -0.73499,4.51987 -1.2442,9.0668 -1.50879,13.63731 -0.19163,3.54314 -0.24193,7.09099 -0.26201,10.63848 -0.003,0.43127 -0.003,0.86253 -0.005,1.2938 0,0 4.68469,-2.38655 4.68469,-2.38655 v 0 c 0,-0.42944 -0.003,-0.85887 -0.003,-1.28831 0.005,-3.52916 0.0371,-7.05962 0.22132,-10.58476 0.28591,-4.5605 0.74306,-9.11388 1.60634,-13.60554 0,0 -4.734,2.29557 -4.734,2.29557 z" />
    <path
       style="opacity:1;fill:#006858;fill-opacity:1;stroke:#342f2f;stroke-width:0.499999;stroke-linecap:round;stroke-linejoin:round;stroke-dasharray:0.499999, 1;stroke-opacity:1"
       id="path1804"
       d="m 27.67419,-212.82071 c -0.73499,4.51987 -1.2442,9.0668 -1.50879,13.63731 -0.19163,3.54314 -0.24193,7.09099 -0.26201,10.63848 -0.003,0.43127 -0.003,0.86253 -0.005,1.2938 0,0 4.68469,-2.38655 4.68469,-2.38655 v 0 c 0,-0.42944 -0.003,-0.85887 -0.003,-1.28831 0.005,-3.52916 0.0371,-7.05962 0.22132,-10.58476 0.28591,-4.5605 0.74306,-9.11388 1.60634,-13.60554 0,0 -4.734,2.29557 -4.734,2.29557 z" />
    <path
       style="opacity:1;fill:#006858;fill-opacity:1;stroke:#342f2f;stroke-width:0.499999;stroke-linecap:round;stroke-linejoin:round;stroke-dasharray:0.499999, 1;stroke-opacity:1"
       id="path1806"
       d="m 67.401808,-213.04429 c -0.73499,4.51987 -1.2442,9.0668 -1.50879,13.63731 -0.19163,3.54314 -0.24193,7.09099 -0.26201,10.63848 -0.003,0.43127 -0.003,0.86253 -0.005,1.2938 0,0 4.68469,-2.38655 4.68469,-2.38655 v 0 c 0,-0.42944 -0.003,-0.85887 -0.003,-1.28831 0.005,-3.52916 0.0371,-7.05962 0.22132,-10.58476 0.28591,-4.5605 0.74306,-9.11388 1.60634,-13.60554 0,0 -4.734,2.29557 -4.734,2.29557 z" />
    <path
       style="opacity:1;fill:#006858;fill-opacity:1;stroke:#342f2f;stroke-width:0.499999;stroke-linecap:round;stroke-linejoin:round;stroke-dasharray:0.499999, 1;stroke-opacity:1"
       id="path1808"
       d="m 114.72743,-178.09287 c -0.73499,4.51987 -1.2442,9.0668 -1.50879,13.63731 -0.19163,3.54314 -0.24193,7.09099 -0.26201,10.63848 -0.003,0.43127 -0.003,0.86253 -0.005,1.2938 0,0 4.68469,-2.38655 4.68469,-2.38655 v 0 c 0,-0.42944 -0.003,-0.85887 -0.003,-1.28831 0.005,-3.52916 0.0371,-7.05962 0.22132,-10.58476 0.28591,-4.5605 0.74306,-9.11388 1.60634,-13.60554 0,0 -4.734,2.29557 -4.734,2.29557 z" />
    <path
       style="opacity:1;fill:#006858;fill-opacity:1;stroke:#342f2f;stroke-width:0.499999;stroke-linecap:round;stroke-linejoin:round;stroke-dasharray:0.499999, 1;stroke-opacity:1"
       id="path1810"
       d="m -26.780618,-178.15535 c -0.73499,4.51987 -1.2442,9.0668 -1.50879,13.63731 -0.19163,3.54314 -0.24193,7.09099 -0.26201,10.63848 -0.003,0.43127 -0.003,0.86253 -0.005,1.2938 0,0 4.68469,-2.38655 4.68469,-2.38655 v 0 c 0,-0.42944 -0.003,-0.85887 -0.003,-1.28831 0.005,-3.52916 0.0371,-7.05962 0.22132,-10.58476 0.28591,-4.5605 0.74306,-9.11388 1.60634,-13.60554 0,0 -4.734,2.29557 -4.734,2.29557 z" />
    <path
       style="opacity:1;fill:#006858;fill-opacity:1;stroke:#342f2f;stroke-width:0.499999;stroke-linecap:round;stroke-linejoin:round;stroke-dasharray:0.499999, 1;stroke-opacity:1"
       id="path1812"
       d="m 22.781769,-131.24074 c -0.73499,4.51987 -1.2442,9.0668 -1.50879,13.63731 -0.19163,3.54314 -0.24193,7.09099 -0.26201,10.63848 -0.003,0.43127 -0.003,0.86253 -0.005,1.2938 0,0 4.68469,-2.38655 4.68469,-2.38655 v 0 c 0,-0.42944 -0.003,-0.85887 -0.003,-1.28831 0.005,-3.52916 0.0371,-7.05962 0.22132,-10.58476 0.28591,-4.5605 0.74306,-9.11388 1.60634,-13.60554 0,0 -4.734,2.29557 -4.734,2.29557 z" />
    <path
       style="opacity:1;fill:#006858;fill-opacity:1;stroke:#342f2f;stroke-width:0.499999;stroke-linecap:round;stroke-linejoin:round;stroke-dasharray:0.499999, 1;stroke-opacity:1"
       id="path1814"
       d="m 61.427112,-133.52093 c -0.73499,4.51987 -1.2442,9.0668 -1.50879,13.63731 -0.19163,3.54314 -0.24193,7.09099 -0.26201,10.63848 -0.003,0.43127 -0.003,0.86253 -0.005,1.2938 0,0 4.68469,-2.38655 4.68469,-2.38655 v 0 c 0,-0.42944 -0.003,-0.85887 -0.003,-1.28831 0.005,-3.52916 0.0371,-7.05962 0.22132,-10.58476 0.28591,-4.5605 0.74306,-9.11388 1.60634,-13.60554 0,0 -4.734,2.29557 -4.734,2.29557 z" />
    <path
       style="opacity:1;fill:#006858;fill-opacity:1;stroke:#342f2f;stroke-width:0.499999;stroke-linecap:round;stroke-linejoin:round;stroke-dasharray:0.499999, 1;stroke-opacity:1"
       id="path1824"
       d="m -26.683054,-164.3619 c 1.500301,-0.0691 3.000909,-0.0737 4.501562,-0.0202 2.376701,0.11526 4.750397,0.28098 7.123444,0.45394 1.819593,0.0335 3.634101,0.0988 5.4475332,0.25631 1.2419624,0.0866 2.4861271,0.23793 3.7324678,0.25267 0.9107365,0.0108 1.1686079,-0.0357 2.091015,-0.11644 2.5050989,-0.35307 5.0268838,-0.45669 7.553132,-0.45414 2.2023506,-0.0118 4.4034366,0.0623 6.605231,0.0915 2.368882,-0.0283 4.737786,-0.0148 7.106791,-0.0142 2.268568,0.074 4.528713,-0.0701 6.789168,-0.23579 2.118378,-0.2076 4.23142,0.0894 6.337172,0.28761 2.235928,0.16674 4.477795,0.19502 6.714443,0.35521 3.137775,0.2481 6.256964,0.68236 9.386651,1.01374 2.79576,0.25923 5.607947,0.16578 8.411824,0.21227 3.095091,0.076 6.189274,0.1856 9.284724,0.2461 3.292025,0.033 6.583937,-0.0134 9.87597,-0.0223 3.251731,0.1159 6.48871,-0.14522 9.719185,-0.47651 2.536923,-0.34237 5.083966,-0.55647 7.637648,-0.71755 2.009568,-0.0866 3.978756,-0.44055 5.943055,-0.84455 1.974884,-0.38881 3.987708,-0.41082 5.989688,-0.50658 1.33827,-0.0893 2.677,-0.16709 4.01495,-0.26208 0,0 6.12012,-4.51571 6.12012,-4.51571 v 0 c -1.31903,0.10083 -2.63745,0.20172 -3.96051,0.233 -2.02468,0.15403 -4.06089,0.18466 -6.07453,0.46062 -0.31189,0.0469 -0.62603,0.0806 -0.93565,0.14067 -0.91154,0.17675 -1.80285,0.44595 -2.72381,0.58421 -0.372866,0.056 -0.749255,0.0853 -1.12419,0.12518 -0.398598,0.0424 -0.797584,0.081 -1.196375,0.12144 -2.58582,0.20567 -5.181126,0.30805 -7.741951,0.75943 -3.251716,0.37974 -6.511997,0.71242 -9.792224,0.62995 -3.238661,-0.0106 -6.476913,-0.0513 -9.715429,-0.0826 -3.121323,-0.0207 -6.242616,-0.0551 -9.361889,-0.18005 -2.757294,-0.0881 -5.517401,-0.0947 -8.27214,-0.25899 -3.144401,-0.1927 -6.275086,-0.52904 -9.390181,-1.00213 -2.195179,-0.25215 -4.401624,-0.30342 -6.605974,-0.43852 -2.140077,-0.16918 -4.280212,-0.46211 -6.430677,-0.37867 -2.265563,0.20888 -4.530606,0.41151 -6.809353,0.32847 -2.339809,-0.001 -4.679589,0.0128 -7.018973,-0.0427 -2.22978,-0.005 -4.459459,0.009 -6.6889863,-0.0373 -2.52452,-7.9e-4 -5.0426717,0.0856 -7.5541307,0.36347 -0.6888871,0.0739 -1.2866457,0.15545 -1.97830071,0.16417 -1.24657605,0.0157 -2.49359249,-0.13977 -3.73632969,-0.20707 -1.8013722,-0.15672 -3.6035795,-0.33259 -5.4137925,-0.32443 -2.4163221,-0.0232 -4.8331311,-0.107 -7.2389931,-0.34503 -1.402308,-0.14259 -2.801058,-0.23992 -4.210598,-0.25418 0,0 -6.410787,4.65771 -6.410787,4.65771 z" />
  </g>
</svg>
