<?xml version="1.0" encoding="UTF-8" standalone="no"?>
<svg
   xmlns:dc="http://purl.org/dc/elements/1.1/"
   xmlns:cc="http://creativecommons.org/ns#"
   xmlns:rdf="http://www.w3.org/1999/02/22-rdf-syntax-ns#"
   xmlns:svg="http://www.w3.org/2000/svg"
   xmlns="http://www.w3.org/2000/svg"
   xmlns:sodipodi="http://sodipodi.sourceforge.net/DTD/sodipodi-0.dtd"
   xmlns:inkscape="http://www.inkscape.org/namespaces/inkscape"
   width="86.60215mm"
   height="30.28409mm"
   viewBox="0 0 86.60215 30.28409"
   version="1.1"
   id="svg11567"
   inkscape:version="1.0.2 (394de47547, 2021-03-26)"
   sodipodi:docname="model_model_selection.svg">
  <defs
     id="defs11561">
    <marker
       style="overflow:visible"
       id="marker12974"
       refX="0"
       refY="0"
       orient="auto"
       inkscape:stockid="Arrow2Lend"
       inkscape:isstock="true">
      <path
         transform="matrix(-1.1,0,0,-1.1,-1.1,0)"
         d="M 8.7185878,4.0337352 -2.2072895,0.01601326 8.7185884,-4.0017078 c -1.7454984,2.3720609 -1.7354408,5.6174519 -6e-7,8.035443 z"
         style="fill:#000000;fill-opacity:1;fill-rule:evenodd;stroke:#000000;stroke-width:0.625;stroke-linejoin:round;stroke-opacity:1"
         id="path12972" />
    </marker>
    <marker
       style="overflow:visible"
       id="marker12895"
       refX="0"
       refY="0"
       orient="auto"
       inkscape:stockid="Arrow2Lend"
       inkscape:isstock="true"
       inkscape:collect="always">
      <path
         transform="matrix(-1.1,0,0,-1.1,-1.1,0)"
         d="M 8.7185878,4.0337352 -2.2072895,0.01601326 8.7185884,-4.0017078 c -1.7454984,2.3720609 -1.7354408,5.6174519 -6e-7,8.035443 z"
         style="fill:#000000;fill-opacity:1;fill-rule:evenodd;stroke:#000000;stroke-width:0.625;stroke-linejoin:round;stroke-opacity:1"
         id="path12893" />
    </marker>
    <marker
       style="overflow:visible"
       id="Arrow2Lend"
       refX="0"
       refY="0"
       orient="auto"
       inkscape:stockid="Arrow2Lend"
       inkscape:isstock="true"
       inkscape:collect="always">
      <path
         transform="matrix(-1.1,0,0,-1.1,-1.1,0)"
         d="M 8.7185878,4.0337352 -2.2072895,0.01601326 8.7185884,-4.0017078 c -1.7454984,2.3720609 -1.7354408,5.6174519 -6e-7,8.035443 z"
         style="fill:#000000;fill-opacity:1;fill-rule:evenodd;stroke:#000000;stroke-width:0.625;stroke-linejoin:round;stroke-opacity:1"
         id="path11134" />
    </marker>
    <marker
       style="overflow:visible"
       id="Arrow1Lend"
       refX="0"
       refY="0"
       orient="auto"
       inkscape:stockid="Arrow1Lend"
       inkscape:isstock="true">
      <path
         transform="matrix(-0.8,0,0,-0.8,-10,0)"
         style="fill:#000000;fill-opacity:1;fill-rule:evenodd;stroke:#000000;stroke-width:1pt;stroke-opacity:1"
         d="M 0,0 5,-5 -12.5,0 5,5 Z"
         id="path11116" />
    </marker>
    <inkscape:path-effect
       effect="simplify"
       id="path-effect12763"
       is_visible="true"
       lpeversion="1"
       steps="1"
       threshold="0.00243902"
       smooth_angles="360"
       helper_size="0"
       simplify_individual_paths="false"
       simplify_just_coalesce="false" />
    <inkscape:path-effect
       effect="spiro"
       id="path-effect12759"
       is_visible="true"
       lpeversion="1" />
    <inkscape:path-effect
       effect="simplify"
       id="path-effect12757"
       is_visible="true"
       lpeversion="1"
       steps="1"
       threshold="0.00243902"
       smooth_angles="360"
       helper_size="0"
       simplify_individual_paths="false"
       simplify_just_coalesce="false" />
    <inkscape:path-effect
       effect="spiro"
       id="path-effect12753"
       is_visible="true"
       lpeversion="1" />
    <inkscape:path-effect
       effect="simplify"
       id="path-effect12751"
       is_visible="true"
       lpeversion="1"
       steps="1"
       threshold="0.00243902"
       smooth_angles="360"
       helper_size="0"
       simplify_individual_paths="false"
       simplify_just_coalesce="false" />
    <inkscape:path-effect
       effect="simplify"
       id="path-effect12745"
       is_visible="true"
       lpeversion="1"
       steps="1"
       threshold="0.00243902"
       smooth_angles="360"
       helper_size="0"
       simplify_individual_paths="false"
       simplify_just_coalesce="false" />
    <inkscape:path-effect
       effect="spiro"
       id="path-effect12741"
       is_visible="true"
       lpeversion="1" />
    <inkscape:path-effect
       effect="simplify"
       id="path-effect12739"
       is_visible="true"
       lpeversion="1"
       steps="1"
       threshold="0.00243902"
       smooth_angles="360"
       helper_size="0"
       simplify_individual_paths="false"
       simplify_just_coalesce="false" />
    <inkscape:path-effect
       effect="simplify"
       id="path-effect12733"
       is_visible="true"
       lpeversion="1"
       steps="1"
       threshold="0.00243902"
       smooth_angles="360"
       helper_size="0"
       simplify_individual_paths="false"
       simplify_just_coalesce="false" />
    <inkscape:path-effect
       effect="spiro"
       id="path-effect12729"
       is_visible="true"
       lpeversion="1" />
    <inkscape:path-effect
       effect="simplify"
       id="path-effect12727"
       is_visible="true"
       lpeversion="1"
       steps="1"
       threshold="0.00243902"
       smooth_angles="360"
       helper_size="0"
       simplify_individual_paths="false"
       simplify_just_coalesce="false" />
    <inkscape:path-effect
       effect="spiro"
       id="path-effect12723"
       is_visible="true"
       lpeversion="1" />
    <inkscape:path-effect
       effect="simplify"
       id="path-effect12721"
       is_visible="true"
       lpeversion="1"
       steps="1"
       threshold="0.00243902"
       smooth_angles="360"
       helper_size="0"
       simplify_individual_paths="false"
       simplify_just_coalesce="false" />
  </defs>
  <sodipodi:namedview
     id="base"
     pagecolor="#ffffff"
     bordercolor="#666666"
     borderopacity="1.0"
     inkscape:pageopacity="0.0"
     inkscape:pageshadow="2"
     inkscape:zoom="2.8"
     inkscape:cx="207.22294"
     inkscape:cy="79.529776"
     inkscape:document-units="mm"
     inkscape:current-layer="layer1"
     inkscape:document-rotation="0"
     showgrid="false"
     inkscape:window-width="1864"
     inkscape:window-height="1043"
     inkscape:window-x="56"
     inkscape:window-y="0"
     inkscape:window-maximized="1"
     showguides="true"
     inkscape:guide-bbox="true" />
  <metadata
     id="metadata11564">
    <rdf:RDF>
      <cc:Work
         rdf:about="">
        <dc:format>image/svg+xml</dc:format>
        <dc:type
           rdf:resource="http://purl.org/dc/dcmitype/StillImage" />
        <dc:title />
      </cc:Work>
    </rdf:RDF>
  </metadata>
  <g
     inkscape:label="Layer 1"
     inkscape:groupmode="layer"
     id="layer1"
     transform="translate(30.697089,-241.80317)">
    <g
       id="g12841"
       transform="translate(4.5565956e-6,-7.183492)">
      <g
         id="g10685"
         transform="translate(-124.72164,1089.3484)"
         style="stroke-linecap:butt;stroke-linejoin:round">
        <g
           id="g10582"
           transform="translate(2.1661988,10.649698)">
          <path
             style="fill:none;stroke:#000000;stroke-width:0.264583px;stroke-linecap:butt;stroke-linejoin:miter;stroke-opacity:1"
             d="m 156.38143,-831.38808 6.47245,-3.14108 7.19927,0.09 6.32616,5.52786 -6.55831,-0.0325 -7.04195,0.14069 z"
             id="path10564" />
          <path
             style="fill:none;stroke:#000000;stroke-width:0.264583px;stroke-linecap:butt;stroke-linejoin:miter;stroke-opacity:1"
             d="m 155.96625,-825.63615 6.8128,-3.16696 7.2741,-5.63605"
             id="path10566" />
          <path
             style="fill:none;stroke:#000000;stroke-width:0.264583px;stroke-linecap:butt;stroke-linejoin:miter;stroke-opacity:1"
             d="m 162.85388,-834.52916 7.34129,5.48601"
             id="path10568" />
          <path
             style="fill:none;stroke:#000000;stroke-width:0.264583px;stroke-linecap:butt;stroke-linejoin:miter;stroke-opacity:1"
             d="m 155.96625,-825.63615 6.99438,2.55192 7.01896,-0.0952 6.39972,-5.73182"
             id="path10570" />
          <path
             style="fill:none;stroke:#000000;stroke-width:0.264583px;stroke-linecap:butt;stroke-linejoin:miter;stroke-opacity:1"
             d="m 170.19517,-829.04315 -7.23454,5.95892"
             id="path10572" />
          <path
             style="fill:none;stroke:#000000;stroke-width:0.264583px;stroke-linecap:butt;stroke-linejoin:miter;stroke-opacity:1"
             d="m 162.77905,-828.80311 7.20054,5.62368"
             id="path10574" />
        </g>
        <path
           id="path10291-6-4"
           style="opacity:1;fill:#ffffff;fill-opacity:1;stroke:#060606;stroke-width:0.4;stroke-linecap:round;stroke-linejoin:round;stroke-miterlimit:4;stroke-dasharray:none;stroke-opacity:0.972549"
           d="m 167.03719,-823.83624 a 1.7427738,1.7427738 0 0 1 -1.74277,1.74277 1.7427738,1.7427738 0 0 1 -1.74278,-1.74277 1.7427738,1.7427738 0 0 1 1.74278,-1.74278 1.7427738,1.7427738 0 0 1 1.74277,1.74278 z" />
        <path
           id="path10291-3-9"
           style="opacity:1;fill:#ffffff;fill-opacity:1;stroke:#060606;stroke-width:0.4;stroke-linecap:round;stroke-linejoin:round;stroke-miterlimit:4;stroke-dasharray:none;stroke-opacity:0.972549"
           d="m 167.03719,-818.22357 a 1.7427738,1.7427738 0 0 1 -1.74277,1.74277 1.7427738,1.7427738 0 0 1 -1.74278,-1.74277 1.7427738,1.7427738 0 0 1 1.74278,-1.74278 1.7427738,1.7427738 0 0 1 1.74277,1.74278 z" />
        <path
           id="path10291-8-3"
           style="opacity:1;fill:#ffffff;fill-opacity:1;stroke:#060606;stroke-width:0.4;stroke-linecap:round;stroke-linejoin:round;stroke-miterlimit:4;stroke-dasharray:none;stroke-opacity:0.972549"
           d="m 167.03719,-812.6109 a 1.7427738,1.7427738 0 0 1 -1.74277,1.74277 1.7427738,1.7427738 0 0 1 -1.74278,-1.74277 1.7427738,1.7427738 0 0 1 1.74278,-1.74277 1.7427738,1.7427738 0 0 1 1.74277,1.74277 z" />
        <path
           id="circle10375"
           style="opacity:1;fill:#ffffff;fill-opacity:1;stroke:#060606;stroke-width:0.4;stroke-linecap:round;stroke-linejoin:round;stroke-miterlimit:4;stroke-dasharray:none;stroke-opacity:0.972549"
           d="m 173.99895,-823.83624 a 1.7427738,1.7427738 0 0 1 -1.74277,1.74277 1.7427738,1.7427738 0 0 1 -1.74277,-1.74277 1.7427738,1.7427738 0 0 1 1.74277,-1.74278 1.7427738,1.7427738 0 0 1 1.74277,1.74278 z" />
        <path
           id="circle10377"
           style="opacity:1;fill:#ffffff;fill-opacity:1;stroke:#060606;stroke-width:0.4;stroke-linecap:round;stroke-linejoin:round;stroke-miterlimit:4;stroke-dasharray:none;stroke-opacity:0.972549"
           d="m 173.99895,-818.22357 a 1.7427738,1.7427738 0 0 1 -1.74277,1.74277 1.7427738,1.7427738 0 0 1 -1.74277,-1.74277 1.7427738,1.7427738 0 0 1 1.74277,-1.74278 1.7427738,1.7427738 0 0 1 1.74277,1.74278 z" />
        <path
           id="circle10379"
           style="opacity:1;fill:#ffffff;fill-opacity:1;stroke:#060606;stroke-width:0.4;stroke-linecap:round;stroke-linejoin:round;stroke-miterlimit:4;stroke-dasharray:none;stroke-opacity:0.972549"
           d="m 173.99895,-812.6109 a 1.7427738,1.7427738 0 0 1 -1.74277,1.74277 1.7427738,1.7427738 0 0 1 -1.74277,-1.74277 1.7427738,1.7427738 0 0 1 1.74277,-1.74277 1.7427738,1.7427738 0 0 1 1.74277,1.74277 z" />
        <path
           id="circle10381"
           style="opacity:1;fill:#ffffff;fill-opacity:1;stroke:#b71c1c;stroke-width:0.4;stroke-linecap:round;stroke-linejoin:round;stroke-miterlimit:4;stroke-dasharray:none;stroke-opacity:1"
           d="m 180.4267,-818.22357 a 1.7427738,1.7427738 0 0 1 -1.74277,1.74277 1.7427738,1.7427738 0 0 1 -1.74277,-1.74277 1.7427738,1.7427738 0 0 1 1.74277,-1.74278 1.7427738,1.7427738 0 0 1 1.74277,1.74278 z" />
        <path
           id="circle10383"
           style="opacity:1;fill:#ffffff;fill-opacity:1;stroke:#060606;stroke-width:0.4;stroke-linecap:round;stroke-linejoin:round;stroke-miterlimit:4;stroke-dasharray:none;stroke-opacity:0.972549"
           d="m 160.75489,-820.77563 a 1.7427738,1.7427738 0 0 1 -1.74277,1.74277 1.7427738,1.7427738 0 0 1 -1.74278,-1.74277 1.7427738,1.7427738 0 0 1 1.74278,-1.74278 1.7427738,1.7427738 0 0 1 1.74277,1.74278 z" />
        <path
           id="circle10385"
           style="opacity:1;fill:#ffffff;fill-opacity:1;stroke:#060606;stroke-width:0.4;stroke-linecap:round;stroke-linejoin:round;stroke-miterlimit:4;stroke-dasharray:none;stroke-opacity:0.972549"
           d="m 160.75489,-815.16296 a 1.7427738,1.7427738 0 0 1 -1.74277,1.74277 1.7427738,1.7427738 0 0 1 -1.74278,-1.74277 1.7427738,1.7427738 0 0 1 1.74278,-1.74278 1.7427738,1.7427738 0 0 1 1.74277,1.74278 z" />
        <g
           id="surface1-5"
           transform="matrix(0.29527382,0,0,0.29527382,113.84959,-860.21984)">
          <g
             style="fill:#000000;fill-opacity:1"
             id="g10405">
            <g
               id="use10403"
               transform="translate(148.71201,134.765)">
              <path
                 style="stroke:none"
                 d="m 4.84375,-3.796875 c 0.046875,-0.140625 0.046875,-0.15625 0.046875,-0.234375 0,-0.171875 -0.140625,-0.265625 -0.296875,-0.265625 -0.09375,0 -0.25,0.0625 -0.34375,0.203125 -0.015625,0.0625 -0.109375,0.359375 -0.140625,0.546875 -0.078125,0.25 -0.140625,0.53125 -0.203125,0.796875 l -0.453125,1.796875 c -0.03125,0.140625 -0.46875,0.84375 -1.125,0.84375 -0.5,0 -0.609375,-0.4375 -0.609375,-0.8125 C 1.71875,-1.375 1.890625,-2 2.21875,-2.875 2.375,-3.28125 2.421875,-3.390625 2.421875,-3.59375 c 0,-0.4375 -0.3125,-0.8125 -0.8125,-0.8125 -0.953125,0 -1.3125,1.453125 -1.3125,1.53125 0,0.109375 0.09375,0.109375 0.109375,0.109375 0.109375,0 0.109375,-0.03125 0.15625,-0.1875 0.28125,-0.9375 0.671875,-1.234375 1.015625,-1.234375 0.078125,0 0.25,0 0.25,0.3125 0,0.25 -0.109375,0.515625 -0.171875,0.703125 -0.40625,1.0625 -0.578125,1.625 -0.578125,2.09375 0,0.890625 0.625,1.1875 1.21875,1.1875 0.390625,0 0.71875,-0.171875 1,-0.453125 -0.125,0.515625 -0.25,1.015625 -0.640625,1.546875 -0.265625,0.328125 -0.640625,0.625 -1.09375,0.625 -0.140625,0 -0.59375,-0.03125 -0.765625,-0.421875 0.15625,0 0.296875,0 0.421875,-0.125 C 1.328125,1.203125 1.421875,1.0625 1.421875,0.875 1.421875,0.5625 1.15625,0.53125 1.0625,0.53125 0.828125,0.53125 0.5,0.6875 0.5,1.171875 c 0,0.5 0.4375,0.875 1.0625,0.875 1.015625,0 2.046875,-0.90625 2.328125,-2.03125 z m 0,0"
                 id="path10930" />
            </g>
          </g>
          <g
             style="fill:#000000;fill-opacity:1"
             id="g10409">
            <g
               id="use10407"
               transform="translate(153.597,136.259)">
              <path
                 style="stroke:none"
                 d="m 2.328125,-4.4375 c 0,-0.1875 0,-0.1875 -0.203125,-0.1875 -0.453125,0.4375 -1.078125,0.4375 -1.359375,0.4375 v 0.25 c 0.15625,0 0.625,0 1,-0.1875 v 3.546875 c 0,0.234375 0,0.328125 -0.6875,0.328125 H 0.8125 V 0 c 0.125,0 0.984375,-0.03125 1.234375,-0.03125 0.21875,0 1.09375,0.03125 1.25,0.03125 V -0.25 H 3.03125 c -0.703125,0 -0.703125,-0.09375 -0.703125,-0.328125 z m 0,0"
                 id="path10934" />
            </g>
          </g>
        </g>
        <g
           id="surface1-54"
           transform="matrix(0.29527382,0,0,0.29527382,113.81729,-854.60717)">
          <g
             style="fill:#000000;fill-opacity:1"
             id="g10450">
            <g
               id="use10448"
               transform="translate(148.71201,134.765)">
              <path
                 style="stroke:none"
                 d="m 4.84375,-3.796875 c 0.046875,-0.140625 0.046875,-0.15625 0.046875,-0.234375 0,-0.171875 -0.140625,-0.265625 -0.296875,-0.265625 -0.09375,0 -0.25,0.0625 -0.34375,0.203125 -0.015625,0.0625 -0.109375,0.359375 -0.140625,0.546875 -0.078125,0.25 -0.140625,0.53125 -0.203125,0.796875 l -0.453125,1.796875 c -0.03125,0.140625 -0.46875,0.84375 -1.125,0.84375 -0.5,0 -0.609375,-0.4375 -0.609375,-0.8125 C 1.71875,-1.375 1.890625,-2 2.21875,-2.875 2.375,-3.28125 2.421875,-3.390625 2.421875,-3.59375 c 0,-0.4375 -0.3125,-0.8125 -0.8125,-0.8125 -0.953125,0 -1.3125,1.453125 -1.3125,1.53125 0,0.109375 0.09375,0.109375 0.109375,0.109375 0.109375,0 0.109375,-0.03125 0.15625,-0.1875 0.28125,-0.9375 0.671875,-1.234375 1.015625,-1.234375 0.078125,0 0.25,0 0.25,0.3125 0,0.25 -0.109375,0.515625 -0.171875,0.703125 -0.40625,1.0625 -0.578125,1.625 -0.578125,2.09375 0,0.890625 0.625,1.1875 1.21875,1.1875 0.390625,0 0.71875,-0.171875 1,-0.453125 -0.125,0.515625 -0.25,1.015625 -0.640625,1.546875 -0.265625,0.328125 -0.640625,0.625 -1.09375,0.625 -0.140625,0 -0.59375,-0.03125 -0.765625,-0.421875 0.15625,0 0.296875,0 0.421875,-0.125 C 1.328125,1.203125 1.421875,1.0625 1.421875,0.875 1.421875,0.5625 1.15625,0.53125 1.0625,0.53125 0.828125,0.53125 0.5,0.6875 0.5,1.171875 c 0,0.5 0.4375,0.875 1.0625,0.875 1.015625,0 2.046875,-0.90625 2.328125,-2.03125 z m 0,0"
                 id="path10938" />
            </g>
          </g>
          <g
             style="fill:#000000;fill-opacity:1"
             id="g10454">
            <g
               id="use10452"
               transform="translate(153.597,136.259)">
              <path
                 style="stroke:none"
                 d="M 3.515625,-1.265625 H 3.28125 c -0.015625,0.15625 -0.09375,0.5625 -0.1875,0.625 C 3.046875,-0.59375 2.515625,-0.59375 2.40625,-0.59375 H 1.125 c 0.734375,-0.640625 0.984375,-0.84375 1.390625,-1.171875 0.515625,-0.40625 1,-0.84375 1,-1.5 0,-0.84375 -0.734375,-1.359375 -1.625,-1.359375 -0.859375,0 -1.453125,0.609375 -1.453125,1.25 0,0.34375 0.296875,0.390625 0.375,0.390625 0.15625,0 0.359375,-0.125 0.359375,-0.375 0,-0.125 -0.046875,-0.375 -0.40625,-0.375 C 0.984375,-4.21875 1.453125,-4.375 1.78125,-4.375 c 0.703125,0 1.0625,0.546875 1.0625,1.109375 0,0.609375 -0.4375,1.078125 -0.65625,1.328125 L 0.515625,-0.265625 C 0.4375,-0.203125 0.4375,-0.1875 0.4375,0 h 2.875 z m 0,0"
                 id="path10942" />
            </g>
          </g>
        </g>
        <g
           id="use10544"
           style="fill:#000000;fill-opacity:1"
           transform="matrix(0.29402286,0,0,0.29402286,177.95577,-817.20594)">
          <path
             style="stroke:none"
             d="m 4.53125,-4.984375 c 0,-0.65625 -0.171875,-2.046875 -1.1875,-2.046875 -1.390625,0 -2.921875,2.8125 -2.921875,5.09375 0,0.9375 0.28125,2.046875 1.1875,2.046875 1.40625,0 2.921875,-2.859375 2.921875,-5.09375 z M 1.46875,-3.625 C 1.640625,-4.25 1.84375,-5.046875 2.25,-5.765625 2.515625,-6.25 2.875,-6.8125 3.328125,-6.8125 c 0.484375,0 0.546875,0.640625 0.546875,1.203125 0,0.5 -0.078125,1 -0.3125,1.984375 z m 2,0.328125 C 3.359375,-2.84375 3.15625,-2 2.765625,-1.28125 c -0.34375,0.6875 -0.71875,1.171875 -1.15625,1.171875 -0.328125,0 -0.53125,-0.296875 -0.53125,-1.21875 0,-0.421875 0.0625,-1 0.3125,-1.96875 z m 0,0"
             id="path10946" />
        </g>
      </g>
    </g>
    <g
       id="g12800"
       transform="translate(4.2333325,-6.095317)">
      <path
         style="fill:none;stroke:#000000;stroke-width:0.3;stroke-linecap:round;stroke-linejoin:miter;stroke-miterlimit:4;stroke-dasharray:none;stroke-opacity:1"
         d="m -34.780421,262.04072 v 15.99186 h 16.980963"
         id="path12278"
         sodipodi:nodetypes="ccc" />
      <circle
         style="fill:#07392e;fill-opacity:1;stroke-width:0.033344;stroke-linecap:round;stroke-linejoin:round;stroke-opacity:0.87451"
         id="path12280-2"
         cx="-26.846216"
         cy="266.40045"
         r="0.31952083" />
      <circle
         style="fill:#07392e;fill-opacity:1;stroke-width:0.033344;stroke-linecap:round;stroke-linejoin:round;stroke-opacity:0.87451"
         id="path12280-0"
         cx="-21.969727"
         cy="265.71603"
         r="0.31952083" />
      <circle
         style="fill:#07392e;fill-opacity:1;stroke-width:0.033344;stroke-linecap:round;stroke-linejoin:round;stroke-opacity:0.87451"
         id="path12280-6"
         cx="-24.707405"
         cy="269.56589"
         r="0.31952083" />
      <circle
         style="fill:#07392e;fill-opacity:1;stroke-width:0.033344;stroke-linecap:round;stroke-linejoin:round;stroke-opacity:0.87451"
         id="path12280-5"
         cx="-29.241682"
         cy="272.47467"
         r="0.31952083" />
      <circle
         style="fill:#07392e;fill-opacity:1;stroke-width:0.033344;stroke-linecap:round;stroke-linejoin:round;stroke-opacity:0.87451"
         id="path12280-9"
         cx="-31.979357"
         cy="272.30356"
         r="0.31952083" />
      <circle
         style="fill:#07392e;fill-opacity:1;stroke-width:0.033344;stroke-linecap:round;stroke-linejoin:round;stroke-opacity:0.87451"
         id="path12280-56"
         cx="-29.840544"
         cy="269.48035"
         r="0.31952083" />
      <circle
         style="fill:#07392e;fill-opacity:1;stroke-width:0.033344;stroke-linecap:round;stroke-linejoin:round;stroke-opacity:0.87451"
         id="path12280-1"
         cx="-27.70174"
         cy="268.79593"
         r="0.31952083" />
      <circle
         style="fill:#07392e;fill-opacity:1;stroke-width:0.033344;stroke-linecap:round;stroke-linejoin:round;stroke-opacity:0.87451"
         id="path12280-14"
         cx="-24.707405"
         cy="266.48602"
         r="0.31952083" />
      <circle
         style="fill:#07392e;fill-opacity:1;stroke-width:0.033344;stroke-linecap:round;stroke-linejoin:round;stroke-opacity:0.87451"
         id="path12280-3"
         cx="-20.600891"
         cy="265.71603"
         r="0.31952083" />
      <circle
         style="fill:#07392e;fill-opacity:1;stroke-width:0.033344;stroke-linecap:round;stroke-linejoin:round;stroke-opacity:0.87451"
         id="path12280-7"
         cx="-23.851881"
         cy="268.28262"
         r="0.31952083" />
      <circle
         style="fill:#07392e;fill-opacity:1;stroke-width:0.033344;stroke-linecap:round;stroke-linejoin:round;stroke-opacity:0.87451"
         id="path12280-27"
         cx="-27.70174"
         cy="271.02029"
         r="0.31952083" />
      <circle
         style="fill:#07392e;fill-opacity:1;stroke-width:0.033344;stroke-linecap:round;stroke-linejoin:round;stroke-opacity:0.87451"
         id="path12280-33"
         cx="-31.80825"
         cy="273.15909"
         r="0.31952083" />
      <circle
         style="fill:#07392e;fill-opacity:1;stroke-width:0.033344;stroke-linecap:round;stroke-linejoin:round;stroke-opacity:0.87451"
         id="path12280-6-9"
         cx="-22.166687"
         cy="266.80679"
         r="0.31952083" />
      <circle
         style="fill:#07392e;fill-opacity:1;stroke-width:0.033344;stroke-linecap:round;stroke-linejoin:round;stroke-opacity:0.87451"
         id="path12280-6-2"
         cx="-19.946077"
         cy="264.68069"
         r="0.31952083" />
      <circle
         style="fill:#07392e;fill-opacity:1;stroke-width:0.033344;stroke-linecap:round;stroke-linejoin:round;stroke-opacity:0.87451"
         id="path12280-6-4"
         cx="-24.434546"
         cy="266.90131"
         r="0.31952083" />
      <circle
         style="fill:#07392e;fill-opacity:1;stroke-width:0.033344;stroke-linecap:round;stroke-linejoin:round;stroke-opacity:0.87451"
         id="path12280-6-44"
         cx="-26.418919"
         cy="268.64944"
         r="0.31952083" />
      <circle
         style="fill:#07392e;fill-opacity:1;stroke-width:0.033344;stroke-linecap:round;stroke-linejoin:round;stroke-opacity:0.87451"
         id="path12280-6-99"
         cx="-29.064753"
         cy="269.83063"
         r="0.31952083" />
      <circle
         style="fill:#07392e;fill-opacity:1;stroke-width:0.033344;stroke-linecap:round;stroke-linejoin:round;stroke-opacity:0.87451"
         id="path12280-6-3"
         cx="-30.387669"
         cy="270.16135"
         r="0.31952083" />
      <circle
         style="fill:#07392e;fill-opacity:1;stroke-width:0.033344;stroke-linecap:round;stroke-linejoin:round;stroke-opacity:0.87451"
         id="path12280-6-8"
         cx="-31.994068"
         cy="272.57095"
         r="0.31952083" />
      <circle
         style="fill:#07392e;fill-opacity:1;stroke-width:0.033344;stroke-linecap:round;stroke-linejoin:round;stroke-opacity:0.87451"
         id="path12280-6-32"
         cx="-30.104187"
         cy="271.72049"
         r="0.31952083" />
      <circle
         style="fill:#07392e;fill-opacity:1;stroke-width:0.033344;stroke-linecap:round;stroke-linejoin:round;stroke-opacity:0.87451"
         id="path12280-6-95"
         cx="-27.269365"
         cy="269.64163"
         r="0.31952083" />
      <circle
         style="fill:#07392e;fill-opacity:1;stroke-width:0.033344;stroke-linecap:round;stroke-linejoin:round;stroke-opacity:0.87451"
         id="path12280-6-43"
         cx="-23.962074"
         cy="265.29489"
         r="0.31952083" />
      <circle
         style="fill:#07392e;fill-opacity:1;stroke-width:0.033344;stroke-linecap:round;stroke-linejoin:round;stroke-opacity:0.87451"
         id="path12280-6-94"
         cx="-21.032759"
         cy="264.68069"
         r="0.31952083" />
      <path
         style="fill:#07392e;fill-opacity:1;stroke:#b71c1c;stroke-width:0.4;stroke-linecap:round;stroke-linejoin:miter;stroke-miterlimit:4;stroke-dasharray:none;stroke-opacity:1"
         d="m -34.662116,273.7568 16.573997,-10.77242"
         id="path12475" />
    </g>
    <path
       style="fill:none;stroke:#000000;stroke-width:0.3;stroke-linecap:round;stroke-linejoin:miter;stroke-miterlimit:4;stroke-dasharray:none;stroke-opacity:1"
       d="m 0.6027826,255.9454 v 15.99186 H 17.954303"
       id="path12278-2"
       sodipodi:nodetypes="ccc" />
    <circle
       id="path12769"
       style="fill:#07392e;stroke:#000000;stroke-width:0.264583"
       cx="8.0843868"
       cy="262.44818"
       r="0.020025169" />
    <path
       style="fill:#07392e;fill-opacity:1;stroke:none;stroke-width:0.264583px;stroke-linecap:butt;stroke-linejoin:miter;stroke-opacity:1;opacity:0.25925252"
       d="m 0.6518825,263.39376 c 0,0 0.5453139,-4.70038 2.8495876,-2.6348 2.304274,2.06555 5.1179894,8.30016 7.4778089,7.12705 2.359818,-1.17313 7.368411,-5.98006 7.368411,-5.98006 l -0.0017,-4.49137 c 0,0 -1.79038,6.84927 -4.392318,8.03249 -2.601938,1.18324 -4.2816975,0.85554 -6.0781775,-1.28105 -1.7964794,-2.13659 -2.6589829,-3.55955 -4.8854691,-4.37475 -2.2264861,-0.8152 -2.3381429,3.60249 -2.3381429,3.60249 z"
       id="path12771"
       sodipodi:nodetypes="cssccssscc" />
    <path
       style="fill:none;stroke:#b71c1c;stroke-width:0.4;stroke-linecap:butt;stroke-linejoin:miter;stroke-miterlimit:4;stroke-dasharray:none;stroke-opacity:1"
       d="m 0.6518825,263.39376 c 0,0 0.4335056,-3.46234 1.6644601,-3.43655 0.962247,0.025 3.3071434,1.85797 5.2137306,4.66814 1.9065873,2.81017 4.0077738,2.75749 6.4505828,1.00073 2.287249,-1.64488 4.32251,-5.38091 4.32251,-5.38091"
       id="path12773"
       sodipodi:nodetypes="ccssc" />
    <path
       style="fill:none;stroke:#000000;stroke-width:0.4;stroke-linecap:butt;stroke-linejoin:miter;stroke-miterlimit:4;stroke-dasharray:none;stroke-opacity:1;marker-end:url(#Arrow2Lend)"
       d="m 11.432216,241.99384 -32.973991,10.44223"
       id="path12843"
       sodipodi:nodetypes="cc" />
    <path
       style="fill:none;stroke:#000000;stroke-width:0.4;stroke-linecap:butt;stroke-linejoin:miter;stroke-miterlimit:4;stroke-dasharray:none;stroke-opacity:1;marker-end:url(#marker12895)"
       d="m 11.432216,241.99384 31.894085,10.44223"
       id="path12891"
       sodipodi:nodetypes="cc" />
    <path
       style="fill:none;stroke:#000000;stroke-width:0.4;stroke-linecap:butt;stroke-linejoin:miter;stroke-miterlimit:4;stroke-dasharray:none;stroke-opacity:1;marker-end:url(#marker12974)"
       d="m 11.432216,241.99384 -1.189997,10.44223"
       id="path12970"
       sodipodi:nodetypes="cc" />
    <circle
       style="fill:#07392e;fill-opacity:1;stroke-width:0.033344;stroke-linecap:round;stroke-linejoin:round;stroke-opacity:0.87451"
       id="path12280-6-2-8"
       cx="0.80730665"
       cy="262.98428"
       r="0.31952083" />
    <circle
       style="fill:#07392e;fill-opacity:1;stroke-width:0.033344;stroke-linecap:round;stroke-linejoin:round;stroke-opacity:0.87451"
       id="path12280-6-2-4"
       cx="2.1436546"
       cy="259.81046"
       r="0.31952083" />
    <circle
       style="fill:#07392e;fill-opacity:1;stroke-width:0.033344;stroke-linecap:round;stroke-linejoin:round;stroke-opacity:0.87451"
       id="path12280-6-2-5"
       cx="14.137375"
       cy="265.38971"
       r="0.31952083" />
    <circle
       style="fill:#07392e;fill-opacity:1;stroke-width:0.033344;stroke-linecap:round;stroke-linejoin:round;stroke-opacity:0.87451"
       id="path12280-6-2-0"
       cx="4.0479498"
       cy="260.14453"
       r="0.31952083" />
    <circle
       style="fill:#07392e;fill-opacity:1;stroke-width:0.033344;stroke-linecap:round;stroke-linejoin:round;stroke-opacity:0.87451"
       id="path12280-6-2-3"
       cx="4.3152199"
       cy="261.4809"
       r="0.31952083" />
    <circle
       style="fill:#07392e;fill-opacity:1;stroke-width:0.033344;stroke-linecap:round;stroke-linejoin:round;stroke-opacity:0.87451"
       id="path12280-6-2-6"
       cx="15.841218"
       cy="263.48541"
       r="0.31952083" />
    <circle
       style="fill:#07392e;fill-opacity:1;stroke-width:0.033344;stroke-linecap:round;stroke-linejoin:round;stroke-opacity:0.87451"
       id="path12280-6-2-1"
       cx="5.7852015"
       cy="263.35178"
       r="0.31952083" />
    <circle
       style="fill:#07392e;fill-opacity:1;stroke-width:0.033344;stroke-linecap:round;stroke-linejoin:round;stroke-opacity:0.87451"
       id="path12280-6-2-06"
       cx="6.9545054"
       cy="263.0845"
       r="0.31952083" />
    <circle
       style="fill:#07392e;fill-opacity:1;stroke-width:0.033344;stroke-linecap:round;stroke-linejoin:round;stroke-opacity:0.87451"
       id="path12280-6-2-32"
       cx="17.945965"
       cy="259.04205"
       r="0.31952083" />
    <circle
       style="fill:#07392e;fill-opacity:1;stroke-width:0.033344;stroke-linecap:round;stroke-linejoin:round;stroke-opacity:0.87451"
       id="path12280-6-2-061"
       cx="17.545061"
       cy="262.38293"
       r="0.31952083" />
  </g>
</svg>
