<?xml version="1.0" encoding="utf-8" standalone="no"?>
<!DOCTYPE svg PUBLIC "-//W3C//DTD SVG 1.1//EN"
  "http://www.w3.org/Graphics/SVG/1.1/DTD/svg11.dtd">
<svg height="108pt" version="1.1" viewBox="0 0 108 108" width="108pt" xmlns="http://www.w3.org/2000/svg" xmlns:xlink="http://www.w3.org/1999/xlink">
 <metadata>
  <rdf:RDF xmlns:cc="http://creativecommons.org/ns#" xmlns:dc="http://purl.org/dc/elements/1.1/" xmlns:rdf="http://www.w3.org/1999/02/22-rdf-syntax-ns#">
   <cc:Work>
    <dc:type rdf:resource="http://purl.org/dc/dcmitype/StillImage"/>
    <dc:date>2021-10-06T11:02:46.494568</dc:date>
    <dc:format>image/svg+xml</dc:format>
    <dc:creator>
     <cc:Agent>
      <dc:title>Matplotlib v3.4.1, https://matplotlib.org/</dc:title>
     </cc:Agent>
    </dc:creator>
   </cc:Work>
  </rdf:RDF>
 </metadata>
 <defs>
  <style type="text/css">*{stroke-linecap:butt;stroke-linejoin:round;}</style>
 </defs>
 <g id="figure_1">
  <g id="patch_1">
   <path d="M 0 108 
L 108 108 
L 108 0 
L 0 0 
z
" style="fill:none;"/>
  </g>
  <g id="axes_1">
   <g id="patch_2">
    <path d="M 14.3 93.7 
L 97.2 93.7 
L 97.2 10.8 
L 14.3 10.8 
z
" style="fill:#ffffff;"/>
   </g>
   <g id="matplotlib.axis_1"/>
   <g id="matplotlib.axis_2"/>
   <g id="line2d_1">
    <path clip-path="url(#p19497f4f4d)" d="M 18.068182 89.931818 
L 18.829431 89.687772 
L 19.59068 89.407701 
L 20.351928 89.087472 
L 21.113177 88.722687 
L 21.874426 88.308695 
L 22.635675 87.840622 
L 23.396924 87.313399 
L 24.158173 86.721808 
L 24.919421 86.060527 
L 25.68067 85.324195 
L 26.441919 84.507476 
L 27.203168 83.605141 
L 27.964417 82.61215 
L 28.725666 81.523753 
L 29.486915 80.335588 
L 30.248163 79.043791 
L 31.009412 77.645113 
L 31.770661 76.137031 
L 32.53191 74.517869 
L 33.293159 72.786914 
L 34.054408 70.944526 
L 34.815657 68.992247 
L 35.576905 66.932894 
L 36.338154 64.770642 
L 37.099403 62.511097 
L 37.860652 60.161341 
L 38.621901 57.729963 
L 39.38315 55.227068 
L 40.144399 52.664254 
L 40.905647 50.054569 
L 41.666896 47.412438 
L 42.428145 44.75356 
L 43.189394 42.09478 
L 43.950643 39.453933 
L 44.711892 36.849656 
L 45.47314 34.301191 
L 46.234389 31.828151 
L 46.995638 29.450277 
L 47.756887 27.187184 
L 48.518136 25.058094 
L 49.279385 23.081563 
L 50.040634 21.275219 
L 50.801882 19.655497 
L 51.563131 18.237394 
L 52.32438 17.034235 
L 53.085629 16.057465 
L 53.846878 15.31647 
L 54.608127 14.818426 
L 55.369376 14.568182 
L 56.130624 14.568182 
L 56.891873 14.818426 
L 57.653122 15.31647 
L 58.414371 16.057465 
L 59.17562 17.034235 
L 59.936869 18.237394 
L 60.698118 19.655497 
L 61.459366 21.275219 
L 62.220615 23.081563 
L 62.981864 25.058094 
L 63.743113 27.187184 
L 64.504362 29.450277 
L 65.265611 31.828151 
L 66.02686 34.301191 
L 66.788108 36.849656 
L 67.549357 39.453933 
L 68.310606 42.09478 
L 69.071855 44.75356 
L 69.833104 47.412438 
L 70.594353 50.054569 
L 71.355601 52.664254 
L 72.11685 55.227068 
L 72.878099 57.729963 
L 73.639348 60.161341 
L 74.400597 62.511097 
L 75.161846 64.770642 
L 75.923095 66.932894 
L 76.684343 68.992247 
L 77.445592 70.944526 
L 78.206841 72.786914 
L 78.96809 74.517869 
L 79.729339 76.137031 
L 80.490588 77.645113 
L 81.251837 79.043791 
L 82.013085 80.335588 
L 82.774334 81.523753 
L 83.535583 82.61215 
L 84.296832 83.605141 
L 85.058081 84.507476 
L 85.81933 85.324195 
L 86.580579 86.060527 
L 87.341827 86.721808 
L 88.103076 87.313399 
L 88.864325 87.840622 
L 89.625574 88.308695 
L 90.386823 88.722687 
L 91.148072 89.087472 
L 91.90932 89.407701 
L 92.670569 89.687772 
L 93.431818 89.931818 
" style="fill:none;stroke:#1f77b4;stroke-linecap:square;stroke-width:1.5;"/>
   </g>
   <g id="patch_3">
    <path d="M 14.3 93.7 
L 14.3 10.8 
" style="fill:none;stroke:#000000;stroke-linecap:square;stroke-linejoin:miter;stroke-width:0.8;"/>
   </g>
   <g id="patch_4">
    <path d="M 14.3 93.7 
L 97.2 93.7 
" style="fill:none;stroke:#000000;stroke-linecap:square;stroke-linejoin:miter;stroke-width:0.8;"/>
   </g>
  </g>
 </g>
 <defs>
  <clipPath id="p19497f4f4d">
   <rect height="82.9" width="82.9" x="14.3" y="10.8"/>
  </clipPath>
 </defs>
</svg>
