<?xml version="1.0" encoding="utf-8" standalone="no"?>
<!DOCTYPE svg PUBLIC "-//W3C//DTD SVG 1.1//EN"
  "http://www.w3.org/Graphics/SVG/1.1/DTD/svg11.dtd">
<svg height="108pt" version="1.1" viewBox="0 0 108 108" width="108pt" xmlns="http://www.w3.org/2000/svg" xmlns:xlink="http://www.w3.org/1999/xlink">
 <metadata>
  <rdf:RDF xmlns:cc="http://creativecommons.org/ns#" xmlns:dc="http://purl.org/dc/elements/1.1/" xmlns:rdf="http://www.w3.org/1999/02/22-rdf-syntax-ns#">
   <cc:Work>
    <dc:type rdf:resource="http://purl.org/dc/dcmitype/StillImage"/>
    <dc:date>2021-10-06T11:02:46.366741</dc:date>
    <dc:format>image/svg+xml</dc:format>
    <dc:creator>
     <cc:Agent>
      <dc:title>Matplotlib v3.4.1, https://matplotlib.org/</dc:title>
     </cc:Agent>
    </dc:creator>
   </cc:Work>
  </rdf:RDF>
 </metadata>
 <defs>
  <style type="text/css">*{stroke-linecap:butt;stroke-linejoin:round;}</style>
 </defs>
 <g id="figure_1">
  <g id="patch_1">
   <path d="M 0 108 
L 108 108 
L 108 0 
L 0 0 
z
" style="fill:none;"/>
  </g>
  <g id="axes_1">
   <g id="patch_2">
    <path d="M 14.3 93.7 
L 97.2 93.7 
L 97.2 10.8 
L 14.3 10.8 
z
" style="fill:#ffffff;"/>
   </g>
   <g id="matplotlib.axis_1"/>
   <g id="matplotlib.axis_2"/>
   <g id="line2d_1">
    <path clip-path="url(#pd8bd5e9eca)" d="M 18.068182 89.931818 
L 18.068182 89.170569 
L 18.068182 88.40932 
L 18.068182 87.648072 
L 18.068182 86.886823 
L 18.068182 86.125574 
L 18.068182 85.364325 
L 18.068182 84.603076 
L 18.068182 83.841827 
L 18.068182 83.080579 
L 18.068182 82.31933 
L 18.068182 81.558081 
L 18.068182 80.796832 
L 18.068182 80.035583 
L 18.068182 79.274334 
L 18.068182 78.513085 
L 18.068182 77.751837 
L 18.068182 76.990588 
L 18.068183 76.229339 
L 18.068185 75.46809 
L 18.068192 74.706841 
L 18.068212 73.945592 
L 18.068265 73.184343 
L 18.068404 72.423095 
L 18.068753 71.661846 
L 18.069596 70.900597 
L 18.071561 70.139348 
L 18.075964 69.378099 
L 18.085469 68.61685 
L 18.105215 67.855601 
L 18.144687 67.094353 
L 18.220601 66.333104 
L 18.361022 65.571855 
L 18.610766 64.810606 
L 19.037684 64.049357 
L 19.738793 63.288108 
L 20.844358 62.52686 
L 22.517192 61.765611 
L 24.944005 61.004362 
L 28.315988 60.243113 
L 32.797477 59.481864 
L 38.484525 58.720615 
L 45.359142 57.959366 
L 53.24889 57.198118 
L 61.803795 56.436869 
L 70.501913 55.67562 
L 78.690312 54.914371 
L 85.660372 54.153122 
L 90.746813 53.391873 
L 93.431818 52.630624 
L 93.431818 51.869376 
L 90.746813 51.108127 
L 85.660372 50.346878 
L 78.690312 49.585629 
L 70.501913 48.82438 
L 61.803795 48.063131 
L 53.24889 47.301882 
L 45.359142 46.540634 
L 38.484525 45.779385 
L 32.797477 45.018136 
L 28.315988 44.256887 
L 24.944005 43.495638 
L 22.517192 42.734389 
L 20.844358 41.97314 
L 19.738793 41.211892 
L 19.037684 40.450643 
L 18.610766 39.689394 
L 18.361022 38.928145 
L 18.220601 38.166896 
L 18.144687 37.405647 
L 18.105215 36.644399 
L 18.085469 35.88315 
L 18.075964 35.121901 
L 18.071561 34.360652 
L 18.069596 33.599403 
L 18.068753 32.838154 
L 18.068404 32.076905 
L 18.068265 31.315657 
L 18.068212 30.554408 
L 18.068192 29.793159 
L 18.068185 29.03191 
L 18.068183 28.270661 
L 18.068182 27.509412 
L 18.068182 26.748163 
L 18.068182 25.986915 
L 18.068182 25.225666 
L 18.068182 24.464417 
L 18.068182 23.703168 
L 18.068182 22.941919 
L 18.068182 22.18067 
L 18.068182 21.419421 
L 18.068182 20.658173 
L 18.068182 19.896924 
L 18.068182 19.135675 
L 18.068182 18.374426 
L 18.068182 17.613177 
L 18.068182 16.851928 
L 18.068182 16.09068 
L 18.068182 15.329431 
L 18.068182 14.568182 
" style="fill:none;stroke:#1f77b4;stroke-linecap:square;stroke-width:1.5;"/>
   </g>
   <g id="patch_3">
    <path d="M 14.3 93.7 
L 14.3 10.8 
" style="fill:none;stroke:#000000;stroke-linecap:square;stroke-linejoin:miter;stroke-width:0.8;"/>
   </g>
   <g id="patch_4">
    <path d="M 14.3 93.7 
L 97.2 93.7 
" style="fill:none;stroke:#000000;stroke-linecap:square;stroke-linejoin:miter;stroke-width:0.8;"/>
   </g>
  </g>
 </g>
 <defs>
  <clipPath id="pd8bd5e9eca">
   <rect height="82.9" width="82.9" x="14.3" y="10.8"/>
  </clipPath>
 </defs>
</svg>
