<?xml version="1.0" encoding="UTF-8" standalone="no"?>
<!-- Created with Inkscape (http://www.inkscape.org/) -->

<svg
   width="114.7965mm"
   height="101.54063mm"
   viewBox="0 0 114.7965 101.54063"
   version="1.1"
   id="svg19507"
   inkscape:version="1.2.1 (1:1.2.1+202210291244+9c6d41e410)"
   sodipodi:docname="papertear.svg"
   xml:space="preserve"
   xmlns:inkscape="http://www.inkscape.org/namespaces/inkscape"
   xmlns:sodipodi="http://sodipodi.sourceforge.net/DTD/sodipodi-0.dtd"
   xmlns="http://www.w3.org/2000/svg"
   xmlns:svg="http://www.w3.org/2000/svg"><sodipodi:namedview
     id="namedview19509"
     pagecolor="#ffffff"
     bordercolor="#000000"
     borderopacity="0.25"
     inkscape:showpageshadow="2"
     inkscape:pageopacity="0.0"
     inkscape:pagecheckerboard="0"
     inkscape:deskcolor="#d1d1d1"
     inkscape:document-units="mm"
     showgrid="false"
     inkscape:zoom="0.37270322"
     inkscape:cx="-217.3311"
     inkscape:cy="676.14119"
     inkscape:window-width="1874"
     inkscape:window-height="1043"
     inkscape:window-x="0"
     inkscape:window-y="0"
     inkscape:window-maximized="1"
     inkscape:current-layer="layer1" /><defs
     id="defs19504"><clipPath
       clipPathUnits="userSpaceOnUse"
       id="clipPath21603"><path
         style="fill:#073669;fill-opacity:1;stroke:#000000;stroke-width:1.2;stroke-linecap:round;stroke-linejoin:round;stroke-opacity:1"
         d="M 21.794502,144.03076 V 59.04547 H 135.391 v 87.02161 l -5.84594,-5.84594 -2.85004,10.63652 c 0,0 -3.75134,-6.69353 -3.80793,-6.59552 l -2.03979,3.53302 -5.25958,-5.25958 -1.27668,4.76462 -1.99509,-7.44578 -3.48053,12.98953 -3.20076,-5.54388 c 0,0 -0.88712,1.85358 -1.00317,1.73753 l -3.94742,-3.94743 -2.790475,4.83325 -2.358358,-8.80152 -4.530368,16.90754 -3.945996,-14.72667 -3.372527,5.84139 c 0,0 -4.571164,-8.18753 -4.620583,-8.00309 l -0.807355,3.0131 -3.173963,-11.84539 -1.94075,7.24296 -2.569491,-2.56949 v 5.57142 l -2.248903,-1.2984 -2.272686,8.48177 -1.805463,-3.12715 c 0.01077,-0.008 -3.107061,7.2091 -3.084791,7.30233 l -4.811977,-4.81198 -1.020561,3.80878 -4.026795,-4.0268 -1.67781,6.26167 -3.077072,-3.07708 -4.225843,7.31938 -1.267883,-4.73181 -1.371738,2.37592 -1.414971,-2.4508 -3.937145,3.49407 -1.405266,-6.06775 -2.253136,2.73459 -2.11355,-5.51237 -3.117077,4.43034 z"
         id="path21605"
         sodipodi:nodetypes="ccccccsccccccsccccccscccccccccccccccccccccccc" /></clipPath></defs><g
     inkscape:label="Layer 1"
     inkscape:groupmode="layer"
     id="layer1"
     transform="translate(-21.194502,-58.445469)"><path
       style="fill:none;stroke:#073669;stroke-width:1.2;stroke-linecap:round;stroke-linejoin:round;stroke-opacity:1"
       d="M 21.794502,144.03076 V 59.045469 H 135.391 v 87.021611 l -5.84594,-5.84594 -2.85004,10.63652 c 0,0 -3.75134,-6.69353 -3.80793,-6.59552 l -2.03979,3.53302 -5.25958,-5.25958 -1.27668,4.76462 -1.99509,-7.44578 -3.48053,12.98953 -3.20076,-5.54388 c 0,0 -0.88712,1.85358 -1.00317,1.73753 l -3.94742,-3.94743 -2.790476,4.83325 -2.358358,-8.80152 -4.530366,16.90754 -3.945998,-14.72667 -3.372525,5.84139 c 0,0 -4.571165,-8.18753 -4.620585,-8.00309 l -0.807355,3.0131 -3.173963,-11.84539 -1.940748,7.24296 -2.569493,-2.56949 v 5.57142 l -2.248902,-1.2984 -2.272686,8.48177 -1.805464,-3.12715 c 0.01078,-0.008 -3.107059,7.2091 -3.08479,7.30233 l -4.811978,-4.81198 -1.020561,3.80878 -4.026794,-4.0268 -1.67781,6.26167 -3.077073,-3.07708 -4.225843,7.31938 -1.267883,-4.73181 -1.371738,2.37592 -1.41497,-2.4508 -3.937145,3.49407 -1.405266,-6.06775 -2.253135,2.73459 -2.11355,-5.51237 -3.117078,4.43034 z"
       id="path20408"
       sodipodi:nodetypes="ccccccsccccccsccccccscccccccccccccccccccccccc" /><path
       style="fill:#073669;stroke:#073669;stroke-width:1.2;stroke-linecap:round;stroke-linejoin:round;stroke-opacity:1;fill-opacity:1"
       d="M 21.794502,144.03076 V 59.045469 H 135.391 v 87.021611 l -5.84594,-5.84594 -2.85004,10.63652 c 0,0 -3.75134,-6.69353 -3.80793,-6.59552 l -2.03979,3.53302 -5.25958,-5.25958 -1.27668,4.76462 -1.99509,-7.44578 -3.48053,12.98953 -3.20076,-5.54388 c 0,0 -0.88712,1.85358 -1.00317,1.73753 l -3.94742,-3.94743 -2.790476,4.83325 -2.358358,-8.80152 -4.530366,16.90754 -3.945998,-14.72667 -3.372525,5.84139 c 0,0 -4.571165,-8.18753 -4.620585,-8.00309 l -0.807355,3.0131 -3.173963,-11.84539 -1.940748,7.24296 -2.569493,-2.56949 v 5.57142 l -2.248902,-1.2984 -2.272686,8.48177 -1.805464,-3.12715 c 0.01078,-0.008 -3.107059,7.2091 -3.08479,7.30233 l -4.811978,-4.81198 -1.020561,3.80878 -4.026794,-4.0268 -1.67781,6.26167 -3.077073,-3.07708 -4.225843,7.31938 -1.267883,-4.73181 -1.371738,2.37592 -1.41497,-2.4508 -3.937145,3.49407 -1.405266,-6.06775 -2.253135,2.73459 -2.11355,-5.51237 -3.117078,4.43034 z"
       id="path23809"
       sodipodi:nodetypes="ccccccsccccccsccccccscccccccccccccccccccccccc" /></g></svg>
