<?xml version="1.0" encoding="UTF-8" standalone="no"?>
<!-- Created with Inkscape (http://www.inkscape.org/) -->

<svg
   width="408.46686mm"
   height="228.28961mm"
   viewBox="0 0 408.46686 228.28961"
   version="1.1"
   id="svg5"
   inkscape:version="1.2.2 (1:1.2.2+202212051551+b0a8486541)"
   sodipodi:docname="sciml3.svg"
   xmlns:inkscape="http://www.inkscape.org/namespaces/inkscape"
   xmlns:sodipodi="http://sodipodi.sourceforge.net/DTD/sodipodi-0.dtd"
   xmlns="http://www.w3.org/2000/svg"
   xmlns:svg="http://www.w3.org/2000/svg">
  <sodipodi:namedview
     id="namedview7"
     pagecolor="#ffffff"
     bordercolor="#000000"
     borderopacity="0.25"
     inkscape:showpageshadow="2"
     inkscape:pageopacity="0.0"
     inkscape:pagecheckerboard="0"
     inkscape:deskcolor="#d1d1d1"
     inkscape:document-units="mm"
     showgrid="false"
     inkscape:zoom="0.5946522"
     inkscape:cx="739.08749"
     inkscape:cy="242.15836"
     inkscape:window-width="1874"
     inkscape:window-height="1043"
     inkscape:window-x="0"
     inkscape:window-y="0"
     inkscape:window-maximized="1"
     inkscape:current-layer="layer1"
     showguides="false" />
  <defs
     id="defs2">
    <inkscape:path-effect
       effect="spiro"
       id="path-effect109041"
       is_visible="true"
       lpeversion="1" />
    <inkscape:path-effect
       effect="spiro"
       id="path-effect109037"
       is_visible="true"
       lpeversion="1" />
    <inkscape:path-effect
       effect="spiro"
       id="path-effect54312"
       is_visible="true"
       lpeversion="1" />
    <inkscape:path-effect
       effect="spiro"
       id="path-effect41175"
       is_visible="true"
       lpeversion="1" />
    <inkscape:path-effect
       effect="spiro"
       id="path-effect39711"
       is_visible="true"
       lpeversion="1" />
    <inkscape:path-effect
       effect="spiro"
       id="path-effect38979"
       is_visible="true"
       lpeversion="1" />
    <rect
       x="-51.651779"
       y="211.16927"
       width="883.03326"
       height="69.650742"
       id="rect38000" />
  </defs>
  <g
     inkscape:label="Layer 1"
     inkscape:groupmode="layer"
     id="layer1"
     transform="translate(-63.378742,14.581246)">
    <rect
       style="fill:#ffffff;fill-opacity:1;stroke:none;stroke-width:1.31083;stroke-linecap:round;stroke-linejoin:round;stroke-dasharray:none;stroke-opacity:0.500047"
       id="rect114760"
       width="407.15604"
       height="226.97878"
       x="64.034157"
       y="-13.925831" />
    <g
       id="surface1"
       transform="matrix(3.7170978,0,0,3.7170978,-429.6247,-471.86873)"
       style="fill:#1a237e;fill-opacity:1">
      <g
         style="fill:#1a237e;fill-opacity:1"
         id="g1612">
        <g
           id="use1610"
           transform="translate(150.021,130.32001)"
           style="fill:#1a237e;fill-opacity:1">
          <path
             d="m 3.65625,-2.359375 c -0.09375,-0.40625 -0.40625,-0.8125 -1.0625,-0.8125 -0.984375,0 -1.78125,0.71875 -2.03125,1.359375 -0.046875,0.109375 -0.140625,0.390625 -0.140625,0.671875 0,0.484375 0.375,1.28125 1.453125,1.28125 1.8125,0 2.546875,-2.25 2.546875,-3.234375 0,-1.203125 -0.78125,-1.875 -1.71875,-1.875 C 1.5625,-4.96875 1.25,-4.0625 1.25,-3.859375 c 0,0.0625 0.046875,0.25 0.28125,0.25 0.25,0 0.390625,-0.203125 0.390625,-0.375 0,-0.1875 -0.140625,-0.25 -0.265625,-0.265625 C 2,-4.78125 2.578125,-4.78125 2.6875,-4.78125 c 0.53125,0 1.140625,0.328125 1.140625,1.328125 0,0.296875 -0.03125,0.546875 -0.15625,1.09375 z m -1.765625,2.28125 c -0.78125,0 -0.875,-0.59375 -0.875,-0.8125 0,-0.265625 0.1875,-0.953125 0.265625,-1.125 0.125,-0.328125 0.546875,-0.96875 1.34375,-0.96875 0.671875,0 0.890625,0.53125 0.890625,0.953125 0,0.46875 -0.453125,1.953125 -1.625,1.953125 z m 0,0"
             id="path1833"
             style="fill:#1a237e;fill-opacity:1" />
        </g>
      </g>
      <g
         style="fill:#1a237e;fill-opacity:1"
         id="g1616">
        <g
           id="use1614"
           transform="translate(154.70808,130.32001)"
           style="fill:#1a237e;fill-opacity:1">
          <path
             d="M 3.875,-2.625 C 3.90625,-2.71875 3.90625,-2.734375 3.90625,-2.78125 3.90625,-2.921875 3.796875,-3 3.671875,-3 3.59375,-3 3.46875,-2.96875 3.390625,-2.84375 3.359375,-2.796875 3.3125,-2.578125 3.28125,-2.4375 L 3.125,-1.859375 c -0.03125,0.171875 -0.25,1.046875 -0.28125,1.125 0,0 -0.3125,0.609375 -0.84375,0.609375 -0.484375,0 -0.484375,-0.453125 -0.484375,-0.578125 0,-0.375 0.15625,-0.8125 0.375,-1.359375 C 1.96875,-2.28125 2,-2.359375 2,-2.484375 2,-2.8125 1.71875,-3.078125 1.34375,-3.078125 0.640625,-3.078125 0.328125,-2.125 0.328125,-2 c 0,0.078125 0.09375,0.078125 0.125,0.078125 0.09375,0 0.09375,-0.03125 0.125,-0.109375 C 0.75,-2.609375 1.046875,-2.875 1.328125,-2.875 1.4375,-2.875 1.5,-2.796875 1.5,-2.640625 c 0,0.171875 -0.0625,0.3125 -0.09375,0.40625 C 1.0625,-1.375 1,-1.125 1,-0.8125 1,-0.703125 1,-0.375 1.265625,-0.140625 1.484375,0.03125 1.78125,0.0625 1.96875,0.0625 2.25,0.0625 2.5,-0.03125 2.71875,-0.25 2.640625,0.140625 2.5625,0.4375 2.265625,0.78125 2.078125,1 1.796875,1.21875 1.421875,1.21875 c -0.046875,0 -0.375,0 -0.515625,-0.21875 0.375,-0.046875 0.375,-0.375 0.375,-0.390625 0,-0.21875 -0.203125,-0.265625 -0.265625,-0.265625 -0.171875,0 -0.40625,0.140625 -0.40625,0.46875 0,0.34375 0.328125,0.609375 0.828125,0.609375 C 2.140625,1.421875 3,0.875 3.21875,0 Z m 0,0"
             id="path1845"
             style="fill:#1a237e;fill-opacity:1" />
        </g>
      </g>
      <path
         style="color:#000000;fill:#1a237e;fill-opacity:1;stroke-miterlimit:10;-inkscape-stroke:none"
         d="m -0.00195313,-0.19921875 v 0.3984375 H 9.2011719 v -0.3984375 z"
         id="path1618"
         transform="matrix(1,0,0,-1,149.908,132.274)" />
      <g
         style="fill:#1a237e;fill-opacity:1"
         id="g1622">
        <g
           id="use1620"
           transform="translate(149.908,138.2)"
           style="fill:#1a237e;fill-opacity:1">
          <path
             d="m 3.65625,-2.359375 c -0.09375,-0.40625 -0.40625,-0.8125 -1.0625,-0.8125 -0.984375,0 -1.78125,0.71875 -2.03125,1.359375 -0.046875,0.109375 -0.140625,0.390625 -0.140625,0.671875 0,0.484375 0.375,1.28125 1.453125,1.28125 1.8125,0 2.546875,-2.25 2.546875,-3.234375 0,-1.203125 -0.78125,-1.875 -1.71875,-1.875 C 1.5625,-4.96875 1.25,-4.0625 1.25,-3.859375 c 0,0.0625 0.046875,0.25 0.28125,0.25 0.25,0 0.390625,-0.203125 0.390625,-0.375 0,-0.1875 -0.140625,-0.25 -0.265625,-0.265625 C 2,-4.78125 2.578125,-4.78125 2.6875,-4.78125 c 0.53125,0 1.140625,0.328125 1.140625,1.328125 0,0.296875 -0.03125,0.546875 -0.15625,1.09375 z m -1.765625,2.28125 c -0.78125,0 -0.875,-0.59375 -0.875,-0.8125 0,-0.265625 0.1875,-0.953125 0.265625,-1.125 0.125,-0.328125 0.546875,-0.96875 1.34375,-0.96875 0.671875,0 0.890625,0.53125 0.890625,0.953125 0,0.46875 -0.453125,1.953125 -1.625,1.953125 z m 0,0"
             id="path1837"
             style="fill:#1a237e;fill-opacity:1" />
        </g>
      </g>
      <g
         style="fill:#1a237e;fill-opacity:1"
         id="g1626">
        <g
           id="use1624"
           transform="translate(154.58812,138.2)"
           style="fill:#1a237e;fill-opacity:1">
          <path
             d="M 1.734375,-0.734375 C 1.671875,-0.5 1.4375,-0.125 1.078125,-0.125 c -0.015625,0 -0.234375,0 -0.375,-0.09375 0.28125,-0.09375 0.3125,-0.34375 0.3125,-0.390625 0,-0.15625 -0.125,-0.25 -0.28125,-0.25 -0.203125,0 -0.40625,0.15625 -0.40625,0.421875 0,0.34375 0.390625,0.5 0.734375,0.5 0.328125,0 0.609375,-0.1875 0.78125,-0.484375 C 2.015625,-0.0625 2.390625,0.0625 2.671875,0.0625 c 0.8125,0 1.234375,-0.859375 1.234375,-1.0625 0,-0.09375 -0.09375,-0.09375 -0.109375,-0.09375 -0.109375,0 -0.109375,0.046875 -0.140625,0.125 -0.140625,0.484375 -0.5625,0.84375 -0.953125,0.84375 -0.28125,0 -0.421875,-0.1875 -0.421875,-0.453125 0,-0.1875 0.171875,-0.8125 0.359375,-1.59375 C 2.78125,-2.703125 3.09375,-2.875 3.328125,-2.875 c 0.015625,0 0.21875,0 0.375,0.09375 -0.21875,0.0625 -0.3125,0.265625 -0.3125,0.390625 0,0.140625 0.125,0.25 0.28125,0.25 0.15625,0 0.390625,-0.125 0.390625,-0.421875 0,-0.390625 -0.453125,-0.515625 -0.71875,-0.515625 -0.359375,0 -0.640625,0.234375 -0.78125,0.5 -0.125,-0.28125 -0.453125,-0.5 -0.84375,-0.5 C 0.9375,-3.078125 0.5,-2.21875 0.5,-2 c 0,0.078125 0.09375,0.078125 0.109375,0.078125 0.09375,0 0.09375,-0.015625 0.140625,-0.109375 C 0.921875,-2.578125 1.359375,-2.875 1.703125,-2.875 1.9375,-2.875 2.125,-2.75 2.125,-2.421875 2.125,-2.28125 2.03125,-1.9375 1.96875,-1.6875 Z m 0,0"
             id="path1841"
             style="fill:#1a237e;fill-opacity:1" />
        </g>
      </g>
    </g>
    <g
       id="g3368"
       style="fill:#931616;fill-opacity:1"
       transform="translate(330.88494,-120.65398)">
      <g
         id="g2567"
         transform="matrix(1.3904918,0,0,1.3904918,-16.286425,-59.346269)"
         style="fill:#931616;fill-opacity:1">
        <path
           id="path95305"
           style="fill:#931616;fill-opacity:1;stroke-width:0.705478;stroke-linecap:round;stroke-linejoin:round"
           d="m 35.519536,135.93636 a 3.3158848,3.3158848 0 0 1 -3.315885,3.31588 3.3158848,3.3158848 0 0 1 -3.315884,-3.31588 3.3158848,3.3158848 0 0 1 3.315884,-3.31589 3.3158848,3.3158848 0 0 1 3.315885,3.31589 z" />
        <path
           id="path95302"
           style="fill:#931616;fill-opacity:1;stroke-width:0.705478;stroke-linecap:round;stroke-linejoin:round"
           d="m 35.519536,149.16534 a 3.3158848,3.3158848 0 0 1 -3.315885,3.31589 3.3158848,3.3158848 0 0 1 -3.315884,-3.31589 3.3158848,3.3158848 0 0 1 3.315884,-3.31588 3.3158848,3.3158848 0 0 1 3.315885,3.31588 z" />
      </g>
      <g
         id="g2572"
         transform="matrix(1.3904918,0,0,1.3904918,-16.286425,-68.543681)"
         style="fill:#931616;fill-opacity:1">
        <path
           id="path95299"
           style="fill:#931616;fill-opacity:1;stroke-width:0.705478;stroke-linecap:round;stroke-linejoin:round"
           d="m 48.748716,135.93636 a 3.3158848,3.3158848 0 0 1 -3.315885,3.31588 3.3158848,3.3158848 0 0 1 -3.315885,-3.31588 3.3158848,3.3158848 0 0 1 3.315885,-3.31589 3.3158848,3.3158848 0 0 1 3.315885,3.31589 z" />
        <path
           id="path95296"
           style="fill:#931616;fill-opacity:1;stroke-width:0.705478;stroke-linecap:round;stroke-linejoin:round"
           d="m 48.748716,149.16534 a 3.3158848,3.3158848 0 0 1 -3.315885,3.31589 3.3158848,3.3158848 0 0 1 -3.315885,-3.31589 3.3158848,3.3158848 0 0 1 3.315885,-3.31588 3.3158848,3.3158848 0 0 1 3.315885,3.31588 z" />
        <path
           id="path95293"
           style="fill:#931616;fill-opacity:1;stroke-width:0.705478;stroke-linecap:round;stroke-linejoin:round"
           d="m 48.748716,162.39433 a 3.3158848,3.3158848 0 0 1 -3.315885,3.31589 3.3158848,3.3158848 0 0 1 -3.315885,-3.31589 3.3158848,3.3158848 0 0 1 3.315885,-3.31588 3.3158848,3.3158848 0 0 1 3.315885,3.31588 z" />
      </g>
      <path
         id="path95290"
         style="fill:#931616;fill-opacity:1;stroke-width:0.980961;stroke-linecap:round;stroke-linejoin:round"
         d="m 69.893334,138.86935 a 4.6107106,4.6107106 0 0 1 -4.610711,4.61071 4.6107106,4.6107106 0 0 1 -4.61071,-4.61071 4.6107106,4.6107106 0 0 1 4.61071,-4.61071 4.6107106,4.6107106 0 0 1 4.610711,4.61071 z" />
      <path
         style="color:#000000;fill:#931616;fill-opacity:1;stroke-linecap:round;stroke-linejoin:round;-inkscape-stroke:none"
         d="m 46.517578,118.82813 -18.96875,10.25781 a 0.71249998,0.71249998 0 0 0 -0.287109,0.96679 0.71249998,0.71249998 0 0 0 0.964843,0.28711 l 18.476563,-9.99218 16.382812,18.05078 -16.9375,-0.39649 a 0.71257123,0.71257123 0 0 0 -0.335937,0.0742 l -18.046875,9.06641 a 0.71257123,0.71257123 0 0 0 -0.0098,1.26758 l 18.398438,9.65039 a 0.71257123,0.71257123 0 0 0 0.833984,-0.12696 l 18.230469,-18.26367 0.02539,-0.0254 a 0.71249998,0.71249998 0 0 0 0.185546,-0.4375 0.71257123,0.71257123 0 0 0 0,-0.0625 0.71249998,0.71249998 0 0 0 -0.185546,-0.50586 0.71249998,0.71249998 0 0 0 -0.02734,-0.0117 L 47.382812,118.97656 a 0.71257123,0.71257123 0 0 0 -0.865234,-0.14843 z m -0.224609,20.60156 16.759765,0.39453 -16.701172,16.73242 -16.705078,-8.76367 z"
         id="path95287" />
      <path
         style="color:#000000;fill:#931616;fill-opacity:1;stroke-linecap:round;stroke-linejoin:round;-inkscape-stroke:none"
         d="m 28.335937,128.61133 a 0.71257123,0.71257123 0 0 0 -0.925781,1.01953 l 18.601563,28.76953 a 0.71249998,0.71249998 0 0 0 0.986328,0.21094 0.71249998,0.71249998 0 0 0 0.210937,-0.98438 l -17.148437,-26.52148 15.599609,8.05078 a 0.71249998,0.71249998 0 0 0 0.960938,-0.30469 0.71249998,0.71249998 0 0 0 -0.306641,-0.96094 z"
         id="path95284" />
      <path
         style="color:#000000;fill:#931616;fill-opacity:1;stroke-linecap:round;stroke-linejoin:round;-inkscape-stroke:none"
         d="M 46.798828,119.41406 A 0.71249998,0.71249998 0 0 0 45.8125,119.625 l -18.259766,28.24023 a 0.71249998,0.71249998 0 0 0 0.210938,0.98438 0.71249998,0.71249998 0 0 0 0.984375,-0.21094 l 18.261719,-28.23828 a 0.71249998,0.71249998 0 0 0 -0.210938,-0.98633 z"
         id="path95281" />
    </g>
    <text
       xml:space="preserve"
       transform="matrix(0.26458333,0,0,0.26458333,73.847488,-5.9258372)"
       id="text37998"
       style="font-style:normal;font-variant:normal;font-weight:normal;font-stretch:normal;font-size:53.3333px;font-family:sans-serif;-inkscape-font-specification:sans-serif;white-space:pre;shape-inside:url(#rect38000);display:inline;fill:#000000;fill-opacity:1;stroke:none;stroke-width:5.38583;stroke-linecap:round;stroke-linejoin:round;stroke-opacity:1" />
    <g
       aria-label="mechanistic modeling"
       transform="scale(0.96066511,1.0409455)"
       id="text108699"
       style="font-size:13.556px;-inkscape-font-specification:sans-serif;fill:#1a237e;stroke-width:1.24886;stroke-linecap:round;stroke-linejoin:round">
      <path
         d="m 82.981992,53.565342 q 0.450101,-0.68839 1.065681,-1.045824 0.6222,-0.364053 1.363543,-0.364053 1.277494,0 1.946028,0.787678 0.668533,0.787678 0.668533,2.290223 v 4.514254 h -2.382891 v -3.865578 q 0.0066,-0.08605 0.0066,-0.178717 0.0066,-0.09267 0.0066,-0.264766 0,-0.787678 -0.23167,-1.138492 -0.23167,-0.357434 -0.747963,-0.357434 -0.675153,0 -1.045824,0.556008 -0.364053,0.556008 -0.377292,1.608451 v 3.640528 h -2.38289 v -3.865578 q 0,-1.231161 -0.211813,-1.581975 -0.211812,-0.357434 -0.754582,-0.357434 -0.681771,0 -1.052443,0.562627 -0.370672,0.556008 -0.370672,1.595213 v 3.647147 h -2.38289 v -7.413438 h 2.38289 v 1.085539 q 0.436863,-0.628818 0.99949,-0.946537 0.569246,-0.317719 1.251018,-0.317719 0.76782,0 1.356924,0.370672 0.589103,0.370672 0.893584,1.039205 z"
         style="font-weight:bold"
         id="path110599" />
      <path
         d="m 97.636769,56.021044 v 0.675152 h -5.540221 q 0.08605,0.834012 0.602342,1.251017 0.516293,0.417006 1.442973,0.417006 0.747963,0 1.529021,-0.218431 0.787678,-0.225051 1.615071,-0.675153 v 1.826883 q -0.840631,0.317719 -1.681262,0.476578 -0.840631,0.165479 -1.681262,0.165479 -2.012219,0 -3.130853,-1.019348 -1.112016,-1.025967 -1.112016,-2.872707 0,-1.813644 1.092158,-2.852849 1.098778,-1.039206 3.018328,-1.039206 1.747453,0 2.793278,1.052444 1.052443,1.052443 1.052443,2.813135 z m -2.435844,-0.787678 q 0,-0.675153 -0.397148,-1.085539 -0.390529,-0.417006 -1.025967,-0.417006 -0.688391,0 -1.118635,0.390529 -0.430244,0.38391 -0.53615,1.112016 z"
         style="font-weight:bold"
         id="path110596" />
      <path
         d="m 105.42088,52.565852 v 1.932789 q -0.4832,-0.330957 -0.97301,-0.489816 -0.4832,-0.15886 -1.00611,-0.15886 -0.99288,0 -1.54888,0.582485 -0.54939,0.575865 -0.54939,1.61507 0,1.039205 0.54939,1.62169 0.556,0.575865 1.54888,0.575865 0.556,0 1.05244,-0.165479 0.50305,-0.165478 0.92668,-0.489816 v 1.939408 q -0.55601,0.205193 -1.13187,0.30448 -0.56925,0.105907 -1.14512,0.105907 -2.00559,0 -3.13747,-1.025967 -1.131871,-1.032586 -1.131871,-2.866088 0,-1.833502 1.131871,-2.859469 1.13188,-1.032586 3.13747,-1.032586 0.58249,0 1.14512,0.105907 0.56924,0.09929 1.13187,0.30448 z"
         style="font-weight:bold"
         id="path110593" />
      <path
         d="m 114.91935,55.233366 v 4.514254 h -2.38289 v -0.734725 -2.707228 q 0,-0.973014 -0.0463,-1.337067 -0.0397,-0.364053 -0.14562,-0.53615 -0.139,-0.23167 -0.37729,-0.357434 -0.23829,-0.132383 -0.54277,-0.132383 -0.74134,0 -1.16497,0.575866 -0.42362,0.569246 -0.42362,1.581974 v 3.647147 h -2.36966 V 49.448237 h 2.36966 v 3.971484 q 0.53615,-0.648675 1.13849,-0.953156 0.60234,-0.3111 1.33045,-0.3111 1.28411,0 1.94602,0.787678 0.66854,0.787678 0.66854,2.290223 z"
         style="font-weight:bold"
         id="path110590" />
      <path
         d="m 120.43971,56.411573 q -0.74134,0 -1.11864,0.251527 -0.37067,0.251527 -0.37067,0.741344 0,0.450101 0.29786,0.708248 0.30448,0.251527 0.84064,0.251527 0.66853,0 1.12525,-0.476578 0.45672,-0.483197 0.45672,-1.204683 v -0.271385 z m 3.62067,-0.893584 v 4.229631 h -2.38951 v -1.098778 q -0.47658,0.675153 -1.0723,0.986252 -0.59572,0.304481 -1.44959,0.304481 -1.15173,0 -1.87322,-0.668533 -0.71487,-0.675153 -0.71487,-1.747454 0,-1.30397 0.89359,-1.912931 0.9002,-0.608961 2.81975,-0.608961 h 1.39664 V 54.81636 q 0,-0.562627 -0.44348,-0.820773 -0.44349,-0.264766 -1.3834,-0.264766 -0.7612,0 -1.4165,0.15224 -0.65529,0.15224 -1.21792,0.456721 v -1.807026 q 0.7612,-0.185335 1.52902,-0.278003 0.76782,-0.09929 1.53564,-0.09929 2.0056,0 2.89257,0.794297 0.89358,0.787678 0.89358,2.568227 z"
         style="font-weight:bold"
         id="path110587" />
      <path
         d="m 133.7177,55.233366 v 4.514254 h -2.38289 v -0.734725 -2.720467 q 0,-0.959775 -0.0463,-1.323828 -0.0397,-0.364053 -0.14562,-0.53615 -0.139,-0.23167 -0.37729,-0.357434 -0.23829,-0.132383 -0.54277,-0.132383 -0.74135,0 -1.16497,0.575866 -0.42363,0.569246 -0.42363,1.581974 v 3.647147 h -2.36965 v -7.413438 h 2.36965 v 1.085539 q 0.53616,-0.648675 1.1385,-0.953156 0.60234,-0.3111 1.33044,-0.3111 1.28412,0 1.94603,0.787678 0.66853,0.787678 0.66853,2.290223 z"
         style="font-weight:bold"
         id="path110584" />
      <path
         d="m 135.91526,52.334182 h 2.36965 v 7.413438 h -2.36965 z m 0,-2.885945 h 2.36965 v 1.932789 h -2.36965 z"
         style="font-weight:bold"
         id="path110581" />
      <path
         d="m 146.35364,52.565852 v 1.800406 q -0.7612,-0.317718 -1.46945,-0.476578 -0.70825,-0.158859 -1.33706,-0.158859 -0.67516,0 -1.00611,0.172098 -0.32434,0.165478 -0.32434,0.516293 0,0.284623 0.24491,0.436863 0.25152,0.15224 0.89358,0.225051 l 0.41701,0.05957 q 1.82026,0.23167 2.44908,0.761201 0.62882,0.529531 0.62882,1.661404 0,1.184826 -0.87373,1.780549 -0.87373,0.595723 -2.60794,0.595723 -0.73473,0 -1.5224,-0.119145 -0.78106,-0.112525 -1.60845,-0.344195 v -1.800406 q 0.70824,0.344195 1.44959,0.516293 0.74796,0.172097 1.51578,0.172097 0.69501,0 1.04582,-0.191955 0.35082,-0.191955 0.35082,-0.569246 0,-0.317719 -0.24491,-0.469959 -0.23829,-0.158859 -0.95977,-0.244908 l -0.41701,-0.05295 q -1.58198,-0.198574 -2.21741,-0.734725 -0.63544,-0.53615 -0.63544,-1.628308 0,-1.178207 0.80753,-1.747453 0.80754,-0.569247 2.47556,-0.569247 0.6553,0 1.37678,0.09929 0.72149,0.09929 1.56874,0.311099 z"
         style="font-weight:bold"
         id="path110578" />
      <path
         d="m 151.21871,50.229296 v 2.104886 h 2.44246 v 1.6945 h -2.44246 v 3.144092 q 0,0.516293 0.20519,0.701629 0.2052,0.178717 0.81416,0.178717 h 1.21792 v 1.6945 h -2.03208 q -1.40325,0 -1.99236,-0.582485 -0.58248,-0.589103 -0.58248,-1.992361 v -3.144092 h -1.17821 v -1.6945 h 1.17821 v -2.104886 z"
         style="font-weight:bold"
         id="path110575" />
      <path
         d="m 155.11077,52.334182 h 2.36965 v 7.413438 h -2.36965 z m 0,-2.885945 h 2.36965 v 1.932789 h -2.36965 z"
         style="font-weight:bold"
         id="path110572" />
      <path
         d="m 165.74773,52.565852 v 1.932789 q -0.4832,-0.330957 -0.97302,-0.489816 -0.48319,-0.15886 -1.00611,-0.15886 -0.99287,0 -1.54888,0.582485 -0.54938,0.575865 -0.54938,1.61507 0,1.039205 0.54938,1.62169 0.55601,0.575865 1.54888,0.575865 0.55601,0 1.05245,-0.165479 0.50305,-0.165478 0.92668,-0.489816 v 1.939408 q -0.55601,0.205193 -1.13188,0.30448 -0.56924,0.105907 -1.14511,0.105907 -2.0056,0 -3.13747,-1.025967 -1.13187,-1.032586 -1.13187,-2.866088 0,-1.833502 1.13187,-2.859469 1.13187,-1.032586 3.13747,-1.032586 0.58249,0 1.14511,0.105907 0.56925,0.09929 1.13188,0.30448 z"
         style="font-weight:bold"
         id="path110569" />
      <path
         d="m 179.38315,53.565342 q 0.4501,-0.68839 1.06568,-1.045824 0.6222,-0.364053 1.36355,-0.364053 1.27749,0 1.94602,0.787678 0.66854,0.787678 0.66854,2.290223 v 4.514254 h -2.38289 v -3.865578 q 0.007,-0.08605 0.007,-0.178717 0.007,-0.09267 0.007,-0.264766 0,-0.787678 -0.23167,-1.138492 -0.23167,-0.357434 -0.74797,-0.357434 -0.67515,0 -1.04582,0.556008 -0.36405,0.556008 -0.37729,1.608451 v 3.640528 h -2.38289 v -3.865578 q 0,-1.231161 -0.21182,-1.581975 -0.21181,-0.357434 -0.75458,-0.357434 -0.68177,0 -1.05244,0.562627 -0.37067,0.556008 -0.37067,1.595213 v 3.647147 h -2.38289 v -7.413438 h 2.38289 v 1.085539 q 0.43686,-0.628818 0.99949,-0.946537 0.56924,-0.317719 1.25102,-0.317719 0.76782,0 1.35692,0.370672 0.5891,0.370672 0.89358,1.039205 z"
         style="font-weight:bold"
         id="path110566" />
      <path
         d="m 190.16574,53.849965 q -0.78768,0 -1.20468,0.569247 -0.41039,0.562626 -0.41039,1.628308 0,1.065682 0.41039,1.634928 0.417,0.562627 1.20468,0.562627 0.77444,0 1.18482,-0.562627 0.41039,-0.569246 0.41039,-1.634928 0,-1.065682 -0.41039,-1.628308 -0.41038,-0.569247 -1.18482,-0.569247 z m 0,-1.6945 q 1.91293,0 2.98523,1.032586 1.07892,1.032586 1.07892,2.859469 0,1.826883 -1.07892,2.859469 -1.0723,1.032586 -2.98523,1.032586 -1.91955,0 -3.00509,-1.032586 -1.07892,-1.032586 -1.07892,-2.859469 0,-1.826883 1.07892,-2.859469 1.08554,-1.032586 3.00509,-1.032586 z"
         style="font-weight:bold"
         id="path110563" />
      <path
         d="m 200.99465,53.419721 v -3.971484 h 2.38289 V 59.74762 h -2.38289 v -1.072301 q -0.48982,0.655295 -1.07892,0.959775 -0.58911,0.304481 -1.36355,0.304481 -1.37016,0 -2.2505,-1.085539 -0.88035,-1.092159 -0.88035,-2.806516 0,-1.714357 0.88035,-2.799896 0.88034,-1.092159 2.2505,-1.092159 0.76782,0 1.35693,0.3111 0.59572,0.304481 1.08554,0.953156 z m -1.56212,4.798877 q 0.7612,0 1.15835,-0.556008 0.40377,-0.556007 0.40377,-1.61507 0,-1.059062 -0.40377,-1.61507 -0.39715,-0.556008 -1.15835,-0.556008 -0.75458,0 -1.15835,0.556008 -0.39715,0.556008 -0.39715,1.61507 0,1.059063 0.39715,1.61507 0.40377,0.556008 1.15835,0.556008 z"
         style="font-weight:bold"
         id="path110560" />
      <path
         d="m 213.05472,56.021044 v 0.675152 h -5.54022 q 0.0861,0.834012 0.60234,1.251017 0.51629,0.417006 1.44297,0.417006 0.74797,0 1.52903,-0.218431 0.78767,-0.225051 1.61507,-0.675153 v 1.826883 q -0.84063,0.317719 -1.68127,0.476578 -0.84063,0.165479 -1.68126,0.165479 -2.01222,0 -3.13085,-1.019348 -1.11202,-1.025967 -1.11202,-2.872707 0,-1.813644 1.09216,-2.852849 1.09878,-1.039206 3.01833,-1.039206 1.74745,0 2.79328,1.052444 1.05244,1.052443 1.05244,2.813135 z m -2.43584,-0.787678 q 0,-0.675153 -0.39715,-1.085539 -0.39053,-0.417006 -1.02597,-0.417006 -0.68839,0 -1.11863,0.390529 -0.43025,0.38391 -0.53615,1.112016 z"
         style="font-weight:bold"
         id="path110557" />
      <path
         d="m 214.84851,49.448237 h 2.36965 V 59.74762 h -2.36965 z"
         style="font-weight:bold"
         id="path110554" />
      <path
         d="m 219.49514,52.334182 h 2.36966 v 7.413438 h -2.36966 z m 0,-2.885945 h 2.36966 v 1.932789 h -2.36966 z"
         style="font-weight:bold"
         id="path110551" />
      <path
         d="m 231.59493,55.233366 v 4.514254 h -2.38289 v -0.734725 -2.720467 q 0,-0.959775 -0.0463,-1.323828 -0.0397,-0.364053 -0.14562,-0.53615 -0.139,-0.23167 -0.37729,-0.357434 -0.23829,-0.132383 -0.54277,-0.132383 -0.74135,0 -1.16497,0.575866 -0.42363,0.569246 -0.42363,1.581974 v 3.647147 h -2.36965 v -7.413438 h 2.36965 v 1.085539 q 0.53615,-0.648675 1.13849,-0.953156 0.60235,-0.3111 1.33045,-0.3111 1.28412,0 1.94603,0.787678 0.66853,0.787678 0.66853,2.290223 z"
         style="font-weight:bold"
         id="path110548" />
      <path
         d="m 238.83628,58.489983 q -0.48982,0.648676 -1.07892,0.953156 -0.58911,0.304481 -1.36355,0.304481 -1.35692,0 -2.24388,-1.065682 -0.88697,-1.072301 -0.88697,-2.727086 0,-1.661404 0.88697,-2.720467 0.88696,-1.065681 2.24388,-1.065681 0.77444,0 1.36355,0.30448 0.5891,0.304481 1.07892,0.959776 v -1.098778 h 2.38289 v 6.665475 q 0,1.787168 -1.13188,2.727086 -1.12525,0.946537 -3.26985,0.946537 -0.69501,0 -1.34369,-0.105907 -0.64867,-0.105906 -1.30397,-0.324337 v -1.846741 q 0.6222,0.357434 1.21792,0.529532 0.59573,0.178716 1.19807,0.178716 1.16497,0 1.70774,-0.509673 0.54277,-0.509674 0.54277,-1.595213 z m -1.56212,-4.613541 q -0.73473,0 -1.14511,0.54277 -0.41039,0.542769 -0.41039,1.53564 0,1.019348 0.39715,1.548879 0.39715,0.522912 1.15835,0.522912 0.74134,0 1.15173,-0.542769 0.41039,-0.54277 0.41039,-1.529022 0,-0.992871 -0.41039,-1.53564 -0.41039,-0.54277 -1.15173,-0.54277 z"
         style="font-weight:bold"
         id="path110545" />
    </g>
    <g
       aria-label="machine learning"
       transform="scale(0.98174325,1.0185963)"
       id="text108703"
       style="font-size:13.8535px;-inkscape-font-specification:sans-serif;fill:#931616;stroke-width:1.27627;stroke-linecap:round;stroke-linejoin:round">
      <path
         d="m 329.12057,54.958986 q 0.45998,-0.703498 1.08907,-1.068776 0.63585,-0.372043 1.39346,-0.372043 1.30553,0 1.98874,0.804965 0.6832,0.804964 0.6832,2.340484 v 4.613323 h -2.43518 v -3.950412 q 0.007,-0.08794 0.007,-0.182639 0.007,-0.0947 0.007,-0.270576 0,-0.804964 -0.23676,-1.163477 -0.23675,-0.365278 -0.76437,-0.365278 -0.68997,0 -1.06878,0.56821 -0.37204,0.56821 -0.38557,1.64375 v 3.720422 h -2.43519 v -3.950412 q 0,-1.258179 -0.21646,-1.616692 -0.21646,-0.365278 -0.77114,-0.365278 -0.69673,0 -1.07554,0.574974 -0.37881,0.56821 -0.37881,1.630222 v 3.727186 h -2.43518 v -7.576133 h 2.43518 v 1.109363 q 0.44645,-0.642619 1.02143,-0.96731 0.58174,-0.324692 1.27847,-0.324692 0.78467,0 1.3867,0.378807 0.60204,0.378807 0.9132,1.062012 z"
         style="font-weight:bold"
         id="path110936" />
      <path
         d="m 339.93009,57.86768 q -0.75762,0 -1.14319,0.257047 -0.37881,0.257047 -0.37881,0.757613 0,0.45998 0.3044,0.723791 0.31117,0.257048 0.85908,0.257048 0.68321,0 1.14995,-0.487037 0.46675,-0.493802 0.46675,-1.231122 v -0.27734 z m 3.70013,-0.913195 v 4.322454 h -2.44195 v -1.122891 q -0.48704,0.68997 -1.09584,1.007897 -0.60879,0.311162 -1.4814,0.311162 -1.17701,0 -1.91433,-0.683205 -0.73056,-0.689969 -0.73056,-1.785803 0,-1.332587 0.9132,-1.954912 0.91996,-0.622326 2.88164,-0.622326 h 1.42729 v -0.189403 q 0,-0.574974 -0.45322,-0.838786 -0.45322,-0.270576 -1.41376,-0.270576 -0.77791,0 -1.44758,0.155581 -0.66968,0.155581 -1.24465,0.466744 v -1.846682 q 0.7779,-0.189404 1.56257,-0.284105 0.78467,-0.101467 1.56935,-0.101467 2.04961,0 2.95604,0.811729 0.9132,0.804964 0.9132,2.624589 z"
         style="font-weight:bold"
         id="path110933" />
      <path
         d="m 352.00455,53.937561 v 1.975206 q -0.4938,-0.338221 -0.99437,-0.500566 -0.4938,-0.162346 -1.02819,-0.162346 -1.01466,0 -1.58287,0.595268 -0.56145,0.588503 -0.56145,1.650514 0,1.062012 0.56145,1.657279 0.56821,0.588504 1.58287,0.588504 0.56821,0 1.07554,-0.169111 0.5141,-0.16911 0.94702,-0.500565 v 1.98197 q -0.56821,0.209697 -1.15672,0.311163 -0.58173,0.10823 -1.17024,0.10823 -2.04961,0 -3.20633,-1.048483 -1.15671,-1.055247 -1.15671,-2.928987 0,-1.87374 1.15671,-2.922222 1.15672,-1.055248 3.20633,-1.055248 0.59527,0 1.17024,0.108231 0.58174,0.101466 1.15672,0.311163 z"
         style="font-weight:bold"
         id="path110930" />
      <path
         d="m 361.71147,56.663616 v 4.613323 h -2.43519 V 60.52609 57.759449 q 0,-0.994367 -0.0473,-1.36641 -0.0406,-0.372042 -0.14882,-0.547916 -0.14205,-0.236755 -0.38557,-0.365278 -0.24352,-0.135288 -0.55468,-0.135288 -0.75761,0 -1.19053,0.588503 -0.43293,0.581739 -0.43293,1.616693 v 3.727186 H 354.0948 V 50.751526 h 2.42165 v 4.058643 q 0.54792,-0.662912 1.16348,-0.974075 0.61556,-0.317927 1.35965,-0.317927 1.31229,0 1.98873,0.804965 0.68321,0.804964 0.68321,2.340484 z"
         style="font-weight:bold"
         id="path110927" />
      <path
         d="m 363.95725,53.700806 h 2.42166 v 7.576133 h -2.42166 z m 0,-2.94928 h 2.42166 v 1.975206 h -2.42166 z"
         style="font-weight:bold"
         id="path110924" />
      <path
         d="m 376.32258,56.663616 v 4.613323 H 373.8874 V 60.52609 57.74592 q 0,-0.980838 -0.0473,-1.352881 -0.0406,-0.372042 -0.14882,-0.547916 -0.14205,-0.236755 -0.38557,-0.365278 -0.24352,-0.135288 -0.55468,-0.135288 -0.75762,0 -1.19054,0.588503 -0.43292,0.581739 -0.43292,1.616693 v 3.727186 h -2.42166 v -7.576133 h 2.42166 v 1.109363 q 0.54792,-0.662912 1.16348,-0.974075 0.61556,-0.317927 1.35964,-0.317927 1.3123,0 1.98874,0.804965 0.6832,0.804964 0.6832,2.340484 z"
         style="font-weight:bold"
         id="path110921" />
      <path
         d="m 386.13097,57.46858 v 0.689969 h -5.66181 q 0.0879,0.852315 0.61556,1.278472 0.52763,0.426158 1.47464,0.426158 0.76438,0 1.56258,-0.223225 0.80497,-0.22999 1.65052,-0.68997 v 1.866976 q -0.85908,0.324691 -1.71816,0.487037 -0.85908,0.16911 -1.71816,0.16911 -2.05638,0 -3.19956,-1.041718 -1.13642,-1.048483 -1.13642,-2.935752 0,-1.853447 1.11612,-2.915458 1.12289,-1.062012 3.08457,-1.062012 1.7858,0 2.85458,1.075541 1.07554,1.07554 1.07554,2.874872 z m -2.4893,-0.804964 q 0,-0.68997 -0.40587,-1.109363 -0.3991,-0.426157 -1.04848,-0.426157 -0.7035,0 -1.14318,0.3991 -0.43969,0.392335 -0.54792,1.13642 z"
         style="font-weight:bold"
         id="path110918" />
      <path
         d="m 392.78714,50.751526 h 2.42166 v 10.525413 h -2.42166 z"
         style="font-weight:bold"
         id="path110915" />
      <path
         d="m 405.09836,57.46858 v 0.689969 h -5.66181 q 0.0879,0.852315 0.61556,1.278472 0.52763,0.426158 1.47464,0.426158 0.76438,0 1.56258,-0.223225 0.80496,-0.22999 1.65051,-0.68997 v 1.866976 q -0.85907,0.324691 -1.71815,0.487037 -0.85908,0.16911 -1.71816,0.16911 -2.05638,0 -3.19957,-1.041718 -1.13642,-1.048483 -1.13642,-2.935752 0,-1.853447 1.11613,-2.915458 1.12289,-1.062012 3.08457,-1.062012 1.7858,0 2.85458,1.075541 1.07554,1.07554 1.07554,2.874872 z m -2.4893,-0.804964 q 0,-0.68997 -0.40587,-1.109363 -0.3991,-0.426157 -1.04848,-0.426157 -0.7035,0 -1.14318,0.3991 -0.43969,0.392335 -0.54792,1.13642 z"
         style="font-weight:bold"
         id="path110912" />
      <path
         d="m 410.32724,57.86768 q -0.75761,0 -1.14318,0.257047 -0.37881,0.257047 -0.37881,0.757613 0,0.45998 0.3044,0.723791 0.31116,0.257048 0.85908,0.257048 0.68321,0 1.14995,-0.487037 0.46674,-0.493802 0.46674,-1.231122 v -0.27734 z m 3.70013,-0.913195 v 4.322454 h -2.44195 v -1.122891 q -0.48703,0.68997 -1.09583,1.007897 -0.6088,0.311162 -1.4814,0.311162 -1.17701,0 -1.91433,-0.683205 -0.73056,-0.689969 -0.73056,-1.785803 0,-1.332587 0.9132,-1.954912 0.91996,-0.622326 2.88163,-0.622326 h 1.42729 v -0.189403 q 0,-0.574974 -0.45321,-0.838786 -0.45322,-0.270576 -1.41376,-0.270576 -0.77791,0 -1.44758,0.155581 -0.66968,0.155581 -1.24465,0.466744 v -1.846682 q 0.7779,-0.189404 1.56257,-0.284105 0.78467,-0.101467 1.56934,-0.101467 2.04962,0 2.95605,0.811729 0.91319,0.804964 0.91319,2.624589 z"
         style="font-weight:bold"
         id="path110909" />
      <path
         d="m 421.9079,55.76395 q -0.31793,-0.148817 -0.63585,-0.216461 -0.31116,-0.07441 -0.62909,-0.07441 -0.93349,0 -1.44082,0.602032 -0.50057,0.595268 -0.50057,1.711395 v 3.490432 h -2.42165 v -7.576133 h 2.42165 v 1.244651 q 0.46675,-0.744085 1.06878,-1.082305 0.6088,-0.344985 1.45435,-0.344985 0.12176,0 0.26381,0.01353 0.14205,0.0068 0.41263,0.04059 z"
         style="font-weight:bold"
         id="path110906" />
      <path
         d="m 430.72869,56.663616 v 4.613323 h -2.43518 V 60.52609 57.74592 q 0,-0.980838 -0.0474,-1.352881 -0.0406,-0.372042 -0.14881,-0.547916 -0.14205,-0.236755 -0.38557,-0.365278 -0.24352,-0.135288 -0.55468,-0.135288 -0.75762,0 -1.19054,0.588503 -0.43292,0.581739 -0.43292,1.616693 v 3.727186 h -2.42166 v -7.576133 h 2.42166 v 1.109363 q 0.54792,-0.662912 1.16348,-0.974075 0.61556,-0.317927 1.35964,-0.317927 1.3123,0 1.98874,0.804965 0.6832,0.804964 0.6832,2.340484 z"
         style="font-weight:bold"
         id="path110903" />
      <path
         d="m 432.97447,53.700806 h 2.42165 v 7.576133 h -2.42165 z m 0,-2.94928 h 2.42165 v 1.975206 h -2.42165 z"
         style="font-weight:bold"
         id="path110900" />
      <path
         d="m 445.3398,56.663616 v 4.613323 h -2.43519 V 60.52609 57.74592 q 0,-0.980838 -0.0473,-1.352881 -0.0406,-0.372042 -0.14882,-0.547916 -0.14205,-0.236755 -0.38557,-0.365278 -0.24352,-0.135288 -0.55468,-0.135288 -0.75761,0 -1.19053,0.588503 -0.43292,0.581739 -0.43292,1.616693 v 3.727186 h -2.42166 v -7.576133 h 2.42166 v 1.109363 q 0.54791,-0.662912 1.16347,-0.974075 0.61556,-0.317927 1.35965,-0.317927 1.31229,0 1.98873,0.804965 0.68321,0.804964 0.68321,2.340484 z"
         style="font-weight:bold"
         id="path110897" />
      <path
         d="m 452.74006,59.991703 q -0.50057,0.662911 -1.1026,0.974074 -0.60203,0.311162 -1.39347,0.311162 -1.3867,0 -2.29313,-1.089069 -0.90643,-1.095833 -0.90643,-2.786934 0,-1.697866 0.90643,-2.780171 0.90643,-1.089069 2.29313,-1.089069 0.79144,0 1.39347,0.311163 0.60203,0.311162 1.1026,0.980839 v -1.122892 h 2.43518 v 6.811756 q 0,1.826389 -1.15671,2.786934 -1.14995,0.96731 -3.34162,0.96731 -0.71026,0 -1.37317,-0.10823 -0.66291,-0.108231 -1.33259,-0.331456 v -1.887269 q 0.63586,0.365278 1.24465,0.541152 0.6088,0.182639 1.22436,0.182639 1.19054,0 1.74522,-0.520859 0.55468,-0.520859 0.55468,-1.630221 z m -1.5964,-4.71479 q -0.75085,0 -1.17024,0.554681 -0.4194,0.554681 -0.4194,1.569342 0,1.041718 0.40587,1.58287 0.40586,0.534388 1.18377,0.534388 0.75761,0 1.177,-0.554681 0.4194,-0.554681 0.4194,-1.562577 0,-1.014661 -0.4194,-1.569342 -0.41939,-0.554681 -1.177,-0.554681 z"
         style="font-weight:bold"
         id="path110894" />
    </g>
    <g
       aria-label="interpretation  "
       id="text104315"
       style="font-size:14.1111px;-inkscape-font-specification:sans-serif;fill:#1a237e;stroke-width:1.3;stroke-linecap:round;stroke-linejoin:round"
       transform="translate(11.963753)">
      <path
         d="m 73.104777,95.940921 h 1.267794 v 7.717009 h -1.267794 z m 0,-3.004121 h 1.267794 v 1.605413 h -1.267794 z"
         id="path110542" />
      <path
         d="m 83.440055,99.000163 v 4.657767 h -1.267794 v -4.616426 q 0,-1.095539 -0.427191,-1.639864 -0.427192,-0.544325 -1.281575,-0.544325 -1.026638,0 -1.619194,0.654568 -0.592556,0.654568 -0.592556,1.784558 v 4.361489 h -1.274684 v -7.717009 h 1.274684 v 1.198892 q 0.454753,-0.695909 1.067979,-1.040418 0.620117,-0.344509 1.426269,-0.344509 1.329805,0 2.011934,0.826822 0.682128,0.819932 0.682128,2.418455 z"
         id="path110539" />
      <path
         d="m 87.222768,93.749842 v 2.191079 h 2.61138 v 0.985296 h -2.61138 v 4.189233 q 0,0.94396 0.254937,1.21267 0.261827,0.26872 1.054198,0.26872 h 1.302245 v 1.06109 h -1.302245 q -1.467609,0 -2.025714,-0.54433 -0.558105,-0.55121 -0.558105,-1.99815 v -4.189233 h -0.930175 v -0.985296 h 0.930175 v -2.191079 z"
         id="path110536" />
      <path
         d="m 98.102372,99.482476 v 0.620114 h -5.829097 q 0.08268,1.30914 0.785481,1.99816 0.709689,0.68212 1.970593,0.68212 0.73036,0 1.412488,-0.17914 0.689019,-0.17914 1.364257,-0.53743 v 1.19889 q -0.682128,0.28939 -1.398708,0.44097 -0.716579,0.15158 -1.453829,0.15158 -1.84657,0 -2.928329,-1.07487 -1.074869,-1.07486 -1.074869,-2.907653 0,-1.894802 1.019748,-3.004121 1.026637,-1.11621 2.762964,-1.11621 1.557182,0 2.459796,1.005967 0.909505,0.999077 0.909505,2.721623 z m -1.267794,-0.37207 q -0.01378,-1.040418 -0.585666,-1.660535 -0.564995,-0.620117 -1.502061,-0.620117 -1.061088,0 -1.701875,0.599447 -0.633897,0.599446 -0.73036,1.688095 z"
         id="path110533" />
      <path
         d="m 104.65494,97.126032 q -0.2136,-0.124023 -0.46854,-0.179144 -0.24804,-0.06201 -0.55121,-0.06201 -1.07487,0 -1.65364,0.702799 -0.57189,0.695909 -0.57189,2.005044 v 4.065209 h -1.27468 v -7.717007 h 1.27468 v 1.198892 q 0.39963,-0.702799 1.04042,-1.040418 0.64079,-0.344509 1.55718,-0.344509 0.13091,0 0.28939,0.02067 0.15847,0.01378 0.3514,0.04823 z"
         id="path110530" />
      <path
         d="m 107.2112,102.50038 v 4.09277 h -1.27469 V 95.940921 h 1.27469 v 1.171331 q 0.39963,-0.689018 1.00596,-1.019747 0.61323,-0.337619 1.46072,-0.337619 1.4056,0 2.28065,1.11621 0.88195,1.11621 0.88195,2.935219 0,1.819005 -0.88195,2.935215 -0.87505,1.11621 -2.28065,1.11621 -0.84749,0 -1.46072,-0.33073 -0.60633,-0.33761 -1.00596,-1.02663 z m 4.31325,-2.694065 q 0,-1.398708 -0.57877,-2.191079 -0.57189,-0.799262 -1.57786,-0.799262 -1.00596,0 -1.58474,0.799262 -0.57188,0.792371 -0.57188,2.191079 0,1.398705 0.57188,2.197965 0.57878,0.79238 1.58474,0.79238 1.00597,0 1.57786,-0.79238 0.57877,-0.79926 0.57877,-2.197965 z"
         id="path110527" />
      <path
         d="m 119.41372,97.126032 q -0.2136,-0.124023 -0.46854,-0.179144 -0.24804,-0.06201 -0.55121,-0.06201 -1.07487,0 -1.65365,0.702799 -0.57188,0.695909 -0.57188,2.005044 v 4.065209 h -1.27469 v -7.717007 h 1.27469 v 1.198892 q 0.39963,-0.702799 1.04042,-1.040418 0.64078,-0.344509 1.55718,-0.344509 0.13091,0 0.28939,0.02067 0.15847,0.01378 0.35139,0.04823 z"
         id="path110524" />
      <path
         d="m 127.03426,99.482476 v 0.620114 h -5.8291 q 0.0827,1.30914 0.78548,1.99816 0.70969,0.68212 1.9706,0.68212 0.73036,0 1.41249,-0.17914 0.68901,-0.17914 1.36425,-0.53743 v 1.19889 q -0.68213,0.28939 -1.39871,0.44097 -0.71657,0.15158 -1.45382,0.15158 -1.84657,0 -2.92833,-1.07487 -1.07487,-1.07486 -1.07487,-2.907653 0,-1.894802 1.01975,-3.004121 1.02663,-1.11621 2.76296,-1.11621 1.55718,0 2.4598,1.005967 0.9095,0.999077 0.9095,2.721623 z m -1.26779,-0.37207 q -0.0138,-1.040418 -0.58567,-1.660535 -0.56499,-0.620117 -1.50206,-0.620117 -1.06109,0 -1.70188,0.599447 -0.63389,0.599446 -0.73036,1.688095 z"
         id="path110521" />
      <path
         d="m 130.36911,93.749842 v 2.191079 h 2.61138 v 0.985296 h -2.61138 v 4.189233 q 0,0.94396 0.25494,1.21267 0.26182,0.26872 1.05419,0.26872 h 1.30225 v 1.06109 h -1.30225 q -1.4676,0 -2.02571,-0.54433 -0.5581,-0.55121 -0.5581,-1.99815 v -4.189233 h -0.93018 v -0.985296 h 0.93018 v -2.191079 z"
         id="path110518" />
      <path
         d="m 138.15502,99.778754 q -1.53651,0 -2.12907,0.351396 -0.59256,0.3514 -0.59256,1.1989 0,0.67523 0.44098,1.07486 0.44786,0.39275 1.21267,0.39275 1.0542,0 1.68809,-0.74414 0.64079,-0.75104 0.64079,-1.99127 v -0.282496 z m 2.5287,-0.523654 v 4.40283 h -1.2678 v -1.17133 q -0.43408,0.7028 -1.08176,1.04041 -0.64767,0.33073 -1.58474,0.33073 -1.18511,0 -1.88791,-0.66145 -0.69591,-0.66835 -0.69591,-1.78456 0,-1.30225 0.86816,-1.963705 0.87506,-0.661458 2.60449,-0.661458 h 1.77767 v -0.124023 q 0,-0.875054 -0.57877,-1.350477 -0.57189,-0.482313 -1.61231,-0.482313 -0.66145,0 -1.28846,0.158475 -0.62701,0.158474 -1.20578,0.475423 V 96.29232 q 0.6959,-0.268717 1.35047,-0.399631 0.65457,-0.137803 1.27469,-0.137803 1.67431,0 2.50113,0.868163 0.82683,0.868163 0.82683,2.632051 z"
         id="path110515" />
      <path
         d="m 144.54911,93.749842 v 2.191079 h 2.61138 v 0.985296 h -2.61138 v 4.189233 q 0,0.94396 0.25494,1.21267 0.26183,0.26872 1.0542,0.26872 h 1.30224 v 1.06109 h -1.30224 q -1.46761,0 -2.02572,-0.54433 -0.5581,-0.55121 -0.5581,-1.99815 v -4.189233 h -0.93018 v -0.985296 h 0.93018 v -2.191079 z"
         id="path110512" />
      <path
         d="m 148.82792,95.940921 h 1.2678 v 7.717009 h -1.2678 z m 0,-3.004121 h 1.2678 v 1.605413 h -1.2678 z"
         id="path110509" />
      <path
         d="m 155.73877,96.829754 q -1.01975,0 -1.6123,0.799262 -0.59256,0.792371 -0.59256,2.177299 0,1.384925 0.58567,2.184185 0.59255,0.79237 1.61919,0.79237 1.01286,0 1.60541,-0.79926 0.59256,-0.79926 0.59256,-2.177295 0,-1.371147 -0.59256,-2.170409 -0.59255,-0.806152 -1.60541,-0.806152 z m 0,-1.074868 q 1.65365,0 2.5976,1.074868 0.94396,1.074869 0.94396,2.976561 0,1.894805 -0.94396,2.976555 -0.94395,1.07487 -2.5976,1.07487 -1.66053,0 -2.60449,-1.07487 -0.93706,-1.08175 -0.93706,-2.976555 0,-1.901692 0.93706,-2.976561 0.94396,-1.074868 2.60449,-1.074868 z"
         id="path110506" />
      <path
         d="m 167.7966,99.000163 v 4.657767 h -1.26779 v -4.616426 q 0,-1.095539 -0.42719,-1.639864 -0.4272,-0.544325 -1.28158,-0.544325 -1.02664,0 -1.61919,0.654568 -0.59256,0.654568 -0.59256,1.784558 v 4.361489 h -1.27468 v -7.717009 h 1.27468 v 1.198892 q 0.45475,-0.695909 1.06798,-1.040418 0.62012,-0.344509 1.42627,-0.344509 1.3298,0 2.01193,0.826822 0.68213,0.819932 0.68213,2.418455 z"
         id="path110503" />
    </g>
    <g
       aria-label="theory-driven"
       id="text107231"
       style="font-size:14.1111px;-inkscape-font-specification:sans-serif;fill:#1a237e;stroke-width:1.3;stroke-linecap:round;stroke-linejoin:round"
       transform="translate(11.963753)">
      <path
         d="M 75.309642,73.999521 V 76.1906 h 2.61138 v 0.985297 h -2.61138 v 4.189233 q 0,0.943955 0.254937,1.212672 0.261827,0.268717 1.054198,0.268717 h 1.302245 v 1.061089 h -1.302245 q -1.467609,0 -2.025714,-0.544325 -0.558105,-0.551214 -0.558105,-1.998153 V 77.175897 H 73.104783 V 76.1906 h 0.930175 v -2.191079 z"
         id="path110500" />
      <path
         d="m 86.00321,79.249843 v 4.657765 h -1.267794 v -4.616424 q 0,-1.09554 -0.427191,-1.639865 -0.427192,-0.544324 -1.281575,-0.544324 -1.026637,0 -1.619193,0.654567 -0.592556,0.654568 -0.592556,1.784559 v 4.361487 H 79.540216 V 73.186479 h 1.274685 v 4.203013 q 0.454752,-0.695908 1.067978,-1.040418 0.620117,-0.344509 1.426269,-0.344509 1.329806,0 2.011934,0.826822 0.682128,0.819932 0.682128,2.418456 z"
         id="path110497" />
      <path
         d="m 95.132706,79.732156 v 0.620116 h -5.829097 q 0.08268,1.309136 0.785481,1.998154 0.70969,0.682128 1.970594,0.682128 0.730359,0 1.412488,-0.179144 0.689018,-0.179145 1.364256,-0.537435 v 1.198892 q -0.682128,0.289388 -1.398707,0.440972 -0.71658,0.151584 -1.45383,0.151584 -1.846569,0 -2.928328,-1.074869 -1.074869,-1.074869 -1.074869,-2.907658 0,-1.894801 1.019747,-3.004121 1.026638,-1.11621 2.762965,-1.11621 1.557182,0 2.459796,1.005967 0.909504,0.999077 0.909504,2.721624 z m -1.267794,-0.37207 q -0.01378,-1.040419 -0.585666,-1.660535 -0.564995,-0.620117 -1.50206,-0.620117 -1.061089,0 -1.701876,0.599446 -0.633897,0.599446 -0.73036,1.688096 z"
         id="path110494" />
      <path
         d="m 100.20388,77.079434 q -1.019744,0 -1.612299,0.799262 -0.592556,0.792371 -0.592556,2.177298 0,1.384928 0.585665,2.184189 0.592556,0.792371 1.61919,0.792371 1.01286,0 1.60542,-0.799261 0.59255,-0.799262 0.59255,-2.177299 0,-1.371147 -0.59255,-2.170408 -0.59256,-0.806152 -1.60542,-0.806152 z m 0,-1.074869 q 1.65365,0 2.5976,1.074869 0.94396,1.074869 0.94396,2.97656 0,1.894801 -0.94396,2.97656 -0.94395,1.074869 -2.5976,1.074869 -1.660531,0 -2.604486,-1.074869 -0.937065,-1.081759 -0.937065,-2.97656 0,-1.901691 0.937065,-2.97656 0.943955,-1.074869 2.604486,-1.074869 z"
         id="path110491" />
      <path
         d="m 110.31868,77.375712 q -0.2136,-0.124023 -0.46854,-0.179145 -0.24804,-0.06201 -0.55121,-0.06201 -1.07487,0 -1.65365,0.702798 -0.57188,0.695909 -0.57188,2.005045 v 4.065209 h -1.27469 V 76.1906 h 1.27469 v 1.198892 q 0.39963,-0.702799 1.04042,-1.040418 0.64078,-0.344509 1.55718,-0.344509 0.13091,0 0.28939,0.02067 0.15847,0.01378 0.3514,0.04823 z"
         id="path110488" />
      <path
         d="m 114.85931,84.624187 q -0.53744,1.378037 -1.04731,1.798339 -0.50987,0.420301 -1.36426,0.420301 h -1.01285 v -1.061088 h 0.74414 q 0.52365,0 0.81304,-0.248047 0.28939,-0.248047 0.64079,-1.171332 l 0.22737,-0.578775 -3.12125,-7.592985 h 1.34358 l 2.41157,6.035803 2.41156,-6.035803 h 1.34359 z"
         id="path110485" />
      <path
         d="m 119.11055,79.477219 h 3.71381 v 1.12999 h -3.71381 z"
         id="path110482" />
      <path
         d="m 129.92125,77.361932 v -4.175453 h 1.2678 v 10.721129 h -1.2678 v -1.157551 q -0.39963,0.689018 -1.01285,1.026638 -0.60634,0.330728 -1.46072,0.330728 -1.39871,0 -2.28065,-1.11621 -0.87506,-1.11621 -0.87506,-2.935219 0,-1.819009 0.87506,-2.935219 0.88194,-1.11621 2.28065,-1.11621 0.85438,0 1.46072,0.337619 0.61322,0.330729 1.01285,1.019748 z m -4.32014,2.694062 q 0,1.398708 0.57188,2.197969 0.57878,0.792372 1.58475,0.792372 1.00596,0 1.58474,-0.792372 0.57877,-0.799261 0.57877,-2.197969 0,-1.398707 -0.57877,-2.191079 -0.57878,-0.799261 -1.58474,-0.799261 -1.00597,0 -1.58475,0.799261 -0.57188,0.792372 -0.57188,2.191079 z"
         id="path110479" />
      <path
         d="m 138.27216,77.375712 q -0.2136,-0.124023 -0.46853,-0.179145 -0.24805,-0.06201 -0.55122,-0.06201 -1.07487,0 -1.65364,0.702798 -0.57189,0.695909 -0.57189,2.005045 v 4.065209 H 133.7522 V 76.1906 h 1.27468 v 1.198892 q 0.39963,-0.702799 1.04042,-1.040418 0.64079,-0.344509 1.55718,-0.344509 0.13092,0 0.28939,0.02067 0.15847,0.01378 0.3514,0.04823 z"
         id="path110476" />
      <path
         d="m 139.60196,76.1906 h 1.2678 v 7.717008 h -1.2678 z m 0,-3.004121 h 1.2678 v 1.605413 h -1.2678 z"
         id="path110473" />
      <path
         d="m 142.61297,76.1906 h 1.34359 l 2.41157,6.476775 2.41156,-6.476775 h 1.34359 l -2.89388,7.717008 h -1.72255 z"
         id="path110470" />
      <path
         d="m 158.47418,79.732156 v 0.620116 h -5.82909 q 0.0827,1.309136 0.78548,1.998154 0.70969,0.682128 1.97059,0.682128 0.73036,0 1.41249,-0.179144 0.68902,-0.179145 1.36425,-0.537435 v 1.198892 q -0.68212,0.289388 -1.3987,0.440972 -0.71658,0.151584 -1.45383,0.151584 -1.84657,0 -2.92833,-1.074869 -1.07487,-1.074869 -1.07487,-2.907658 0,-1.894801 1.01975,-3.004121 1.02664,-1.11621 2.76296,-1.11621 1.55718,0 2.4598,1.005967 0.9095,0.999077 0.9095,2.721624 z m -1.26779,-0.37207 q -0.0138,-1.040419 -0.58567,-1.660535 -0.56499,-0.620117 -1.50206,-0.620117 -1.06109,0 -1.70187,0.599446 -0.6339,0.599446 -0.73036,1.688096 z"
         id="path110467" />
      <path
         d="m 166.96978,79.249843 v 4.657765 h -1.26779 v -4.616424 q 0,-1.09554 -0.42719,-1.639865 -0.4272,-0.544324 -1.28158,-0.544324 -1.02664,0 -1.61919,0.654567 -0.59256,0.654568 -0.59256,1.784559 v 4.361487 h -1.27468 V 76.1906 h 1.27468 v 1.198892 q 0.45475,-0.695908 1.06798,-1.040418 0.62012,-0.344509 1.42627,-0.344509 1.3298,0 2.01193,0.826822 0.68213,0.819932 0.68213,2.418456 z"
         id="path110464" />
    </g>
    <g
       aria-label="testability"
       id="text107235"
       style="font-size:14.1111px;-inkscape-font-specification:sans-serif;fill:#1a237e;stroke-width:1.3;stroke-linecap:round;stroke-linejoin:round"
       transform="translate(11.963753)">
      <path
         d="m 75.309642,113.50017 v 2.19108 h 2.61138 v 0.9853 h -2.61138 v 4.18923 q 0,0.94395 0.254937,1.21267 0.261827,0.26872 1.054198,0.26872 h 1.302245 v 1.06109 h -1.302245 q -1.467609,0 -2.025714,-0.54433 -0.558105,-0.55121 -0.558105,-1.99815 v -4.18923 h -0.930175 v -0.9853 h 0.930175 v -2.19108 z"
         id="path110461" />
      <path
         d="m 86.189245,119.2328 v 0.62012 h -5.829097 q 0.08268,1.30914 0.785482,1.99815 0.709689,0.68213 1.970593,0.68213 0.730359,0 1.412488,-0.17914 0.689018,-0.17915 1.364256,-0.53744 v 1.1989 q -0.682128,0.28938 -1.398707,0.44097 -0.71658,0.15158 -1.453829,0.15158 -1.84657,0 -2.928329,-1.07487 -1.074869,-1.07487 -1.074869,-2.90766 0,-1.8948 1.019747,-3.00412 1.026638,-1.11621 2.762965,-1.11621 1.557182,0 2.459796,1.00597 0.909504,0.99908 0.909504,2.72162 z m -1.267794,-0.37207 q -0.01378,-1.04041 -0.585666,-1.66053 -0.564995,-0.62012 -1.50206,-0.62012 -1.061089,0 -1.701876,0.59945 -0.633897,0.59944 -0.73036,1.68809 z"
         id="path110458" />
      <path
         d="m 93.189674,115.91862 v 1.1989 q -0.537435,-0.27561 -1.116211,-0.41341 -0.578775,-0.13781 -1.198892,-0.13781 -0.943955,0 -1.419378,0.28939 -0.468533,0.28939 -0.468533,0.86816 0,0.44098 0.337619,0.69591 0.33762,0.24805 1.357367,0.47542 l 0.434082,0.0965 q 1.350476,0.28939 1.915471,0.81993 0.571886,0.52365 0.571886,1.46761 0,1.07487 -0.854383,1.70188 -0.847493,0.627 -2.335773,0.627 -0.620117,0 -1.295355,-0.12402 -0.668348,-0.11713 -1.412488,-0.35829 v -1.30914 q 0.702799,0.36518 1.384927,0.55122 0.682128,0.17914 1.350476,0.17914 0.895725,0 1.378038,-0.30316 0.482313,-0.31006 0.482313,-0.86817 0,-0.51676 -0.3514,-0.79237 -0.344509,-0.27561 -1.522731,-0.53054 l -0.440972,-0.10336 q -1.178221,-0.24804 -1.701876,-0.75792 -0.523654,-0.51676 -0.523654,-1.41249 0,-1.08864 0.771701,-1.6812 0.771701,-0.59256 2.191079,-0.59256 0.702799,0 1.322916,0.10336 0.620116,0.10335 1.143771,0.31005 z"
         id="path110455" />
      <path
         d="m 96.875922,113.50017 v 2.19108 h 2.611381 v 0.9853 h -2.611381 v 4.18923 q 0,0.94395 0.254937,1.21267 0.261827,0.26872 1.054199,0.26872 h 1.302245 v 1.06109 h -1.302245 q -1.46761,0 -2.025715,-0.54433 -0.558105,-0.55121 -0.558105,-1.99815 v -4.18923 h -0.930175 v -0.9853 h 0.930175 v -2.19108 z"
         id="path110452" />
      <path
         d="m 104.66183,119.52908 q -1.53651,0 -2.12906,0.3514 -0.59256,0.3514 -0.59256,1.19889 0,0.67524 0.44097,1.07487 0.44786,0.39274 1.21267,0.39274 1.0542,0 1.6881,-0.74414 0.64079,-0.75103 0.64079,-1.99126 v -0.2825 z m 2.5287,-0.52365 v 4.40283 h -1.26779 v -1.17134 q -0.43408,0.7028 -1.08176,1.04042 -0.64768,0.33073 -1.58474,0.33073 -1.18512,0 -1.88792,-0.66146 -0.6959,-0.66834 -0.6959,-1.78455 0,-1.30225 0.86816,-1.96371 0.87505,-0.66145 2.60449,-0.66145 h 1.77767 v -0.12403 q 0,-0.87505 -0.57878,-1.35047 -0.57188,-0.48232 -1.6123,-0.48232 -0.66146,0 -1.28847,0.15848 -0.627,0.15847 -1.20578,0.47542 v -1.17133 q 0.69591,-0.26872 1.35048,-0.39963 0.65456,-0.13781 1.27468,-0.13781 1.67432,0 2.50114,0.86817 0.82682,0.86816 0.82682,2.63205 z"
         id="path110449" />
      <path
         d="m 115.34162,119.55664 q 0,-1.3987 -0.57877,-2.19108 -0.57189,-0.79926 -1.57786,-0.79926 -1.00596,0 -1.58474,0.79926 -0.57188,0.79238 -0.57188,2.19108 0,1.39871 0.57188,2.19797 0.57878,0.79237 1.58474,0.79237 1.00597,0 1.57786,-0.79237 0.57877,-0.79926 0.57877,-2.19797 z m -4.31325,-2.69406 q 0.39963,-0.68902 1.00596,-1.01975 0.61323,-0.33762 1.46072,-0.33762 1.4056,0 2.28065,1.11621 0.88195,1.11621 0.88195,2.93522 0,1.81901 -0.88195,2.93522 -0.87505,1.11621 -2.28065,1.11621 -0.84749,0 -1.46072,-0.33073 -0.60633,-0.33762 -1.00596,-1.02663 v 1.15755 h -1.27469 v -10.72113 h 1.27469 z"
         id="path110446" />
      <path
         d="m 118.75915,115.69125 h 1.2678 v 7.71701 h -1.2678 z m 0,-3.00412 h 1.2678 v 1.60541 h -1.2678 z"
         id="path110443" />
      <path
         d="m 122.67967,112.68713 h 1.26779 v 10.72113 h -1.26779 z"
         id="path110440" />
      <path
         d="m 126.60018,115.69125 h 1.2678 v 7.71701 h -1.2678 z m 0,-3.00412 h 1.2678 v 1.60541 h -1.2678 z"
         id="path110437" />
      <path
         d="m 131.77471,113.50017 v 2.19108 h 2.61139 v 0.9853 h -2.61139 v 4.18923 q 0,0.94395 0.25494,1.21267 0.26183,0.26872 1.0542,0.26872 h 1.30225 v 1.06109 h -1.30225 q -1.46761,0 -2.02571,-0.54433 -0.55811,-0.55121 -0.55811,-1.99815 v -4.18923 h -0.93017 v -0.9853 h 0.93017 v -2.19108 z"
         id="path110434" />
      <path
         d="m 139.26435,124.12484 q -0.53744,1.37803 -1.04731,1.79833 -0.50988,0.42031 -1.36426,0.42031 h -1.01286 v -1.06109 h 0.74414 q 0.52366,0 0.81304,-0.24805 0.28939,-0.24805 0.64079,-1.17133 l 0.22738,-0.57878 -3.12126,-7.59298 h 1.34359 l 2.41157,6.0358 2.41156,-6.0358 h 1.34359 z"
         id="path110431" />
    </g>
    <path
       id="path110428"
       style="fill:#1a237e;fill-opacity:0.504361;stroke-width:1.3;stroke-linecap:round;stroke-linejoin:round"
       d="m 77.93001,78.647781 a 2.4126151,2.4126151 0 0 1 -2.412615,2.412615 2.4126151,2.4126151 0 0 1 -2.412615,-2.412615 2.4126151,2.4126151 0 0 1 2.412615,-2.412615 2.4126151,2.4126151 0 0 1 2.412615,2.412615 z" />
    <path
       id="path110425"
       style="fill:#1a237e;fill-opacity:0.504361;stroke-width:1.3;stroke-linecap:round;stroke-linejoin:round"
       d="m 77.93001,98.318909 a 2.4126151,2.4126151 0 0 1 -2.412615,2.412611 2.4126151,2.4126151 0 0 1 -2.412615,-2.412611 2.4126151,2.4126151 0 0 1 2.412615,-2.412615 2.4126151,2.4126151 0 0 1 2.412615,2.412615 z" />
    <path
       id="path110422"
       style="fill:#1a237e;fill-opacity:0.504361;stroke-width:1.3;stroke-linecap:round;stroke-linejoin:round"
       d="m 77.93001,118.05956 a 2.4126151,2.4126151 0 0 1 -2.412615,2.41262 2.4126151,2.4126151 0 0 1 -2.412615,-2.41262 2.4126151,2.4126151 0 0 1 2.412615,-2.41261 2.4126151,2.4126151 0 0 1 2.412615,2.41261 z" />
  </g>
</svg>
