<?xml version="1.0" encoding="UTF-8" standalone="no"?>
<!-- Created with Inkscape (http://www.inkscape.org/) -->

<svg
   width="408.46686mm"
   height="228.28961mm"
   viewBox="0 0 408.46686 228.28961"
   version="1.1"
   id="svg5"
   inkscape:version="1.2.2 (1:1.2.2+202212051551+b0a8486541)"
   sodipodi:docname="sciml1.svg"
   xmlns:inkscape="http://www.inkscape.org/namespaces/inkscape"
   xmlns:sodipodi="http://sodipodi.sourceforge.net/DTD/sodipodi-0.dtd"
   xmlns="http://www.w3.org/2000/svg"
   xmlns:svg="http://www.w3.org/2000/svg">
  <sodipodi:namedview
     id="namedview7"
     pagecolor="#ffffff"
     bordercolor="#000000"
     borderopacity="0.25"
     inkscape:showpageshadow="2"
     inkscape:pageopacity="0.0"
     inkscape:pagecheckerboard="0"
     inkscape:deskcolor="#d1d1d1"
     inkscape:document-units="mm"
     showgrid="false"
     inkscape:zoom="0.5946522"
     inkscape:cx="739.08749"
     inkscape:cy="242.15836"
     inkscape:window-width="1874"
     inkscape:window-height="1043"
     inkscape:window-x="0"
     inkscape:window-y="0"
     inkscape:window-maximized="1"
     inkscape:current-layer="layer1"
     showguides="false" />
  <defs
     id="defs2">
    <inkscape:path-effect
       effect="spiro"
       id="path-effect109041"
       is_visible="true"
       lpeversion="1" />
    <inkscape:path-effect
       effect="spiro"
       id="path-effect109037"
       is_visible="true"
       lpeversion="1" />
    <inkscape:path-effect
       effect="spiro"
       id="path-effect54312"
       is_visible="true"
       lpeversion="1" />
    <inkscape:path-effect
       effect="spiro"
       id="path-effect41175"
       is_visible="true"
       lpeversion="1" />
    <inkscape:path-effect
       effect="spiro"
       id="path-effect39711"
       is_visible="true"
       lpeversion="1" />
    <inkscape:path-effect
       effect="spiro"
       id="path-effect38979"
       is_visible="true"
       lpeversion="1" />
    <rect
       x="-51.651779"
       y="211.16927"
       width="883.03326"
       height="69.650742"
       id="rect38000" />
  </defs>
  <g
     inkscape:label="Layer 1"
     inkscape:groupmode="layer"
     id="layer1"
     transform="translate(-63.378742,14.581246)">
    <rect
       style="fill:#ffffff;fill-opacity:1;stroke:none;stroke-width:1.31083;stroke-linecap:round;stroke-linejoin:round;stroke-dasharray:none;stroke-opacity:0.500047"
       id="rect114760"
       width="407.15604"
       height="226.97878"
       x="64.034157"
       y="-13.925831" />
    <g
       id="surface1"
       transform="matrix(3.7170978,0,0,3.7170978,-429.6247,-471.86873)"
       style="fill:#1a237e;fill-opacity:1">
      <g
         style="fill:#1a237e;fill-opacity:1"
         id="g1612">
        <g
           id="use1610"
           transform="translate(150.021,130.32001)"
           style="fill:#1a237e;fill-opacity:1">
          <path
             d="m 3.65625,-2.359375 c -0.09375,-0.40625 -0.40625,-0.8125 -1.0625,-0.8125 -0.984375,0 -1.78125,0.71875 -2.03125,1.359375 -0.046875,0.109375 -0.140625,0.390625 -0.140625,0.671875 0,0.484375 0.375,1.28125 1.453125,1.28125 1.8125,0 2.546875,-2.25 2.546875,-3.234375 0,-1.203125 -0.78125,-1.875 -1.71875,-1.875 C 1.5625,-4.96875 1.25,-4.0625 1.25,-3.859375 c 0,0.0625 0.046875,0.25 0.28125,0.25 0.25,0 0.390625,-0.203125 0.390625,-0.375 0,-0.1875 -0.140625,-0.25 -0.265625,-0.265625 C 2,-4.78125 2.578125,-4.78125 2.6875,-4.78125 c 0.53125,0 1.140625,0.328125 1.140625,1.328125 0,0.296875 -0.03125,0.546875 -0.15625,1.09375 z m -1.765625,2.28125 c -0.78125,0 -0.875,-0.59375 -0.875,-0.8125 0,-0.265625 0.1875,-0.953125 0.265625,-1.125 0.125,-0.328125 0.546875,-0.96875 1.34375,-0.96875 0.671875,0 0.890625,0.53125 0.890625,0.953125 0,0.46875 -0.453125,1.953125 -1.625,1.953125 z m 0,0"
             id="path1833"
             style="fill:#1a237e;fill-opacity:1" />
        </g>
      </g>
      <g
         style="fill:#1a237e;fill-opacity:1"
         id="g1616">
        <g
           id="use1614"
           transform="translate(154.70808,130.32001)"
           style="fill:#1a237e;fill-opacity:1">
          <path
             d="M 3.875,-2.625 C 3.90625,-2.71875 3.90625,-2.734375 3.90625,-2.78125 3.90625,-2.921875 3.796875,-3 3.671875,-3 3.59375,-3 3.46875,-2.96875 3.390625,-2.84375 3.359375,-2.796875 3.3125,-2.578125 3.28125,-2.4375 L 3.125,-1.859375 c -0.03125,0.171875 -0.25,1.046875 -0.28125,1.125 0,0 -0.3125,0.609375 -0.84375,0.609375 -0.484375,0 -0.484375,-0.453125 -0.484375,-0.578125 0,-0.375 0.15625,-0.8125 0.375,-1.359375 C 1.96875,-2.28125 2,-2.359375 2,-2.484375 2,-2.8125 1.71875,-3.078125 1.34375,-3.078125 0.640625,-3.078125 0.328125,-2.125 0.328125,-2 c 0,0.078125 0.09375,0.078125 0.125,0.078125 0.09375,0 0.09375,-0.03125 0.125,-0.109375 C 0.75,-2.609375 1.046875,-2.875 1.328125,-2.875 1.4375,-2.875 1.5,-2.796875 1.5,-2.640625 c 0,0.171875 -0.0625,0.3125 -0.09375,0.40625 C 1.0625,-1.375 1,-1.125 1,-0.8125 1,-0.703125 1,-0.375 1.265625,-0.140625 1.484375,0.03125 1.78125,0.0625 1.96875,0.0625 2.25,0.0625 2.5,-0.03125 2.71875,-0.25 2.640625,0.140625 2.5625,0.4375 2.265625,0.78125 2.078125,1 1.796875,1.21875 1.421875,1.21875 c -0.046875,0 -0.375,0 -0.515625,-0.21875 0.375,-0.046875 0.375,-0.375 0.375,-0.390625 0,-0.21875 -0.203125,-0.265625 -0.265625,-0.265625 -0.171875,0 -0.40625,0.140625 -0.40625,0.46875 0,0.34375 0.328125,0.609375 0.828125,0.609375 C 2.140625,1.421875 3,0.875 3.21875,0 Z m 0,0"
             id="path1845"
             style="fill:#1a237e;fill-opacity:1" />
        </g>
      </g>
      <path
         style="color:#000000;fill:#1a237e;fill-opacity:1;stroke-miterlimit:10;-inkscape-stroke:none"
         d="m -0.00195313,-0.19921875 v 0.3984375 H 9.2011719 v -0.3984375 z"
         id="path1618"
         transform="matrix(1,0,0,-1,149.908,132.274)" />
      <g
         style="fill:#1a237e;fill-opacity:1"
         id="g1622">
        <g
           id="use1620"
           transform="translate(149.908,138.2)"
           style="fill:#1a237e;fill-opacity:1">
          <path
             d="m 3.65625,-2.359375 c -0.09375,-0.40625 -0.40625,-0.8125 -1.0625,-0.8125 -0.984375,0 -1.78125,0.71875 -2.03125,1.359375 -0.046875,0.109375 -0.140625,0.390625 -0.140625,0.671875 0,0.484375 0.375,1.28125 1.453125,1.28125 1.8125,0 2.546875,-2.25 2.546875,-3.234375 0,-1.203125 -0.78125,-1.875 -1.71875,-1.875 C 1.5625,-4.96875 1.25,-4.0625 1.25,-3.859375 c 0,0.0625 0.046875,0.25 0.28125,0.25 0.25,0 0.390625,-0.203125 0.390625,-0.375 0,-0.1875 -0.140625,-0.25 -0.265625,-0.265625 C 2,-4.78125 2.578125,-4.78125 2.6875,-4.78125 c 0.53125,0 1.140625,0.328125 1.140625,1.328125 0,0.296875 -0.03125,0.546875 -0.15625,1.09375 z m -1.765625,2.28125 c -0.78125,0 -0.875,-0.59375 -0.875,-0.8125 0,-0.265625 0.1875,-0.953125 0.265625,-1.125 0.125,-0.328125 0.546875,-0.96875 1.34375,-0.96875 0.671875,0 0.890625,0.53125 0.890625,0.953125 0,0.46875 -0.453125,1.953125 -1.625,1.953125 z m 0,0"
             id="path1837"
             style="fill:#1a237e;fill-opacity:1" />
        </g>
      </g>
      <g
         style="fill:#1a237e;fill-opacity:1"
         id="g1626">
        <g
           id="use1624"
           transform="translate(154.58812,138.2)"
           style="fill:#1a237e;fill-opacity:1">
          <path
             d="M 1.734375,-0.734375 C 1.671875,-0.5 1.4375,-0.125 1.078125,-0.125 c -0.015625,0 -0.234375,0 -0.375,-0.09375 0.28125,-0.09375 0.3125,-0.34375 0.3125,-0.390625 0,-0.15625 -0.125,-0.25 -0.28125,-0.25 -0.203125,0 -0.40625,0.15625 -0.40625,0.421875 0,0.34375 0.390625,0.5 0.734375,0.5 0.328125,0 0.609375,-0.1875 0.78125,-0.484375 C 2.015625,-0.0625 2.390625,0.0625 2.671875,0.0625 c 0.8125,0 1.234375,-0.859375 1.234375,-1.0625 0,-0.09375 -0.09375,-0.09375 -0.109375,-0.09375 -0.109375,0 -0.109375,0.046875 -0.140625,0.125 -0.140625,0.484375 -0.5625,0.84375 -0.953125,0.84375 -0.28125,0 -0.421875,-0.1875 -0.421875,-0.453125 0,-0.1875 0.171875,-0.8125 0.359375,-1.59375 C 2.78125,-2.703125 3.09375,-2.875 3.328125,-2.875 c 0.015625,0 0.21875,0 0.375,0.09375 -0.21875,0.0625 -0.3125,0.265625 -0.3125,0.390625 0,0.140625 0.125,0.25 0.28125,0.25 0.15625,0 0.390625,-0.125 0.390625,-0.421875 0,-0.390625 -0.453125,-0.515625 -0.71875,-0.515625 -0.359375,0 -0.640625,0.234375 -0.78125,0.5 -0.125,-0.28125 -0.453125,-0.5 -0.84375,-0.5 C 0.9375,-3.078125 0.5,-2.21875 0.5,-2 c 0,0.078125 0.09375,0.078125 0.109375,0.078125 0.09375,0 0.09375,-0.015625 0.140625,-0.109375 C 0.921875,-2.578125 1.359375,-2.875 1.703125,-2.875 1.9375,-2.875 2.125,-2.75 2.125,-2.421875 2.125,-2.28125 2.03125,-1.9375 1.96875,-1.6875 Z m 0,0"
             id="path1841"
             style="fill:#1a237e;fill-opacity:1" />
        </g>
      </g>
    </g>
    <text
       xml:space="preserve"
       transform="matrix(0.26458333,0,0,0.26458333,73.847488,-5.9258372)"
       id="text37998"
       style="font-style:normal;font-variant:normal;font-weight:normal;font-stretch:normal;font-size:53.3333px;font-family:sans-serif;-inkscape-font-specification:sans-serif;white-space:pre;shape-inside:url(#rect38000);display:inline;fill:#000000;fill-opacity:1;stroke:none;stroke-width:5.38583;stroke-linecap:round;stroke-linejoin:round;stroke-opacity:1" />
    <g
       aria-label="mechanistic modeling"
       transform="scale(0.96066511,1.0409455)"
       id="text108699"
       style="font-size:13.556px;-inkscape-font-specification:sans-serif;fill:#1a237e;stroke-width:1.24886;stroke-linecap:round;stroke-linejoin:round">
      <path
         d="m 82.981992,53.565342 q 0.450101,-0.68839 1.065681,-1.045824 0.6222,-0.364053 1.363543,-0.364053 1.277494,0 1.946028,0.787678 0.668533,0.787678 0.668533,2.290223 v 4.514254 h -2.382891 v -3.865578 q 0.0066,-0.08605 0.0066,-0.178717 0.0066,-0.09267 0.0066,-0.264766 0,-0.787678 -0.23167,-1.138492 -0.23167,-0.357434 -0.747963,-0.357434 -0.675153,0 -1.045824,0.556008 -0.364053,0.556008 -0.377292,1.608451 v 3.640528 h -2.38289 v -3.865578 q 0,-1.231161 -0.211813,-1.581975 -0.211812,-0.357434 -0.754582,-0.357434 -0.681771,0 -1.052443,0.562627 -0.370672,0.556008 -0.370672,1.595213 v 3.647147 h -2.38289 v -7.413438 h 2.38289 v 1.085539 q 0.436863,-0.628818 0.99949,-0.946537 0.569246,-0.317719 1.251018,-0.317719 0.76782,0 1.356924,0.370672 0.589103,0.370672 0.893584,1.039205 z"
         style="font-weight:bold"
         id="path110599" />
      <path
         d="m 97.636769,56.021044 v 0.675152 h -5.540221 q 0.08605,0.834012 0.602342,1.251017 0.516293,0.417006 1.442973,0.417006 0.747963,0 1.529021,-0.218431 0.787678,-0.225051 1.615071,-0.675153 v 1.826883 q -0.840631,0.317719 -1.681262,0.476578 -0.840631,0.165479 -1.681262,0.165479 -2.012219,0 -3.130853,-1.019348 -1.112016,-1.025967 -1.112016,-2.872707 0,-1.813644 1.092158,-2.852849 1.098778,-1.039206 3.018328,-1.039206 1.747453,0 2.793278,1.052444 1.052443,1.052443 1.052443,2.813135 z m -2.435844,-0.787678 q 0,-0.675153 -0.397148,-1.085539 -0.390529,-0.417006 -1.025967,-0.417006 -0.688391,0 -1.118635,0.390529 -0.430244,0.38391 -0.53615,1.112016 z"
         style="font-weight:bold"
         id="path110596" />
      <path
         d="m 105.42088,52.565852 v 1.932789 q -0.4832,-0.330957 -0.97301,-0.489816 -0.4832,-0.15886 -1.00611,-0.15886 -0.99288,0 -1.54888,0.582485 -0.54939,0.575865 -0.54939,1.61507 0,1.039205 0.54939,1.62169 0.556,0.575865 1.54888,0.575865 0.556,0 1.05244,-0.165479 0.50305,-0.165478 0.92668,-0.489816 v 1.939408 q -0.55601,0.205193 -1.13187,0.30448 -0.56925,0.105907 -1.14512,0.105907 -2.00559,0 -3.13747,-1.025967 -1.131871,-1.032586 -1.131871,-2.866088 0,-1.833502 1.131871,-2.859469 1.13188,-1.032586 3.13747,-1.032586 0.58249,0 1.14512,0.105907 0.56924,0.09929 1.13187,0.30448 z"
         style="font-weight:bold"
         id="path110593" />
      <path
         d="m 114.91935,55.233366 v 4.514254 h -2.38289 v -0.734725 -2.707228 q 0,-0.973014 -0.0463,-1.337067 -0.0397,-0.364053 -0.14562,-0.53615 -0.139,-0.23167 -0.37729,-0.357434 -0.23829,-0.132383 -0.54277,-0.132383 -0.74134,0 -1.16497,0.575866 -0.42362,0.569246 -0.42362,1.581974 v 3.647147 h -2.36966 V 49.448237 h 2.36966 v 3.971484 q 0.53615,-0.648675 1.13849,-0.953156 0.60234,-0.3111 1.33045,-0.3111 1.28411,0 1.94602,0.787678 0.66854,0.787678 0.66854,2.290223 z"
         style="font-weight:bold"
         id="path110590" />
      <path
         d="m 120.43971,56.411573 q -0.74134,0 -1.11864,0.251527 -0.37067,0.251527 -0.37067,0.741344 0,0.450101 0.29786,0.708248 0.30448,0.251527 0.84064,0.251527 0.66853,0 1.12525,-0.476578 0.45672,-0.483197 0.45672,-1.204683 v -0.271385 z m 3.62067,-0.893584 v 4.229631 h -2.38951 v -1.098778 q -0.47658,0.675153 -1.0723,0.986252 -0.59572,0.304481 -1.44959,0.304481 -1.15173,0 -1.87322,-0.668533 -0.71487,-0.675153 -0.71487,-1.747454 0,-1.30397 0.89359,-1.912931 0.9002,-0.608961 2.81975,-0.608961 h 1.39664 V 54.81636 q 0,-0.562627 -0.44348,-0.820773 -0.44349,-0.264766 -1.3834,-0.264766 -0.7612,0 -1.4165,0.15224 -0.65529,0.15224 -1.21792,0.456721 v -1.807026 q 0.7612,-0.185335 1.52902,-0.278003 0.76782,-0.09929 1.53564,-0.09929 2.0056,0 2.89257,0.794297 0.89358,0.787678 0.89358,2.568227 z"
         style="font-weight:bold"
         id="path110587" />
      <path
         d="m 133.7177,55.233366 v 4.514254 h -2.38289 v -0.734725 -2.720467 q 0,-0.959775 -0.0463,-1.323828 -0.0397,-0.364053 -0.14562,-0.53615 -0.139,-0.23167 -0.37729,-0.357434 -0.23829,-0.132383 -0.54277,-0.132383 -0.74135,0 -1.16497,0.575866 -0.42363,0.569246 -0.42363,1.581974 v 3.647147 h -2.36965 v -7.413438 h 2.36965 v 1.085539 q 0.53616,-0.648675 1.1385,-0.953156 0.60234,-0.3111 1.33044,-0.3111 1.28412,0 1.94603,0.787678 0.66853,0.787678 0.66853,2.290223 z"
         style="font-weight:bold"
         id="path110584" />
      <path
         d="m 135.91526,52.334182 h 2.36965 v 7.413438 h -2.36965 z m 0,-2.885945 h 2.36965 v 1.932789 h -2.36965 z"
         style="font-weight:bold"
         id="path110581" />
      <path
         d="m 146.35364,52.565852 v 1.800406 q -0.7612,-0.317718 -1.46945,-0.476578 -0.70825,-0.158859 -1.33706,-0.158859 -0.67516,0 -1.00611,0.172098 -0.32434,0.165478 -0.32434,0.516293 0,0.284623 0.24491,0.436863 0.25152,0.15224 0.89358,0.225051 l 0.41701,0.05957 q 1.82026,0.23167 2.44908,0.761201 0.62882,0.529531 0.62882,1.661404 0,1.184826 -0.87373,1.780549 -0.87373,0.595723 -2.60794,0.595723 -0.73473,0 -1.5224,-0.119145 -0.78106,-0.112525 -1.60845,-0.344195 v -1.800406 q 0.70824,0.344195 1.44959,0.516293 0.74796,0.172097 1.51578,0.172097 0.69501,0 1.04582,-0.191955 0.35082,-0.191955 0.35082,-0.569246 0,-0.317719 -0.24491,-0.469959 -0.23829,-0.158859 -0.95977,-0.244908 l -0.41701,-0.05295 q -1.58198,-0.198574 -2.21741,-0.734725 -0.63544,-0.53615 -0.63544,-1.628308 0,-1.178207 0.80753,-1.747453 0.80754,-0.569247 2.47556,-0.569247 0.6553,0 1.37678,0.09929 0.72149,0.09929 1.56874,0.311099 z"
         style="font-weight:bold"
         id="path110578" />
      <path
         d="m 151.21871,50.229296 v 2.104886 h 2.44246 v 1.6945 h -2.44246 v 3.144092 q 0,0.516293 0.20519,0.701629 0.2052,0.178717 0.81416,0.178717 h 1.21792 v 1.6945 h -2.03208 q -1.40325,0 -1.99236,-0.582485 -0.58248,-0.589103 -0.58248,-1.992361 v -3.144092 h -1.17821 v -1.6945 h 1.17821 v -2.104886 z"
         style="font-weight:bold"
         id="path110575" />
      <path
         d="m 155.11077,52.334182 h 2.36965 v 7.413438 h -2.36965 z m 0,-2.885945 h 2.36965 v 1.932789 h -2.36965 z"
         style="font-weight:bold"
         id="path110572" />
      <path
         d="m 165.74773,52.565852 v 1.932789 q -0.4832,-0.330957 -0.97302,-0.489816 -0.48319,-0.15886 -1.00611,-0.15886 -0.99287,0 -1.54888,0.582485 -0.54938,0.575865 -0.54938,1.61507 0,1.039205 0.54938,1.62169 0.55601,0.575865 1.54888,0.575865 0.55601,0 1.05245,-0.165479 0.50305,-0.165478 0.92668,-0.489816 v 1.939408 q -0.55601,0.205193 -1.13188,0.30448 -0.56924,0.105907 -1.14511,0.105907 -2.0056,0 -3.13747,-1.025967 -1.13187,-1.032586 -1.13187,-2.866088 0,-1.833502 1.13187,-2.859469 1.13187,-1.032586 3.13747,-1.032586 0.58249,0 1.14511,0.105907 0.56925,0.09929 1.13188,0.30448 z"
         style="font-weight:bold"
         id="path110569" />
      <path
         d="m 179.38315,53.565342 q 0.4501,-0.68839 1.06568,-1.045824 0.6222,-0.364053 1.36355,-0.364053 1.27749,0 1.94602,0.787678 0.66854,0.787678 0.66854,2.290223 v 4.514254 h -2.38289 v -3.865578 q 0.007,-0.08605 0.007,-0.178717 0.007,-0.09267 0.007,-0.264766 0,-0.787678 -0.23167,-1.138492 -0.23167,-0.357434 -0.74797,-0.357434 -0.67515,0 -1.04582,0.556008 -0.36405,0.556008 -0.37729,1.608451 v 3.640528 h -2.38289 v -3.865578 q 0,-1.231161 -0.21182,-1.581975 -0.21181,-0.357434 -0.75458,-0.357434 -0.68177,0 -1.05244,0.562627 -0.37067,0.556008 -0.37067,1.595213 v 3.647147 h -2.38289 v -7.413438 h 2.38289 v 1.085539 q 0.43686,-0.628818 0.99949,-0.946537 0.56924,-0.317719 1.25102,-0.317719 0.76782,0 1.35692,0.370672 0.5891,0.370672 0.89358,1.039205 z"
         style="font-weight:bold"
         id="path110566" />
      <path
         d="m 190.16574,53.849965 q -0.78768,0 -1.20468,0.569247 -0.41039,0.562626 -0.41039,1.628308 0,1.065682 0.41039,1.634928 0.417,0.562627 1.20468,0.562627 0.77444,0 1.18482,-0.562627 0.41039,-0.569246 0.41039,-1.634928 0,-1.065682 -0.41039,-1.628308 -0.41038,-0.569247 -1.18482,-0.569247 z m 0,-1.6945 q 1.91293,0 2.98523,1.032586 1.07892,1.032586 1.07892,2.859469 0,1.826883 -1.07892,2.859469 -1.0723,1.032586 -2.98523,1.032586 -1.91955,0 -3.00509,-1.032586 -1.07892,-1.032586 -1.07892,-2.859469 0,-1.826883 1.07892,-2.859469 1.08554,-1.032586 3.00509,-1.032586 z"
         style="font-weight:bold"
         id="path110563" />
      <path
         d="m 200.99465,53.419721 v -3.971484 h 2.38289 V 59.74762 h -2.38289 v -1.072301 q -0.48982,0.655295 -1.07892,0.959775 -0.58911,0.304481 -1.36355,0.304481 -1.37016,0 -2.2505,-1.085539 -0.88035,-1.092159 -0.88035,-2.806516 0,-1.714357 0.88035,-2.799896 0.88034,-1.092159 2.2505,-1.092159 0.76782,0 1.35693,0.3111 0.59572,0.304481 1.08554,0.953156 z m -1.56212,4.798877 q 0.7612,0 1.15835,-0.556008 0.40377,-0.556007 0.40377,-1.61507 0,-1.059062 -0.40377,-1.61507 -0.39715,-0.556008 -1.15835,-0.556008 -0.75458,0 -1.15835,0.556008 -0.39715,0.556008 -0.39715,1.61507 0,1.059063 0.39715,1.61507 0.40377,0.556008 1.15835,0.556008 z"
         style="font-weight:bold"
         id="path110560" />
      <path
         d="m 213.05472,56.021044 v 0.675152 h -5.54022 q 0.0861,0.834012 0.60234,1.251017 0.51629,0.417006 1.44297,0.417006 0.74797,0 1.52903,-0.218431 0.78767,-0.225051 1.61507,-0.675153 v 1.826883 q -0.84063,0.317719 -1.68127,0.476578 -0.84063,0.165479 -1.68126,0.165479 -2.01222,0 -3.13085,-1.019348 -1.11202,-1.025967 -1.11202,-2.872707 0,-1.813644 1.09216,-2.852849 1.09878,-1.039206 3.01833,-1.039206 1.74745,0 2.79328,1.052444 1.05244,1.052443 1.05244,2.813135 z m -2.43584,-0.787678 q 0,-0.675153 -0.39715,-1.085539 -0.39053,-0.417006 -1.02597,-0.417006 -0.68839,0 -1.11863,0.390529 -0.43025,0.38391 -0.53615,1.112016 z"
         style="font-weight:bold"
         id="path110557" />
      <path
         d="m 214.84851,49.448237 h 2.36965 V 59.74762 h -2.36965 z"
         style="font-weight:bold"
         id="path110554" />
      <path
         d="m 219.49514,52.334182 h 2.36966 v 7.413438 h -2.36966 z m 0,-2.885945 h 2.36966 v 1.932789 h -2.36966 z"
         style="font-weight:bold"
         id="path110551" />
      <path
         d="m 231.59493,55.233366 v 4.514254 h -2.38289 v -0.734725 -2.720467 q 0,-0.959775 -0.0463,-1.323828 -0.0397,-0.364053 -0.14562,-0.53615 -0.139,-0.23167 -0.37729,-0.357434 -0.23829,-0.132383 -0.54277,-0.132383 -0.74135,0 -1.16497,0.575866 -0.42363,0.569246 -0.42363,1.581974 v 3.647147 h -2.36965 v -7.413438 h 2.36965 v 1.085539 q 0.53615,-0.648675 1.13849,-0.953156 0.60235,-0.3111 1.33045,-0.3111 1.28412,0 1.94603,0.787678 0.66853,0.787678 0.66853,2.290223 z"
         style="font-weight:bold"
         id="path110548" />
      <path
         d="m 238.83628,58.489983 q -0.48982,0.648676 -1.07892,0.953156 -0.58911,0.304481 -1.36355,0.304481 -1.35692,0 -2.24388,-1.065682 -0.88697,-1.072301 -0.88697,-2.727086 0,-1.661404 0.88697,-2.720467 0.88696,-1.065681 2.24388,-1.065681 0.77444,0 1.36355,0.30448 0.5891,0.304481 1.07892,0.959776 v -1.098778 h 2.38289 v 6.665475 q 0,1.787168 -1.13188,2.727086 -1.12525,0.946537 -3.26985,0.946537 -0.69501,0 -1.34369,-0.105907 -0.64867,-0.105906 -1.30397,-0.324337 v -1.846741 q 0.6222,0.357434 1.21792,0.529532 0.59573,0.178716 1.19807,0.178716 1.16497,0 1.70774,-0.509673 0.54277,-0.509674 0.54277,-1.595213 z m -1.56212,-4.613541 q -0.73473,0 -1.14511,0.54277 -0.41039,0.542769 -0.41039,1.53564 0,1.019348 0.39715,1.548879 0.39715,0.522912 1.15835,0.522912 0.74134,0 1.15173,-0.542769 0.41039,-0.54277 0.41039,-1.529022 0,-0.992871 -0.41039,-1.53564 -0.41039,-0.54277 -1.15173,-0.54277 z"
         style="font-weight:bold"
         id="path110545" />
    </g>
  </g>
</svg>
